M48
;Layer_Color=6321
;FILE_FORMAT=2:5
INCH,LZ
;TYPE=PLATED
T1F00S00C0.02800
T2F00S00C0.02900
T3F00S00C0.02953
T4F00S00C0.03000
T5F00S00C0.03150
T6F00S00C0.03543
T7F00S00C0.03600
T8F00S00C0.03800
T9F00S00C0.03937
T11F00S00C0.04000
T12F00S00C0.04331
T13F00S00C0.04331
T14F00S00C0.04724
T15F00S00C0.05000
T16F00S00C0.05512
T17F00S00C0.05906
T18F00S00C0.06000
T20F00S00C0.09449
T21F00S00C0.11811
;TYPE=NON_PLATED
T22F00S00C0.08700
%
T01
X02225Y01475
X02625
X02695
X03095
X0317
X0357
X0365
X0405
X0412
X0452
X046
X05
X0484Y0263
X04945Y02735
X0405521Y0262021
X03645Y0257
X03575
X03495
X0341
X030316Y0256441
X0284Y0248
X027Y0241
X0263
X02675Y02315
X02485
X02425Y02355
X02485Y02425
Y0249
Y02555
X024825Y0262
X0248252Y02685
X0267Y0277
X02595Y02185
X0187186Y030871
X0144836Y029653
X01395Y02885
X01355Y03035
X01275Y0296532
X01215Y03085
X0121359Y031514
X013965Y0344076
X011725Y040675
X01175Y04295
X0128Y04445
X01285Y0457
X0145Y04565
X0168Y0466
X0172Y045
X0213Y0459
X02255Y04635
X0244Y0467
X0247Y04515
X02485Y04435
X02415
X0237Y0439
X02315Y04345
Y0428
Y04215
X0213
X0216Y0399
X02235Y03655
Y0345
X0183512Y0343767
X0183749Y0351239
X01675Y03615
X0187492Y0315293
X02605Y03795
X0278Y0395
X02735Y04005
X0266Y04075
X02605Y0413
X0259Y0427
X0261806Y0453629
X0255Y04535
X02695Y0465
X03025Y04345
X03095Y04315
X0226Y04415
X0318Y0452
X0323Y04565
X0331125Y0447875
X0318Y0428
X0316198Y0419135
X03125Y0409
Y0389
X03285Y04145
X0349Y03955
X0351Y03855
X0355Y0376
X03545Y0366
X0356Y03555
X036175Y0348875
X03875Y03505
X0399Y03575
X04Y0386
X04485Y0396
X0449Y0421
X0456
X0463
X0441778Y0421165
X04355Y04215
X0421Y04305
Y04365
X0421031Y0443091
X04215Y04655
X0389679Y0465151
X0377Y04245
X0383Y03365
X0395Y0332
X03985Y03255
X0371Y033
X03705Y03125
X03285Y03365
X03215
X0455Y032
X0468Y04425
X04735Y04375
X0478763Y043208
X04785Y0421
X04865
X0494
X0511
X05105Y04465
X05Y04555
X048052Y0453424
X0486873Y0446793
X04705Y0421
X05Y0396
X04995Y03815
X0579Y04115
X06Y0424
X057675Y034025
X05765Y032
X0564954Y0330987
X0681Y0435
X0483Y04735
X04715Y04855
Y05195
X0452847Y0528888
X0457287Y053484
X04635Y0485
X0402Y05055
X03885
X0378Y0499
X0372Y0504
X0377Y0475
X0338Y0476
Y04695
X0331
X03235
X0331843Y0489518
X0338122Y0484341
X0345182Y0541611
X0346Y05485
X03185Y05365
X0313522Y0524297
X02905Y05205
X029Y05345
X0298Y05465
X03105Y0567
X02715Y0525
X02525Y05435
X0246921Y05385
X02325Y0541
X02275Y0546
X02225Y05355
X02195Y05135
Y04965
X0242Y04945
X02445Y05065
X0253Y0503
X0252Y04705
X02585
X0265
X02365Y04745
X02285
X0196803Y0490106
X01905Y049
X0179547Y0495783
X0171101Y0490763
X0164083Y0480869
X0180459Y0480511
X0172853Y0470936
X01645Y05245
X02155Y0555
X01485Y05145
X0148309Y0496161
X0151Y04825
X0141Y0476
X0121987Y0473283
X012229Y0491016
X0129Y0491
X01155
X01295Y0515
X0129271Y0524183
T02
X056Y04375
X06
X06305
X06705
T03
X04185Y04805
X04315
X04435
Y05205
X04315
X04185
T04
X06525Y0278126
Y0288126
Y0298126
Y0308126
X06225
Y0298126
Y0288126
Y0278126
X05145
Y0288126
Y0298126
Y0308126
X04845
Y0298126
Y0288126
Y0278126
X0286Y0352626
Y0362626
Y0372626
Y0382626
X02225Y04095
Y0430287
X0316Y0382626
Y0372626
Y0362626
Y0352626
T05
X0495Y0194501
Y0234501
X04665
X0447
X04185
X0399
X0372
X0351999Y0234501
X0325Y0234501
Y0194501
X0351999Y0194501
X0372Y0194501
X0399
X04185
X0447
X04665
X0304499Y0194501
X02775Y0194501
X0256499Y0194501
X023Y01945
Y02345
X0256499Y0234501
X02775Y0234501
X0304499Y0234501
X0444499Y0331
X0484499
X05825Y0331
X06225
T06
X0364Y04905
X0374
X0394Y049025
X0404
T07
X0385Y03075
X0395
X0405
X0415
X0425
X0435
X0445
X03313Y05365
X0305705
T08
X01055Y0387047
Y039689
Y0406732
Y0416575
Y0426417
Y043626
Y0446102
Y0455945
Y0465787
X02045Y0465945
Y0456102
Y044626
Y0436417
Y0426575
Y0416732
Y040689
Y0397047
Y0387205
Y0475787
Y048563
Y0495472
Y0505315
Y0515158
Y0525
Y0535157
Y0545
Y0554685
Y0564685
X01055Y0564528
Y0554528
Y0544842
Y0535
Y0524843
Y0515
Y0505158
Y0495315
Y0485472
Y047563
T09
X0703342Y02775
X0713421
X07235
X05885
X0578421
X0568342
X03435Y0278
Y0288
Y0298
Y0308
X03305
Y0298
Y0288
Y0278
X03175
Y0288
Y0298
Y0308
X03045
Y0298
Y0288
Y0278
X02915
Y0288
Y0298
Y0308
X02785
Y0298
Y0288
Y0278
X0268Y0387
X0258
X0248
X0238
X0228
X0218
X0286Y04465
X0296
Y04565
X0286
X0336Y0406
Y0396
Y0386
Y0376
Y0366
Y0356
X0378
Y0366
Y0376
Y0386
Y0396
Y0406
X0418
Y0396
Y0386
Y0376
Y0366
Y0356
X05565Y0366
Y0376
Y0386
Y0396
X059Y0487
X0496Y05005
X04845
X04725
Y05405
X04845
X0496
X0493Y0556
X0503
X0483
X0473
X0434
X0424
X0414
X0404
X0394
X0384
X0374
X0364
Y05345
X0374
X0384
X0394
X0412843
X0422921
X0433
X0394Y05125
X0384
X0374
X0364
T11
X06455Y04585
X0715Y0458
X0734
X07535
X07505Y0436
X07005
X0715Y0508
X0734
X07535
X06455Y05085
T12
X0286Y04045
Y04145
Y04245
X0296
Y04145
Y04045
T13
X047Y01655
X048
X049
X04425
X04325
X04225
X0395
X0385
X0375
X03475
X03375
X03275
X03005
X02905
X02805
X02535
X02435
X02335
X06725Y05085
X06825
X06925
X0622
X0612
X0602
T14
X02545Y02775
Y02875
X0109
Y02775
X01095Y0325
Y0335
X02545
Y0325
T15
X0233Y01165
X0253
X02805
X03005
X03275
X03475
X03755
X03955
X0423
X0443
X04705
X04905
T16
X0167Y02465
Y0256343
X015322
Y02465
X0130386
Y0256343
X0116606
Y02465
T17
X06415Y05475
X0664
X0684
X0704
X07265
X07465
X07665
X06215
X06015
T18
X02005Y02045
Y02595
T20
X0141803Y0251421
T21
X01125Y0113
X05265Y0111
X0633
X06585
X0764
X07885Y0113
X0764Y02555
X06585
X0633Y0256
X05265Y02555
X045Y0359
X07905Y05605
X0125
T22
X0116Y02155
M30
