M48
;Layer_Color=6321
;FILE_FORMAT=2:4
INCH,TZ
;TYPE=PLATED
T1F00S00C0.0079
T2F00S00C0.0250
T3F00S00C0.0280
T4F00S00C0.0290
T5F00S00C0.0300
T6F00S00C0.0320
T7F00S00C0.0354
T8F00S00C0.0360
T9F00S00C0.0394
T11F00S00C0.0400
T12F00S00C0.0433
T13F00S00C0.0433
T14F00S00C0.0500
T15F00S00C0.0512
T16F00S00C0.0591
T17F00S00C0.0600
T19F00S00C0.1181
%
T01
X17717Y38228
T02
X88071Y14016
Y15984
Y21457
Y23425
Y28976
Y30945
X20661Y32165
X19661
X18661
X88110Y36417
Y38386
Y43858
Y45827
Y51299
Y53268
T03
X47000Y20100
X48029Y19983
X49055Y30197
X62244Y30157
X43071Y29094
X42441Y30709
X42250Y20100
X43290Y20000
X38525Y20009
X37500Y20100
X33750Y20000
X32750Y20100
X29000Y20000
X28000Y20100
X24250Y20050
X23250Y20100
X12874Y35472
X10630Y35472
X11260Y38346
X13858Y37756
X13898Y39016
X12795Y41496
X11693Y41142
X12756Y46496
X21575Y45866
X22540Y46535
X24488Y46693
X25600Y46250
X26575Y46220
X24950Y44350
X24150
X23600Y43800
X22847Y43583
X23150Y42800
X23050Y41950
Y40200
X24016Y39528
X25500Y41450
X25900Y42700
X27350Y40050
X27800Y39500
X30906Y45079
X18858Y40748
X18819Y39409
X18740Y36732
X16614Y36969
X31457Y42087
X35748Y41378
X37992Y42402
X38700Y44350
X38950Y45250
X38050Y45300
X34750Y44050
X41496Y42165
X42520Y32874
X42441Y31457
X54331Y39961
X63976
X80394Y54724
X44291Y50433
X43504
X42717Y50344
X42047Y49882
X41693Y48740
X41043Y49213
X40276Y48307
X40354Y47520
X37480Y47244
X33543Y48150
X32717Y48780
X31614Y48307
X31511Y52700
X31654Y54134
X34134Y53504
X34150Y52550
X34850Y51600
X34843Y50866
X39370Y51968
X30950Y51150
X30118Y48858
X28071Y49016
X27992Y47283
X23800Y47500
X22850Y47450
X21260Y47441
Y48268
Y49449
X22244Y49528
X24173Y49567
X25079Y50591
X24692Y53850
X23250Y54100
X21772Y54291
X21201Y53445
X19094Y53386
X17874Y53307
X18071Y52480
Y51732
X19075Y50276
X19094Y48740
X17717Y48110
X16772
X22205Y55512
X22283Y56457
X26260Y53661
X28900Y53750
X28800Y54700
X29567Y54213
X30827Y54252
X30000Y55827
X13898Y53307
X10984Y53819
X11850Y51339
X11850Y50394
Y49646
Y48150
X13937Y49291
X15315Y48150
T04
X51496Y39882
Y43882
X61209Y43853
Y39853
T05
X79016Y11181
X83819
Y15906
Y18701
Y23425
Y26181
Y30906
X79016
Y26181
Y23425
Y18701
Y15906
X66513Y27673
X65513
X64513
X63513
Y30673
X64513
X65513
X66513
X53599
X52599
X51599
X50599
Y27673
X51599
X52599
X53599
X23450Y22950
X14961Y25591
X13961
X18425Y34685
X19425
X21772Y41417
Y43496
X32173Y40394
X33173
X34173
X35173
Y37394
X34173
X33173
X32173
X79055Y38425
X79055Y41102
Y45827
X83858
Y41102
X83858Y38425
Y33701
X79055
X79055Y48543
Y53268
X83858
Y48543
T06
X73185Y27453
Y28453
X73181Y29724
Y30724
X76181
Y29724
X76185Y28453
Y27453
X60665Y32020
Y33020
X63665
Y32020
X64839Y32059
Y33059
X67839
Y32059
X69012Y32020
Y33020
X72012
Y32020
X73185
Y33020
X76185
Y32020
T07
X36402Y51339
X37402
X40906Y53465
X41906
X43400Y53450
X44400
T08
X41260Y30937
Y31937
Y32937
Y33937
Y34937
Y35937
Y36937
Y37937
Y38937
X67386Y41256
X68386
X69386
Y44256
X68386
X67386
X32441Y52520
X29881
T09
X86772Y10785
Y14785
Y18186
Y22186
Y25627
Y29627
X70416Y27750
X69408
X68400
X57500Y27775
X56492
X55484
X48953Y25197
X47953
X46953
Y23976
X47953
X48953
Y22756
X47953
X46953
X45953
Y23976
Y25197
X34450Y27787
Y28787
Y29787
Y30787
X33150
Y29787
Y28787
Y27787
X31850Y27787
Y28787
Y29787
Y30787
X30550Y30800
Y29800
Y28800
Y27800
X29250
Y28800
Y29800
Y30800
X23346Y30118
Y28150
X25661Y37283
X26669
X27677
X27685Y38583
X26677
X25669
X28600Y44650
X29600
Y45650
X28600
X86811Y44627
Y40627
X86811Y37186
Y33186
X86811Y48029
Y52029
X43216Y55750
X42208
X41200
X39350
X38350
X37350
X36350
X36400Y53450
X37400
X38400
X39400
T11
X91024Y17244
Y18228
Y19213
X91024Y24803
Y25787
Y26772
X69961Y30669
X68976
X67992
X56772
X55787
X54803
X57459Y40103
X59509
Y45103
X57459
X72087Y46358
X74055
X91024Y41732
Y40748
Y39764
Y34291
Y33307
Y32323
Y47165
Y48150
Y49134
Y54646
Y55630
Y56614
X74055Y51358
X72087
X36378Y48858
X35394
X34409
X33583Y55551
X32598
X31614
T12
X28600Y40450
Y41450
Y42450
X29600
Y41450
Y40450
T13
X47575Y16732
X48575
X46575
X43654
X42654
X41654
X38732
X37732
X36732
X33811
X32811
X31811
X28795
X27795
X26795
X23819
X22819
X21819
X14689Y30800
X14019
X13350
X12681
X12011
X64702Y47593
X65702
X66702
X57002Y47643
X56002
X55002
T14
X21850Y11650
X23850
X26850
X28850
X29866Y14567
X31063
X25866
X24669
X20669
X31772Y11654
X33772
X36693
X38693
X41614
X43614
X46535Y11575
X46654Y14567
X45457
X41457
X40260
X36260
X35063
X50654
X48535Y11575
X90512Y13551
Y15551
Y21071
Y23071
Y28583
Y30583
X18661Y24646
X17301Y21646
X90551Y36071
Y38071
Y43472
Y45472
Y50913
Y52913
T15
X16559Y28268
X10709
T16
X63346Y54764
X65346
X67346
X70052Y54743
X72052
X74052
X60661Y54724
X58661
X56661
T17
X78228Y13543
Y21063
Y28543
X21220Y25894
Y20394
X10400Y32300
X16300
X78268Y36063
X78268Y43465
Y50906
T19
X11654Y11260
X51500Y11100
X62150
X64450
X75000
X88780Y11220
X75000Y25550
X64450
X51500
X11654Y25354
X59197Y37717
X86535Y55906
X69352Y49243
X62102
X59652
X52352
X10748Y55984
M30
