G04*
G04 #@! TF.GenerationSoftware,Altium Limited,CircuitMaker,2.2.1 (2.2.1.6)*
G04*
G04 Layer_Color=15138737*
%FSLAX24Y24*%
%MOIN*%
G70*
G04*
G04 #@! TF.SameCoordinates,A2895FC5-3AE1-40D1-BB98-85C0BD90A9E4*
G04*
G04*
G04 #@! TF.FilePolarity,Positive*
G04*
G01*
G75*
%ADD10C,0.0100*%
%ADD17C,0.0039*%
%ADD23C,0.0010*%
%ADD24C,0.0001*%
D10*
X42217Y45369D02*
X43217D01*
X42717Y44869D02*
Y45869D01*
X73255Y46108D02*
Y51608D01*
Y46108D02*
X74855D01*
Y51608D01*
X73255D02*
X74855D01*
X71287Y46108D02*
Y51608D01*
Y46108D02*
X72887D01*
Y51608D01*
X71287D02*
X72887D01*
X58259Y39853D02*
Y45353D01*
X56659D02*
X58259D01*
X56659Y39853D02*
Y45353D01*
Y39853D02*
X58259D01*
X60309D02*
Y45353D01*
X58709D02*
X60309D01*
X58709Y39853D02*
Y45353D01*
Y39853D02*
X60309D01*
X87677Y32244D02*
X87874Y32441D01*
Y33228D01*
X87480Y32638D02*
Y33228D01*
X85906Y32244D02*
X87677D01*
X86102Y32638D02*
X87480D01*
X86102Y47480D02*
Y48071D01*
X87677Y47087D02*
X87874Y47283D01*
Y48071D01*
X87480Y47480D02*
Y48071D01*
X85709Y47283D02*
Y48071D01*
Y47283D02*
X85906Y47087D01*
X86102Y47480D02*
X87480D01*
X85906Y47087D02*
X87677D01*
X85709Y48071D02*
X86102D01*
X87480D02*
X87874D01*
X86142Y40079D02*
Y40669D01*
X87717Y39685D02*
X87913Y39882D01*
Y40669D01*
X87520Y40079D02*
Y40669D01*
X85748Y39882D02*
Y40669D01*
Y39882D02*
X85945Y39685D01*
X86142Y40079D02*
X87520D01*
X85945Y39685D02*
X87717D01*
X85748Y40669D02*
X86142D01*
X87520D02*
X87913D01*
X86102Y32638D02*
Y33228D01*
X85709Y32441D02*
Y33228D01*
Y32441D02*
X85906Y32244D01*
X85709Y33228D02*
X86102D01*
X87480D02*
X87874D01*
X86063Y17638D02*
Y18228D01*
X87638Y17244D02*
X87835Y17441D01*
Y18228D01*
X87441Y17638D02*
Y18228D01*
X85669Y17441D02*
Y18228D01*
Y17441D02*
X85866Y17244D01*
X86063Y17638D02*
X87441D01*
X85866Y17244D02*
X87638D01*
X85669Y18228D02*
X86063D01*
X87441D02*
X87835D01*
X87795Y25787D02*
X87795Y25787D01*
X87402Y25787D02*
X87795D01*
X86024Y25197D02*
Y25787D01*
X87598Y24803D02*
X87795Y25000D01*
Y25787D01*
X87402Y25197D02*
Y25787D01*
X85630D02*
X86024D01*
X85630Y25000D02*
Y25787D01*
Y25000D02*
X85827Y24803D01*
X86024Y25197D02*
X87402D01*
X85827Y24803D02*
X87598D01*
D17*
X17480Y38661D02*
G03*
X17480Y38661I-197J0D01*
G01*
X33661Y45541D02*
G03*
X33661Y45541I-197J0D01*
G01*
X25315Y29134D02*
G03*
X25315Y29134I-1969J0D01*
G01*
X23441Y45644D02*
G03*
X23441Y45644I-197J0D01*
G01*
X16939Y42431D02*
X17313D01*
X16939Y41742D02*
X17313D01*
Y42431D01*
X16939Y41742D02*
Y42431D01*
X16929Y37441D02*
Y39016D01*
X18504Y37441D02*
Y39016D01*
X16929D02*
X18504D01*
X16929Y37441D02*
X18504D01*
X31368Y45630D02*
X31939D01*
X31368Y46417D02*
X31939D01*
X31368Y45630D02*
Y46417D01*
X31939Y45630D02*
Y46417D01*
X79705Y24626D02*
Y24980D01*
X79035Y24626D02*
Y24980D01*
Y24626D02*
X79705D01*
X79035Y24980D02*
X79705D01*
Y17067D02*
Y17421D01*
X79035Y17067D02*
Y17421D01*
Y17067D02*
X79705D01*
X79035Y17421D02*
X79705D01*
Y54508D02*
Y54862D01*
X79035Y54508D02*
Y54862D01*
Y54508D02*
X79705D01*
X79035Y54862D02*
X79705D01*
X79685Y46988D02*
Y47343D01*
X79016Y46988D02*
Y47343D01*
Y46988D02*
X79685D01*
X79016Y47343D02*
X79685D01*
X79705Y39587D02*
Y39941D01*
X79035Y39587D02*
Y39941D01*
Y39587D02*
X79705D01*
X79035Y39941D02*
X79705D01*
Y32106D02*
Y32461D01*
X79035Y32106D02*
Y32461D01*
Y32106D02*
X79705D01*
X79035Y32461D02*
X79705D01*
X89252Y54400D02*
X90039D01*
X89252Y54970D02*
X90039D01*
Y54400D02*
Y54970D01*
X89252Y54400D02*
Y54970D01*
X49484Y24665D02*
Y25728D01*
X45421D02*
X49484D01*
X45421Y24665D02*
Y25728D01*
Y24665D02*
X49484D01*
Y23445D02*
Y24508D01*
X45421D02*
X49484D01*
X45421Y23445D02*
Y24508D01*
Y23445D02*
X49484D01*
Y22224D02*
Y23287D01*
X45421D02*
X49484D01*
X45421Y22224D02*
Y23287D01*
Y22224D02*
X49484D01*
X41880Y29843D02*
X42451D01*
X41880Y29055D02*
X42451D01*
Y29843D01*
X41880Y29055D02*
Y29843D01*
X40935D02*
X41506D01*
X40935Y29055D02*
X41506D01*
Y29843D01*
X40935Y29055D02*
Y29843D01*
X89213Y17156D02*
X90000D01*
X89213Y17726D02*
X90000D01*
Y17156D02*
Y17726D01*
X89213Y17156D02*
Y17726D01*
X88770Y25433D02*
Y26142D01*
X88238Y25433D02*
Y26142D01*
X88770D01*
X88238Y25433D02*
X88770D01*
X89173Y25246D02*
X89961D01*
X89173Y24675D02*
X89961D01*
X89173D02*
Y25246D01*
X89961Y24675D02*
Y25246D01*
X89213Y25591D02*
Y25984D01*
X89921Y25591D02*
Y25984D01*
X89213D02*
X89921D01*
X89213Y25591D02*
X89921D01*
X88927Y47717D02*
Y48425D01*
X88396Y47717D02*
Y48425D01*
X88927D01*
X88396Y47717D02*
X88927D01*
X88888Y55079D02*
Y55787D01*
X88356Y55079D02*
Y55787D01*
X88888D01*
X88356Y55079D02*
X88888D01*
X89409Y47874D02*
Y48268D01*
X90118Y47874D02*
Y48268D01*
X89409D02*
X90118D01*
X89409Y47874D02*
X90118D01*
X89331Y55276D02*
Y55669D01*
X90039Y55276D02*
Y55669D01*
X89331D02*
X90039D01*
X89331Y55276D02*
X90039D01*
X67156Y29449D02*
X67726D01*
X67156Y28661D02*
X67726D01*
Y29449D01*
X67156Y28661D02*
Y29449D01*
X89370Y47037D02*
Y47608D01*
X90157Y47037D02*
Y47608D01*
X89370D02*
X90157D01*
X89370Y47037D02*
X90157D01*
X89331Y39636D02*
Y40207D01*
X90118Y39636D02*
Y40207D01*
X89331D02*
X90118D01*
X89331Y39636D02*
X90118D01*
X54203Y28622D02*
X54774D01*
X54203Y29409D02*
X54774D01*
X54203Y28622D02*
Y29409D01*
X54774Y28622D02*
Y29409D01*
X89252Y32195D02*
Y32766D01*
X90039Y32195D02*
Y32766D01*
X89252D02*
X90039D01*
X89252Y32195D02*
X90039D01*
X42982Y31949D02*
Y37579D01*
Y31949D02*
X43770D01*
X43770Y32264D02*
X44577D01*
X43770Y31949D02*
Y32264D01*
X44577Y32397D02*
X45183D01*
X44577Y32264D02*
Y32397D01*
X45183Y32008D02*
Y32397D01*
Y32008D02*
X45699D01*
X45183Y37520D02*
X45699D01*
X45183Y37131D02*
Y37520D01*
X44577Y37131D02*
Y37264D01*
X44577Y37131D02*
X45183D01*
X43770Y37264D02*
Y37579D01*
X43770Y37264D02*
X44577D01*
X42982Y37579D02*
X43770D01*
X45699Y32008D02*
Y37520D01*
X88317Y17874D02*
X88848D01*
X88317Y18583D02*
X88848D01*
X88317Y17874D02*
Y18583D01*
X88848Y17874D02*
Y18583D01*
X88317Y32992D02*
X88848D01*
X88317Y33701D02*
X88848D01*
X88317Y32992D02*
Y33701D01*
X88848Y32992D02*
Y33701D01*
X88317Y40472D02*
X88848D01*
X88317Y41181D02*
X88848D01*
X88317Y40472D02*
Y41181D01*
X88848Y40472D02*
Y41181D01*
X89252Y18071D02*
X89961D01*
X89252Y18465D02*
X89961D01*
Y18071D02*
Y18465D01*
X89252Y18071D02*
Y18465D01*
X89291Y33150D02*
X90000D01*
X89291Y33543D02*
X90000D01*
Y33150D02*
Y33543D01*
X89291Y33150D02*
Y33543D01*
X89370Y40551D02*
X90079D01*
X89370Y40945D02*
X90079D01*
Y40551D02*
Y40945D01*
X89370Y40551D02*
Y40945D01*
X53465Y31850D02*
Y32244D01*
X54173Y31850D02*
Y32244D01*
X53465D02*
X54173D01*
X53465Y31850D02*
X54173D01*
X53465Y31220D02*
Y31614D01*
X54173Y31220D02*
Y31614D01*
X53465D02*
X54173D01*
X53465Y31220D02*
X54173D01*
X37598Y47835D02*
Y48228D01*
X36890Y47835D02*
Y48228D01*
Y47835D02*
X37598D01*
X36890Y48228D02*
X37598D01*
X62126Y30787D02*
Y31181D01*
X62835Y30787D02*
Y31181D01*
X62126D02*
X62835D01*
X62126Y30787D02*
X62835D01*
X48937Y30787D02*
Y31181D01*
X49646Y30787D02*
Y31181D01*
X48937D02*
X49646D01*
X48937Y30787D02*
X49646D01*
X30551Y55236D02*
X30945D01*
X30551Y55945D02*
X30945D01*
X30551Y55236D02*
Y55945D01*
X30945Y55236D02*
Y55945D01*
X35974Y39409D02*
X36545D01*
X35974Y38622D02*
X36545D01*
Y39409D01*
X35974Y38622D02*
Y39409D01*
X33110Y41762D02*
X36102D01*
X33110Y45896D02*
X36102D01*
Y41762D02*
Y45896D01*
X33110Y41762D02*
Y45896D01*
X28868Y48002D02*
X29557D01*
X28868Y48376D02*
X29557D01*
Y48002D02*
Y48376D01*
X28868Y48002D02*
Y48376D01*
X28858Y47490D02*
X29547D01*
X28858Y47864D02*
X29547D01*
Y47490D02*
Y47864D01*
X28858Y47490D02*
Y47864D01*
X38313Y19125D02*
X38687D01*
X38313Y18475D02*
X38687D01*
Y19125D01*
X38313Y18475D02*
Y19125D01*
X46821Y19085D02*
X47195D01*
X46821Y18396D02*
X47195D01*
Y19085D01*
X46821Y18396D02*
Y19085D01*
X47844Y19065D02*
X48218D01*
X47844Y18415D02*
X48218D01*
Y19065D01*
X47844Y18415D02*
Y19065D01*
X42057Y19085D02*
X42431D01*
X42057Y18396D02*
X42431D01*
Y19085D01*
X42057Y18396D02*
Y19085D01*
X43081Y19065D02*
X43455D01*
X43081Y18415D02*
X43455D01*
Y19065D01*
X43081Y18415D02*
Y19065D01*
X23081Y19085D02*
X23455D01*
X23081Y18396D02*
X23455D01*
Y19085D01*
X23081Y18396D02*
Y19085D01*
X20772Y17638D02*
X24866D01*
Y16043D02*
Y17854D01*
X20772D02*
X24866D01*
X20772Y16043D02*
Y17854D01*
X20772Y16043D02*
X24866D01*
X25748Y17638D02*
X29843D01*
Y16043D02*
Y17854D01*
X25748D02*
X29843D01*
X25748Y16043D02*
Y17854D01*
X25748Y16043D02*
X29843D01*
X30764Y17638D02*
X34858D01*
Y16043D02*
Y17854D01*
X30764D02*
X34858D01*
X30764Y16043D02*
Y17854D01*
X30764Y16043D02*
X34858D01*
X35685Y17638D02*
X39780D01*
Y16043D02*
Y17854D01*
X35685D02*
X39780D01*
X35685Y16043D02*
Y17854D01*
X35685Y16043D02*
X39780D01*
X40606Y17638D02*
X44701D01*
Y16043D02*
Y17854D01*
X40606D02*
X44701D01*
X40606Y16043D02*
Y17854D01*
X40606Y16043D02*
X44701D01*
X45528Y17638D02*
X49622D01*
Y16043D02*
Y17854D01*
X45528D02*
X49622D01*
X45528Y16043D02*
Y17854D01*
X45528Y16043D02*
X49622D01*
X27844Y18474D02*
Y19163D01*
X28219Y18474D02*
Y19163D01*
X27844Y18474D02*
X28219D01*
X27844Y19163D02*
X28219D01*
X32569Y18396D02*
Y19085D01*
X32943Y18396D02*
Y19085D01*
X32569Y18396D02*
X32943D01*
X32569Y19085D02*
X32943D01*
X37333Y18396D02*
Y19085D01*
X37707Y18396D02*
Y19085D01*
X37333Y18396D02*
X37707D01*
X37333Y19085D02*
X37707D01*
X24065Y18415D02*
Y19065D01*
X24439Y18415D02*
Y19065D01*
X24065Y18415D02*
X24439D01*
X24065Y19065D02*
X24439D01*
X28813Y18475D02*
Y19125D01*
X29187Y18475D02*
Y19125D01*
X28813Y18475D02*
X29187D01*
X28813Y19125D02*
X29187D01*
X33563Y18475D02*
Y19125D01*
X33937Y18475D02*
Y19125D01*
X33563Y18475D02*
X33937D01*
X33563Y19125D02*
X33937D01*
X11358Y42461D02*
X12028D01*
X11358Y42106D02*
X12028D01*
X11358D02*
Y42461D01*
X12028Y42106D02*
Y42461D01*
X18691Y42096D02*
Y42470D01*
X18002Y42096D02*
Y42470D01*
Y42096D02*
X18691D01*
X18002Y42470D02*
X18691D01*
X16644Y36033D02*
Y36407D01*
X17293Y36033D02*
Y36407D01*
X16644D02*
X17293D01*
X16644Y36033D02*
X17293D01*
X16309Y42431D02*
X16683D01*
X16309Y41742D02*
X16683D01*
Y42431D01*
X16309Y41742D02*
Y42431D01*
X19498Y42096D02*
Y42470D01*
X20187Y42096D02*
Y42470D01*
X19498D02*
X20187D01*
X19498Y42096D02*
X20187D01*
X14449Y39281D02*
Y39852D01*
X15236Y39281D02*
Y39852D01*
X14449D02*
X15236D01*
X14449Y39281D02*
X15236D01*
X16614D02*
Y39852D01*
X15827Y39281D02*
Y39852D01*
Y39281D02*
X16614D01*
X15827Y39852D02*
X16614D01*
X15144Y37876D02*
Y39053D01*
X15801Y37876D02*
Y39053D01*
X15144D02*
X15801D01*
X15144Y37876D02*
X15801D01*
X19459Y37687D02*
X19833D01*
X19459Y38376D02*
X19833D01*
X19459Y37687D02*
Y38376D01*
X19833Y37687D02*
Y38376D01*
X27565Y51573D02*
Y51927D01*
X28235Y51573D02*
Y51927D01*
X27565D02*
X28235D01*
X27565Y51573D02*
X28235D01*
X23356Y55797D02*
Y56486D01*
X23730Y55797D02*
Y56486D01*
X23356Y55797D02*
X23730D01*
X23356Y56486D02*
X23730D01*
X23907Y55797D02*
Y56486D01*
X24281Y55797D02*
Y56486D01*
X23907Y55797D02*
X24281D01*
X23907Y56486D02*
X24281D01*
X25706Y44163D02*
Y44537D01*
X26394Y44163D02*
Y44537D01*
X25706D02*
X26394D01*
X25706Y44163D02*
X26394D01*
X37805Y43691D02*
X38179D01*
X37805Y43002D02*
X38179D01*
Y43691D01*
X37805Y43002D02*
Y43691D01*
X28839Y48671D02*
Y49045D01*
X29528Y48671D02*
Y49045D01*
X28839D02*
X29528D01*
X28839Y48671D02*
X29528D01*
X28839Y49183D02*
Y49557D01*
X29528Y49183D02*
Y49557D01*
X28839D02*
X29528D01*
X28839Y49183D02*
X29528D01*
X43711Y51742D02*
Y52116D01*
X44400Y51742D02*
Y52116D01*
X43711D02*
X44400D01*
X43711Y51742D02*
X44400D01*
X22490Y44557D02*
X23179D01*
X22490Y44183D02*
X23179D01*
X22490D02*
Y44557D01*
X23179Y44183D02*
Y44557D01*
X40364Y52156D02*
X41053D01*
X40364Y51782D02*
X41053D01*
X40364D02*
Y52156D01*
X41053Y51782D02*
Y52156D01*
X17146Y30689D02*
X17500D01*
X17146Y31358D02*
X17500D01*
X17146Y30689D02*
Y31358D01*
X17500Y30689D02*
Y31358D01*
X14488Y30690D02*
X14889D01*
X14488Y30910D02*
X14889D01*
Y30690D02*
Y30910D01*
X14488Y30690D02*
Y30910D01*
X13819Y30690D02*
X14220D01*
X13819Y30910D02*
X14220D01*
Y30690D02*
Y30910D01*
X13819Y30690D02*
Y30910D01*
X11811Y30690D02*
X12212D01*
X11811Y30910D02*
X12212D01*
Y30690D02*
Y30910D01*
X11811Y30690D02*
Y30910D01*
X12480Y30690D02*
X12881D01*
X12480Y30910D02*
X12881D01*
Y30690D02*
Y30910D01*
X12480Y30690D02*
Y30910D01*
X13149Y30690D02*
X13551D01*
X13149Y30910D02*
X13551D01*
Y30690D02*
Y30910D01*
X13149Y30690D02*
Y30910D01*
X11263Y31902D02*
X15437D01*
X11263Y29973D02*
X15437D01*
X11263D02*
Y31902D01*
Y31706D02*
X15437D01*
Y29973D02*
Y31902D01*
X53954Y46954D02*
X58049D01*
X53954D02*
Y48765D01*
X53954D02*
X58049D01*
Y46954D02*
Y48765D01*
X53954Y48253D02*
X58049D01*
X63654Y48203D02*
X67749D01*
Y46904D02*
Y48715D01*
X63654D02*
X67749D01*
X63654Y46904D02*
Y48715D01*
X63654Y46904D02*
X67749D01*
X41525Y54513D02*
Y54887D01*
X42175Y54513D02*
Y54887D01*
X41525D02*
X42175D01*
X41525Y54513D02*
X42175D01*
X27461Y53917D02*
Y54272D01*
X28130Y53917D02*
Y54272D01*
X27461D02*
X28130D01*
X27461Y53917D02*
X28130D01*
X27465Y54523D02*
Y54877D01*
X28135Y54523D02*
Y54877D01*
X27465D02*
X28135D01*
X27465Y54523D02*
X28135D01*
X27461Y55098D02*
Y55453D01*
X28130Y55098D02*
Y55453D01*
X27461D02*
X28130D01*
X27461Y55098D02*
X28130D01*
X21496Y44754D02*
Y45325D01*
X22362Y44754D02*
Y45325D01*
X21496D02*
X22362D01*
X21496Y44754D02*
X22362D01*
X21467Y40135D02*
X22333D01*
X21467Y39565D02*
X22333D01*
X21467D02*
Y40135D01*
X22333Y39565D02*
Y40135D01*
X23915Y48156D02*
X24485D01*
X23915Y48944D02*
X24485D01*
X23915Y48156D02*
Y48944D01*
X24485Y48156D02*
Y48944D01*
X27565Y50923D02*
Y51277D01*
X28235Y50923D02*
Y51277D01*
X27565D02*
X28235D01*
X27565Y50923D02*
X28235D01*
X27465Y55723D02*
Y56077D01*
X28135Y55723D02*
Y56077D01*
X27465D02*
X28135D01*
X27465Y55723D02*
X28135D01*
X34567Y55689D02*
Y56043D01*
X35236Y55689D02*
Y56043D01*
X34567D02*
X35236D01*
X34567Y55689D02*
X35236D01*
X34587Y54232D02*
Y54587D01*
X35256Y54232D02*
Y54587D01*
X34587D02*
X35256D01*
X34587Y54232D02*
X35256D01*
X23671Y50797D02*
X24045D01*
X23671Y51486D02*
X24045D01*
X23671Y50797D02*
Y51486D01*
X24045Y50797D02*
Y51486D01*
X23120Y50797D02*
X23494D01*
X23120Y51486D02*
X23494D01*
X23120Y50797D02*
Y51486D01*
X23494Y50797D02*
Y51486D01*
X22018Y50797D02*
X22392D01*
X22018Y51486D02*
X22392D01*
X22018Y50797D02*
Y51486D01*
X22392Y50797D02*
Y51486D01*
X34587Y54980D02*
Y55335D01*
X35256Y54980D02*
Y55335D01*
X34587D02*
X35256D01*
X34587Y54980D02*
X35256D01*
X22569Y50797D02*
X22943D01*
X22569Y51486D02*
X22943D01*
X22569Y50797D02*
Y51486D01*
X22943Y50797D02*
Y51486D01*
X24222Y50797D02*
X24596D01*
X24222Y51486D02*
X24596D01*
X24222Y50797D02*
Y51486D01*
X24596Y50797D02*
Y51486D01*
X22663Y48206D02*
X23037D01*
X22663Y48894D02*
X23037D01*
X22663Y48206D02*
Y48894D01*
X23037Y48206D02*
Y48894D01*
X22063Y48206D02*
X22437D01*
X22063Y48894D02*
X22437D01*
X22063Y48206D02*
Y48894D01*
X22437Y48206D02*
Y48894D01*
X23263Y48206D02*
X23637D01*
X23263Y48894D02*
X23637D01*
X23263Y48206D02*
Y48894D01*
X23637Y48206D02*
Y48894D01*
X35818Y55218D02*
Y56281D01*
Y55218D02*
X39881D01*
Y56281D01*
X35818D02*
X39881D01*
X39932Y52919D02*
Y53982D01*
X35869D02*
X39932D01*
X35869Y52919D02*
Y53982D01*
Y52919D02*
X39932D01*
X28069Y39919D02*
Y39926D01*
Y39919D02*
X30132D01*
X28069Y42982D02*
X30132D01*
Y39919D02*
Y42982D01*
X28069Y39926D02*
Y42982D01*
Y46182D02*
X30132D01*
X28069Y44119D02*
Y46182D01*
Y44119D02*
X30132D01*
Y46182D01*
X24110Y45290D02*
Y46510D01*
X22890Y45290D02*
Y46510D01*
X24110D01*
X22890Y45290D02*
X24110D01*
X21267Y37873D02*
X21838D01*
X21267Y38743D02*
X21838D01*
X21267Y37873D02*
Y38743D01*
X21838Y37873D02*
Y38743D01*
X22217Y37873D02*
X22788D01*
X22217Y38743D02*
X22788D01*
X22217Y37873D02*
Y38743D01*
X22788Y37873D02*
Y38743D01*
X24117Y37873D02*
X24688D01*
X24117Y38743D02*
X24688D01*
X24117Y37873D02*
Y38743D01*
X24688Y37873D02*
Y38743D01*
X23167Y37873D02*
X23738D01*
X23167Y38743D02*
X23738D01*
X23167Y37873D02*
Y38743D01*
X23738Y37873D02*
Y38743D01*
X22485Y52256D02*
Y53044D01*
X21915Y52256D02*
Y53044D01*
X22485D01*
X21915Y52256D02*
X22485D01*
X32382Y27256D02*
Y31319D01*
X31319Y27256D02*
X32382D01*
X31319D02*
Y31319D01*
X32382D01*
X33681Y27256D02*
Y31319D01*
X32618Y27256D02*
X33681D01*
X32618D02*
Y31319D01*
X33681D01*
X31081Y27269D02*
Y31332D01*
X30018Y27269D02*
X31081D01*
X30018D02*
Y31332D01*
X31081D01*
X29781Y27269D02*
Y31332D01*
X28718Y27269D02*
X29781D01*
X28718D02*
Y31332D01*
X29781D01*
X34981Y27256D02*
Y31319D01*
X33918Y27256D02*
X34981D01*
X33918D02*
Y31319D01*
X34981D01*
D23*
X92087Y10006D02*
Y57250D01*
X42047Y10000D02*
X92087D01*
X9500Y57250D02*
X92087D01*
X9500Y10000D02*
Y57250D01*
Y10000D02*
Y57250D01*
Y10000D02*
X42900D01*
X77559Y52047D02*
X78937D01*
X77126Y51614D02*
X77559Y52047D01*
X77126Y50236D02*
Y51614D01*
Y50236D02*
X77559Y49803D01*
X78937D01*
Y50157D01*
X77795D02*
X78937D01*
X77559Y50394D02*
X77795Y50157D01*
X77559Y50394D02*
Y51417D01*
X77795Y51654D01*
X78937D01*
Y52047D01*
X77559Y44606D02*
X78937D01*
X77126Y44173D02*
X77559Y44606D01*
X77126Y42795D02*
Y44173D01*
Y42795D02*
X77559Y42362D01*
X78937D01*
Y42717D01*
X77795D02*
X78937D01*
X77559Y42953D02*
X77795Y42717D01*
X77559Y42953D02*
Y43976D01*
X77795Y44213D01*
X78937D01*
Y44606D01*
X77559Y37165D02*
X78937D01*
X77126Y36732D02*
X77559Y37165D01*
X77126Y35354D02*
Y36732D01*
Y35354D02*
X77559Y34921D01*
X78937D01*
Y35276D01*
X77795D02*
X78937D01*
X77559Y35512D02*
X77795Y35276D01*
X77559Y35512D02*
Y36535D01*
X77795Y36772D01*
X78937D01*
Y37165D01*
X77559Y29646D02*
X78937D01*
X77126Y29213D02*
X77559Y29646D01*
X77126Y27835D02*
Y29213D01*
Y27835D02*
X77559Y27402D01*
X78937D01*
Y27756D01*
X77795D02*
X78937D01*
X77559Y27992D02*
X77795Y27756D01*
X77559Y27992D02*
Y29016D01*
X77795Y29252D01*
X78937D01*
Y29646D01*
X77520Y14646D02*
X78898D01*
X77087Y14213D02*
X77520Y14646D01*
X77087Y12835D02*
Y14213D01*
Y12835D02*
X77520Y12402D01*
X78898D01*
Y12756D01*
X77756D02*
X78898D01*
X77520Y12992D02*
X77756Y12756D01*
X77520Y12992D02*
Y14016D01*
X77756Y14252D01*
X78898D01*
Y14646D01*
Y21772D02*
Y22165D01*
X77756Y21772D02*
X78898D01*
X77520Y21535D02*
X77756Y21772D01*
X77520Y20512D02*
Y21535D01*
Y20512D02*
X77756Y20276D01*
X78898D01*
Y19921D02*
Y20276D01*
X77520Y19921D02*
X78898D01*
X77087Y20354D02*
X77520Y19921D01*
X77087Y20354D02*
Y21732D01*
X77520Y22165D01*
X78898D01*
D24*
X92126Y16246D02*
Y16654D01*
X90412Y27723D02*
X92126D01*
X89062Y27316D02*
X92126D01*
Y27723D01*
X90448Y31746D02*
X92126D01*
X89098Y31339D02*
X92126D01*
Y31654D02*
Y31755D01*
Y31348D02*
Y31450D01*
Y35118D02*
Y35220D01*
Y34813D02*
Y34914D01*
Y39094D02*
Y39196D01*
Y38789D02*
Y38891D01*
Y39094D01*
Y42198D02*
Y42605D01*
X89062Y42198D02*
X92126D01*
X89098Y49646D02*
Y50053D01*
X92126Y49646D02*
Y50053D01*
X90448D02*
X92126D01*
X89098D02*
X90448D01*
X89098Y49646D02*
X92126D01*
X90448Y46589D02*
X92126D01*
X89098Y46181D02*
X92126D01*
Y46589D01*
Y19813D02*
Y19914D01*
Y20118D02*
Y20220D01*
Y19914D02*
Y20118D01*
X90412Y20204D02*
X92126D01*
X89055Y19796D02*
X92126D01*
X89062Y16246D02*
Y16654D01*
X90412D01*
X89062Y16246D02*
X92126D01*
X90412Y16654D02*
X92126D01*
X89055Y19796D02*
Y20204D01*
X90412D01*
X89062Y23773D02*
Y24180D01*
X92126Y23773D02*
Y24180D01*
X89062D02*
X90412D01*
X89062Y23773D02*
X92126D01*
X90412Y24180D02*
X92126D01*
X89062Y27316D02*
Y27723D01*
X90412D01*
X89098Y31339D02*
Y31746D01*
X92126Y31450D02*
Y31654D01*
X89098Y31746D02*
X90448D01*
X89062Y34796D02*
Y35204D01*
X92126Y34914D02*
Y35118D01*
X89062Y35204D02*
X90412D01*
X89062Y34796D02*
X92126D01*
X90412Y35204D02*
X92126D01*
X89102Y38773D02*
Y39180D01*
X90452D01*
X89102Y38773D02*
X92126D01*
X90452Y39180D02*
X92126D01*
X89062Y42198D02*
Y42605D01*
X90412D01*
X92126D01*
X89098Y46181D02*
Y46589D01*
X90448D01*
X89055Y53536D02*
Y53944D01*
X92126Y53536D02*
Y53944D01*
X89055D02*
X90405D01*
X89055Y53536D02*
X92126D01*
X90405Y53944D02*
X92126D01*
X72102Y42927D02*
X74052D01*
X70752Y42520D02*
X74052D01*
X70752Y42927D02*
X72102D01*
X74052Y42520D02*
Y42927D01*
X70752Y42520D02*
Y42927D01*
X52420Y43032D02*
Y43429D01*
Y43032D02*
X54370D01*
X56320D01*
Y43429D01*
X52420D02*
X56320D01*
X62144Y43072D02*
Y43465D01*
Y43072D02*
X66044D01*
Y43465D01*
X64094D02*
X66044D01*
X62144D02*
X64094D01*
X9500Y10000D02*
Y57250D01*
M02*
