G04*
G04 #@! TF.GenerationSoftware,Altium Limited,CircuitMaker,2.2.1 (2.2.1.6)*
G04*
G04 Layer_Color=13362661*
%FSLAX24Y24*%
%MOIN*%
G70*
G04*
G04 #@! TF.SameCoordinates,A2895FC5-3AE1-40D1-BB98-85C0BD90A9E4*
G04*
G04*
G04 #@! TF.FilePolarity,Positive*
G04*
G01*
G75*
%ADD10C,0.0100*%
%ADD13C,0.0079*%
%ADD15C,0.0060*%
%ADD23C,0.0010*%
%ADD24C,0.0001*%
%ADD229C,0.0020*%
D10*
X66339Y32809D02*
G03*
X66589Y33059I0J250D01*
G01*
X66089D02*
G03*
X66339Y32809I250J0D01*
G01*
X74431Y30724D02*
G03*
X74681Y30474I250J0D01*
G01*
D02*
G03*
X74931Y30724I0J250D01*
G01*
X74435Y28453D02*
G03*
X74685Y28203I250J0D01*
G01*
D02*
G03*
X74935Y28453I0J250D01*
G01*
X70262Y33020D02*
G03*
X70512Y32770I250J0D01*
G01*
D02*
G03*
X70762Y33020I0J250D01*
G01*
X74435D02*
G03*
X74685Y32770I250J0D01*
G01*
D02*
G03*
X74935Y33020I0J250D01*
G01*
X61915D02*
G03*
X62165Y32770I250J0D01*
G01*
D02*
G03*
X62415Y33020I0J250D01*
G01*
X87171Y28661D02*
X88971D01*
X87171D02*
Y31261D01*
X88971D01*
Y28661D02*
Y31261D01*
X87210Y50983D02*
X89010D01*
X87210D02*
Y53583D01*
X89010D01*
Y50983D02*
Y53583D01*
X88971Y21141D02*
Y23741D01*
X87171D02*
X88971D01*
X87171Y21141D02*
Y23741D01*
Y21141D02*
X88971D01*
Y13700D02*
Y16300D01*
X87171D02*
X88971D01*
X87171Y13700D02*
Y16300D01*
Y13700D02*
X88971D01*
X89010Y43543D02*
Y46143D01*
X87210D02*
X89010D01*
X87210Y43543D02*
Y46143D01*
Y43543D02*
X89010D01*
Y36102D02*
Y38702D01*
X87210D02*
X89010D01*
X87210Y36102D02*
Y38702D01*
Y36102D02*
X89010D01*
X66589Y33059D02*
Y33309D01*
X66089Y33059D02*
Y33309D01*
X65339Y31809D02*
Y33309D01*
Y31809D02*
X67339D01*
Y33309D01*
X65339D02*
X67339D01*
X73681Y30974D02*
X75681D01*
Y29474D02*
Y30974D01*
X73681Y29474D02*
X75681D01*
X73681D02*
Y30974D01*
X74431Y30724D02*
Y30974D01*
X74931Y30724D02*
Y30974D01*
X73685Y28703D02*
X75685D01*
Y27203D02*
Y28703D01*
X73685Y27203D02*
X75685D01*
X73685D02*
Y28703D01*
X74435Y28453D02*
Y28703D01*
X74935Y28453D02*
Y28703D01*
X69512Y33270D02*
X71512D01*
Y31770D02*
Y33270D01*
X69512Y31770D02*
X71512D01*
X69512D02*
Y33270D01*
X70262Y33020D02*
Y33270D01*
X70762Y33020D02*
Y33270D01*
X73685D02*
X75685D01*
Y31770D02*
Y33270D01*
X73685Y31770D02*
X75685D01*
X73685D02*
Y33270D01*
X74435Y33020D02*
Y33270D01*
X74935Y33020D02*
Y33270D01*
X61165D02*
X63165D01*
Y31770D02*
Y33270D01*
X61165Y31770D02*
X63165D01*
X61165D02*
Y33270D01*
X61915Y33020D02*
Y33270D01*
X62415Y33020D02*
Y33270D01*
X40860Y39437D02*
X41660D01*
X40760Y38537D02*
X40860Y38437D01*
X40760Y38537D02*
Y39287D01*
X40910Y39437D01*
X41610D02*
X41760Y39287D01*
Y38537D02*
Y39287D01*
X41660Y38437D02*
X41760Y38537D01*
X40760Y36287D02*
X40860Y36387D01*
X41660D02*
X41760Y36287D01*
X40760Y34487D02*
X40860Y34387D01*
X40760Y34537D02*
Y35287D01*
X40910Y35437D01*
X40760Y35587D02*
X40910Y35437D01*
X40760Y35587D02*
Y36287D01*
X41760Y35587D02*
Y36287D01*
X41610Y35437D02*
X41760Y35587D01*
X41610Y35437D02*
X41760Y35287D01*
Y34537D02*
Y35287D01*
X41660Y34387D02*
X41760Y34487D01*
X40760Y38287D02*
X40860Y38387D01*
X41660D02*
X41760Y38287D01*
X40760Y36537D02*
X40860Y36437D01*
X40760Y36537D02*
Y37287D01*
X40910Y37437D01*
X40760Y37587D02*
X40910Y37437D01*
X40760Y37587D02*
Y38287D01*
X41760Y37587D02*
Y38287D01*
X41610Y37437D02*
X41760Y37587D01*
X41610Y37437D02*
X41760Y37287D01*
Y36537D02*
Y37287D01*
X41660Y36437D02*
X41760Y36537D01*
X40760Y32287D02*
X40860Y32387D01*
X41660D02*
X41760Y32287D01*
X40860Y30437D02*
X41260D01*
X40760Y30537D02*
X40860Y30437D01*
X40760Y30537D02*
Y31287D01*
X40910Y31437D01*
X40760Y31587D02*
X40910Y31437D01*
X40760Y31587D02*
Y32287D01*
X41760Y31587D02*
Y32287D01*
X41610Y31437D02*
X41760Y31587D01*
X41610Y31437D02*
X41760Y31287D01*
Y30537D02*
Y31287D01*
X41660Y30437D02*
X41760Y30537D01*
X41260Y30437D02*
X41660D01*
X40760Y34287D02*
X40860Y34387D01*
X41660D02*
X41760Y34287D01*
X40760Y32537D02*
X40860Y32437D01*
X40760Y32537D02*
Y33287D01*
X40910Y33437D01*
X40760Y33587D02*
X40910Y33437D01*
X40760Y33587D02*
Y34287D01*
X41760Y33587D02*
Y34287D01*
X41610Y33437D02*
X41760Y33587D01*
X41610Y33437D02*
X41760Y33287D01*
Y32537D02*
Y33287D01*
X41660Y32437D02*
X41760Y32537D01*
X35902Y51339D02*
Y51739D01*
Y50939D02*
Y51339D01*
Y50939D02*
X36002Y50839D01*
X36752D01*
X36902Y50989D01*
X37052Y50839D01*
X37752D01*
X37852Y50939D01*
Y51739D01*
X35902D02*
X36002Y51839D01*
X36752D01*
X36902Y51689D01*
X37052Y51839D01*
X37752D01*
X37852Y51739D01*
X42900Y53450D02*
Y53850D01*
Y53050D02*
Y53450D01*
Y53050D02*
X43000Y52950D01*
X43750D01*
X43900Y53100D01*
X44050Y52950D01*
X44750D01*
X44850Y53050D01*
Y53850D01*
X42900D02*
X43000Y53950D01*
X43750D01*
X43900Y53800D01*
X44050Y53950D01*
X44750D01*
X44850Y53850D01*
X40406Y53465D02*
Y53865D01*
Y53065D02*
Y53465D01*
Y53065D02*
X40506Y52965D01*
X41256D01*
X41406Y53115D01*
X41556Y52965D01*
X42256D01*
X42356Y53065D01*
Y53865D01*
X40406D02*
X40506Y53965D01*
X41256D01*
X41406Y53815D01*
X41556Y53965D01*
X42256D01*
X42356Y53865D01*
X73255Y46108D02*
Y51608D01*
Y46108D02*
X74855D01*
Y51608D01*
X73255D02*
X74855D01*
X71287Y46108D02*
Y51608D01*
Y46108D02*
X72887D01*
Y51608D01*
X71287D02*
X72887D01*
X58259Y39853D02*
Y45353D01*
X56659D02*
X58259D01*
X56659Y39853D02*
Y45353D01*
Y39853D02*
X58259D01*
X60309D02*
Y45353D01*
X58709D02*
X60309D01*
X58709Y39853D02*
Y45353D01*
Y39853D02*
X60309D01*
X87677Y32244D02*
X87874Y32441D01*
Y33228D01*
X87480Y32638D02*
Y33228D01*
X85906Y32244D02*
X87677D01*
X86102Y32638D02*
X87480D01*
X86102Y47480D02*
Y48071D01*
X87677Y47087D02*
X87874Y47283D01*
Y48071D01*
X87480Y47480D02*
Y48071D01*
X85709Y47283D02*
Y48071D01*
Y47283D02*
X85906Y47087D01*
X86102Y47480D02*
X87480D01*
X85906Y47087D02*
X87677D01*
X85709Y48071D02*
X86102D01*
X87480D02*
X87874D01*
X86142Y40079D02*
Y40669D01*
X87717Y39685D02*
X87913Y39882D01*
Y40669D01*
X87520Y40079D02*
Y40669D01*
X85748Y39882D02*
Y40669D01*
Y39882D02*
X85945Y39685D01*
X86142Y40079D02*
X87520D01*
X85945Y39685D02*
X87717D01*
X85748Y40669D02*
X86142D01*
X87520D02*
X87913D01*
X86102Y32638D02*
Y33228D01*
X85709Y32441D02*
Y33228D01*
Y32441D02*
X85906Y32244D01*
X85709Y33228D02*
X86102D01*
X87480D02*
X87874D01*
X86063Y17638D02*
Y18228D01*
X87638Y17244D02*
X87835Y17441D01*
Y18228D01*
X87441Y17638D02*
Y18228D01*
X85669Y17441D02*
Y18228D01*
Y17441D02*
X85866Y17244D01*
X86063Y17638D02*
X87441D01*
X85866Y17244D02*
X87638D01*
X85669Y18228D02*
X86063D01*
X87441D02*
X87835D01*
X87795Y25787D02*
X87795Y25787D01*
X87402Y25787D02*
X87795D01*
X86024Y25197D02*
Y25787D01*
X87598Y24803D02*
X87795Y25000D01*
Y25787D01*
X87402Y25197D02*
Y25787D01*
X85630D02*
X86024D01*
X85630Y25000D02*
Y25787D01*
Y25000D02*
X85827Y24803D01*
X86024Y25197D02*
X87402D01*
X85827Y24803D02*
X87598D01*
D13*
X23066Y52988D02*
G03*
X23066Y52988I-100J0D01*
G01*
D15*
X22716Y52738D02*
Y55038D01*
X26566D01*
Y52738D02*
Y55038D01*
X22716Y52738D02*
X26566D01*
D23*
X92087Y10006D02*
Y57250D01*
X42047Y10000D02*
X92087D01*
X9500Y57250D02*
X92087D01*
X9500Y10000D02*
Y57250D01*
Y10000D02*
Y57250D01*
Y10000D02*
X42900D01*
X77559Y52047D02*
X78937D01*
X77126Y51614D02*
X77559Y52047D01*
X77126Y50236D02*
Y51614D01*
Y50236D02*
X77559Y49803D01*
X78937D01*
Y50157D01*
X77795D02*
X78937D01*
X77559Y50394D02*
X77795Y50157D01*
X77559Y50394D02*
Y51417D01*
X77795Y51654D01*
X78937D01*
Y52047D01*
X77559Y44606D02*
X78937D01*
X77126Y44173D02*
X77559Y44606D01*
X77126Y42795D02*
Y44173D01*
Y42795D02*
X77559Y42362D01*
X78937D01*
Y42717D01*
X77795D02*
X78937D01*
X77559Y42953D02*
X77795Y42717D01*
X77559Y42953D02*
Y43976D01*
X77795Y44213D01*
X78937D01*
Y44606D01*
X77559Y37165D02*
X78937D01*
X77126Y36732D02*
X77559Y37165D01*
X77126Y35354D02*
Y36732D01*
Y35354D02*
X77559Y34921D01*
X78937D01*
Y35276D01*
X77795D02*
X78937D01*
X77559Y35512D02*
X77795Y35276D01*
X77559Y35512D02*
Y36535D01*
X77795Y36772D01*
X78937D01*
Y37165D01*
X77559Y29646D02*
X78937D01*
X77126Y29213D02*
X77559Y29646D01*
X77126Y27835D02*
Y29213D01*
Y27835D02*
X77559Y27402D01*
X78937D01*
Y27756D01*
X77795D02*
X78937D01*
X77559Y27992D02*
X77795Y27756D01*
X77559Y27992D02*
Y29016D01*
X77795Y29252D01*
X78937D01*
Y29646D01*
X77520Y14646D02*
X78898D01*
X77087Y14213D02*
X77520Y14646D01*
X77087Y12835D02*
Y14213D01*
Y12835D02*
X77520Y12402D01*
X78898D01*
Y12756D01*
X77756D02*
X78898D01*
X77520Y12992D02*
X77756Y12756D01*
X77520Y12992D02*
Y14016D01*
X77756Y14252D01*
X78898D01*
Y14646D01*
Y21772D02*
Y22165D01*
X77756Y21772D02*
X78898D01*
X77520Y21535D02*
X77756Y21772D01*
X77520Y20512D02*
Y21535D01*
Y20512D02*
X77756Y20276D01*
X78898D01*
Y19921D02*
Y20276D01*
X77520Y19921D02*
X78898D01*
X77087Y20354D02*
X77520Y19921D01*
X77087Y20354D02*
Y21732D01*
X77520Y22165D01*
X78898D01*
D24*
X92126Y16246D02*
Y16654D01*
X90412Y27723D02*
X92126D01*
X89062Y27316D02*
X92126D01*
Y27723D01*
X90448Y31746D02*
X92126D01*
X89098Y31339D02*
X92126D01*
Y31654D02*
Y31755D01*
Y31348D02*
Y31450D01*
Y35118D02*
Y35220D01*
Y34813D02*
Y34914D01*
Y39094D02*
Y39196D01*
Y38789D02*
Y38891D01*
Y39094D01*
Y42198D02*
Y42605D01*
X89062Y42198D02*
X92126D01*
X89098Y49646D02*
Y50053D01*
X92126Y49646D02*
Y50053D01*
X90448D02*
X92126D01*
X89098D02*
X90448D01*
X89098Y49646D02*
X92126D01*
X90448Y46589D02*
X92126D01*
X89098Y46181D02*
X92126D01*
Y46589D01*
Y19813D02*
Y19914D01*
Y20118D02*
Y20220D01*
Y19914D02*
Y20118D01*
X90412Y20204D02*
X92126D01*
X89055Y19796D02*
X92126D01*
X89062Y16246D02*
Y16654D01*
X90412D01*
X89062Y16246D02*
X92126D01*
X90412Y16654D02*
X92126D01*
X89055Y19796D02*
Y20204D01*
X90412D01*
X89062Y23773D02*
Y24180D01*
X92126Y23773D02*
Y24180D01*
X89062D02*
X90412D01*
X89062Y23773D02*
X92126D01*
X90412Y24180D02*
X92126D01*
X89062Y27316D02*
Y27723D01*
X90412D01*
X89098Y31339D02*
Y31746D01*
X92126Y31450D02*
Y31654D01*
X89098Y31746D02*
X90448D01*
X89062Y34796D02*
Y35204D01*
X92126Y34914D02*
Y35118D01*
X89062Y35204D02*
X90412D01*
X89062Y34796D02*
X92126D01*
X90412Y35204D02*
X92126D01*
X89102Y38773D02*
Y39180D01*
X90452D01*
X89102Y38773D02*
X92126D01*
X90452Y39180D02*
X92126D01*
X89062Y42198D02*
Y42605D01*
X90412D01*
X92126D01*
X89098Y46181D02*
Y46589D01*
X90448D01*
X89055Y53536D02*
Y53944D01*
X92126Y53536D02*
Y53944D01*
X89055D02*
X90405D01*
X89055Y53536D02*
X92126D01*
X90405Y53944D02*
X92126D01*
X72102Y42927D02*
X74052D01*
X70752Y42520D02*
X74052D01*
X70752Y42927D02*
X72102D01*
X74052Y42520D02*
Y42927D01*
X70752Y42520D02*
Y42927D01*
X52420Y43032D02*
Y43429D01*
Y43032D02*
X54370D01*
X56320D01*
Y43429D01*
X52420D02*
X56320D01*
X62144Y43072D02*
Y43465D01*
Y43072D02*
X66044D01*
Y43465D01*
X64094D02*
X66044D01*
X62144D02*
X64094D01*
X9500Y10000D02*
Y57250D01*
D229*
X12972Y45630D02*
X14055D01*
X12972Y43268D02*
Y45630D01*
Y43268D02*
X14055D01*
X12283Y43366D02*
X12972D01*
X12283D02*
Y43760D01*
X12972D01*
X12283Y45138D02*
X12972D01*
X12283D02*
Y45532D01*
X12972D01*
X15138D02*
X15827D01*
Y45138D02*
Y45532D01*
X15138Y45138D02*
X15827D01*
X15138Y43760D02*
X15827D01*
Y43366D02*
Y43760D01*
X15138Y43366D02*
X15827D01*
X14055Y43268D02*
X15138D01*
Y45630D01*
X14055D02*
X15138D01*
X17776Y43268D02*
X18858D01*
X17776D02*
Y45630D01*
X18858D01*
X17087Y45532D02*
X17776D01*
X17087Y45138D02*
Y45532D01*
Y45138D02*
X17776D01*
X17087Y43760D02*
X17776D01*
X17087Y43366D02*
Y43760D01*
Y43366D02*
X17776D01*
X19941D02*
X20630D01*
Y43760D01*
X19941D02*
X20630D01*
X19941Y45138D02*
X20630D01*
Y45532D01*
X19941D02*
X20630D01*
X18858Y45630D02*
X19941D01*
Y43268D02*
Y45630D01*
X18858Y43268D02*
X19941D01*
M02*
