G04*
G04 #@! TF.GenerationSoftware,Altium Limited,CircuitMaker,2.2.1 (2.2.1.6)*
G04*
G04 Layer_Color=15314666*
%FSLAX24Y24*%
%MOIN*%
G70*
G04*
G04 #@! TF.SameCoordinates,A2895FC5-3AE1-40D1-BB98-85C0BD90A9E4*
G04*
G04*
G04 #@! TF.FilePolarity,Positive*
G04*
G01*
G75*
%ADD10C,0.0100*%
%ADD11C,0.0098*%
%ADD17C,0.0039*%
%ADD18C,0.0059*%
%ADD19C,0.0050*%
%ADD23C,0.0010*%
%ADD24C,0.0001*%
%ADD229C,0.0020*%
%ADD230C,0.0040*%
G36*
X23369Y30778D02*
X23575D01*
Y30691D01*
X23369D01*
Y30485D01*
X23282D01*
Y30691D01*
X23075D01*
Y30778D01*
X23282D01*
Y30984D01*
X23369D01*
Y30778D01*
D02*
G37*
D10*
X65839Y32559D02*
X66839D01*
X66339Y32059D02*
Y33059D01*
X64739Y31559D02*
Y33559D01*
Y31559D02*
X67939D01*
Y33559D01*
X64739D02*
X67939D01*
X73081Y31224D02*
X76281D01*
Y29224D02*
Y31224D01*
X73081Y29224D02*
X76281D01*
X73081D02*
Y31224D01*
X74681Y29724D02*
Y30724D01*
X74181Y30224D02*
X75181D01*
X73085Y28953D02*
X76285D01*
Y26953D02*
Y28953D01*
X73085Y26953D02*
X76285D01*
X73085D02*
Y28953D01*
X74685Y27453D02*
Y28453D01*
X74185Y27953D02*
X75185D01*
X68912Y33520D02*
X72112D01*
Y31520D02*
Y33520D01*
X68912Y31520D02*
X72112D01*
X68912D02*
Y33520D01*
X70512Y32020D02*
Y33020D01*
X70012Y32520D02*
X71012D01*
X73085Y33520D02*
X76285D01*
Y31520D02*
Y33520D01*
X73085Y31520D02*
X76285D01*
X73085D02*
Y33520D01*
X74685Y32020D02*
Y33020D01*
X74185Y32520D02*
X75185D01*
X60565Y33520D02*
X63765D01*
Y31520D02*
Y33520D01*
X60565Y31520D02*
X63765D01*
X60565D02*
Y33520D01*
X62165Y32020D02*
Y33020D01*
X61665Y32520D02*
X62665D01*
X73255Y46108D02*
Y51608D01*
Y46108D02*
X74855D01*
Y51608D01*
X73255D02*
X74855D01*
X71287Y46108D02*
Y51608D01*
Y46108D02*
X72887D01*
Y51608D01*
X71287D02*
X72887D01*
X58259Y39853D02*
Y45353D01*
X56659D02*
X58259D01*
X56659Y39853D02*
Y45353D01*
Y39853D02*
X58259D01*
X60309D02*
Y45353D01*
X58709D02*
X60309D01*
X58709Y39853D02*
Y45353D01*
Y39853D02*
X60309D01*
X87677Y32244D02*
X87874Y32441D01*
Y33228D01*
X87480Y32638D02*
Y33228D01*
X85906Y32244D02*
X87677D01*
X86102Y32638D02*
X87480D01*
X86102Y47480D02*
Y48071D01*
X87677Y47087D02*
X87874Y47283D01*
Y48071D01*
X87480Y47480D02*
Y48071D01*
X85709Y47283D02*
Y48071D01*
Y47283D02*
X85906Y47087D01*
X86102Y47480D02*
X87480D01*
X85906Y47087D02*
X87677D01*
X85709Y48071D02*
X86102D01*
X87480D02*
X87874D01*
X86142Y40079D02*
Y40669D01*
X87717Y39685D02*
X87913Y39882D01*
Y40669D01*
X87520Y40079D02*
Y40669D01*
X85748Y39882D02*
Y40669D01*
Y39882D02*
X85945Y39685D01*
X86142Y40079D02*
X87520D01*
X85945Y39685D02*
X87717D01*
X85748Y40669D02*
X86142D01*
X87520D02*
X87913D01*
X86102Y32638D02*
Y33228D01*
X85709Y32441D02*
Y33228D01*
Y32441D02*
X85906Y32244D01*
X85709Y33228D02*
X86102D01*
X87480D02*
X87874D01*
X86063Y17638D02*
Y18228D01*
X87638Y17244D02*
X87835Y17441D01*
Y18228D01*
X87441Y17638D02*
Y18228D01*
X85669Y17441D02*
Y18228D01*
Y17441D02*
X85866Y17244D01*
X86063Y17638D02*
X87441D01*
X85866Y17244D02*
X87638D01*
X85669Y18228D02*
X86063D01*
X87441D02*
X87835D01*
X87795Y25787D02*
X87795Y25787D01*
X87402Y25787D02*
X87795D01*
X86024Y25197D02*
Y25787D01*
X87598Y24803D02*
X87795Y25000D01*
Y25787D01*
X87402Y25197D02*
Y25787D01*
X85630D02*
X86024D01*
X85630Y25000D02*
Y25787D01*
Y25000D02*
X85827Y24803D01*
X86024Y25197D02*
X87402D01*
X85827Y24803D02*
X87598D01*
D11*
X9231Y20126D02*
Y23876D01*
D17*
X17126Y41900D02*
Y42274D01*
X16939Y42087D02*
X17313D01*
X17520Y38228D02*
X17913D01*
X17717Y38031D02*
Y38425D01*
X31654Y45827D02*
Y46220D01*
X31457Y46024D02*
X31850D01*
X77215Y25157D02*
X78632D01*
Y24528D02*
Y25157D01*
X77215Y24528D02*
X78632D01*
X77215D02*
Y25157D01*
X77215Y17598D02*
X78632D01*
Y16968D02*
Y17598D01*
X77215Y16968D02*
X78632D01*
X77215D02*
Y17598D01*
X77215Y55000D02*
X78632D01*
Y54370D02*
Y55000D01*
X77215Y54370D02*
X78632D01*
X77215D02*
Y55000D01*
X79193Y24803D02*
X79547D01*
X79370Y24626D02*
Y24980D01*
X79193Y17244D02*
X79547D01*
X79370Y17067D02*
Y17421D01*
X79193Y54685D02*
X79547D01*
X79370Y54508D02*
Y54862D01*
X77215Y47520D02*
X78632D01*
Y46890D02*
Y47520D01*
X77215Y46890D02*
X78632D01*
X77215D02*
Y47520D01*
Y40079D02*
X78632D01*
Y39449D02*
Y40079D01*
X77215Y39449D02*
X78632D01*
X77215D02*
Y40079D01*
Y32638D02*
X78632D01*
Y32008D02*
Y32638D01*
X77215Y32008D02*
X78632D01*
X77215D02*
Y32638D01*
X79173Y47165D02*
X79528D01*
X79350Y46988D02*
Y47343D01*
X79193Y39764D02*
X79547D01*
X79370Y39587D02*
Y39941D01*
X79193Y32283D02*
X79547D01*
X79370Y32106D02*
Y32461D01*
X89646Y54488D02*
Y54882D01*
X89449Y54685D02*
X89843D01*
X45402Y24646D02*
X49496D01*
Y25748D01*
X45402D02*
X49496D01*
X45402Y24646D02*
Y25748D01*
Y23425D02*
X49496D01*
Y24528D01*
X45402D02*
X49496D01*
X45402Y23425D02*
Y24528D01*
Y22205D02*
X49496D01*
Y23307D01*
X45402D02*
X49496D01*
X45402Y22205D02*
Y23307D01*
X42165Y29252D02*
Y29646D01*
X41968Y29449D02*
X42362D01*
X41220Y29252D02*
Y29646D01*
X41024Y29449D02*
X41417D01*
X89606Y17244D02*
Y17638D01*
X89409Y17441D02*
X89803D01*
X88307Y25787D02*
X88701D01*
X88504Y25591D02*
Y25984D01*
X89567Y24764D02*
Y25157D01*
X89370Y24961D02*
X89764D01*
X89370Y25787D02*
X89764D01*
X89567Y25591D02*
Y25984D01*
X88465Y48071D02*
X88858D01*
X88661Y47874D02*
Y48268D01*
X88425Y55433D02*
X88819D01*
X88622Y55236D02*
Y55630D01*
X89567Y48071D02*
X89961D01*
X89764Y47874D02*
Y48268D01*
X89488Y55472D02*
X89882D01*
X89685Y55276D02*
Y55669D01*
X67441Y28858D02*
Y29252D01*
X67244Y29055D02*
X67638D01*
X89567Y47323D02*
X89961D01*
X89764Y47126D02*
Y47520D01*
X89528Y39921D02*
X89921D01*
X89724Y39724D02*
Y40118D01*
X54488Y28819D02*
Y29213D01*
X54291Y29016D02*
X54685D01*
X89449Y32480D02*
X89843D01*
X89646Y32283D02*
Y32677D01*
X42913Y34567D02*
Y34961D01*
X42717Y34764D02*
X43110D01*
X88583Y18032D02*
Y18425D01*
X88386Y18228D02*
X88780D01*
X88583Y33150D02*
Y33543D01*
X88386Y33346D02*
X88780D01*
X88583Y40630D02*
Y41024D01*
X88386Y40827D02*
X88780D01*
X89606Y18071D02*
Y18465D01*
X89409Y18268D02*
X89803D01*
X89646Y33150D02*
Y33543D01*
X89449Y33346D02*
X89843D01*
X89724Y40551D02*
Y40945D01*
X89528Y40748D02*
X89921D01*
X53622Y32047D02*
X54016D01*
X53819Y31850D02*
Y32244D01*
X53622Y31417D02*
X54016D01*
X53819Y31220D02*
Y31614D01*
X37047Y48032D02*
X37441D01*
X37244Y47835D02*
Y48228D01*
X62283Y30984D02*
X62677D01*
X62480Y30787D02*
Y31181D01*
X49094Y30984D02*
X49488D01*
X49291Y30787D02*
Y31181D01*
X30748Y55394D02*
Y55787D01*
X30551Y55591D02*
X30945D01*
X16319Y51748D02*
X16713D01*
X16516Y51551D02*
Y51944D01*
X36260Y38819D02*
Y39213D01*
X36063Y39016D02*
X36457D01*
X34606Y43632D02*
Y44026D01*
X34409Y43829D02*
X34803D01*
X29213Y48002D02*
Y48376D01*
X29026Y48189D02*
X29400D01*
X29203Y47490D02*
Y47864D01*
X29016Y47677D02*
X29390D01*
X38500Y18613D02*
Y18987D01*
X38313Y18800D02*
X38687D01*
X47008Y18553D02*
Y18927D01*
X46821Y18740D02*
X47195D01*
X48032Y18553D02*
Y18927D01*
X47844Y18740D02*
X48218D01*
X42244Y18553D02*
Y18927D01*
X42057Y18740D02*
X42431D01*
X43268Y18553D02*
Y18927D01*
X43081Y18740D02*
X43455D01*
X23268Y18553D02*
Y18927D01*
X23081Y18740D02*
X23455D01*
X22819Y16535D02*
Y16929D01*
X22622Y16732D02*
X23016D01*
X27795Y16535D02*
Y16929D01*
X27598Y16732D02*
X27992D01*
X32811Y16535D02*
Y16929D01*
X32614Y16732D02*
X33008D01*
X37732Y16535D02*
Y16929D01*
X37535Y16732D02*
X37929D01*
X42654Y16535D02*
Y16929D01*
X42457Y16732D02*
X42850D01*
X47575Y16535D02*
Y16929D01*
X47378Y16732D02*
X47772D01*
X27844Y18819D02*
X28219D01*
X28031Y18632D02*
Y19006D01*
X32569Y18740D02*
X32943D01*
X32756Y18553D02*
Y18927D01*
X37333Y18740D02*
X37707D01*
X37520Y18553D02*
Y18927D01*
X24065Y18740D02*
X24439D01*
X24252Y18553D02*
Y18927D01*
X28813Y18800D02*
X29187D01*
X29000Y18613D02*
Y18987D01*
X33563Y18800D02*
X33937D01*
X33750Y18613D02*
Y18987D01*
X10433Y41073D02*
X11063D01*
Y42490D01*
X10433D02*
X11063D01*
X10433Y41073D02*
Y42490D01*
X11693Y42106D02*
Y42461D01*
X11516Y42283D02*
X11870D01*
X18159D02*
X18533D01*
X18346Y42096D02*
Y42470D01*
X16782Y36220D02*
X17156D01*
X16968Y36033D02*
Y36407D01*
X16496Y41900D02*
Y42274D01*
X16309Y42087D02*
X16683D01*
X19656Y42283D02*
X20030D01*
X19843Y42096D02*
Y42470D01*
X14646Y39567D02*
X15039D01*
X14843Y39370D02*
Y39764D01*
X16024Y39567D02*
X16417D01*
X16220Y39370D02*
Y39764D01*
X15276Y38465D02*
X15669D01*
X15472Y38268D02*
Y38661D01*
X19646Y37844D02*
Y38219D01*
X19459Y38031D02*
X19833D01*
X24416Y53888D02*
X24816D01*
X24616Y53688D02*
Y54088D01*
X27723Y51750D02*
X28077D01*
X27900Y51573D02*
Y51927D01*
X23356Y56142D02*
X23730D01*
X23543Y55955D02*
Y56329D01*
X23907Y56142D02*
X24281D01*
X24094Y55955D02*
Y56329D01*
X25863Y44350D02*
X26237D01*
X26050Y44163D02*
Y44537D01*
X37992Y43159D02*
Y43533D01*
X37805Y43346D02*
X38179D01*
X28996Y48858D02*
X29370D01*
X29183Y48671D02*
Y49045D01*
X28996Y49370D02*
X29370D01*
X29183Y49183D02*
Y49557D01*
X43868Y51929D02*
X44242D01*
X44055Y51742D02*
Y52116D01*
X22835Y44183D02*
Y44557D01*
X22648Y44370D02*
X23022D01*
X40709Y51782D02*
Y52156D01*
X40522Y51968D02*
X40896D01*
X17661Y31065D02*
X21661D01*
X17661D02*
Y33265D01*
X21661D01*
Y31065D02*
Y33265D01*
X17323Y30846D02*
Y31201D01*
X17146Y31024D02*
X17500D01*
X13153Y30800D02*
X13547D01*
X13350Y30603D02*
Y30997D01*
X55805Y47643D02*
X56198D01*
X56002Y47446D02*
Y47839D01*
X65702Y47396D02*
Y47789D01*
X65505Y47593D02*
X65898D01*
X41663Y54700D02*
X42037D01*
X41850Y54513D02*
Y54887D01*
X27618Y54094D02*
X27972D01*
X27795Y53917D02*
Y54272D01*
X27623Y54700D02*
X27977D01*
X27800Y54523D02*
Y54877D01*
X27618Y55276D02*
X27972D01*
X27795Y55098D02*
Y55453D01*
X21732Y45039D02*
X22126D01*
X21929Y44843D02*
Y45236D01*
X21900Y39653D02*
Y40047D01*
X21703Y39850D02*
X22097D01*
X26850Y48819D02*
Y49213D01*
X26654Y49016D02*
X27047D01*
X26850Y47362D02*
Y47756D01*
X26654Y47559D02*
X27047D01*
X24200Y48353D02*
Y48747D01*
X24003Y48550D02*
X24397D01*
X27723Y51100D02*
X28077D01*
X27900Y50923D02*
Y51277D01*
X27623Y55900D02*
X27977D01*
X27800Y55723D02*
Y56077D01*
X34724Y55866D02*
X35079D01*
X34902Y55689D02*
Y56043D01*
X34744Y54409D02*
X35098D01*
X34921Y54232D02*
Y54587D01*
X23858Y50955D02*
Y51329D01*
X23671Y51142D02*
X24045D01*
X23307Y50955D02*
Y51329D01*
X23120Y51142D02*
X23494D01*
X22205Y50955D02*
Y51329D01*
X22018Y51142D02*
X22392D01*
X34744Y55157D02*
X35098D01*
X34921Y54980D02*
Y55335D01*
X22756Y50955D02*
Y51329D01*
X22569Y51142D02*
X22943D01*
X24409Y50955D02*
Y51329D01*
X24222Y51142D02*
X24596D01*
X22850Y48363D02*
Y48737D01*
X22663Y48550D02*
X23037D01*
X22250Y48363D02*
Y48737D01*
X22063Y48550D02*
X22437D01*
X23450Y48363D02*
Y48737D01*
X23263Y48550D02*
X23637D01*
X35807Y56301D02*
X39901D01*
X35807Y55199D02*
Y56301D01*
Y55199D02*
X39901D01*
Y56301D01*
X35849Y52899D02*
X39943D01*
Y54001D01*
X35849D02*
X39943D01*
X35849Y52899D02*
Y54001D01*
X28049Y39930D02*
X30135D01*
Y43001D01*
X28049D02*
X30135D01*
X28049Y39930D02*
Y43001D01*
Y44115D02*
Y46201D01*
X30135D01*
Y44115D02*
Y46201D01*
X28049Y44115D02*
X30135D01*
X23303Y45900D02*
X23697D01*
X23500Y45703D02*
Y46097D01*
X22003Y52650D02*
X22397D01*
X22200Y52453D02*
Y52847D01*
X31299Y27236D02*
X32402D01*
X31299D02*
Y31331D01*
X32402D01*
Y27236D02*
Y31331D01*
X32598Y27236D02*
X33701D01*
X32598D02*
Y31331D01*
X33701D01*
Y27236D02*
Y31331D01*
X29999Y27249D02*
X31101D01*
X29999D02*
Y31343D01*
X31101D01*
Y27249D02*
Y31343D01*
X28699Y27249D02*
X29801D01*
X28699D02*
Y31343D01*
X29801D01*
Y27249D02*
Y31343D01*
X33899Y27236D02*
X35001D01*
X33899D02*
Y31331D01*
X35001D01*
Y27236D02*
Y31331D01*
D18*
X25315Y29134D02*
G03*
X25315Y29134I-1969J0D01*
G01*
X21811Y30315D02*
X24921D01*
D19*
X12067Y45807D02*
Y47028D01*
X11476Y45807D02*
X12067D01*
X11476D02*
Y47028D01*
X12067D01*
X87871Y29961D02*
X88271D01*
X88071Y29761D02*
Y30161D01*
X87910Y52283D02*
X88310D01*
X88110Y52083D02*
Y52483D01*
X88071Y22241D02*
Y22641D01*
X87871Y22441D02*
X88271D01*
X88071Y14800D02*
Y15200D01*
X87871Y15000D02*
X88271D01*
X88110Y44643D02*
Y45043D01*
X87910Y44843D02*
X88310D01*
X88110Y37202D02*
Y37602D01*
X87910Y37402D02*
X88310D01*
X15571Y40020D02*
Y40610D01*
Y40020D02*
X16791D01*
Y40610D01*
X15571D02*
X16791D01*
X20059Y37421D02*
X20650D01*
Y38642D01*
X20059D02*
X20650D01*
X20059Y37421D02*
Y38642D01*
X14547Y36555D02*
X15768D01*
Y35965D02*
Y36555D01*
X14547Y35965D02*
X15768D01*
X14547D02*
Y36555D01*
X14272Y40020D02*
X15492D01*
X14272D02*
Y40610D01*
X15492D01*
Y40020D02*
Y40610D01*
X19970Y19894D02*
Y26394D01*
Y19894D02*
X22470D01*
Y26394D01*
X19970D02*
X22470D01*
X21220Y22894D02*
Y23394D01*
X20970Y23144D02*
X21470D01*
D23*
X92087Y10006D02*
Y57250D01*
X42047Y10000D02*
X92087D01*
X9500Y57250D02*
X92087D01*
X9500Y10000D02*
Y57250D01*
Y10000D02*
Y57250D01*
Y10000D02*
X42900D01*
X77559Y52047D02*
X78937D01*
X77126Y51614D02*
X77559Y52047D01*
X77126Y50236D02*
Y51614D01*
Y50236D02*
X77559Y49803D01*
X78937D01*
Y50157D01*
X77795D02*
X78937D01*
X77559Y50394D02*
X77795Y50157D01*
X77559Y50394D02*
Y51417D01*
X77795Y51654D01*
X78937D01*
Y52047D01*
X77559Y44606D02*
X78937D01*
X77126Y44173D02*
X77559Y44606D01*
X77126Y42795D02*
Y44173D01*
Y42795D02*
X77559Y42362D01*
X78937D01*
Y42717D01*
X77795D02*
X78937D01*
X77559Y42953D02*
X77795Y42717D01*
X77559Y42953D02*
Y43976D01*
X77795Y44213D01*
X78937D01*
Y44606D01*
X77559Y37165D02*
X78937D01*
X77126Y36732D02*
X77559Y37165D01*
X77126Y35354D02*
Y36732D01*
Y35354D02*
X77559Y34921D01*
X78937D01*
Y35276D01*
X77795D02*
X78937D01*
X77559Y35512D02*
X77795Y35276D01*
X77559Y35512D02*
Y36535D01*
X77795Y36772D01*
X78937D01*
Y37165D01*
X77559Y29646D02*
X78937D01*
X77126Y29213D02*
X77559Y29646D01*
X77126Y27835D02*
Y29213D01*
Y27835D02*
X77559Y27402D01*
X78937D01*
Y27756D01*
X77795D02*
X78937D01*
X77559Y27992D02*
X77795Y27756D01*
X77559Y27992D02*
Y29016D01*
X77795Y29252D01*
X78937D01*
Y29646D01*
X77520Y14646D02*
X78898D01*
X77087Y14213D02*
X77520Y14646D01*
X77087Y12835D02*
Y14213D01*
Y12835D02*
X77520Y12402D01*
X78898D01*
Y12756D01*
X77756D02*
X78898D01*
X77520Y12992D02*
X77756Y12756D01*
X77520Y12992D02*
Y14016D01*
X77756Y14252D01*
X78898D01*
Y14646D01*
Y21772D02*
Y22165D01*
X77756Y21772D02*
X78898D01*
X77520Y21535D02*
X77756Y21772D01*
X77520Y20512D02*
Y21535D01*
Y20512D02*
X77756Y20276D01*
X78898D01*
Y19921D02*
Y20276D01*
X77520Y19921D02*
X78898D01*
X77087Y20354D02*
X77520Y19921D01*
X77087Y20354D02*
Y21732D01*
X77520Y22165D01*
X78898D01*
D24*
X92126Y16246D02*
Y16654D01*
X90412Y27723D02*
X92126D01*
X89062Y27316D02*
X92126D01*
Y27723D01*
X90448Y31746D02*
X92126D01*
X89098Y31339D02*
X92126D01*
Y31654D02*
Y31755D01*
Y31348D02*
Y31450D01*
Y35118D02*
Y35220D01*
Y34813D02*
Y34914D01*
Y39094D02*
Y39196D01*
Y38789D02*
Y38891D01*
Y39094D01*
Y42198D02*
Y42605D01*
X89062Y42198D02*
X92126D01*
X89098Y49646D02*
Y50053D01*
X92126Y49646D02*
Y50053D01*
X90448D02*
X92126D01*
X89098D02*
X90448D01*
X89098Y49646D02*
X92126D01*
X90448Y46589D02*
X92126D01*
X89098Y46181D02*
X92126D01*
Y46589D01*
Y19813D02*
Y19914D01*
Y20118D02*
Y20220D01*
Y19914D02*
Y20118D01*
X90412Y20204D02*
X92126D01*
X89055Y19796D02*
X92126D01*
X89062Y16246D02*
Y16654D01*
X90412D01*
X89062Y16246D02*
X92126D01*
X90412Y16654D02*
X92126D01*
X89055Y19796D02*
Y20204D01*
X90412D01*
X89062Y23773D02*
Y24180D01*
X92126Y23773D02*
Y24180D01*
X89062D02*
X90412D01*
X89062Y23773D02*
X92126D01*
X90412Y24180D02*
X92126D01*
X89062Y27316D02*
Y27723D01*
X90412D01*
X89098Y31339D02*
Y31746D01*
X92126Y31450D02*
Y31654D01*
X89098Y31746D02*
X90448D01*
X89062Y34796D02*
Y35204D01*
X92126Y34914D02*
Y35118D01*
X89062Y35204D02*
X90412D01*
X89062Y34796D02*
X92126D01*
X90412Y35204D02*
X92126D01*
X89102Y38773D02*
Y39180D01*
X90452D01*
X89102Y38773D02*
X92126D01*
X90452Y39180D02*
X92126D01*
X89062Y42198D02*
Y42605D01*
X90412D01*
X92126D01*
X89098Y46181D02*
Y46589D01*
X90448D01*
X89055Y53536D02*
Y53944D01*
X92126Y53536D02*
Y53944D01*
X89055D02*
X90405D01*
X89055Y53536D02*
X92126D01*
X90405Y53944D02*
X92126D01*
X72102Y42927D02*
X74052D01*
X70752Y42520D02*
X74052D01*
X70752Y42927D02*
X72102D01*
X74052Y42520D02*
Y42927D01*
X70752Y42520D02*
Y42927D01*
X52420Y43032D02*
Y43429D01*
Y43032D02*
X54370D01*
X56320D01*
Y43429D01*
X52420D02*
X56320D01*
X62144Y43072D02*
Y43465D01*
Y43072D02*
X66044D01*
Y43465D01*
X64094D02*
X66044D01*
X62144D02*
X64094D01*
X9500Y10000D02*
Y57250D01*
D229*
X16890Y42520D02*
X17362D01*
X16890Y41654D02*
X17362D01*
Y42520D01*
X16890Y41654D02*
Y42520D01*
X13858Y44449D02*
X14055D01*
X14252D01*
X14055D02*
Y44646D01*
Y44252D02*
Y44449D01*
X12087Y43169D02*
Y45728D01*
Y43169D02*
X16024D01*
Y45728D01*
X12087D02*
X16024D01*
X16693Y37205D02*
Y39252D01*
X18740Y37205D02*
Y39252D01*
X16693D02*
X18740D01*
X16693Y37205D02*
X18740D01*
X31299Y46614D02*
X32008D01*
X31299Y45433D02*
Y46614D01*
X32008Y45433D02*
Y46614D01*
X31299Y45433D02*
X32008D01*
X79783Y24587D02*
Y25020D01*
X78957Y24587D02*
Y25020D01*
Y24587D02*
X79783D01*
X78957Y25020D02*
X79783D01*
Y17028D02*
Y17461D01*
X78957Y17028D02*
Y17461D01*
Y17028D02*
X79783D01*
X78957Y17461D02*
X79783D01*
Y54468D02*
Y54902D01*
X78957Y54468D02*
Y54902D01*
Y54468D02*
X79783D01*
X78957Y54902D02*
X79783D01*
X79764Y46949D02*
Y47382D01*
X78937Y46949D02*
Y47382D01*
Y46949D02*
X79764D01*
X78937Y47382D02*
X79764D01*
X79783Y39547D02*
Y39980D01*
X78957Y39547D02*
Y39980D01*
Y39547D02*
X79783D01*
X78957Y39980D02*
X79783D01*
Y32067D02*
Y32500D01*
X78957Y32067D02*
Y32500D01*
Y32067D02*
X79783D01*
X78957Y32500D02*
X79783D01*
X89055Y54331D02*
Y55039D01*
Y54331D02*
X90236D01*
X89055Y55039D02*
X90236D01*
Y54331D02*
Y55039D01*
X41811Y28858D02*
X42520D01*
Y30039D01*
X41811Y28858D02*
Y30039D01*
X42520D01*
X40866Y28858D02*
X41575D01*
Y30039D01*
X40866Y28858D02*
Y30039D01*
X41575D01*
X89016Y17087D02*
Y17795D01*
Y17087D02*
X90197D01*
X89016Y17795D02*
X90197D01*
Y17087D02*
Y17795D01*
X88839Y25118D02*
Y26457D01*
X88169Y25118D02*
Y26457D01*
X88839D01*
X88169Y25118D02*
X88839D01*
X90157Y24606D02*
Y25315D01*
X88976D02*
X90157D01*
X88976Y24606D02*
X90157D01*
X88976D02*
Y25315D01*
X89035Y25492D02*
Y26083D01*
X90098Y25492D02*
Y26083D01*
X89035D02*
X90098D01*
X89035Y25492D02*
X90098D01*
X88996Y47402D02*
Y48740D01*
X88327Y47402D02*
Y48740D01*
X88996D01*
X88327Y47402D02*
X88996D01*
X88957Y54764D02*
Y56102D01*
X88287Y54764D02*
Y56102D01*
X88957D01*
X88287Y54764D02*
X88957D01*
X89232Y47776D02*
Y48366D01*
X90295Y47776D02*
Y48366D01*
X89232D02*
X90295D01*
X89232Y47776D02*
X90295D01*
X89154Y55177D02*
Y55768D01*
X90217Y55177D02*
Y55768D01*
X89154D02*
X90217D01*
X89154Y55177D02*
X90217D01*
X67087Y28465D02*
X67795D01*
Y29646D01*
X67087Y28465D02*
Y29646D01*
X67795D01*
X90354Y46968D02*
Y47677D01*
X89173D02*
X90354D01*
X89173Y46968D02*
X90354D01*
X89173D02*
Y47677D01*
X90315Y39567D02*
Y40276D01*
X89134D02*
X90315D01*
X89134Y39567D02*
X90315D01*
X89134D02*
Y40276D01*
X54134Y29606D02*
X54843D01*
X54134Y28425D02*
Y29606D01*
X54843Y28425D02*
Y29606D01*
X54134Y28425D02*
X54843D01*
X90236Y32126D02*
Y32835D01*
X89055D02*
X90236D01*
X89055Y32126D02*
X90236D01*
X89055D02*
Y32835D01*
X42037Y31693D02*
Y37835D01*
Y31693D02*
X45738Y31693D01*
Y37835D01*
X42037Y37835D02*
X45738Y37835D01*
X88248Y17559D02*
X88917D01*
X88248Y18898D02*
X88917D01*
X88248Y17559D02*
Y18898D01*
X88917Y17559D02*
Y18898D01*
X88248Y32677D02*
X88917D01*
X88248Y34016D02*
X88917D01*
X88248Y32677D02*
Y34016D01*
X88917Y32677D02*
Y34016D01*
X88248Y40157D02*
X88917D01*
X88248Y41496D02*
X88917D01*
X88248Y40157D02*
Y41496D01*
X88917Y40157D02*
Y41496D01*
X89075Y17972D02*
X90138D01*
X89075Y18563D02*
X90138D01*
Y17972D02*
Y18563D01*
X89075Y17972D02*
Y18563D01*
X89114Y33051D02*
X90177D01*
X89114Y33642D02*
X90177D01*
Y33051D02*
Y33642D01*
X89114Y33051D02*
Y33642D01*
X89193Y40453D02*
X90256D01*
X89193Y41043D02*
X90256D01*
Y40453D02*
Y41043D01*
X89193Y40453D02*
Y41043D01*
X53287Y31752D02*
Y32343D01*
X54350Y31752D02*
Y32343D01*
X53287D02*
X54350D01*
X53287Y31752D02*
X54350D01*
X53287Y31122D02*
Y31713D01*
X54350Y31122D02*
Y31713D01*
X53287D02*
X54350D01*
X53287Y31122D02*
X54350D01*
X37776Y47736D02*
Y48327D01*
X36713Y47736D02*
Y48327D01*
Y47736D02*
X37776D01*
X36713Y48327D02*
X37776D01*
X62047Y30748D02*
Y31220D01*
X62913Y30748D02*
Y31220D01*
X62047D02*
X62913D01*
X62047Y30748D02*
X62913D01*
X48858Y30748D02*
Y31220D01*
X49724Y30748D02*
Y31220D01*
X48858D02*
X49724D01*
X48858Y30748D02*
X49724D01*
X30453Y55059D02*
X31043D01*
X30453Y56122D02*
X31043D01*
X30453Y55059D02*
Y56122D01*
X31043Y55059D02*
Y56122D01*
X35906Y38425D02*
X36614D01*
Y39606D01*
X35906Y38425D02*
Y39606D01*
X36614D01*
X32087Y41565D02*
X37126D01*
X32087Y46093D02*
X37126D01*
Y41565D02*
Y46093D01*
X32087Y41565D02*
Y46093D01*
X16890Y43169D02*
X20827D01*
X16890D02*
Y45728D01*
X20827D01*
Y43169D02*
Y45728D01*
X18858Y44449D02*
Y44646D01*
Y44252D02*
Y44449D01*
X18661D02*
X18858D01*
X19055D01*
X28780Y47953D02*
X29646D01*
X28780Y48425D02*
X29646D01*
Y47953D02*
Y48425D01*
X28780Y47953D02*
Y48425D01*
X28770Y47441D02*
X29636D01*
X28770Y47913D02*
X29636D01*
Y47441D02*
Y47913D01*
X28770Y47441D02*
Y47913D01*
X38205Y19312D02*
X38795D01*
X38205Y18288D02*
X38795D01*
Y19312D01*
X38205Y18288D02*
Y19312D01*
X46772Y19173D02*
X47244D01*
X46772Y18307D02*
X47244D01*
Y19173D01*
X46772Y18307D02*
Y19173D01*
X47736Y19252D02*
X48327D01*
X47736Y18228D02*
X48327D01*
Y19252D01*
X47736Y18228D02*
Y19252D01*
X42008Y19173D02*
X42480D01*
X42008Y18307D02*
X42480D01*
Y19173D01*
X42008Y18307D02*
Y19173D01*
X42972Y19252D02*
X43563D01*
X42972Y18228D02*
X43563D01*
Y19252D01*
X42972Y18228D02*
Y19252D01*
X23031Y19173D02*
X23504D01*
X23031Y18307D02*
X23504D01*
Y19173D01*
X23031Y18307D02*
Y19173D01*
X27795Y18386D02*
Y19252D01*
X28268Y18386D02*
Y19252D01*
X27795Y18386D02*
X28268D01*
X27795Y19252D02*
X28268D01*
X32520Y18307D02*
Y19173D01*
X32992Y18307D02*
Y19173D01*
X32520Y18307D02*
X32992D01*
X32520Y19173D02*
X32992D01*
X37283Y18307D02*
Y19173D01*
X37756Y18307D02*
Y19173D01*
X37283Y18307D02*
X37756D01*
X37283Y19173D02*
X37756D01*
X23957Y18228D02*
Y19252D01*
X24547Y18228D02*
Y19252D01*
X23957Y18228D02*
X24547D01*
X23957Y19252D02*
X24547D01*
X28705Y18288D02*
Y19312D01*
X29295Y18288D02*
Y19312D01*
X28705Y18288D02*
X29295D01*
X28705Y19312D02*
X29295D01*
X33455Y18288D02*
Y19312D01*
X34045Y18288D02*
Y19312D01*
X33455Y18288D02*
X34045D01*
X33455Y19312D02*
X34045D01*
X11280Y42500D02*
X12106D01*
X11280Y42067D02*
X12106D01*
X11280D02*
Y42500D01*
X12106Y42067D02*
Y42500D01*
X18780Y42047D02*
Y42520D01*
X17913Y42047D02*
Y42520D01*
Y42047D02*
X18780D01*
X17913Y42520D02*
X18780D01*
X16449Y35950D02*
Y36490D01*
X17488Y35950D02*
Y36490D01*
X16449D02*
X17488D01*
X16449Y35950D02*
X17488D01*
X16260Y42520D02*
X16732D01*
X16260Y41654D02*
X16732D01*
Y42520D01*
X16260Y41654D02*
Y42520D01*
X19409Y42047D02*
Y42520D01*
X20276Y42047D02*
Y42520D01*
X19409D02*
X20276D01*
X19409Y42047D02*
X20276D01*
X15433Y39213D02*
Y39921D01*
X14252D02*
X15433D01*
X14252Y39213D02*
X15433D01*
X14252D02*
Y39921D01*
X15630Y39213D02*
Y39921D01*
Y39213D02*
X16811D01*
X15630Y39921D02*
X16811D01*
Y39213D02*
Y39921D01*
X14547Y37677D02*
Y39252D01*
X16398Y37677D02*
Y39252D01*
X14547D02*
X16398D01*
X14547Y37677D02*
X16398D01*
X19350Y37500D02*
X19941D01*
X19350Y38563D02*
X19941D01*
X19350Y37500D02*
Y38563D01*
X19941Y37500D02*
Y38563D01*
X22566Y52338D02*
Y55438D01*
X26716D01*
Y52338D02*
Y55438D01*
X22566Y52338D02*
X26716D01*
X27250Y51356D02*
Y52144D01*
X28550Y51356D02*
Y52144D01*
X27250D02*
X28550D01*
X27250Y51356D02*
X28550D01*
X23307Y55709D02*
Y56575D01*
X23780Y55709D02*
Y56575D01*
X23307Y55709D02*
X23780D01*
X23307Y56575D02*
X23780D01*
X23858Y55709D02*
Y56575D01*
X24331Y55709D02*
Y56575D01*
X23858Y55709D02*
X24331D01*
X23858Y56575D02*
X24331D01*
X25617Y44114D02*
Y44586D01*
X26483Y44114D02*
Y44586D01*
X25617D02*
X26483D01*
X25617Y44114D02*
X26483D01*
X37756Y43780D02*
X38228D01*
X37756Y42913D02*
X38228D01*
Y43780D01*
X37756Y42913D02*
Y43780D01*
X28750Y48622D02*
Y49094D01*
X29616Y48622D02*
Y49094D01*
X28750D02*
X29616D01*
X28750Y48622D02*
X29616D01*
X28750Y49134D02*
Y49606D01*
X29616Y49134D02*
Y49606D01*
X28750D02*
X29616D01*
X28750Y49134D02*
X29616D01*
X43622Y51693D02*
Y52165D01*
X44488Y51693D02*
Y52165D01*
X43622D02*
X44488D01*
X43622Y51693D02*
X44488D01*
X22402Y44606D02*
X23268D01*
X22402Y44134D02*
X23268D01*
X22402D02*
Y44606D01*
X23268Y44134D02*
Y44606D01*
X40276Y52205D02*
X41142D01*
X40276Y51732D02*
X41142D01*
X40276D02*
Y52205D01*
X41142Y51732D02*
Y52205D01*
X17106Y30610D02*
X17539D01*
X17106Y31437D02*
X17539D01*
X17106Y30610D02*
Y31437D01*
X17539Y30610D02*
Y31437D01*
X41330Y54430D02*
Y54970D01*
X42370Y54430D02*
Y54970D01*
X41330D02*
X42370D01*
X41330Y54430D02*
X42370D01*
X27146Y53701D02*
Y54488D01*
X28445Y53701D02*
Y54488D01*
X27146D02*
X28445D01*
X27146Y53701D02*
X28445D01*
X27150Y54306D02*
Y55094D01*
X28450Y54306D02*
Y55094D01*
X27150D02*
X28450D01*
X27150Y54306D02*
X28450D01*
X27146Y54882D02*
Y55669D01*
X28445Y54882D02*
Y55669D01*
X27146D02*
X28445D01*
X27146Y54882D02*
X28445D01*
X21083Y44528D02*
Y45551D01*
X22776Y44528D02*
Y45551D01*
X21083D02*
X22776D01*
X21083Y44528D02*
X22776D01*
X21054Y40362D02*
X22746D01*
X21054Y39338D02*
X22746D01*
X21054D02*
Y40362D01*
X22746Y39338D02*
Y40362D01*
X25915Y48228D02*
X27785D01*
X25915Y49803D02*
X27785D01*
Y48228D02*
Y49803D01*
X25915Y48228D02*
Y49803D01*
Y46772D02*
X27785D01*
X25915Y48346D02*
X27785D01*
Y46772D02*
Y48346D01*
X25915Y46772D02*
Y48346D01*
X23846Y49141D02*
X24554D01*
X23846Y47959D02*
Y49141D01*
X24554Y47959D02*
Y49141D01*
X23846Y47959D02*
X24554D01*
X27250Y50706D02*
Y51494D01*
X28550Y50706D02*
Y51494D01*
X27250D02*
X28550D01*
X27250Y50706D02*
X28550D01*
X27150Y55506D02*
Y56294D01*
X28450Y55506D02*
Y56294D01*
X27150D02*
X28450D01*
X27150Y55506D02*
X28450D01*
X34252Y55472D02*
Y56260D01*
X35551Y55472D02*
Y56260D01*
X34252D02*
X35551D01*
X34252Y55472D02*
X35551D01*
X34272Y54016D02*
Y54803D01*
X35571Y54016D02*
Y54803D01*
X34272D02*
X35571D01*
X34272Y54016D02*
X35571D01*
X23622Y50709D02*
X24094D01*
X23622Y51575D02*
X24094D01*
X23622Y50709D02*
Y51575D01*
X24094Y50709D02*
Y51575D01*
X23071Y50709D02*
X23543D01*
X23071Y51575D02*
X23543D01*
X23071Y50709D02*
Y51575D01*
X23543Y50709D02*
Y51575D01*
X21969Y50709D02*
X22441D01*
X21969Y51575D02*
X22441D01*
X21969Y50709D02*
Y51575D01*
X22441Y50709D02*
Y51575D01*
X34272Y54764D02*
Y55551D01*
X35571Y54764D02*
Y55551D01*
X34272D02*
X35571D01*
X34272Y54764D02*
X35571D01*
X22520Y50709D02*
X22992D01*
X22520Y51575D02*
X22992D01*
X22520Y50709D02*
Y51575D01*
X22992Y50709D02*
Y51575D01*
X24173Y50709D02*
X24646D01*
X24173Y51575D02*
X24646D01*
X24173Y50709D02*
Y51575D01*
X24646Y50709D02*
Y51575D01*
X22614Y48117D02*
X23086D01*
X22614Y48983D02*
X23086D01*
X22614Y48117D02*
Y48983D01*
X23086Y48117D02*
Y48983D01*
X22014Y48117D02*
X22486D01*
X22014Y48983D02*
X22486D01*
X22014Y48117D02*
Y48983D01*
X22486Y48117D02*
Y48983D01*
X23214Y48117D02*
X23686D01*
X23214Y48983D02*
X23686D01*
X23214Y48117D02*
Y48983D01*
X23686Y48117D02*
Y48983D01*
X24209Y44660D02*
Y47140D01*
X22791Y44660D02*
Y47140D01*
X24209D01*
X22791Y44660D02*
X24209D01*
X21159Y37520D02*
X21946D01*
X21159Y39095D02*
X21946D01*
X21159Y37520D02*
Y39095D01*
X21946Y37520D02*
Y39095D01*
X22109Y37520D02*
X22896D01*
X22109Y39095D02*
X22896D01*
X22109Y37520D02*
Y39095D01*
X22896Y37520D02*
Y39095D01*
X24009Y37520D02*
X24796D01*
X24009Y39095D02*
X24796D01*
X24009Y37520D02*
Y39095D01*
X24796Y37520D02*
Y39095D01*
X23059Y37520D02*
X23846D01*
X23059Y39095D02*
X23846D01*
X23059Y37520D02*
Y39095D01*
X23846Y37520D02*
Y39095D01*
X21846Y52059D02*
X22554D01*
Y53241D01*
X21846Y52059D02*
Y53241D01*
X22554D01*
D230*
X12972Y56767D02*
X20059D01*
X12972Y46728D02*
Y56767D01*
Y46728D02*
X20059D01*
Y56767D01*
M02*
