G04*
G04 #@! TF.GenerationSoftware,Altium Limited,CircuitMaker,2.2.1 (2.2.1.6)*
G04*
G04 Layer_Color=11661055*
%FSLAX24Y24*%
%MOIN*%
G70*
G04*
G04 #@! TF.SameCoordinates,A2895FC5-3AE1-40D1-BB98-85C0BD90A9E4*
G04*
G04*
G04 #@! TF.FilePolarity,Positive*
G04*
G01*
G75*
%ADD10C,0.0100*%
%ADD23C,0.0010*%
%ADD24C,0.0001*%
G36*
X66976Y33558D02*
X66981D01*
X66994Y33557D01*
X67010Y33556D01*
X67029Y33553D01*
X67049Y33551D01*
X67072Y33547D01*
X67096Y33541D01*
X67120Y33534D01*
X67145Y33526D01*
X67170Y33516D01*
X67195Y33504D01*
X67218Y33491D01*
X67242Y33475D01*
X67262Y33457D01*
X67263Y33456D01*
X67267Y33452D01*
X67272Y33446D01*
X67279Y33438D01*
X67287Y33427D01*
X67297Y33416D01*
X67307Y33402D01*
X67317Y33385D01*
X67327Y33367D01*
X67337Y33347D01*
X67346Y33325D01*
X67354Y33301D01*
X67361Y33276D01*
X67366Y33249D01*
X67370Y33221D01*
X67371Y33191D01*
Y33181D01*
X67370Y33173D01*
X67369Y33163D01*
X67368Y33153D01*
X67367Y33141D01*
X67364Y33128D01*
X67362Y33113D01*
X67358Y33098D01*
X67354Y33082D01*
X67349Y33065D01*
X67343Y33048D01*
X67337Y33032D01*
X67329Y33016D01*
X67320Y32999D01*
X67319Y32998D01*
X67317Y32995D01*
X67315Y32991D01*
X67311Y32985D01*
X67306Y32978D01*
X67299Y32970D01*
X67292Y32961D01*
X67283Y32951D01*
X67273Y32940D01*
X67262Y32929D01*
X67251Y32918D01*
X67238Y32908D01*
X67225Y32898D01*
X67210Y32887D01*
X67194Y32878D01*
X67178Y32868D01*
X67177Y32868D01*
X67173Y32867D01*
X67168Y32864D01*
X67162Y32862D01*
X67153Y32858D01*
X67143Y32854D01*
X67131Y32850D01*
X67118Y32846D01*
X67103Y32842D01*
X67088Y32838D01*
X67070Y32834D01*
X67053Y32830D01*
X67033Y32828D01*
X67013Y32825D01*
X66993Y32824D01*
X66972Y32824D01*
X66970D01*
X66967D01*
X66960D01*
X66952Y32824D01*
X66942Y32825D01*
X66930Y32826D01*
X66917Y32828D01*
X66902Y32829D01*
X66886Y32832D01*
X66869Y32835D01*
X66852Y32839D01*
X66834Y32844D01*
X66816Y32849D01*
X66799Y32855D01*
X66780Y32863D01*
X66763Y32871D01*
X66762Y32872D01*
X66759Y32873D01*
X66754Y32876D01*
X66748Y32879D01*
X66740Y32884D01*
X66731Y32890D01*
X66721Y32898D01*
X66710Y32905D01*
X66699Y32914D01*
X66688Y32924D01*
X66676Y32936D01*
X66664Y32948D01*
X66654Y32960D01*
X66643Y32974D01*
X66632Y32989D01*
X66623Y33005D01*
X66622Y33006D01*
X66621Y33009D01*
X66619Y33013D01*
X66615Y33020D01*
X66612Y33028D01*
X66608Y33038D01*
X66604Y33048D01*
X66599Y33061D01*
X66595Y33074D01*
X66591Y33088D01*
X66587Y33104D01*
X66584Y33120D01*
X66578Y33155D01*
X66577Y33173D01*
X66576Y33192D01*
Y33203D01*
X66577Y33210D01*
X66578Y33219D01*
X66579Y33231D01*
X66580Y33243D01*
X66583Y33257D01*
X66585Y33271D01*
X66589Y33287D01*
X66593Y33302D01*
X66598Y33319D01*
X66604Y33336D01*
X66611Y33352D01*
X66619Y33369D01*
X66628Y33386D01*
X66629Y33387D01*
X66630Y33389D01*
X66634Y33394D01*
X66638Y33400D01*
X66643Y33407D01*
X66649Y33415D01*
X66657Y33424D01*
X66665Y33434D01*
X66675Y33445D01*
X66686Y33455D01*
X66698Y33466D01*
X66710Y33477D01*
X66724Y33487D01*
X66739Y33497D01*
X66754Y33507D01*
X66771Y33516D01*
X66772Y33517D01*
X66775Y33517D01*
X66780Y33520D01*
X66787Y33522D01*
X66795Y33526D01*
X66805Y33529D01*
X66816Y33533D01*
X66829Y33537D01*
X66843Y33542D01*
X66858Y33546D01*
X66873Y33549D01*
X66890Y33552D01*
X66925Y33557D01*
X66944Y33558D01*
X66963Y33559D01*
X66963D01*
X66965D01*
X66968D01*
X66971D01*
X66976Y33558D01*
D02*
G37*
G36*
X67357Y32376D02*
X67357Y32360D01*
X67356Y32340D01*
X67354Y32321D01*
X67352Y32303D01*
X67352Y32294D01*
X67350Y32286D01*
Y32285D01*
X67349Y32284D01*
Y32280D01*
X67348Y32277D01*
X67347Y32272D01*
X67346Y32266D01*
X67342Y32253D01*
X67337Y32238D01*
X67330Y32222D01*
X67322Y32206D01*
X67313Y32191D01*
Y32190D01*
X67312Y32190D01*
X67308Y32185D01*
X67302Y32178D01*
X67294Y32169D01*
X67284Y32160D01*
X67271Y32149D01*
X67257Y32139D01*
X67239Y32130D01*
X67238D01*
X67237Y32129D01*
X67234Y32127D01*
X67231Y32125D01*
X67227Y32124D01*
X67221Y32122D01*
X67208Y32117D01*
X67193Y32113D01*
X67175Y32109D01*
X67155Y32106D01*
X67134Y32105D01*
X67133D01*
X67130D01*
X67125D01*
X67118Y32106D01*
X67109Y32107D01*
X67100Y32109D01*
X67089Y32110D01*
X67077Y32113D01*
X67064Y32116D01*
X67051Y32120D01*
X67038Y32125D01*
X67023Y32132D01*
X67009Y32139D01*
X66995Y32147D01*
X66982Y32157D01*
X66968Y32168D01*
X66968Y32169D01*
X66966Y32171D01*
X66963Y32175D01*
X66958Y32180D01*
X66953Y32187D01*
X66947Y32196D01*
X66941Y32207D01*
X66935Y32220D01*
X66928Y32235D01*
X66923Y32250D01*
X66917Y32270D01*
X66912Y32290D01*
X66908Y32313D01*
X66904Y32338D01*
X66902Y32365D01*
X66901Y32395D01*
Y32591D01*
X66589D01*
Y32693D01*
X67357D01*
Y32376D01*
D02*
G37*
G36*
X66798Y31915D02*
X66797D01*
X66794Y31914D01*
X66791Y31913D01*
X66786Y31912D01*
X66780Y31911D01*
X66773Y31909D01*
X66757Y31905D01*
X66739Y31898D01*
X66721Y31889D01*
X66704Y31878D01*
X66697Y31871D01*
X66689Y31865D01*
Y31864D01*
X66688Y31863D01*
X66686Y31861D01*
X66684Y31857D01*
X66678Y31849D01*
X66672Y31837D01*
X66665Y31823D01*
X66659Y31806D01*
X66655Y31788D01*
X66654Y31778D01*
X66654Y31767D01*
Y31761D01*
X66654Y31756D01*
X66655Y31750D01*
X66656Y31743D01*
X66660Y31727D01*
X66666Y31709D01*
X66670Y31700D01*
X66675Y31690D01*
X66681Y31680D01*
X66688Y31671D01*
X66695Y31661D01*
X66704Y31652D01*
X66705Y31651D01*
X66707Y31651D01*
X66709Y31648D01*
X66714Y31645D01*
X66719Y31641D01*
X66725Y31637D01*
X66733Y31633D01*
X66741Y31628D01*
X66750Y31624D01*
X66760Y31620D01*
X66772Y31616D01*
X66783Y31612D01*
X66797Y31609D01*
X66811Y31607D01*
X66825Y31606D01*
X66841Y31605D01*
X66842D01*
X66844D01*
X66848D01*
X66854Y31606D01*
X66861Y31607D01*
X66869Y31607D01*
X66878Y31609D01*
X66888Y31611D01*
X66908Y31616D01*
X66929Y31624D01*
X66939Y31629D01*
X66949Y31636D01*
X66959Y31642D01*
X66968Y31651D01*
X66969Y31651D01*
X66970Y31652D01*
X66973Y31656D01*
X66976Y31659D01*
X66979Y31663D01*
X66983Y31669D01*
X66988Y31675D01*
X66993Y31682D01*
X66997Y31691D01*
X67001Y31699D01*
X67008Y31720D01*
X67012Y31731D01*
X67014Y31743D01*
X67015Y31756D01*
X67016Y31769D01*
Y31776D01*
X67015Y31786D01*
X67013Y31796D01*
X67011Y31810D01*
X67007Y31824D01*
X67002Y31838D01*
X66994Y31852D01*
X66993Y31854D01*
X66991Y31858D01*
X66986Y31865D01*
X66980Y31873D01*
X66972Y31881D01*
X66963Y31891D01*
X66952Y31901D01*
X66940Y31909D01*
X66953Y31997D01*
X67347Y31923D01*
Y31541D01*
X67257D01*
Y31848D01*
X67051Y31889D01*
X67052Y31888D01*
X67053Y31886D01*
X67055Y31882D01*
X67058Y31877D01*
X67062Y31871D01*
X67066Y31863D01*
X67071Y31855D01*
X67075Y31845D01*
X67079Y31835D01*
X67084Y31823D01*
X67092Y31799D01*
X67095Y31786D01*
X67098Y31772D01*
X67098Y31758D01*
X67099Y31744D01*
Y31740D01*
X67098Y31734D01*
Y31727D01*
X67097Y31719D01*
X67096Y31709D01*
X67093Y31697D01*
X67091Y31686D01*
X67087Y31672D01*
X67083Y31659D01*
X67077Y31645D01*
X67070Y31631D01*
X67062Y31616D01*
X67053Y31602D01*
X67042Y31588D01*
X67029Y31575D01*
X67028Y31574D01*
X67026Y31572D01*
X67022Y31568D01*
X67017Y31564D01*
X67010Y31558D01*
X67001Y31552D01*
X66992Y31547D01*
X66981Y31540D01*
X66968Y31533D01*
X66954Y31527D01*
X66940Y31521D01*
X66923Y31516D01*
X66907Y31512D01*
X66888Y31508D01*
X66869Y31506D01*
X66849Y31505D01*
X66848D01*
X66844D01*
X66839D01*
X66832Y31506D01*
X66823Y31507D01*
X66813Y31508D01*
X66801Y31510D01*
X66788Y31512D01*
X66774Y31516D01*
X66759Y31520D01*
X66744Y31525D01*
X66729Y31531D01*
X66714Y31537D01*
X66699Y31546D01*
X66684Y31555D01*
X66669Y31566D01*
X66669Y31567D01*
X66665Y31569D01*
X66661Y31573D01*
X66655Y31579D01*
X66648Y31587D01*
X66640Y31596D01*
X66631Y31607D01*
X66623Y31619D01*
X66614Y31632D01*
X66605Y31647D01*
X66598Y31664D01*
X66591Y31682D01*
X66584Y31701D01*
X66580Y31722D01*
X66577Y31744D01*
X66576Y31767D01*
Y31777D01*
X66577Y31785D01*
X66578Y31794D01*
X66579Y31804D01*
X66581Y31816D01*
X66584Y31828D01*
X66586Y31841D01*
X66590Y31856D01*
X66595Y31870D01*
X66601Y31884D01*
X66608Y31898D01*
X66615Y31912D01*
X66624Y31926D01*
X66634Y31939D01*
X66635Y31940D01*
X66637Y31941D01*
X66640Y31945D01*
X66645Y31949D01*
X66651Y31955D01*
X66658Y31961D01*
X66666Y31966D01*
X66676Y31973D01*
X66686Y31980D01*
X66698Y31986D01*
X66711Y31992D01*
X66724Y31998D01*
X66739Y32004D01*
X66755Y32008D01*
X66773Y32011D01*
X66790Y32014D01*
X66798Y31915D01*
D02*
G37*
G36*
X66357Y33457D02*
X65913D01*
X65913D01*
X65909D01*
X65904D01*
X65897D01*
X65888Y33457D01*
X65879D01*
X65868Y33456D01*
X65858Y33455D01*
X65833Y33453D01*
X65809Y33450D01*
X65786Y33445D01*
X65775Y33442D01*
X65766Y33439D01*
X65765D01*
X65764Y33438D01*
X65762Y33437D01*
X65759Y33436D01*
X65749Y33431D01*
X65739Y33424D01*
X65727Y33416D01*
X65715Y33405D01*
X65704Y33392D01*
X65693Y33376D01*
Y33375D01*
X65692Y33373D01*
X65690Y33371D01*
X65689Y33367D01*
X65687Y33363D01*
X65685Y33357D01*
X65683Y33352D01*
X65680Y33345D01*
X65676Y33328D01*
X65672Y33309D01*
X65669Y33287D01*
X65668Y33264D01*
Y33253D01*
X65669Y33246D01*
X65669Y33237D01*
X65670Y33226D01*
X65672Y33214D01*
X65674Y33202D01*
X65680Y33176D01*
X65684Y33163D01*
X65689Y33149D01*
X65695Y33137D01*
X65702Y33125D01*
X65709Y33114D01*
X65719Y33104D01*
X65719Y33103D01*
X65721Y33102D01*
X65724Y33100D01*
X65729Y33097D01*
X65734Y33093D01*
X65742Y33089D01*
X65751Y33084D01*
X65762Y33080D01*
X65774Y33076D01*
X65788Y33071D01*
X65804Y33067D01*
X65822Y33063D01*
X65842Y33060D01*
X65863Y33058D01*
X65888Y33057D01*
X65913Y33056D01*
X66357D01*
Y32954D01*
X65913D01*
X65912D01*
X65908D01*
X65903D01*
X65894D01*
X65884Y32955D01*
X65873Y32956D01*
X65861Y32957D01*
X65847Y32958D01*
X65818Y32961D01*
X65787Y32965D01*
X65757Y32972D01*
X65743Y32976D01*
X65729Y32981D01*
X65729D01*
X65726Y32982D01*
X65723Y32983D01*
X65718Y32986D01*
X65712Y32989D01*
X65705Y32993D01*
X65690Y33003D01*
X65681Y33008D01*
X65673Y33015D01*
X65663Y33023D01*
X65654Y33032D01*
X65644Y33042D01*
X65635Y33052D01*
X65627Y33063D01*
X65619Y33076D01*
X65618Y33077D01*
X65617Y33079D01*
X65614Y33083D01*
X65612Y33088D01*
X65609Y33095D01*
X65605Y33103D01*
X65601Y33113D01*
X65598Y33124D01*
X65594Y33136D01*
X65589Y33149D01*
X65586Y33164D01*
X65583Y33180D01*
X65580Y33198D01*
X65578Y33216D01*
X65577Y33235D01*
X65576Y33255D01*
Y33266D01*
X65577Y33273D01*
Y33282D01*
X65578Y33292D01*
X65579Y33305D01*
X65581Y33317D01*
X65585Y33346D01*
X65592Y33376D01*
X65601Y33405D01*
X65606Y33419D01*
X65613Y33432D01*
X65614Y33433D01*
X65614Y33436D01*
X65617Y33439D01*
X65619Y33443D01*
X65624Y33449D01*
X65629Y33456D01*
X65634Y33462D01*
X65640Y33470D01*
X65655Y33487D01*
X65674Y33502D01*
X65695Y33517D01*
X65708Y33524D01*
X65720Y33530D01*
X65721D01*
X65724Y33531D01*
X65728Y33532D01*
X65734Y33534D01*
X65740Y33537D01*
X65749Y33539D01*
X65759Y33542D01*
X65771Y33544D01*
X65784Y33547D01*
X65799Y33550D01*
X65814Y33552D01*
X65832Y33554D01*
X65850Y33557D01*
X65870Y33557D01*
X65891Y33559D01*
X65913D01*
X66357D01*
Y33457D01*
D02*
G37*
G36*
X66168Y32750D02*
X66168Y32748D01*
X66171Y32744D01*
X66173Y32738D01*
X66177Y32731D01*
X66182Y32723D01*
X66187Y32714D01*
X66192Y32704D01*
X66205Y32683D01*
X66221Y32659D01*
X66237Y32635D01*
X66257Y32613D01*
X66257Y32612D01*
X66259Y32610D01*
X66262Y32607D01*
X66266Y32603D01*
X66271Y32599D01*
X66276Y32593D01*
X66290Y32580D01*
X66305Y32566D01*
X66322Y32552D01*
X66341Y32539D01*
X66360Y32529D01*
Y32468D01*
X65589D01*
Y32562D01*
X66189D01*
X66188Y32564D01*
X66183Y32568D01*
X66178Y32575D01*
X66169Y32586D01*
X66159Y32599D01*
X66148Y32614D01*
X66137Y32632D01*
X66124Y32652D01*
Y32653D01*
X66123Y32654D01*
X66121Y32657D01*
X66119Y32661D01*
X66116Y32666D01*
X66113Y32672D01*
X66106Y32685D01*
X66098Y32700D01*
X66090Y32717D01*
X66083Y32734D01*
X66076Y32751D01*
X66167D01*
X66168Y32750D01*
D02*
G37*
G36*
X65804Y32131D02*
X65803D01*
X65801Y32130D01*
X65797Y32130D01*
X65791Y32128D01*
X65784Y32126D01*
X65777Y32125D01*
X65759Y32119D01*
X65740Y32111D01*
X65721Y32102D01*
X65704Y32090D01*
X65696Y32084D01*
X65689Y32077D01*
Y32076D01*
X65687Y32075D01*
X65685Y32073D01*
X65683Y32070D01*
X65678Y32062D01*
X65671Y32050D01*
X65664Y32036D01*
X65659Y32020D01*
X65655Y32001D01*
X65654Y31981D01*
Y31975D01*
X65654Y31970D01*
X65655Y31965D01*
X65656Y31957D01*
X65659Y31942D01*
X65664Y31924D01*
X65673Y31905D01*
X65679Y31896D01*
X65684Y31886D01*
X65691Y31877D01*
X65699Y31868D01*
X65700Y31867D01*
X65702Y31866D01*
X65704Y31864D01*
X65708Y31861D01*
X65712Y31857D01*
X65718Y31854D01*
X65724Y31850D01*
X65731Y31845D01*
X65748Y31836D01*
X65767Y31830D01*
X65789Y31824D01*
X65801Y31823D01*
X65813Y31822D01*
X65814D01*
X65816D01*
X65820D01*
X65824Y31823D01*
X65830Y31824D01*
X65836Y31825D01*
X65851Y31827D01*
X65868Y31833D01*
X65886Y31841D01*
X65895Y31846D01*
X65903Y31851D01*
X65912Y31858D01*
X65920Y31866D01*
X65921Y31866D01*
X65922Y31867D01*
X65924Y31870D01*
X65927Y31873D01*
X65930Y31877D01*
X65933Y31882D01*
X65942Y31895D01*
X65949Y31911D01*
X65956Y31929D01*
X65961Y31950D01*
X65962Y31961D01*
X65963Y31973D01*
Y31978D01*
X65962Y31984D01*
Y31991D01*
X65960Y32001D01*
X65958Y32012D01*
X65956Y32025D01*
X65953Y32040D01*
X66035Y32030D01*
Y32028D01*
X66034Y32024D01*
X66033Y32019D01*
Y32008D01*
X66034Y32004D01*
Y31998D01*
X66035Y31992D01*
X66038Y31978D01*
X66041Y31961D01*
X66047Y31943D01*
X66054Y31924D01*
X66065Y31906D01*
Y31905D01*
X66067Y31903D01*
X66068Y31901D01*
X66071Y31898D01*
X66078Y31890D01*
X66089Y31881D01*
X66103Y31872D01*
X66119Y31864D01*
X66128Y31861D01*
X66139Y31859D01*
X66150Y31857D01*
X66162Y31856D01*
X66163D01*
X66164D01*
X66167D01*
X66171Y31857D01*
X66180Y31858D01*
X66193Y31861D01*
X66206Y31865D01*
X66220Y31871D01*
X66235Y31881D01*
X66242Y31886D01*
X66248Y31892D01*
X66250Y31894D01*
X66253Y31899D01*
X66259Y31906D01*
X66266Y31916D01*
X66272Y31930D01*
X66277Y31946D01*
X66281Y31963D01*
X66282Y31983D01*
Y31988D01*
X66282Y31992D01*
Y31997D01*
X66281Y32002D01*
X66278Y32016D01*
X66274Y32030D01*
X66267Y32045D01*
X66259Y32060D01*
X66247Y32075D01*
X66246Y32077D01*
X66241Y32081D01*
X66233Y32088D01*
X66222Y32095D01*
X66207Y32103D01*
X66189Y32110D01*
X66168Y32117D01*
X66144Y32122D01*
X66161Y32216D01*
X66162D01*
X66165Y32215D01*
X66170Y32215D01*
X66177Y32213D01*
X66184Y32210D01*
X66193Y32208D01*
X66203Y32205D01*
X66214Y32200D01*
X66238Y32190D01*
X66250Y32184D01*
X66262Y32176D01*
X66274Y32168D01*
X66286Y32159D01*
X66297Y32149D01*
X66307Y32138D01*
X66308Y32137D01*
X66310Y32135D01*
X66312Y32131D01*
X66316Y32127D01*
X66320Y32120D01*
X66324Y32114D01*
X66329Y32105D01*
X66334Y32095D01*
X66338Y32085D01*
X66343Y32074D01*
X66347Y32061D01*
X66352Y32048D01*
X66355Y32033D01*
X66357Y32018D01*
X66359Y32002D01*
X66360Y31986D01*
Y31975D01*
X66359Y31969D01*
X66358Y31963D01*
X66357Y31947D01*
X66353Y31930D01*
X66348Y31910D01*
X66342Y31890D01*
X66332Y31870D01*
Y31869D01*
X66332Y31867D01*
X66330Y31865D01*
X66327Y31861D01*
X66322Y31851D01*
X66313Y31840D01*
X66302Y31826D01*
X66290Y31813D01*
X66276Y31800D01*
X66259Y31788D01*
X66258D01*
X66257Y31787D01*
X66254Y31786D01*
X66251Y31784D01*
X66247Y31781D01*
X66242Y31779D01*
X66229Y31774D01*
X66214Y31769D01*
X66198Y31764D01*
X66179Y31761D01*
X66160Y31760D01*
X66159D01*
X66158D01*
X66155D01*
X66152D01*
X66142Y31761D01*
X66130Y31763D01*
X66116Y31766D01*
X66101Y31771D01*
X66085Y31778D01*
X66069Y31787D01*
X66068D01*
X66068Y31788D01*
X66063Y31792D01*
X66055Y31798D01*
X66046Y31807D01*
X66035Y31818D01*
X66024Y31832D01*
X66014Y31848D01*
X66004Y31866D01*
Y31866D01*
X66003Y31863D01*
X66003Y31860D01*
X66001Y31855D01*
X65999Y31850D01*
X65997Y31843D01*
X65990Y31827D01*
X65981Y31811D01*
X65970Y31793D01*
X65956Y31776D01*
X65938Y31761D01*
X65938Y31760D01*
X65936Y31759D01*
X65933Y31757D01*
X65929Y31755D01*
X65925Y31751D01*
X65919Y31748D01*
X65913Y31745D01*
X65904Y31741D01*
X65896Y31738D01*
X65887Y31735D01*
X65866Y31728D01*
X65842Y31724D01*
X65828Y31722D01*
X65815D01*
X65814D01*
X65811D01*
X65805Y31723D01*
X65799D01*
X65789Y31725D01*
X65779Y31726D01*
X65769Y31728D01*
X65756Y31731D01*
X65743Y31736D01*
X65729Y31741D01*
X65715Y31746D01*
X65701Y31754D01*
X65686Y31762D01*
X65672Y31772D01*
X65658Y31783D01*
X65644Y31796D01*
X65644Y31797D01*
X65641Y31800D01*
X65638Y31804D01*
X65634Y31810D01*
X65629Y31816D01*
X65623Y31826D01*
X65616Y31836D01*
X65610Y31847D01*
X65604Y31860D01*
X65597Y31874D01*
X65591Y31889D01*
X65586Y31906D01*
X65582Y31923D01*
X65579Y31941D01*
X65576Y31961D01*
X65575Y31981D01*
Y31986D01*
X65576Y31991D01*
Y31998D01*
X65577Y32007D01*
X65579Y32017D01*
X65580Y32028D01*
X65583Y32041D01*
X65586Y32054D01*
X65590Y32067D01*
X65594Y32081D01*
X65600Y32095D01*
X65608Y32110D01*
X65615Y32123D01*
X65624Y32137D01*
X65635Y32150D01*
X65636Y32150D01*
X65638Y32152D01*
X65641Y32155D01*
X65646Y32160D01*
X65652Y32165D01*
X65659Y32171D01*
X65668Y32177D01*
X65678Y32184D01*
X65688Y32190D01*
X65700Y32197D01*
X65713Y32204D01*
X65727Y32210D01*
X65742Y32215D01*
X65758Y32220D01*
X65774Y32223D01*
X65792Y32225D01*
X65804Y32131D01*
D02*
G37*
G36*
X62184Y33418D02*
X61740D01*
X61739D01*
X61736D01*
X61731D01*
X61724D01*
X61715Y33417D01*
X61706D01*
X61695Y33416D01*
X61684Y33416D01*
X61660Y33414D01*
X61636Y33411D01*
X61613Y33406D01*
X61602Y33403D01*
X61593Y33400D01*
X61592D01*
X61591Y33399D01*
X61589Y33398D01*
X61585Y33396D01*
X61576Y33391D01*
X61566Y33385D01*
X61554Y33376D01*
X61542Y33366D01*
X61530Y33352D01*
X61519Y33336D01*
Y33336D01*
X61519Y33334D01*
X61517Y33331D01*
X61515Y33328D01*
X61514Y33324D01*
X61512Y33318D01*
X61509Y33312D01*
X61507Y33306D01*
X61503Y33289D01*
X61499Y33270D01*
X61495Y33248D01*
X61494Y33225D01*
Y33214D01*
X61495Y33206D01*
X61496Y33197D01*
X61497Y33186D01*
X61499Y33175D01*
X61501Y33162D01*
X61507Y33137D01*
X61511Y33123D01*
X61516Y33110D01*
X61522Y33097D01*
X61529Y33086D01*
X61536Y33075D01*
X61545Y33065D01*
X61546Y33064D01*
X61548Y33062D01*
X61551Y33061D01*
X61555Y33057D01*
X61561Y33054D01*
X61569Y33050D01*
X61578Y33045D01*
X61589Y33041D01*
X61601Y33037D01*
X61615Y33032D01*
X61631Y33027D01*
X61649Y33024D01*
X61669Y33021D01*
X61690Y33018D01*
X61714Y33017D01*
X61740Y33017D01*
X62184D01*
Y32915D01*
X61740D01*
X61739D01*
X61735D01*
X61729D01*
X61721D01*
X61711Y32916D01*
X61700Y32917D01*
X61688Y32917D01*
X61674Y32918D01*
X61644Y32922D01*
X61614Y32926D01*
X61584Y32932D01*
X61569Y32937D01*
X61556Y32942D01*
X61555D01*
X61553Y32942D01*
X61549Y32944D01*
X61544Y32947D01*
X61539Y32950D01*
X61532Y32953D01*
X61517Y32963D01*
X61508Y32969D01*
X61499Y32976D01*
X61489Y32984D01*
X61480Y32992D01*
X61471Y33002D01*
X61462Y33012D01*
X61454Y33024D01*
X61445Y33037D01*
X61445Y33037D01*
X61444Y33040D01*
X61441Y33043D01*
X61439Y33049D01*
X61435Y33056D01*
X61432Y33064D01*
X61428Y33073D01*
X61425Y33085D01*
X61420Y33097D01*
X61416Y33110D01*
X61413Y33125D01*
X61410Y33141D01*
X61407Y33158D01*
X61405Y33176D01*
X61404Y33196D01*
X61403Y33216D01*
Y33226D01*
X61404Y33234D01*
Y33243D01*
X61405Y33253D01*
X61406Y33266D01*
X61408Y33278D01*
X61412Y33306D01*
X61419Y33336D01*
X61428Y33366D01*
X61433Y33380D01*
X61440Y33393D01*
X61440Y33394D01*
X61441Y33396D01*
X61444Y33400D01*
X61446Y33404D01*
X61450Y33410D01*
X61455Y33416D01*
X61460Y33423D01*
X61467Y33431D01*
X61482Y33447D01*
X61500Y33463D01*
X61522Y33478D01*
X61534Y33485D01*
X61547Y33491D01*
X61548D01*
X61550Y33491D01*
X61554Y33493D01*
X61560Y33495D01*
X61567Y33497D01*
X61576Y33500D01*
X61586Y33502D01*
X61598Y33505D01*
X61611Y33508D01*
X61625Y33511D01*
X61641Y33513D01*
X61659Y33515D01*
X61677Y33517D01*
X61697Y33518D01*
X61718Y33520D01*
X61740D01*
X62184D01*
Y33418D01*
D02*
G37*
G36*
X61624Y32684D02*
X61624D01*
X61621Y32683D01*
X61618Y32683D01*
X61613Y32682D01*
X61607Y32681D01*
X61599Y32678D01*
X61584Y32674D01*
X61566Y32668D01*
X61548Y32658D01*
X61531Y32648D01*
X61524Y32641D01*
X61516Y32634D01*
Y32633D01*
X61514Y32633D01*
X61513Y32630D01*
X61510Y32627D01*
X61504Y32618D01*
X61499Y32607D01*
X61492Y32593D01*
X61486Y32576D01*
X61482Y32558D01*
X61481Y32548D01*
X61480Y32537D01*
Y32530D01*
X61481Y32525D01*
X61482Y32519D01*
X61483Y32513D01*
X61487Y32497D01*
X61493Y32478D01*
X61497Y32469D01*
X61502Y32459D01*
X61508Y32449D01*
X61514Y32440D01*
X61522Y32431D01*
X61531Y32422D01*
X61532Y32421D01*
X61534Y32420D01*
X61536Y32418D01*
X61540Y32414D01*
X61546Y32411D01*
X61552Y32407D01*
X61559Y32403D01*
X61568Y32398D01*
X61577Y32393D01*
X61587Y32389D01*
X61599Y32385D01*
X61610Y32382D01*
X61624Y32378D01*
X61638Y32376D01*
X61652Y32375D01*
X61668Y32374D01*
X61669D01*
X61671D01*
X61675D01*
X61681Y32375D01*
X61688Y32376D01*
X61696Y32377D01*
X61704Y32378D01*
X61714Y32380D01*
X61734Y32385D01*
X61756Y32393D01*
X61766Y32398D01*
X61776Y32405D01*
X61786Y32412D01*
X61795Y32420D01*
X61796Y32421D01*
X61797Y32422D01*
X61799Y32425D01*
X61803Y32428D01*
X61806Y32433D01*
X61810Y32438D01*
X61814Y32444D01*
X61819Y32452D01*
X61824Y32460D01*
X61828Y32468D01*
X61835Y32489D01*
X61839Y32500D01*
X61841Y32513D01*
X61842Y32525D01*
X61843Y32538D01*
Y32546D01*
X61842Y32555D01*
X61840Y32566D01*
X61838Y32579D01*
X61834Y32593D01*
X61829Y32608D01*
X61821Y32622D01*
X61820Y32623D01*
X61818Y32628D01*
X61813Y32634D01*
X61807Y32643D01*
X61799Y32651D01*
X61789Y32661D01*
X61779Y32670D01*
X61767Y32678D01*
X61779Y32767D01*
X62174Y32693D01*
Y32310D01*
X62084D01*
Y32618D01*
X61878Y32658D01*
X61878Y32658D01*
X61880Y32655D01*
X61882Y32652D01*
X61885Y32647D01*
X61888Y32640D01*
X61893Y32633D01*
X61898Y32624D01*
X61902Y32614D01*
X61906Y32604D01*
X61911Y32593D01*
X61918Y32568D01*
X61922Y32555D01*
X61924Y32542D01*
X61925Y32528D01*
X61926Y32513D01*
Y32509D01*
X61925Y32503D01*
Y32497D01*
X61923Y32488D01*
X61923Y32478D01*
X61920Y32467D01*
X61918Y32455D01*
X61913Y32442D01*
X61909Y32428D01*
X61903Y32414D01*
X61897Y32400D01*
X61888Y32386D01*
X61879Y32372D01*
X61869Y32358D01*
X61856Y32344D01*
X61855Y32343D01*
X61853Y32341D01*
X61849Y32338D01*
X61844Y32333D01*
X61837Y32328D01*
X61828Y32322D01*
X61819Y32316D01*
X61808Y32309D01*
X61795Y32303D01*
X61781Y32297D01*
X61767Y32290D01*
X61750Y32285D01*
X61734Y32281D01*
X61715Y32278D01*
X61696Y32275D01*
X61676Y32274D01*
X61675D01*
X61671D01*
X61666D01*
X61659Y32275D01*
X61649Y32276D01*
X61639Y32278D01*
X61628Y32279D01*
X61614Y32282D01*
X61601Y32285D01*
X61586Y32289D01*
X61571Y32294D01*
X61556Y32300D01*
X61541Y32307D01*
X61525Y32315D01*
X61510Y32324D01*
X61496Y32335D01*
X61495Y32336D01*
X61492Y32338D01*
X61488Y32343D01*
X61482Y32348D01*
X61474Y32356D01*
X61467Y32365D01*
X61458Y32376D01*
X61450Y32388D01*
X61441Y32402D01*
X61432Y32417D01*
X61425Y32433D01*
X61418Y32452D01*
X61411Y32471D01*
X61407Y32492D01*
X61404Y32513D01*
X61403Y32537D01*
Y32547D01*
X61404Y32554D01*
X61405Y32563D01*
X61406Y32573D01*
X61408Y32585D01*
X61410Y32598D01*
X61413Y32611D01*
X61417Y32625D01*
X61422Y32639D01*
X61428Y32653D01*
X61435Y32668D01*
X61442Y32682D01*
X61451Y32695D01*
X61461Y32708D01*
X61462Y32709D01*
X61464Y32711D01*
X61467Y32714D01*
X61472Y32718D01*
X61478Y32724D01*
X61484Y32730D01*
X61493Y32736D01*
X61503Y32743D01*
X61513Y32749D01*
X61524Y32756D01*
X61538Y32762D01*
X61551Y32767D01*
X61566Y32773D01*
X61582Y32777D01*
X61599Y32781D01*
X61617Y32783D01*
X61624Y32684D01*
D02*
G37*
G36*
X74700Y31123D02*
X74256D01*
X74255D01*
X74252D01*
X74247D01*
X74239D01*
X74231Y31122D01*
X74222D01*
X74211Y31121D01*
X74200Y31120D01*
X74176Y31119D01*
X74152Y31115D01*
X74129Y31110D01*
X74118Y31108D01*
X74109Y31104D01*
X74108D01*
X74107Y31104D01*
X74104Y31103D01*
X74101Y31101D01*
X74092Y31096D01*
X74082Y31089D01*
X74069Y31081D01*
X74058Y31070D01*
X74046Y31057D01*
X74035Y31041D01*
Y31040D01*
X74034Y31039D01*
X74033Y31036D01*
X74031Y31033D01*
X74029Y31029D01*
X74028Y31023D01*
X74025Y31017D01*
X74023Y31010D01*
X74019Y30994D01*
X74014Y30975D01*
X74011Y30953D01*
X74010Y30930D01*
Y30919D01*
X74011Y30911D01*
X74012Y30902D01*
X74013Y30891D01*
X74014Y30880D01*
X74017Y30867D01*
X74023Y30841D01*
X74027Y30828D01*
X74032Y30815D01*
X74038Y30802D01*
X74044Y30790D01*
X74052Y30780D01*
X74061Y30770D01*
X74062Y30769D01*
X74064Y30767D01*
X74067Y30765D01*
X74071Y30762D01*
X74077Y30759D01*
X74084Y30755D01*
X74094Y30750D01*
X74104Y30745D01*
X74117Y30741D01*
X74131Y30736D01*
X74147Y30732D01*
X74164Y30729D01*
X74184Y30725D01*
X74206Y30723D01*
X74230Y30722D01*
X74256Y30721D01*
X74700D01*
Y30620D01*
X74256D01*
X74254D01*
X74251D01*
X74245D01*
X74237D01*
X74227Y30620D01*
X74216Y30621D01*
X74203Y30622D01*
X74189Y30623D01*
X74160Y30626D01*
X74129Y30630D01*
X74099Y30637D01*
X74085Y30641D01*
X74072Y30646D01*
X74071D01*
X74069Y30647D01*
X74065Y30649D01*
X74060Y30651D01*
X74054Y30655D01*
X74048Y30658D01*
X74033Y30668D01*
X74024Y30674D01*
X74015Y30680D01*
X74005Y30689D01*
X73996Y30697D01*
X73987Y30707D01*
X73978Y30717D01*
X73969Y30729D01*
X73961Y30741D01*
X73960Y30742D01*
X73959Y30745D01*
X73957Y30748D01*
X73954Y30754D01*
X73951Y30760D01*
X73948Y30769D01*
X73944Y30778D01*
X73940Y30790D01*
X73936Y30801D01*
X73932Y30815D01*
X73929Y30830D01*
X73925Y30845D01*
X73923Y30863D01*
X73920Y30881D01*
X73919Y30900D01*
X73919Y30920D01*
Y30931D01*
X73919Y30939D01*
Y30948D01*
X73920Y30958D01*
X73922Y30970D01*
X73924Y30983D01*
X73928Y31011D01*
X73934Y31041D01*
X73944Y31070D01*
X73949Y31084D01*
X73955Y31098D01*
X73956Y31099D01*
X73957Y31101D01*
X73959Y31104D01*
X73962Y31109D01*
X73966Y31114D01*
X73971Y31121D01*
X73976Y31128D01*
X73983Y31135D01*
X73998Y31152D01*
X74016Y31168D01*
X74038Y31183D01*
X74050Y31189D01*
X74063Y31195D01*
X74064D01*
X74066Y31196D01*
X74070Y31198D01*
X74076Y31199D01*
X74083Y31202D01*
X74092Y31204D01*
X74102Y31207D01*
X74114Y31209D01*
X74127Y31213D01*
X74141Y31215D01*
X74157Y31218D01*
X74174Y31219D01*
X74193Y31222D01*
X74213Y31223D01*
X74233Y31224D01*
X74256D01*
X74700D01*
Y31123D01*
D02*
G37*
G36*
X74166Y30489D02*
X74173D01*
X74180Y30488D01*
X74188Y30486D01*
X74198Y30485D01*
X74217Y30481D01*
X74238Y30474D01*
X74258Y30465D01*
X74268Y30459D01*
X74278Y30452D01*
X74279Y30451D01*
X74281Y30451D01*
X74283Y30448D01*
X74287Y30445D01*
X74291Y30441D01*
X74295Y30436D01*
X74301Y30431D01*
X74306Y30424D01*
X74318Y30409D01*
X74329Y30391D01*
X74339Y30369D01*
X74348Y30344D01*
Y30345D01*
X74348Y30346D01*
X74350Y30350D01*
X74352Y30353D01*
X74353Y30358D01*
X74357Y30364D01*
X74363Y30376D01*
X74372Y30391D01*
X74383Y30405D01*
X74394Y30419D01*
X74408Y30431D01*
X74409D01*
X74410Y30431D01*
X74413Y30433D01*
X74416Y30435D01*
X74424Y30440D01*
X74435Y30445D01*
X74449Y30450D01*
X74466Y30455D01*
X74484Y30458D01*
X74504Y30459D01*
X74505D01*
X74508D01*
X74513Y30458D01*
X74518D01*
X74525Y30457D01*
X74533Y30456D01*
X74543Y30454D01*
X74553Y30451D01*
X74564Y30448D01*
X74575Y30444D01*
X74587Y30440D01*
X74599Y30434D01*
X74611Y30426D01*
X74622Y30419D01*
X74634Y30410D01*
X74645Y30399D01*
X74646Y30398D01*
X74647Y30396D01*
X74650Y30393D01*
X74654Y30388D01*
X74658Y30382D01*
X74663Y30375D01*
X74668Y30366D01*
X74674Y30356D01*
X74679Y30346D01*
X74684Y30333D01*
X74689Y30321D01*
X74693Y30306D01*
X74697Y30291D01*
X74700Y30275D01*
X74702Y30257D01*
X74702Y30239D01*
Y30229D01*
X74702Y30222D01*
X74701Y30214D01*
X74699Y30204D01*
X74697Y30193D01*
X74695Y30181D01*
X74692Y30168D01*
X74688Y30155D01*
X74683Y30142D01*
X74677Y30128D01*
X74671Y30114D01*
X74662Y30102D01*
X74654Y30088D01*
X74643Y30077D01*
X74642Y30076D01*
X74641Y30074D01*
X74637Y30071D01*
X74633Y30067D01*
X74627Y30062D01*
X74621Y30057D01*
X74612Y30052D01*
X74604Y30046D01*
X74594Y30040D01*
X74583Y30034D01*
X74572Y30029D01*
X74559Y30025D01*
X74546Y30021D01*
X74532Y30017D01*
X74517Y30016D01*
X74502Y30015D01*
X74501D01*
X74499D01*
X74497D01*
X74493D01*
X74488Y30016D01*
X74483Y30017D01*
X74470Y30018D01*
X74456Y30022D01*
X74440Y30027D01*
X74424Y30034D01*
X74408Y30043D01*
X74408D01*
X74407Y30045D01*
X74402Y30048D01*
X74395Y30055D01*
X74386Y30064D01*
X74377Y30077D01*
X74366Y30091D01*
X74357Y30108D01*
X74348Y30128D01*
Y30127D01*
X74347Y30125D01*
X74345Y30122D01*
X74343Y30117D01*
X74341Y30111D01*
X74338Y30104D01*
X74329Y30088D01*
X74319Y30071D01*
X74306Y30053D01*
X74291Y30036D01*
X74273Y30021D01*
X74272Y30020D01*
X74270Y30019D01*
X74268Y30017D01*
X74263Y30015D01*
X74258Y30012D01*
X74253Y30009D01*
X74246Y30006D01*
X74238Y30002D01*
X74221Y29995D01*
X74200Y29989D01*
X74177Y29985D01*
X74164Y29983D01*
X74151D01*
X74150D01*
X74147D01*
X74142Y29984D01*
X74134D01*
X74126Y29986D01*
X74116Y29987D01*
X74105Y29989D01*
X74094Y29992D01*
X74080Y29996D01*
X74067Y30000D01*
X74054Y30006D01*
X74039Y30012D01*
X74025Y30021D01*
X74012Y30030D01*
X73998Y30041D01*
X73985Y30053D01*
X73984Y30054D01*
X73983Y30057D01*
X73979Y30061D01*
X73975Y30066D01*
X73969Y30073D01*
X73964Y30082D01*
X73958Y30092D01*
X73952Y30102D01*
X73946Y30115D01*
X73939Y30129D01*
X73934Y30144D01*
X73929Y30160D01*
X73924Y30177D01*
X73921Y30196D01*
X73919Y30216D01*
X73919Y30236D01*
Y30241D01*
X73919Y30247D01*
Y30256D01*
X73920Y30265D01*
X73922Y30276D01*
X73924Y30289D01*
X73927Y30302D01*
X73930Y30316D01*
X73935Y30331D01*
X73940Y30346D01*
X73947Y30362D01*
X73954Y30377D01*
X73964Y30392D01*
X73974Y30407D01*
X73985Y30421D01*
X73986Y30421D01*
X73989Y30424D01*
X73992Y30427D01*
X73998Y30431D01*
X74004Y30436D01*
X74012Y30442D01*
X74021Y30449D01*
X74032Y30455D01*
X74044Y30461D01*
X74056Y30468D01*
X74070Y30474D01*
X74084Y30479D01*
X74100Y30483D01*
X74118Y30486D01*
X74135Y30489D01*
X74154Y30490D01*
X74154D01*
X74157D01*
X74161D01*
X74166Y30489D01*
D02*
G37*
G36*
X75318Y31224D02*
X75323D01*
X75337Y31223D01*
X75353Y31221D01*
X75372Y31219D01*
X75392Y31216D01*
X75414Y31212D01*
X75438Y31206D01*
X75463Y31199D01*
X75488Y31191D01*
X75513Y31181D01*
X75538Y31169D01*
X75561Y31156D01*
X75584Y31140D01*
X75605Y31122D01*
X75606Y31121D01*
X75610Y31117D01*
X75615Y31111D01*
X75622Y31104D01*
X75630Y31093D01*
X75639Y31081D01*
X75649Y31067D01*
X75659Y31050D01*
X75669Y31032D01*
X75679Y31012D01*
X75688Y30990D01*
X75697Y30966D01*
X75703Y30941D01*
X75708Y30915D01*
X75712Y30886D01*
X75713Y30856D01*
Y30846D01*
X75712Y30839D01*
X75712Y30829D01*
X75711Y30818D01*
X75709Y30806D01*
X75707Y30793D01*
X75704Y30778D01*
X75701Y30763D01*
X75697Y30747D01*
X75692Y30730D01*
X75686Y30714D01*
X75679Y30697D01*
X75672Y30681D01*
X75662Y30665D01*
X75662Y30664D01*
X75660Y30660D01*
X75657Y30656D01*
X75653Y30650D01*
X75648Y30643D01*
X75642Y30635D01*
X75634Y30626D01*
X75626Y30616D01*
X75616Y30605D01*
X75605Y30595D01*
X75593Y30584D01*
X75581Y30573D01*
X75568Y30563D01*
X75553Y30552D01*
X75537Y30543D01*
X75520Y30534D01*
X75519Y30533D01*
X75516Y30532D01*
X75511Y30530D01*
X75504Y30527D01*
X75496Y30523D01*
X75485Y30520D01*
X75473Y30516D01*
X75460Y30511D01*
X75446Y30507D01*
X75430Y30503D01*
X75413Y30499D01*
X75395Y30496D01*
X75376Y30493D01*
X75356Y30491D01*
X75336Y30490D01*
X75314Y30489D01*
X75313D01*
X75309D01*
X75303D01*
X75294Y30490D01*
X75284Y30491D01*
X75273Y30491D01*
X75259Y30493D01*
X75244Y30495D01*
X75228Y30497D01*
X75212Y30501D01*
X75194Y30504D01*
X75177Y30509D01*
X75159Y30515D01*
X75141Y30521D01*
X75123Y30528D01*
X75105Y30536D01*
X75104Y30537D01*
X75101Y30539D01*
X75096Y30541D01*
X75090Y30545D01*
X75083Y30550D01*
X75074Y30556D01*
X75064Y30563D01*
X75053Y30570D01*
X75042Y30580D01*
X75030Y30590D01*
X75019Y30601D01*
X75007Y30613D01*
X74996Y30625D01*
X74985Y30640D01*
X74974Y30655D01*
X74965Y30670D01*
X74964Y30671D01*
X74964Y30675D01*
X74961Y30679D01*
X74958Y30685D01*
X74954Y30694D01*
X74950Y30703D01*
X74946Y30714D01*
X74942Y30726D01*
X74938Y30740D01*
X74934Y30754D01*
X74929Y30770D01*
X74926Y30785D01*
X74920Y30820D01*
X74919Y30839D01*
X74919Y30857D01*
Y30868D01*
X74919Y30875D01*
X74920Y30885D01*
X74921Y30896D01*
X74923Y30908D01*
X74925Y30922D01*
X74928Y30936D01*
X74931Y30952D01*
X74935Y30968D01*
X74940Y30984D01*
X74946Y31001D01*
X74954Y31018D01*
X74961Y31034D01*
X74970Y31051D01*
X74971Y31052D01*
X74973Y31054D01*
X74976Y31059D01*
X74980Y31065D01*
X74985Y31072D01*
X74992Y31080D01*
X74999Y31089D01*
X75008Y31099D01*
X75018Y31110D01*
X75029Y31120D01*
X75040Y31131D01*
X75053Y31142D01*
X75067Y31153D01*
X75081Y31163D01*
X75097Y31172D01*
X75114Y31181D01*
X75114Y31182D01*
X75118Y31183D01*
X75123Y31185D01*
X75129Y31188D01*
X75138Y31191D01*
X75148Y31194D01*
X75159Y31199D01*
X75172Y31203D01*
X75185Y31207D01*
X75200Y31211D01*
X75216Y31214D01*
X75233Y31218D01*
X75268Y31223D01*
X75287Y31224D01*
X75305Y31224D01*
X75306D01*
X75308D01*
X75310D01*
X75313D01*
X75318Y31224D01*
D02*
G37*
G36*
X75700Y30042D02*
X75699Y30025D01*
X75698Y30006D01*
X75697Y29987D01*
X75695Y29968D01*
X75694Y29959D01*
X75692Y29952D01*
Y29951D01*
X75692Y29949D01*
Y29946D01*
X75691Y29942D01*
X75689Y29937D01*
X75688Y29932D01*
X75684Y29918D01*
X75679Y29903D01*
X75672Y29887D01*
X75665Y29872D01*
X75656Y29857D01*
Y29856D01*
X75655Y29855D01*
X75651Y29850D01*
X75645Y29843D01*
X75637Y29834D01*
X75627Y29825D01*
X75613Y29814D01*
X75599Y29804D01*
X75582Y29795D01*
X75581D01*
X75579Y29794D01*
X75577Y29792D01*
X75573Y29791D01*
X75569Y29789D01*
X75563Y29787D01*
X75551Y29782D01*
X75535Y29778D01*
X75518Y29774D01*
X75498Y29772D01*
X75477Y29771D01*
X75476D01*
X75473D01*
X75468D01*
X75460Y29772D01*
X75452Y29772D01*
X75443Y29774D01*
X75432Y29776D01*
X75419Y29778D01*
X75407Y29782D01*
X75393Y29786D01*
X75380Y29791D01*
X75366Y29797D01*
X75352Y29804D01*
X75338Y29812D01*
X75324Y29822D01*
X75311Y29833D01*
X75310Y29834D01*
X75308Y29837D01*
X75305Y29840D01*
X75300Y29846D01*
X75295Y29852D01*
X75289Y29862D01*
X75283Y29872D01*
X75278Y29885D01*
X75271Y29900D01*
X75265Y29916D01*
X75259Y29935D01*
X75254Y29955D01*
X75250Y29978D01*
X75247Y30003D01*
X75244Y30030D01*
X75243Y30060D01*
Y30256D01*
X74931D01*
Y30358D01*
X75700D01*
Y30042D01*
D02*
G37*
G36*
X74952Y29692D02*
X74962Y29691D01*
X74973Y29688D01*
X74984Y29686D01*
X74996Y29682D01*
X74997D01*
X74999Y29681D01*
X75001Y29680D01*
X75005Y29678D01*
X75009Y29676D01*
X75015Y29673D01*
X75029Y29667D01*
X75044Y29658D01*
X75062Y29648D01*
X75080Y29635D01*
X75099Y29620D01*
X75099Y29619D01*
X75101Y29618D01*
X75104Y29616D01*
X75108Y29612D01*
X75112Y29608D01*
X75118Y29602D01*
X75124Y29596D01*
X75132Y29588D01*
X75140Y29580D01*
X75149Y29571D01*
X75159Y29561D01*
X75169Y29549D01*
X75179Y29538D01*
X75190Y29524D01*
X75202Y29511D01*
X75214Y29496D01*
X75215Y29494D01*
X75219Y29490D01*
X75224Y29484D01*
X75232Y29476D01*
X75240Y29466D01*
X75250Y29454D01*
X75261Y29441D01*
X75273Y29428D01*
X75299Y29399D01*
X75327Y29372D01*
X75340Y29358D01*
X75353Y29346D01*
X75366Y29335D01*
X75378Y29326D01*
X75378Y29325D01*
X75380Y29324D01*
X75383Y29322D01*
X75388Y29319D01*
X75393Y29315D01*
X75399Y29312D01*
X75414Y29304D01*
X75432Y29295D01*
X75451Y29288D01*
X75471Y29283D01*
X75481Y29282D01*
X75491Y29281D01*
X75492D01*
X75493D01*
X75497D01*
X75500Y29282D01*
X75505D01*
X75511Y29284D01*
X75523Y29286D01*
X75538Y29291D01*
X75554Y29299D01*
X75563Y29303D01*
X75570Y29309D01*
X75578Y29314D01*
X75585Y29322D01*
X75586Y29323D01*
X75587Y29323D01*
X75588Y29326D01*
X75591Y29329D01*
X75594Y29334D01*
X75598Y29339D01*
X75605Y29350D01*
X75612Y29366D01*
X75618Y29383D01*
X75622Y29404D01*
X75624Y29416D01*
Y29434D01*
X75623Y29439D01*
Y29445D01*
X75622Y29452D01*
X75619Y29467D01*
X75614Y29484D01*
X75607Y29503D01*
X75602Y29512D01*
X75597Y29521D01*
X75590Y29529D01*
X75583Y29538D01*
X75582Y29538D01*
X75581Y29539D01*
X75578Y29541D01*
X75575Y29544D01*
X75571Y29547D01*
X75566Y29550D01*
X75560Y29554D01*
X75553Y29558D01*
X75546Y29562D01*
X75538Y29565D01*
X75518Y29572D01*
X75496Y29577D01*
X75483Y29578D01*
X75470Y29578D01*
X75480Y29675D01*
X75482D01*
X75485Y29674D01*
X75490Y29673D01*
X75498Y29673D01*
X75507Y29671D01*
X75518Y29668D01*
X75529Y29666D01*
X75542Y29662D01*
X75554Y29658D01*
X75568Y29653D01*
X75582Y29646D01*
X75595Y29639D01*
X75609Y29631D01*
X75622Y29622D01*
X75634Y29612D01*
X75645Y29600D01*
X75646Y29599D01*
X75647Y29597D01*
X75650Y29593D01*
X75654Y29588D01*
X75658Y29582D01*
X75663Y29573D01*
X75668Y29564D01*
X75674Y29553D01*
X75679Y29542D01*
X75684Y29528D01*
X75689Y29514D01*
X75693Y29498D01*
X75697Y29482D01*
X75700Y29464D01*
X75702Y29445D01*
X75702Y29425D01*
Y29414D01*
X75702Y29407D01*
X75701Y29398D01*
X75699Y29387D01*
X75697Y29374D01*
X75695Y29362D01*
X75692Y29348D01*
X75687Y29334D01*
X75682Y29319D01*
X75677Y29304D01*
X75669Y29289D01*
X75661Y29275D01*
X75652Y29262D01*
X75641Y29249D01*
X75640Y29249D01*
X75638Y29247D01*
X75634Y29244D01*
X75630Y29239D01*
X75624Y29234D01*
X75617Y29229D01*
X75608Y29223D01*
X75598Y29217D01*
X75588Y29211D01*
X75577Y29205D01*
X75564Y29199D01*
X75551Y29194D01*
X75536Y29190D01*
X75521Y29187D01*
X75505Y29185D01*
X75488Y29184D01*
X75488D01*
X75487D01*
X75484D01*
X75481D01*
X75472Y29185D01*
X75460Y29187D01*
X75446Y29189D01*
X75431Y29193D01*
X75414Y29197D01*
X75398Y29204D01*
X75397D01*
X75396Y29204D01*
X75393Y29205D01*
X75390Y29207D01*
X75381Y29212D01*
X75369Y29219D01*
X75355Y29228D01*
X75339Y29239D01*
X75323Y29251D01*
X75304Y29267D01*
X75303Y29268D01*
X75302Y29269D01*
X75299Y29272D01*
X75295Y29275D01*
X75290Y29280D01*
X75284Y29286D01*
X75277Y29293D01*
X75269Y29301D01*
X75260Y29311D01*
X75250Y29322D01*
X75238Y29334D01*
X75227Y29347D01*
X75213Y29361D01*
X75200Y29377D01*
X75185Y29394D01*
X75169Y29413D01*
X75169Y29413D01*
X75166Y29416D01*
X75163Y29421D01*
X75158Y29426D01*
X75152Y29433D01*
X75145Y29441D01*
X75130Y29458D01*
X75114Y29477D01*
X75098Y29494D01*
X75090Y29503D01*
X75084Y29510D01*
X75077Y29517D01*
X75072Y29522D01*
X75071Y29523D01*
X75068Y29526D01*
X75063Y29530D01*
X75056Y29536D01*
X75049Y29543D01*
X75040Y29549D01*
X75022Y29563D01*
Y29184D01*
X74931D01*
Y29693D01*
X74933D01*
X74937D01*
X74944D01*
X74952Y29692D01*
D02*
G37*
G36*
X74704Y28851D02*
X74260D01*
X74259D01*
X74256D01*
X74251D01*
X74243D01*
X74235Y28850D01*
X74226D01*
X74215Y28849D01*
X74204Y28849D01*
X74180Y28847D01*
X74156Y28844D01*
X74132Y28839D01*
X74122Y28836D01*
X74112Y28833D01*
X74112D01*
X74111Y28832D01*
X74108Y28831D01*
X74105Y28829D01*
X74096Y28824D01*
X74086Y28818D01*
X74073Y28809D01*
X74062Y28799D01*
X74050Y28785D01*
X74039Y28770D01*
Y28769D01*
X74038Y28767D01*
X74037Y28765D01*
X74035Y28761D01*
X74033Y28757D01*
X74032Y28751D01*
X74029Y28745D01*
X74027Y28739D01*
X74022Y28722D01*
X74018Y28703D01*
X74015Y28681D01*
X74014Y28658D01*
Y28647D01*
X74015Y28640D01*
X74016Y28630D01*
X74017Y28620D01*
X74018Y28608D01*
X74021Y28595D01*
X74027Y28570D01*
X74031Y28556D01*
X74036Y28543D01*
X74042Y28530D01*
X74048Y28519D01*
X74056Y28508D01*
X74065Y28498D01*
X74066Y28497D01*
X74067Y28495D01*
X74071Y28494D01*
X74075Y28490D01*
X74081Y28487D01*
X74088Y28483D01*
X74097Y28478D01*
X74108Y28474D01*
X74121Y28470D01*
X74135Y28465D01*
X74151Y28460D01*
X74168Y28457D01*
X74188Y28454D01*
X74210Y28451D01*
X74234Y28450D01*
X74260Y28450D01*
X74704D01*
Y28348D01*
X74260D01*
X74258D01*
X74255D01*
X74249D01*
X74241D01*
X74231Y28349D01*
X74220Y28350D01*
X74207Y28351D01*
X74193Y28351D01*
X74164Y28355D01*
X74133Y28359D01*
X74103Y28365D01*
X74089Y28370D01*
X74076Y28375D01*
X74075D01*
X74072Y28375D01*
X74069Y28377D01*
X74064Y28380D01*
X74058Y28383D01*
X74052Y28386D01*
X74037Y28396D01*
X74028Y28402D01*
X74019Y28409D01*
X74009Y28417D01*
X74000Y28425D01*
X73991Y28435D01*
X73982Y28445D01*
X73973Y28457D01*
X73965Y28470D01*
X73964Y28470D01*
X73963Y28473D01*
X73961Y28476D01*
X73958Y28482D01*
X73955Y28489D01*
X73952Y28497D01*
X73948Y28506D01*
X73944Y28518D01*
X73940Y28530D01*
X73936Y28543D01*
X73933Y28558D01*
X73929Y28574D01*
X73927Y28591D01*
X73924Y28610D01*
X73923Y28629D01*
X73923Y28649D01*
Y28660D01*
X73923Y28667D01*
Y28676D01*
X73924Y28686D01*
X73926Y28699D01*
X73928Y28711D01*
X73932Y28740D01*
X73938Y28770D01*
X73948Y28799D01*
X73953Y28813D01*
X73959Y28826D01*
X73960Y28827D01*
X73961Y28829D01*
X73963Y28833D01*
X73966Y28837D01*
X73970Y28843D01*
X73975Y28849D01*
X73980Y28856D01*
X73987Y28864D01*
X74002Y28880D01*
X74020Y28896D01*
X74042Y28911D01*
X74054Y28918D01*
X74067Y28924D01*
X74067D01*
X74070Y28924D01*
X74074Y28926D01*
X74080Y28928D01*
X74087Y28930D01*
X74096Y28933D01*
X74106Y28935D01*
X74117Y28938D01*
X74131Y28941D01*
X74145Y28944D01*
X74161Y28946D01*
X74178Y28948D01*
X74197Y28950D01*
X74217Y28951D01*
X74237Y28953D01*
X74260D01*
X74704D01*
Y28851D01*
D02*
G37*
G36*
X74694Y27713D02*
X74620D01*
X74619Y27714D01*
X74616Y27717D01*
X74611Y27721D01*
X74606Y27726D01*
X74597Y27732D01*
X74588Y27741D01*
X74577Y27749D01*
X74565Y27759D01*
X74551Y27770D01*
X74535Y27782D01*
X74517Y27794D01*
X74499Y27807D01*
X74480Y27819D01*
X74458Y27832D01*
X74436Y27847D01*
X74412Y27860D01*
X74411Y27861D01*
X74407Y27863D01*
X74400Y27867D01*
X74390Y27872D01*
X74378Y27877D01*
X74364Y27885D01*
X74348Y27892D01*
X74331Y27901D01*
X74312Y27909D01*
X74291Y27918D01*
X74268Y27927D01*
X74246Y27936D01*
X74222Y27946D01*
X74197Y27955D01*
X74146Y27971D01*
X74145D01*
X74142Y27971D01*
X74136Y27973D01*
X74129Y27975D01*
X74120Y27977D01*
X74109Y27980D01*
X74097Y27983D01*
X74083Y27986D01*
X74068Y27989D01*
X74052Y27991D01*
X74034Y27995D01*
X74016Y27997D01*
X73997Y28001D01*
X73977Y28003D01*
X73935Y28006D01*
Y28103D01*
X73936D01*
X73939D01*
X73944D01*
X73951Y28102D01*
X73960Y28101D01*
X73970Y28101D01*
X73983Y28100D01*
X73996Y28098D01*
X74012Y28096D01*
X74028Y28094D01*
X74046Y28091D01*
X74065Y28088D01*
X74086Y28084D01*
X74107Y28080D01*
X74130Y28074D01*
X74153Y28068D01*
X74155Y28067D01*
X74159Y28066D01*
X74166Y28065D01*
X74175Y28061D01*
X74187Y28058D01*
X74201Y28054D01*
X74216Y28049D01*
X74232Y28043D01*
X74251Y28036D01*
X74271Y28029D01*
X74292Y28021D01*
X74312Y28012D01*
X74357Y27993D01*
X74402Y27971D01*
X74403Y27970D01*
X74407Y27967D01*
X74413Y27964D01*
X74422Y27960D01*
X74432Y27953D01*
X74443Y27946D01*
X74457Y27938D01*
X74471Y27930D01*
X74486Y27920D01*
X74503Y27909D01*
X74536Y27886D01*
X74571Y27861D01*
X74587Y27847D01*
X74603Y27834D01*
Y28211D01*
X74694D01*
Y27713D01*
D02*
G37*
G36*
X75322Y28952D02*
X75327D01*
X75341Y28951D01*
X75357Y28949D01*
X75376Y28947D01*
X75396Y28944D01*
X75418Y28940D01*
X75442Y28934D01*
X75466Y28928D01*
X75491Y28919D01*
X75516Y28909D01*
X75541Y28898D01*
X75565Y28884D01*
X75588Y28869D01*
X75609Y28850D01*
X75610Y28849D01*
X75614Y28845D01*
X75619Y28839D01*
X75626Y28832D01*
X75634Y28821D01*
X75643Y28809D01*
X75653Y28795D01*
X75663Y28779D01*
X75673Y28760D01*
X75683Y28740D01*
X75692Y28719D01*
X75701Y28695D01*
X75707Y28670D01*
X75712Y28643D01*
X75716Y28615D01*
X75717Y28585D01*
Y28575D01*
X75716Y28567D01*
X75716Y28557D01*
X75715Y28546D01*
X75713Y28535D01*
X75711Y28521D01*
X75708Y28506D01*
X75705Y28491D01*
X75701Y28475D01*
X75696Y28459D01*
X75690Y28442D01*
X75683Y28425D01*
X75676Y28410D01*
X75666Y28393D01*
X75666Y28392D01*
X75664Y28389D01*
X75661Y28385D01*
X75657Y28379D01*
X75652Y28371D01*
X75646Y28364D01*
X75638Y28355D01*
X75630Y28345D01*
X75620Y28334D01*
X75609Y28323D01*
X75597Y28312D01*
X75585Y28301D01*
X75571Y28291D01*
X75556Y28281D01*
X75541Y28271D01*
X75524Y28262D01*
X75523Y28261D01*
X75520Y28261D01*
X75515Y28258D01*
X75508Y28256D01*
X75500Y28251D01*
X75489Y28248D01*
X75477Y28244D01*
X75464Y28240D01*
X75450Y28236D01*
X75434Y28231D01*
X75417Y28227D01*
X75399Y28224D01*
X75380Y28221D01*
X75360Y28219D01*
X75340Y28218D01*
X75318Y28217D01*
X75317D01*
X75313D01*
X75307D01*
X75298Y28218D01*
X75288Y28219D01*
X75277Y28220D01*
X75263Y28221D01*
X75248Y28223D01*
X75232Y28226D01*
X75216Y28229D01*
X75198Y28232D01*
X75181Y28237D01*
X75162Y28243D01*
X75145Y28249D01*
X75127Y28256D01*
X75109Y28265D01*
X75108Y28266D01*
X75105Y28267D01*
X75100Y28270D01*
X75094Y28273D01*
X75087Y28278D01*
X75077Y28284D01*
X75067Y28291D01*
X75057Y28299D01*
X75046Y28308D01*
X75034Y28318D01*
X75023Y28330D01*
X75011Y28341D01*
X75000Y28354D01*
X74989Y28368D01*
X74978Y28383D01*
X74969Y28399D01*
X74968Y28400D01*
X74968Y28403D01*
X74965Y28407D01*
X74962Y28414D01*
X74958Y28422D01*
X74954Y28431D01*
X74950Y28442D01*
X74946Y28455D01*
X74942Y28468D01*
X74938Y28482D01*
X74933Y28498D01*
X74930Y28514D01*
X74924Y28549D01*
X74923Y28567D01*
X74923Y28585D01*
Y28596D01*
X74923Y28604D01*
X74924Y28613D01*
X74925Y28625D01*
X74927Y28636D01*
X74929Y28650D01*
X74932Y28665D01*
X74935Y28680D01*
X74939Y28696D01*
X74944Y28713D01*
X74950Y28730D01*
X74958Y28746D01*
X74965Y28763D01*
X74974Y28779D01*
X74975Y28780D01*
X74977Y28783D01*
X74980Y28788D01*
X74984Y28794D01*
X74989Y28800D01*
X74996Y28809D01*
X75003Y28818D01*
X75012Y28828D01*
X75022Y28839D01*
X75033Y28849D01*
X75044Y28859D01*
X75057Y28870D01*
X75071Y28881D01*
X75085Y28891D01*
X75101Y28900D01*
X75117Y28909D01*
X75118Y28910D01*
X75122Y28911D01*
X75127Y28914D01*
X75133Y28916D01*
X75142Y28919D01*
X75152Y28923D01*
X75162Y28927D01*
X75176Y28931D01*
X75189Y28935D01*
X75204Y28939D01*
X75220Y28943D01*
X75237Y28946D01*
X75272Y28951D01*
X75291Y28952D01*
X75309Y28953D01*
X75310D01*
X75312D01*
X75314D01*
X75317D01*
X75322Y28952D01*
D02*
G37*
G36*
X75704Y27770D02*
X75703Y27753D01*
X75702Y27734D01*
X75701Y27715D01*
X75699Y27697D01*
X75698Y27687D01*
X75696Y27680D01*
Y27679D01*
X75696Y27677D01*
Y27674D01*
X75695Y27671D01*
X75693Y27666D01*
X75692Y27660D01*
X75688Y27647D01*
X75683Y27632D01*
X75676Y27616D01*
X75669Y27600D01*
X75660Y27585D01*
Y27584D01*
X75659Y27583D01*
X75655Y27578D01*
X75649Y27572D01*
X75641Y27562D01*
X75631Y27553D01*
X75617Y27542D01*
X75603Y27532D01*
X75586Y27523D01*
X75585D01*
X75583Y27522D01*
X75581Y27521D01*
X75577Y27519D01*
X75573Y27517D01*
X75567Y27516D01*
X75555Y27511D01*
X75539Y27507D01*
X75521Y27503D01*
X75501Y27500D01*
X75481Y27499D01*
X75480D01*
X75476D01*
X75471D01*
X75464Y27500D01*
X75456Y27501D01*
X75447Y27503D01*
X75436Y27504D01*
X75423Y27507D01*
X75411Y27510D01*
X75397Y27514D01*
X75384Y27519D01*
X75370Y27526D01*
X75356Y27532D01*
X75342Y27541D01*
X75328Y27551D01*
X75315Y27562D01*
X75314Y27562D01*
X75312Y27565D01*
X75309Y27568D01*
X75304Y27574D01*
X75299Y27581D01*
X75293Y27590D01*
X75287Y27601D01*
X75282Y27613D01*
X75275Y27628D01*
X75269Y27644D01*
X75263Y27663D01*
X75258Y27683D01*
X75254Y27707D01*
X75251Y27732D01*
X75248Y27758D01*
X75247Y27788D01*
Y27985D01*
X74935D01*
Y28086D01*
X75704D01*
Y27770D01*
D02*
G37*
G36*
X75514Y27335D02*
X75515Y27333D01*
X75517Y27328D01*
X75520Y27323D01*
X75523Y27316D01*
X75528Y27308D01*
X75533Y27298D01*
X75538Y27289D01*
X75551Y27268D01*
X75567Y27244D01*
X75584Y27220D01*
X75603Y27198D01*
X75604Y27197D01*
X75606Y27195D01*
X75608Y27192D01*
X75612Y27188D01*
X75617Y27183D01*
X75622Y27178D01*
X75636Y27165D01*
X75651Y27151D01*
X75669Y27137D01*
X75687Y27124D01*
X75706Y27113D01*
Y27053D01*
X74935D01*
Y27147D01*
X75536D01*
X75534Y27148D01*
X75530Y27153D01*
X75524Y27160D01*
X75516Y27171D01*
X75506Y27183D01*
X75495Y27199D01*
X75483Y27217D01*
X75471Y27237D01*
Y27238D01*
X75469Y27239D01*
X75467Y27242D01*
X75466Y27246D01*
X75462Y27251D01*
X75460Y27257D01*
X75452Y27270D01*
X75445Y27285D01*
X75437Y27302D01*
X75429Y27319D01*
X75422Y27336D01*
X75513D01*
X75514Y27335D01*
D02*
G37*
G36*
X70531Y33418D02*
X70087D01*
X70086D01*
X70083D01*
X70078D01*
X70070D01*
X70062Y33417D01*
X70053D01*
X70042Y33416D01*
X70031Y33416D01*
X70007Y33414D01*
X69983Y33411D01*
X69959Y33406D01*
X69948Y33403D01*
X69939Y33400D01*
X69938D01*
X69938Y33399D01*
X69935Y33398D01*
X69932Y33396D01*
X69923Y33391D01*
X69913Y33385D01*
X69900Y33376D01*
X69888Y33366D01*
X69877Y33352D01*
X69866Y33336D01*
Y33336D01*
X69865Y33334D01*
X69863Y33331D01*
X69862Y33328D01*
X69860Y33324D01*
X69858Y33318D01*
X69856Y33312D01*
X69853Y33306D01*
X69849Y33289D01*
X69845Y33270D01*
X69842Y33248D01*
X69841Y33225D01*
Y33214D01*
X69842Y33206D01*
X69843Y33197D01*
X69843Y33186D01*
X69845Y33175D01*
X69848Y33162D01*
X69853Y33137D01*
X69858Y33123D01*
X69863Y33110D01*
X69868Y33097D01*
X69875Y33086D01*
X69883Y33075D01*
X69892Y33065D01*
X69893Y33064D01*
X69894Y33062D01*
X69898Y33061D01*
X69902Y33057D01*
X69908Y33054D01*
X69915Y33050D01*
X69924Y33045D01*
X69935Y33041D01*
X69948Y33037D01*
X69962Y33032D01*
X69978Y33027D01*
X69995Y33024D01*
X70015Y33021D01*
X70037Y33018D01*
X70061Y33017D01*
X70087Y33017D01*
X70531D01*
Y32915D01*
X70087D01*
X70085D01*
X70082D01*
X70076D01*
X70068D01*
X70058Y32916D01*
X70047Y32917D01*
X70034Y32917D01*
X70020Y32918D01*
X69991Y32922D01*
X69960Y32926D01*
X69930Y32932D01*
X69916Y32937D01*
X69903Y32942D01*
X69902D01*
X69899Y32942D01*
X69896Y32944D01*
X69891Y32947D01*
X69885Y32950D01*
X69878Y32953D01*
X69863Y32963D01*
X69854Y32969D01*
X69846Y32976D01*
X69836Y32984D01*
X69827Y32992D01*
X69818Y33002D01*
X69808Y33012D01*
X69800Y33024D01*
X69792Y33037D01*
X69791Y33037D01*
X69790Y33040D01*
X69788Y33043D01*
X69785Y33049D01*
X69782Y33056D01*
X69778Y33064D01*
X69774Y33073D01*
X69771Y33085D01*
X69767Y33097D01*
X69763Y33110D01*
X69759Y33125D01*
X69756Y33141D01*
X69753Y33158D01*
X69751Y33176D01*
X69750Y33196D01*
X69749Y33216D01*
Y33226D01*
X69750Y33234D01*
Y33243D01*
X69751Y33253D01*
X69753Y33266D01*
X69754Y33278D01*
X69758Y33306D01*
X69765Y33336D01*
X69774Y33366D01*
X69779Y33380D01*
X69786Y33393D01*
X69787Y33394D01*
X69788Y33396D01*
X69790Y33400D01*
X69793Y33404D01*
X69797Y33410D01*
X69802Y33416D01*
X69807Y33423D01*
X69813Y33431D01*
X69828Y33447D01*
X69847Y33463D01*
X69868Y33478D01*
X69881Y33485D01*
X69893Y33491D01*
X69894D01*
X69897Y33491D01*
X69901Y33493D01*
X69907Y33495D01*
X69913Y33497D01*
X69923Y33500D01*
X69933Y33502D01*
X69944Y33505D01*
X69958Y33508D01*
X69972Y33511D01*
X69988Y33513D01*
X70005Y33515D01*
X70023Y33517D01*
X70043Y33518D01*
X70064Y33520D01*
X70087D01*
X70531D01*
Y33418D01*
D02*
G37*
G36*
X70341Y32711D02*
X70342Y32708D01*
X70344Y32704D01*
X70347Y32698D01*
X70350Y32692D01*
X70355Y32683D01*
X70360Y32674D01*
X70365Y32665D01*
X70378Y32643D01*
X70394Y32620D01*
X70411Y32596D01*
X70430Y32573D01*
X70431Y32573D01*
X70432Y32571D01*
X70435Y32568D01*
X70439Y32563D01*
X70444Y32559D01*
X70449Y32553D01*
X70463Y32541D01*
X70478Y32527D01*
X70496Y32513D01*
X70514Y32500D01*
X70533Y32489D01*
Y32428D01*
X69762D01*
Y32523D01*
X70362D01*
X70361Y32524D01*
X70357Y32528D01*
X70351Y32536D01*
X70342Y32547D01*
X70332Y32559D01*
X70322Y32575D01*
X70310Y32593D01*
X70297Y32613D01*
Y32613D01*
X70296Y32615D01*
X70294Y32618D01*
X70292Y32622D01*
X70289Y32627D01*
X70287Y32633D01*
X70279Y32646D01*
X70272Y32661D01*
X70263Y32678D01*
X70256Y32695D01*
X70249Y32712D01*
X70340D01*
X70341Y32711D01*
D02*
G37*
G36*
X70163Y32185D02*
X70175D01*
X70188Y32184D01*
X70203Y32184D01*
X70219Y32183D01*
X70237Y32181D01*
X70254Y32179D01*
X70291Y32174D01*
X70327Y32168D01*
X70344Y32164D01*
X70360Y32159D01*
X70361D01*
X70363Y32157D01*
X70368Y32155D01*
X70374Y32154D01*
X70381Y32150D01*
X70389Y32147D01*
X70397Y32143D01*
X70407Y32138D01*
X70428Y32126D01*
X70449Y32111D01*
X70470Y32094D01*
X70479Y32085D01*
X70488Y32075D01*
X70489Y32074D01*
X70490Y32073D01*
X70492Y32069D01*
X70495Y32065D01*
X70499Y32060D01*
X70502Y32054D01*
X70507Y32046D01*
X70511Y32037D01*
X70515Y32028D01*
X70519Y32017D01*
X70523Y32005D01*
X70526Y31994D01*
X70529Y31980D01*
X70532Y31966D01*
X70532Y31951D01*
X70533Y31936D01*
Y31926D01*
X70532Y31920D01*
X70532Y31914D01*
X70530Y31899D01*
X70527Y31883D01*
X70522Y31865D01*
X70517Y31846D01*
X70508Y31828D01*
Y31827D01*
X70507Y31825D01*
X70506Y31823D01*
X70503Y31820D01*
X70498Y31811D01*
X70490Y31800D01*
X70480Y31788D01*
X70467Y31775D01*
X70452Y31762D01*
X70436Y31750D01*
X70435D01*
X70433Y31749D01*
X70431Y31748D01*
X70427Y31745D01*
X70423Y31743D01*
X70417Y31740D01*
X70411Y31737D01*
X70404Y31733D01*
X70387Y31725D01*
X70368Y31718D01*
X70346Y31710D01*
X70322Y31703D01*
X70321D01*
X70318Y31702D01*
X70315Y31701D01*
X70309Y31700D01*
X70302Y31699D01*
X70294Y31697D01*
X70285Y31695D01*
X70274Y31694D01*
X70262Y31693D01*
X70248Y31691D01*
X70233Y31690D01*
X70217Y31688D01*
X70200Y31687D01*
X70182Y31686D01*
X70162Y31685D01*
X70141D01*
X70139D01*
X70135D01*
X70128D01*
X70118D01*
X70107Y31686D01*
X70094Y31687D01*
X70079Y31688D01*
X70063Y31689D01*
X70046Y31690D01*
X70028Y31692D01*
X69992Y31697D01*
X69956Y31705D01*
X69938Y31709D01*
X69923Y31714D01*
X69922D01*
X69919Y31715D01*
X69914Y31716D01*
X69909Y31719D01*
X69902Y31722D01*
X69894Y31725D01*
X69885Y31730D01*
X69875Y31735D01*
X69854Y31746D01*
X69833Y31760D01*
X69813Y31777D01*
X69803Y31787D01*
X69794Y31797D01*
X69793Y31798D01*
X69793Y31800D01*
X69790Y31803D01*
X69788Y31807D01*
X69784Y31812D01*
X69780Y31819D01*
X69776Y31826D01*
X69772Y31835D01*
X69768Y31845D01*
X69763Y31855D01*
X69760Y31866D01*
X69756Y31879D01*
X69753Y31892D01*
X69751Y31906D01*
X69750Y31920D01*
X69749Y31936D01*
Y31941D01*
X69750Y31947D01*
X69751Y31954D01*
X69752Y31964D01*
X69753Y31974D01*
X69756Y31986D01*
X69759Y31999D01*
X69763Y32013D01*
X69768Y32027D01*
X69775Y32042D01*
X69783Y32056D01*
X69792Y32070D01*
X69803Y32084D01*
X69814Y32098D01*
X69828Y32110D01*
X69829Y32111D01*
X69833Y32114D01*
X69838Y32117D01*
X69847Y32122D01*
X69858Y32128D01*
X69870Y32134D01*
X69886Y32141D01*
X69903Y32148D01*
X69924Y32155D01*
X69947Y32162D01*
X69973Y32169D01*
X70001Y32174D01*
X70032Y32179D01*
X70065Y32183D01*
X70102Y32185D01*
X70141Y32186D01*
X70142D01*
X70147D01*
X70154D01*
X70163Y32185D01*
D02*
G37*
G36*
X71149Y33519D02*
X71154D01*
X71167Y33518D01*
X71183Y33516D01*
X71202Y33514D01*
X71222Y33511D01*
X71245Y33507D01*
X71269Y33501D01*
X71293Y33495D01*
X71318Y33486D01*
X71343Y33476D01*
X71368Y33465D01*
X71392Y33451D01*
X71415Y33436D01*
X71436Y33417D01*
X71437Y33416D01*
X71441Y33412D01*
X71446Y33406D01*
X71452Y33399D01*
X71461Y33388D01*
X71470Y33376D01*
X71480Y33362D01*
X71490Y33346D01*
X71500Y33327D01*
X71510Y33307D01*
X71519Y33286D01*
X71527Y33261D01*
X71534Y33236D01*
X71539Y33210D01*
X71543Y33181D01*
X71544Y33152D01*
Y33142D01*
X71543Y33134D01*
X71542Y33124D01*
X71542Y33113D01*
X71540Y33102D01*
X71537Y33088D01*
X71535Y33073D01*
X71532Y33058D01*
X71527Y33042D01*
X71522Y33026D01*
X71517Y33009D01*
X71510Y32992D01*
X71502Y32977D01*
X71493Y32960D01*
X71492Y32959D01*
X71491Y32956D01*
X71488Y32952D01*
X71484Y32946D01*
X71479Y32938D01*
X71472Y32931D01*
X71465Y32922D01*
X71457Y32912D01*
X71447Y32901D01*
X71436Y32890D01*
X71424Y32879D01*
X71412Y32868D01*
X71398Y32858D01*
X71383Y32847D01*
X71367Y32838D01*
X71351Y32829D01*
X71350Y32828D01*
X71347Y32827D01*
X71342Y32825D01*
X71335Y32822D01*
X71327Y32818D01*
X71316Y32815D01*
X71304Y32811D01*
X71291Y32807D01*
X71277Y32802D01*
X71261Y32798D01*
X71243Y32794D01*
X71226Y32791D01*
X71207Y32788D01*
X71187Y32786D01*
X71167Y32785D01*
X71145Y32784D01*
X71143D01*
X71140D01*
X71133D01*
X71125Y32785D01*
X71115Y32786D01*
X71103Y32787D01*
X71090Y32788D01*
X71075Y32790D01*
X71059Y32792D01*
X71043Y32796D01*
X71025Y32799D01*
X71008Y32804D01*
X70989Y32810D01*
X70972Y32816D01*
X70953Y32823D01*
X70936Y32832D01*
X70935Y32832D01*
X70932Y32834D01*
X70927Y32837D01*
X70921Y32840D01*
X70913Y32845D01*
X70904Y32851D01*
X70894Y32858D01*
X70883Y32866D01*
X70873Y32875D01*
X70861Y32885D01*
X70849Y32897D01*
X70838Y32908D01*
X70827Y32921D01*
X70816Y32935D01*
X70805Y32950D01*
X70796Y32966D01*
X70795Y32967D01*
X70794Y32970D01*
X70792Y32974D01*
X70788Y32981D01*
X70785Y32989D01*
X70781Y32998D01*
X70777Y33009D01*
X70773Y33022D01*
X70768Y33035D01*
X70764Y33049D01*
X70760Y33065D01*
X70757Y33081D01*
X70751Y33116D01*
X70750Y33134D01*
X70749Y33152D01*
Y33163D01*
X70750Y33171D01*
X70751Y33180D01*
X70752Y33191D01*
X70753Y33203D01*
X70756Y33217D01*
X70758Y33231D01*
X70762Y33247D01*
X70766Y33263D01*
X70771Y33280D01*
X70777Y33296D01*
X70784Y33313D01*
X70792Y33330D01*
X70801Y33346D01*
X70802Y33347D01*
X70803Y33350D01*
X70807Y33355D01*
X70811Y33361D01*
X70816Y33367D01*
X70823Y33376D01*
X70830Y33385D01*
X70838Y33395D01*
X70848Y33406D01*
X70859Y33416D01*
X70871Y33426D01*
X70883Y33437D01*
X70898Y33448D01*
X70912Y33458D01*
X70928Y33467D01*
X70944Y33476D01*
X70945Y33477D01*
X70948Y33478D01*
X70953Y33481D01*
X70960Y33483D01*
X70968Y33486D01*
X70978Y33490D01*
X70989Y33494D01*
X71003Y33498D01*
X71016Y33502D01*
X71031Y33506D01*
X71047Y33510D01*
X71063Y33513D01*
X71098Y33518D01*
X71118Y33519D01*
X71136Y33520D01*
X71137D01*
X71138D01*
X71141D01*
X71144D01*
X71149Y33519D01*
D02*
G37*
G36*
X71531Y32337D02*
X71530Y32320D01*
X71529Y32301D01*
X71527Y32282D01*
X71526Y32264D01*
X71525Y32254D01*
X71523Y32247D01*
Y32246D01*
X71522Y32244D01*
Y32241D01*
X71522Y32238D01*
X71520Y32233D01*
X71519Y32227D01*
X71515Y32214D01*
X71510Y32199D01*
X71503Y32183D01*
X71496Y32167D01*
X71487Y32152D01*
Y32151D01*
X71486Y32150D01*
X71482Y32145D01*
X71476Y32139D01*
X71467Y32129D01*
X71457Y32120D01*
X71444Y32109D01*
X71430Y32099D01*
X71412Y32090D01*
X71412D01*
X71410Y32089D01*
X71407Y32088D01*
X71404Y32086D01*
X71400Y32084D01*
X71394Y32083D01*
X71382Y32078D01*
X71366Y32074D01*
X71348Y32069D01*
X71328Y32067D01*
X71307Y32066D01*
X71307D01*
X71303D01*
X71298D01*
X71291Y32067D01*
X71282Y32068D01*
X71273Y32069D01*
X71262Y32071D01*
X71250Y32074D01*
X71237Y32077D01*
X71224Y32081D01*
X71211Y32086D01*
X71197Y32093D01*
X71182Y32099D01*
X71168Y32108D01*
X71155Y32118D01*
X71142Y32129D01*
X71141Y32129D01*
X71139Y32132D01*
X71136Y32135D01*
X71131Y32141D01*
X71126Y32148D01*
X71120Y32157D01*
X71114Y32168D01*
X71108Y32180D01*
X71102Y32195D01*
X71096Y32211D01*
X71090Y32230D01*
X71085Y32250D01*
X71081Y32274D01*
X71078Y32299D01*
X71075Y32325D01*
X71074Y32355D01*
Y32552D01*
X70762D01*
Y32653D01*
X71531D01*
Y32337D01*
D02*
G37*
G36*
Y31655D02*
Y31578D01*
X71033D01*
Y31474D01*
X70946D01*
Y31578D01*
X70762D01*
Y31672D01*
X70946D01*
Y32007D01*
X71033D01*
X71531Y31655D01*
D02*
G37*
G36*
X74704Y33418D02*
X74260D01*
X74259D01*
X74256D01*
X74251D01*
X74243D01*
X74235Y33417D01*
X74226D01*
X74215Y33416D01*
X74204Y33416D01*
X74180Y33414D01*
X74156Y33411D01*
X74132Y33406D01*
X74122Y33403D01*
X74112Y33400D01*
X74112D01*
X74111Y33399D01*
X74108Y33398D01*
X74105Y33396D01*
X74096Y33391D01*
X74086Y33385D01*
X74073Y33376D01*
X74062Y33366D01*
X74050Y33352D01*
X74039Y33336D01*
Y33336D01*
X74038Y33334D01*
X74037Y33331D01*
X74035Y33328D01*
X74033Y33324D01*
X74032Y33318D01*
X74029Y33312D01*
X74027Y33306D01*
X74022Y33289D01*
X74018Y33270D01*
X74015Y33248D01*
X74014Y33225D01*
Y33214D01*
X74015Y33206D01*
X74016Y33197D01*
X74017Y33186D01*
X74018Y33175D01*
X74021Y33162D01*
X74027Y33137D01*
X74031Y33123D01*
X74036Y33110D01*
X74042Y33097D01*
X74048Y33086D01*
X74056Y33075D01*
X74065Y33065D01*
X74066Y33064D01*
X74067Y33062D01*
X74071Y33061D01*
X74075Y33057D01*
X74081Y33054D01*
X74088Y33050D01*
X74097Y33045D01*
X74108Y33041D01*
X74121Y33037D01*
X74135Y33032D01*
X74151Y33027D01*
X74168Y33024D01*
X74188Y33021D01*
X74210Y33018D01*
X74234Y33017D01*
X74260Y33017D01*
X74704D01*
Y32915D01*
X74260D01*
X74258D01*
X74255D01*
X74249D01*
X74241D01*
X74231Y32916D01*
X74220Y32917D01*
X74207Y32917D01*
X74193Y32918D01*
X74164Y32922D01*
X74133Y32926D01*
X74103Y32932D01*
X74089Y32937D01*
X74076Y32942D01*
X74075D01*
X74072Y32942D01*
X74069Y32944D01*
X74064Y32947D01*
X74058Y32950D01*
X74052Y32953D01*
X74037Y32963D01*
X74028Y32969D01*
X74019Y32976D01*
X74009Y32984D01*
X74000Y32992D01*
X73991Y33002D01*
X73982Y33012D01*
X73973Y33024D01*
X73965Y33037D01*
X73964Y33037D01*
X73963Y33040D01*
X73961Y33043D01*
X73958Y33049D01*
X73955Y33056D01*
X73952Y33064D01*
X73948Y33073D01*
X73944Y33085D01*
X73940Y33097D01*
X73936Y33110D01*
X73933Y33125D01*
X73929Y33141D01*
X73927Y33158D01*
X73924Y33176D01*
X73923Y33196D01*
X73923Y33216D01*
Y33226D01*
X73923Y33234D01*
Y33243D01*
X73924Y33253D01*
X73926Y33266D01*
X73928Y33278D01*
X73932Y33306D01*
X73938Y33336D01*
X73948Y33366D01*
X73953Y33380D01*
X73959Y33393D01*
X73960Y33394D01*
X73961Y33396D01*
X73963Y33400D01*
X73966Y33404D01*
X73970Y33410D01*
X73975Y33416D01*
X73980Y33423D01*
X73987Y33431D01*
X74002Y33447D01*
X74020Y33463D01*
X74042Y33478D01*
X74054Y33485D01*
X74067Y33491D01*
X74067D01*
X74070Y33491D01*
X74074Y33493D01*
X74080Y33495D01*
X74087Y33497D01*
X74096Y33500D01*
X74106Y33502D01*
X74117Y33505D01*
X74131Y33508D01*
X74145Y33511D01*
X74161Y33513D01*
X74178Y33515D01*
X74197Y33517D01*
X74217Y33518D01*
X74237Y33520D01*
X74260D01*
X74704D01*
Y33418D01*
D02*
G37*
G36*
X74458Y32782D02*
X74466D01*
X74476Y32781D01*
X74487Y32780D01*
X74500Y32777D01*
X74514Y32775D01*
X74528Y32771D01*
X74544Y32767D01*
X74560Y32761D01*
X74575Y32754D01*
X74591Y32747D01*
X74606Y32738D01*
X74621Y32727D01*
X74635Y32715D01*
X74636Y32714D01*
X74638Y32712D01*
X74641Y32708D01*
X74646Y32703D01*
X74651Y32696D01*
X74657Y32688D01*
X74664Y32678D01*
X74671Y32668D01*
X74677Y32656D01*
X74684Y32643D01*
X74690Y32628D01*
X74696Y32613D01*
X74700Y32597D01*
X74703Y32579D01*
X74706Y32562D01*
X74706Y32543D01*
Y32535D01*
X74706Y32530D01*
Y32523D01*
X74704Y32516D01*
X74703Y32507D01*
X74701Y32498D01*
X74696Y32476D01*
X74689Y32453D01*
X74685Y32442D01*
X74679Y32429D01*
X74673Y32418D01*
X74666Y32406D01*
X74665Y32405D01*
X74664Y32403D01*
X74661Y32400D01*
X74658Y32396D01*
X74654Y32390D01*
X74649Y32384D01*
X74643Y32378D01*
X74636Y32371D01*
X74629Y32363D01*
X74620Y32355D01*
X74611Y32348D01*
X74601Y32339D01*
X74589Y32332D01*
X74577Y32324D01*
X74564Y32318D01*
X74551Y32311D01*
X74550D01*
X74547Y32309D01*
X74543Y32308D01*
X74536Y32306D01*
X74529Y32304D01*
X74520Y32301D01*
X74509Y32298D01*
X74496Y32294D01*
X74481Y32292D01*
X74466Y32289D01*
X74447Y32286D01*
X74428Y32284D01*
X74407Y32282D01*
X74385Y32280D01*
X74361Y32279D01*
X74335D01*
X74333D01*
X74328D01*
X74321D01*
X74311Y32279D01*
X74298D01*
X74283Y32280D01*
X74267Y32281D01*
X74250Y32283D01*
X74232Y32284D01*
X74212Y32286D01*
X74173Y32292D01*
X74135Y32300D01*
X74117Y32305D01*
X74100Y32311D01*
X74099D01*
X74096Y32313D01*
X74092Y32314D01*
X74086Y32317D01*
X74078Y32320D01*
X74070Y32324D01*
X74061Y32329D01*
X74051Y32334D01*
X74030Y32348D01*
X74008Y32364D01*
X73987Y32383D01*
X73977Y32394D01*
X73968Y32406D01*
X73967Y32407D01*
X73966Y32408D01*
X73963Y32413D01*
X73961Y32417D01*
X73958Y32423D01*
X73953Y32430D01*
X73949Y32438D01*
X73945Y32448D01*
X73941Y32458D01*
X73937Y32470D01*
X73933Y32482D01*
X73929Y32495D01*
X73924Y32523D01*
X73923Y32538D01*
X73923Y32554D01*
Y32563D01*
X73923Y32569D01*
X73924Y32577D01*
X73925Y32586D01*
X73927Y32596D01*
X73929Y32607D01*
X73935Y32630D01*
X73939Y32642D01*
X73943Y32654D01*
X73949Y32667D01*
X73956Y32679D01*
X73963Y32691D01*
X73973Y32702D01*
X73973Y32703D01*
X73975Y32704D01*
X73978Y32707D01*
X73982Y32711D01*
X73987Y32715D01*
X73993Y32720D01*
X74001Y32726D01*
X74009Y32732D01*
X74018Y32738D01*
X74029Y32743D01*
X74041Y32748D01*
X74053Y32754D01*
X74067Y32759D01*
X74081Y32763D01*
X74097Y32767D01*
X74113Y32769D01*
X74121Y32678D01*
X74120D01*
X74118Y32678D01*
X74115D01*
X74110Y32676D01*
X74105Y32675D01*
X74099Y32673D01*
X74085Y32669D01*
X74070Y32663D01*
X74055Y32656D01*
X74041Y32646D01*
X74034Y32641D01*
X74028Y32635D01*
X74028Y32633D01*
X74024Y32629D01*
X74019Y32622D01*
X74014Y32613D01*
X74009Y32600D01*
X74004Y32586D01*
X74001Y32570D01*
X74000Y32552D01*
Y32544D01*
X74001Y32536D01*
X74003Y32526D01*
X74005Y32514D01*
X74008Y32502D01*
X74013Y32488D01*
X74019Y32476D01*
X74020Y32474D01*
X74022Y32470D01*
X74028Y32464D01*
X74033Y32457D01*
X74041Y32448D01*
X74050Y32439D01*
X74061Y32430D01*
X74072Y32422D01*
X74074Y32421D01*
X74078Y32418D01*
X74086Y32414D01*
X74097Y32409D01*
X74109Y32404D01*
X74124Y32398D01*
X74142Y32393D01*
X74162Y32387D01*
X74163D01*
X74165Y32386D01*
X74168Y32385D01*
X74172Y32384D01*
X74177Y32383D01*
X74183Y32383D01*
X74191Y32381D01*
X74198Y32379D01*
X74216Y32377D01*
X74235Y32375D01*
X74256Y32373D01*
X74277Y32373D01*
X74279D01*
X74282D01*
X74288D01*
X74296D01*
X74295Y32374D01*
X74292Y32375D01*
X74289Y32378D01*
X74281Y32384D01*
X74271Y32393D01*
X74259Y32404D01*
X74247Y32418D01*
X74235Y32433D01*
X74223Y32450D01*
Y32451D01*
X74222Y32453D01*
X74221Y32455D01*
X74219Y32458D01*
X74217Y32463D01*
X74215Y32468D01*
X74210Y32482D01*
X74204Y32498D01*
X74200Y32516D01*
X74197Y32536D01*
X74196Y32557D01*
Y32561D01*
X74197Y32566D01*
Y32573D01*
X74198Y32581D01*
X74199Y32590D01*
X74202Y32601D01*
X74204Y32613D01*
X74208Y32625D01*
X74212Y32638D01*
X74218Y32651D01*
X74225Y32664D01*
X74232Y32678D01*
X74242Y32692D01*
X74252Y32705D01*
X74264Y32718D01*
X74265Y32718D01*
X74267Y32720D01*
X74272Y32723D01*
X74277Y32727D01*
X74283Y32733D01*
X74292Y32738D01*
X74302Y32744D01*
X74313Y32750D01*
X74325Y32757D01*
X74339Y32762D01*
X74354Y32768D01*
X74370Y32773D01*
X74387Y32777D01*
X74407Y32781D01*
X74426Y32782D01*
X74447Y32783D01*
X74448D01*
X74451D01*
X74458Y32782D01*
D02*
G37*
G36*
X75322Y33519D02*
X75327D01*
X75341Y33518D01*
X75357Y33516D01*
X75376Y33514D01*
X75396Y33511D01*
X75418Y33507D01*
X75442Y33501D01*
X75466Y33495D01*
X75491Y33486D01*
X75516Y33476D01*
X75541Y33465D01*
X75565Y33451D01*
X75588Y33436D01*
X75609Y33417D01*
X75610Y33416D01*
X75614Y33412D01*
X75619Y33406D01*
X75626Y33399D01*
X75634Y33388D01*
X75643Y33376D01*
X75653Y33362D01*
X75663Y33346D01*
X75673Y33327D01*
X75683Y33307D01*
X75692Y33286D01*
X75701Y33261D01*
X75707Y33236D01*
X75712Y33210D01*
X75716Y33181D01*
X75717Y33152D01*
Y33142D01*
X75716Y33134D01*
X75716Y33124D01*
X75715Y33113D01*
X75713Y33102D01*
X75711Y33088D01*
X75708Y33073D01*
X75705Y33058D01*
X75701Y33042D01*
X75696Y33026D01*
X75690Y33009D01*
X75683Y32992D01*
X75676Y32977D01*
X75666Y32960D01*
X75666Y32959D01*
X75664Y32956D01*
X75661Y32952D01*
X75657Y32946D01*
X75652Y32938D01*
X75646Y32931D01*
X75638Y32922D01*
X75630Y32912D01*
X75620Y32901D01*
X75609Y32890D01*
X75597Y32879D01*
X75585Y32868D01*
X75571Y32858D01*
X75556Y32847D01*
X75541Y32838D01*
X75524Y32829D01*
X75523Y32828D01*
X75520Y32827D01*
X75515Y32825D01*
X75508Y32822D01*
X75500Y32818D01*
X75489Y32815D01*
X75477Y32811D01*
X75464Y32807D01*
X75450Y32802D01*
X75434Y32798D01*
X75417Y32794D01*
X75399Y32791D01*
X75380Y32788D01*
X75360Y32786D01*
X75340Y32785D01*
X75318Y32784D01*
X75317D01*
X75313D01*
X75307D01*
X75298Y32785D01*
X75288Y32786D01*
X75277Y32787D01*
X75263Y32788D01*
X75248Y32790D01*
X75232Y32792D01*
X75216Y32796D01*
X75198Y32799D01*
X75181Y32804D01*
X75162Y32810D01*
X75145Y32816D01*
X75127Y32823D01*
X75109Y32832D01*
X75108Y32832D01*
X75105Y32834D01*
X75100Y32837D01*
X75094Y32840D01*
X75087Y32845D01*
X75077Y32851D01*
X75067Y32858D01*
X75057Y32866D01*
X75046Y32875D01*
X75034Y32885D01*
X75023Y32897D01*
X75011Y32908D01*
X75000Y32921D01*
X74989Y32935D01*
X74978Y32950D01*
X74969Y32966D01*
X74968Y32967D01*
X74968Y32970D01*
X74965Y32974D01*
X74962Y32981D01*
X74958Y32989D01*
X74954Y32998D01*
X74950Y33009D01*
X74946Y33022D01*
X74942Y33035D01*
X74938Y33049D01*
X74933Y33065D01*
X74930Y33081D01*
X74924Y33116D01*
X74923Y33134D01*
X74923Y33152D01*
Y33163D01*
X74923Y33171D01*
X74924Y33180D01*
X74925Y33191D01*
X74927Y33203D01*
X74929Y33217D01*
X74932Y33231D01*
X74935Y33247D01*
X74939Y33263D01*
X74944Y33280D01*
X74950Y33296D01*
X74958Y33313D01*
X74965Y33330D01*
X74974Y33346D01*
X74975Y33347D01*
X74977Y33350D01*
X74980Y33355D01*
X74984Y33361D01*
X74989Y33367D01*
X74996Y33376D01*
X75003Y33385D01*
X75012Y33395D01*
X75022Y33406D01*
X75033Y33416D01*
X75044Y33426D01*
X75057Y33437D01*
X75071Y33448D01*
X75085Y33458D01*
X75101Y33467D01*
X75117Y33476D01*
X75118Y33477D01*
X75122Y33478D01*
X75127Y33481D01*
X75133Y33483D01*
X75142Y33486D01*
X75152Y33490D01*
X75162Y33494D01*
X75176Y33498D01*
X75189Y33502D01*
X75204Y33506D01*
X75220Y33510D01*
X75237Y33513D01*
X75272Y33518D01*
X75291Y33519D01*
X75309Y33520D01*
X75310D01*
X75312D01*
X75314D01*
X75317D01*
X75322Y33519D01*
D02*
G37*
G36*
X75704Y32337D02*
X75703Y32320D01*
X75702Y32301D01*
X75701Y32282D01*
X75699Y32264D01*
X75698Y32254D01*
X75696Y32247D01*
Y32246D01*
X75696Y32244D01*
Y32241D01*
X75695Y32238D01*
X75693Y32233D01*
X75692Y32227D01*
X75688Y32214D01*
X75683Y32199D01*
X75676Y32183D01*
X75669Y32167D01*
X75660Y32152D01*
Y32151D01*
X75659Y32150D01*
X75655Y32145D01*
X75649Y32139D01*
X75641Y32129D01*
X75631Y32120D01*
X75617Y32109D01*
X75603Y32099D01*
X75586Y32090D01*
X75585D01*
X75583Y32089D01*
X75581Y32088D01*
X75577Y32086D01*
X75573Y32084D01*
X75567Y32083D01*
X75555Y32078D01*
X75539Y32074D01*
X75521Y32069D01*
X75501Y32067D01*
X75481Y32066D01*
X75480D01*
X75476D01*
X75471D01*
X75464Y32067D01*
X75456Y32068D01*
X75447Y32069D01*
X75436Y32071D01*
X75423Y32074D01*
X75411Y32077D01*
X75397Y32081D01*
X75384Y32086D01*
X75370Y32093D01*
X75356Y32099D01*
X75342Y32108D01*
X75328Y32118D01*
X75315Y32129D01*
X75314Y32129D01*
X75312Y32132D01*
X75309Y32135D01*
X75304Y32141D01*
X75299Y32148D01*
X75293Y32157D01*
X75287Y32168D01*
X75282Y32180D01*
X75275Y32195D01*
X75269Y32211D01*
X75263Y32230D01*
X75258Y32250D01*
X75254Y32274D01*
X75251Y32299D01*
X75248Y32325D01*
X75247Y32355D01*
Y32552D01*
X74935D01*
Y32653D01*
X75704D01*
Y32337D01*
D02*
G37*
G36*
X75151Y31880D02*
X75150D01*
X75147Y31880D01*
X75143Y31879D01*
X75137Y31877D01*
X75131Y31875D01*
X75123Y31874D01*
X75106Y31868D01*
X75087Y31860D01*
X75067Y31851D01*
X75050Y31840D01*
X75043Y31833D01*
X75035Y31826D01*
Y31825D01*
X75033Y31825D01*
X75032Y31822D01*
X75029Y31820D01*
X75024Y31811D01*
X75018Y31800D01*
X75011Y31785D01*
X75006Y31770D01*
X75002Y31750D01*
X75000Y31730D01*
Y31724D01*
X75001Y31719D01*
X75002Y31714D01*
X75003Y31706D01*
X75006Y31691D01*
X75011Y31673D01*
X75019Y31654D01*
X75025Y31645D01*
X75031Y31635D01*
X75037Y31626D01*
X75046Y31617D01*
X75047Y31616D01*
X75048Y31615D01*
X75051Y31613D01*
X75054Y31610D01*
X75058Y31606D01*
X75064Y31603D01*
X75070Y31599D01*
X75077Y31594D01*
X75094Y31585D01*
X75113Y31579D01*
X75136Y31573D01*
X75147Y31572D01*
X75160Y31571D01*
X75161D01*
X75162D01*
X75167D01*
X75171Y31572D01*
X75177Y31573D01*
X75182Y31574D01*
X75197Y31576D01*
X75215Y31582D01*
X75232Y31590D01*
X75242Y31595D01*
X75250Y31600D01*
X75258Y31607D01*
X75267Y31615D01*
X75267Y31615D01*
X75268Y31616D01*
X75271Y31619D01*
X75273Y31622D01*
X75277Y31626D01*
X75280Y31631D01*
X75288Y31644D01*
X75296Y31660D01*
X75302Y31678D01*
X75307Y31699D01*
X75308Y31710D01*
X75309Y31722D01*
Y31727D01*
X75308Y31733D01*
Y31740D01*
X75307Y31750D01*
X75305Y31761D01*
X75302Y31775D01*
X75299Y31789D01*
X75382Y31779D01*
Y31777D01*
X75381Y31773D01*
X75380Y31768D01*
Y31757D01*
X75381Y31753D01*
Y31747D01*
X75382Y31741D01*
X75384Y31727D01*
X75387Y31710D01*
X75393Y31692D01*
X75401Y31673D01*
X75412Y31655D01*
Y31654D01*
X75413Y31652D01*
X75415Y31650D01*
X75417Y31647D01*
X75425Y31639D01*
X75436Y31630D01*
X75449Y31621D01*
X75466Y31613D01*
X75475Y31610D01*
X75486Y31608D01*
X75496Y31606D01*
X75508Y31605D01*
X75509D01*
X75511D01*
X75513D01*
X75517Y31606D01*
X75526Y31607D01*
X75539Y31610D01*
X75552Y31614D01*
X75566Y31620D01*
X75581Y31630D01*
X75588Y31635D01*
X75595Y31641D01*
X75596Y31643D01*
X75600Y31648D01*
X75606Y31655D01*
X75612Y31665D01*
X75618Y31679D01*
X75624Y31695D01*
X75627Y31712D01*
X75629Y31732D01*
Y31737D01*
X75628Y31741D01*
Y31746D01*
X75627Y31751D01*
X75625Y31765D01*
X75621Y31779D01*
X75614Y31795D01*
X75606Y31810D01*
X75594Y31825D01*
X75592Y31826D01*
X75587Y31830D01*
X75580Y31837D01*
X75568Y31844D01*
X75554Y31852D01*
X75536Y31860D01*
X75515Y31866D01*
X75491Y31871D01*
X75507Y31965D01*
X75508D01*
X75511Y31964D01*
X75516Y31964D01*
X75523Y31962D01*
X75531Y31959D01*
X75540Y31957D01*
X75550Y31954D01*
X75561Y31949D01*
X75585Y31939D01*
X75596Y31933D01*
X75609Y31925D01*
X75621Y31917D01*
X75632Y31908D01*
X75644Y31898D01*
X75654Y31887D01*
X75655Y31886D01*
X75656Y31885D01*
X75659Y31880D01*
X75662Y31876D01*
X75666Y31870D01*
X75671Y31863D01*
X75676Y31855D01*
X75681Y31845D01*
X75685Y31835D01*
X75690Y31823D01*
X75694Y31810D01*
X75698Y31797D01*
X75701Y31782D01*
X75704Y31767D01*
X75706Y31751D01*
X75706Y31735D01*
Y31724D01*
X75706Y31718D01*
X75705Y31712D01*
X75703Y31696D01*
X75700Y31679D01*
X75695Y31659D01*
X75688Y31639D01*
X75679Y31619D01*
Y31618D01*
X75678Y31616D01*
X75676Y31614D01*
X75674Y31610D01*
X75668Y31600D01*
X75660Y31589D01*
X75649Y31575D01*
X75636Y31562D01*
X75622Y31549D01*
X75606Y31537D01*
X75605D01*
X75604Y31536D01*
X75601Y31535D01*
X75597Y31533D01*
X75593Y31530D01*
X75588Y31528D01*
X75576Y31523D01*
X75561Y31518D01*
X75544Y31513D01*
X75526Y31510D01*
X75506Y31509D01*
X75506D01*
X75504D01*
X75501D01*
X75498D01*
X75488Y31510D01*
X75476Y31512D01*
X75462Y31515D01*
X75447Y31520D01*
X75432Y31527D01*
X75416Y31536D01*
X75415D01*
X75414Y31537D01*
X75409Y31541D01*
X75402Y31547D01*
X75392Y31556D01*
X75382Y31567D01*
X75371Y31581D01*
X75361Y31597D01*
X75351Y31615D01*
Y31615D01*
X75350Y31612D01*
X75349Y31609D01*
X75347Y31604D01*
X75346Y31599D01*
X75343Y31592D01*
X75337Y31576D01*
X75327Y31560D01*
X75317Y31542D01*
X75302Y31525D01*
X75285Y31510D01*
X75284Y31509D01*
X75282Y31508D01*
X75280Y31506D01*
X75276Y31504D01*
X75272Y31500D01*
X75266Y31497D01*
X75259Y31494D01*
X75251Y31490D01*
X75242Y31487D01*
X75233Y31484D01*
X75212Y31477D01*
X75188Y31473D01*
X75175Y31471D01*
X75162D01*
X75161D01*
X75157D01*
X75152Y31472D01*
X75145D01*
X75136Y31474D01*
X75126Y31476D01*
X75115Y31477D01*
X75102Y31481D01*
X75089Y31485D01*
X75076Y31490D01*
X75062Y31495D01*
X75047Y31503D01*
X75033Y31511D01*
X75018Y31521D01*
X75004Y31532D01*
X74991Y31545D01*
X74990Y31546D01*
X74988Y31549D01*
X74984Y31553D01*
X74980Y31559D01*
X74975Y31565D01*
X74969Y31575D01*
X74963Y31585D01*
X74957Y31596D01*
X74950Y31609D01*
X74943Y31623D01*
X74938Y31638D01*
X74933Y31655D01*
X74928Y31672D01*
X74925Y31690D01*
X74923Y31710D01*
X74922Y31730D01*
Y31735D01*
X74923Y31740D01*
Y31747D01*
X74923Y31756D01*
X74925Y31766D01*
X74927Y31777D01*
X74929Y31790D01*
X74933Y31803D01*
X74937Y31816D01*
X74941Y31830D01*
X74947Y31845D01*
X74954Y31859D01*
X74962Y31872D01*
X74971Y31886D01*
X74982Y31899D01*
X74983Y31899D01*
X74984Y31901D01*
X74988Y31904D01*
X74993Y31909D01*
X74998Y31914D01*
X75006Y31920D01*
X75014Y31926D01*
X75024Y31933D01*
X75034Y31939D01*
X75047Y31946D01*
X75059Y31953D01*
X75073Y31959D01*
X75088Y31964D01*
X75104Y31969D01*
X75121Y31972D01*
X75138Y31974D01*
X75151Y31880D01*
D02*
G37*
G36*
X62803Y33519D02*
X62808D01*
X62821Y33518D01*
X62837Y33516D01*
X62856Y33514D01*
X62876Y33511D01*
X62898Y33507D01*
X62923Y33501D01*
X62947Y33495D01*
X62972Y33486D01*
X62997Y33476D01*
X63022Y33465D01*
X63045Y33451D01*
X63068Y33436D01*
X63089Y33417D01*
X63090Y33416D01*
X63094Y33412D01*
X63099Y33406D01*
X63106Y33399D01*
X63114Y33388D01*
X63123Y33376D01*
X63133Y33362D01*
X63143Y33346D01*
X63153Y33327D01*
X63163Y33307D01*
X63173Y33286D01*
X63181Y33261D01*
X63188Y33236D01*
X63193Y33210D01*
X63197Y33181D01*
X63198Y33152D01*
Y33142D01*
X63197Y33134D01*
X63196Y33124D01*
X63195Y33113D01*
X63193Y33102D01*
X63191Y33088D01*
X63188Y33073D01*
X63185Y33058D01*
X63181Y33042D01*
X63176Y33026D01*
X63170Y33009D01*
X63163Y32992D01*
X63156Y32977D01*
X63147Y32960D01*
X63146Y32959D01*
X63144Y32956D01*
X63142Y32952D01*
X63138Y32946D01*
X63133Y32938D01*
X63126Y32931D01*
X63118Y32922D01*
X63110Y32912D01*
X63100Y32901D01*
X63089Y32890D01*
X63078Y32879D01*
X63065Y32868D01*
X63052Y32858D01*
X63037Y32847D01*
X63021Y32838D01*
X63004Y32829D01*
X63003Y32828D01*
X63000Y32827D01*
X62995Y32825D01*
X62988Y32822D01*
X62980Y32818D01*
X62969Y32815D01*
X62958Y32811D01*
X62944Y32807D01*
X62930Y32802D01*
X62914Y32798D01*
X62897Y32794D01*
X62879Y32791D01*
X62860Y32788D01*
X62840Y32786D01*
X62820Y32785D01*
X62799Y32784D01*
X62797D01*
X62794D01*
X62787D01*
X62779Y32785D01*
X62769Y32786D01*
X62757Y32787D01*
X62744Y32788D01*
X62729Y32790D01*
X62713Y32792D01*
X62696Y32796D01*
X62679Y32799D01*
X62661Y32804D01*
X62643Y32810D01*
X62625Y32816D01*
X62607Y32823D01*
X62589Y32832D01*
X62589Y32832D01*
X62585Y32834D01*
X62580Y32837D01*
X62574Y32840D01*
X62567Y32845D01*
X62558Y32851D01*
X62548Y32858D01*
X62537Y32866D01*
X62526Y32875D01*
X62514Y32885D01*
X62503Y32897D01*
X62491Y32908D01*
X62480Y32921D01*
X62470Y32935D01*
X62459Y32950D01*
X62450Y32966D01*
X62449Y32967D01*
X62448Y32970D01*
X62445Y32974D01*
X62442Y32981D01*
X62439Y32989D01*
X62435Y32998D01*
X62430Y33009D01*
X62426Y33022D01*
X62422Y33035D01*
X62418Y33049D01*
X62414Y33065D01*
X62410Y33081D01*
X62405Y33116D01*
X62404Y33134D01*
X62403Y33152D01*
Y33163D01*
X62404Y33171D01*
X62405Y33180D01*
X62405Y33191D01*
X62407Y33203D01*
X62410Y33217D01*
X62412Y33231D01*
X62415Y33247D01*
X62420Y33263D01*
X62425Y33280D01*
X62430Y33296D01*
X62438Y33313D01*
X62445Y33330D01*
X62455Y33346D01*
X62455Y33347D01*
X62457Y33350D01*
X62460Y33355D01*
X62464Y33361D01*
X62470Y33367D01*
X62476Y33376D01*
X62484Y33385D01*
X62492Y33395D01*
X62502Y33406D01*
X62513Y33416D01*
X62524Y33426D01*
X62537Y33437D01*
X62551Y33448D01*
X62565Y33458D01*
X62581Y33467D01*
X62598Y33476D01*
X62599Y33477D01*
X62602Y33478D01*
X62607Y33481D01*
X62614Y33483D01*
X62622Y33486D01*
X62632Y33490D01*
X62643Y33494D01*
X62656Y33498D01*
X62669Y33502D01*
X62684Y33506D01*
X62700Y33510D01*
X62717Y33513D01*
X62752Y33518D01*
X62771Y33519D01*
X62789Y33520D01*
X62790D01*
X62792D01*
X62794D01*
X62798D01*
X62803Y33519D01*
D02*
G37*
G36*
X63184Y32337D02*
X63183Y32320D01*
X63183Y32301D01*
X63181Y32282D01*
X63179Y32264D01*
X63178Y32254D01*
X63177Y32247D01*
Y32246D01*
X63176Y32244D01*
Y32241D01*
X63175Y32238D01*
X63173Y32233D01*
X63173Y32227D01*
X63168Y32214D01*
X63163Y32199D01*
X63157Y32183D01*
X63149Y32167D01*
X63140Y32152D01*
Y32151D01*
X63139Y32150D01*
X63135Y32145D01*
X63129Y32139D01*
X63121Y32129D01*
X63111Y32120D01*
X63098Y32109D01*
X63083Y32099D01*
X63066Y32090D01*
X63065D01*
X63063Y32089D01*
X63061Y32088D01*
X63058Y32086D01*
X63053Y32084D01*
X63048Y32083D01*
X63035Y32078D01*
X63019Y32074D01*
X63002Y32069D01*
X62982Y32067D01*
X62961Y32066D01*
X62960D01*
X62957D01*
X62952D01*
X62944Y32067D01*
X62936Y32068D01*
X62927Y32069D01*
X62916Y32071D01*
X62903Y32074D01*
X62891Y32077D01*
X62878Y32081D01*
X62864Y32086D01*
X62850Y32093D01*
X62836Y32099D01*
X62822Y32108D01*
X62809Y32118D01*
X62795Y32129D01*
X62794Y32129D01*
X62793Y32132D01*
X62789Y32135D01*
X62784Y32141D01*
X62779Y32148D01*
X62774Y32157D01*
X62768Y32168D01*
X62762Y32180D01*
X62755Y32195D01*
X62749Y32211D01*
X62744Y32230D01*
X62739Y32250D01*
X62734Y32274D01*
X62731Y32299D01*
X62729Y32325D01*
X62728Y32355D01*
Y32552D01*
X62415D01*
Y32653D01*
X63184D01*
Y32337D01*
D02*
G37*
G36*
X62796Y31979D02*
X62803D01*
X62811Y31978D01*
X62829Y31977D01*
X62850Y31975D01*
X62874Y31973D01*
X62898Y31969D01*
X62925Y31964D01*
X62952Y31959D01*
X62978Y31953D01*
X63005Y31944D01*
X63031Y31935D01*
X63056Y31924D01*
X63078Y31911D01*
X63098Y31897D01*
X63099Y31896D01*
X63103Y31894D01*
X63107Y31890D01*
X63113Y31884D01*
X63119Y31877D01*
X63127Y31868D01*
X63134Y31858D01*
X63143Y31846D01*
X63151Y31833D01*
X63158Y31818D01*
X63166Y31802D01*
X63173Y31785D01*
X63178Y31766D01*
X63183Y31746D01*
X63186Y31725D01*
X63187Y31703D01*
Y31694D01*
X63186Y31688D01*
X63185Y31680D01*
X63184Y31671D01*
X63183Y31661D01*
X63180Y31650D01*
X63174Y31626D01*
X63170Y31615D01*
X63165Y31601D01*
X63159Y31589D01*
X63152Y31577D01*
X63144Y31565D01*
X63135Y31554D01*
X63134Y31553D01*
X63133Y31551D01*
X63130Y31548D01*
X63126Y31545D01*
X63121Y31540D01*
X63114Y31535D01*
X63107Y31529D01*
X63098Y31523D01*
X63089Y31517D01*
X63078Y31511D01*
X63067Y31505D01*
X63054Y31500D01*
X63041Y31495D01*
X63027Y31490D01*
X63012Y31486D01*
X62995Y31484D01*
X62988Y31578D01*
X62988D01*
X62990Y31579D01*
X62993Y31580D01*
X62997Y31580D01*
X63007Y31583D01*
X63018Y31587D01*
X63032Y31592D01*
X63045Y31599D01*
X63058Y31605D01*
X63068Y31614D01*
X63069Y31615D01*
X63070Y31615D01*
X63073Y31618D01*
X63075Y31620D01*
X63082Y31629D01*
X63089Y31640D01*
X63097Y31654D01*
X63103Y31670D01*
X63108Y31689D01*
X63108Y31699D01*
X63109Y31709D01*
Y31716D01*
X63108Y31725D01*
X63106Y31736D01*
X63103Y31749D01*
X63098Y31762D01*
X63092Y31775D01*
X63083Y31789D01*
Y31790D01*
X63082Y31790D01*
X63080Y31793D01*
X63078Y31796D01*
X63070Y31804D01*
X63059Y31814D01*
X63046Y31825D01*
X63029Y31837D01*
X63010Y31848D01*
X62988Y31859D01*
X62988D01*
X62986Y31860D01*
X62982Y31861D01*
X62977Y31863D01*
X62971Y31865D01*
X62963Y31867D01*
X62953Y31870D01*
X62943Y31872D01*
X62932Y31875D01*
X62918Y31876D01*
X62903Y31879D01*
X62888Y31881D01*
X62871Y31883D01*
X62853Y31884D01*
X62833Y31885D01*
X62813Y31885D01*
X62813Y31885D01*
X62812D01*
X62813Y31885D01*
X62814Y31884D01*
X62817Y31882D01*
X62820Y31880D01*
X62829Y31872D01*
X62841Y31863D01*
X62854Y31850D01*
X62866Y31836D01*
X62878Y31820D01*
X62888Y31803D01*
Y31802D01*
X62889Y31800D01*
X62891Y31798D01*
X62893Y31795D01*
X62894Y31790D01*
X62897Y31785D01*
X62902Y31771D01*
X62906Y31755D01*
X62910Y31738D01*
X62913Y31719D01*
X62914Y31699D01*
Y31695D01*
X62913Y31690D01*
Y31683D01*
X62912Y31675D01*
X62911Y31665D01*
X62908Y31655D01*
X62906Y31643D01*
X62902Y31631D01*
X62898Y31618D01*
X62892Y31605D01*
X62885Y31591D01*
X62877Y31577D01*
X62868Y31564D01*
X62857Y31550D01*
X62844Y31538D01*
X62844Y31537D01*
X62841Y31535D01*
X62838Y31532D01*
X62832Y31527D01*
X62825Y31522D01*
X62817Y31517D01*
X62807Y31510D01*
X62796Y31505D01*
X62784Y31499D01*
X62770Y31492D01*
X62755Y31487D01*
X62739Y31481D01*
X62723Y31477D01*
X62704Y31474D01*
X62685Y31472D01*
X62665Y31471D01*
X62664D01*
X62662D01*
X62659D01*
X62653Y31472D01*
X62647D01*
X62639Y31473D01*
X62630Y31474D01*
X62621Y31476D01*
X62600Y31479D01*
X62578Y31485D01*
X62554Y31492D01*
X62530Y31503D01*
X62529D01*
X62528Y31505D01*
X62524Y31506D01*
X62520Y31509D01*
X62515Y31512D01*
X62509Y31515D01*
X62495Y31525D01*
X62480Y31537D01*
X62464Y31552D01*
X62449Y31570D01*
X62435Y31589D01*
Y31590D01*
X62434Y31591D01*
X62432Y31595D01*
X62430Y31599D01*
X62428Y31604D01*
X62425Y31610D01*
X62422Y31617D01*
X62420Y31625D01*
X62413Y31643D01*
X62408Y31665D01*
X62405Y31688D01*
X62403Y31713D01*
Y31718D01*
X62404Y31725D01*
X62405Y31733D01*
X62405Y31743D01*
X62408Y31755D01*
X62410Y31767D01*
X62414Y31781D01*
X62419Y31796D01*
X62424Y31812D01*
X62431Y31828D01*
X62440Y31844D01*
X62450Y31860D01*
X62461Y31875D01*
X62474Y31891D01*
X62489Y31905D01*
X62490Y31906D01*
X62494Y31909D01*
X62499Y31912D01*
X62506Y31917D01*
X62515Y31923D01*
X62527Y31929D01*
X62541Y31935D01*
X62558Y31942D01*
X62576Y31949D01*
X62597Y31956D01*
X62620Y31962D01*
X62646Y31968D01*
X62674Y31973D01*
X62705Y31976D01*
X62739Y31979D01*
X62774Y31979D01*
X62775D01*
X62777D01*
X62780D01*
X62784D01*
X62789D01*
X62796Y31979D01*
D02*
G37*
%LPC*%
G36*
X66961Y33454D02*
X66959D01*
X66955D01*
X66948Y33453D01*
X66938D01*
X66926Y33452D01*
X66913Y33450D01*
X66898Y33448D01*
X66882Y33445D01*
X66864Y33441D01*
X66846Y33436D01*
X66828Y33430D01*
X66810Y33422D01*
X66792Y33414D01*
X66774Y33404D01*
X66758Y33393D01*
X66742Y33380D01*
X66741Y33379D01*
X66739Y33377D01*
X66734Y33372D01*
X66729Y33367D01*
X66724Y33359D01*
X66717Y33350D01*
X66709Y33340D01*
X66703Y33328D01*
X66695Y33316D01*
X66688Y33301D01*
X66681Y33286D01*
X66675Y33269D01*
X66670Y33252D01*
X66666Y33233D01*
X66664Y33213D01*
X66663Y33193D01*
Y33188D01*
X66664Y33182D01*
X66664Y33173D01*
X66665Y33163D01*
X66667Y33153D01*
X66669Y33139D01*
X66673Y33126D01*
X66677Y33111D01*
X66682Y33096D01*
X66689Y33080D01*
X66697Y33064D01*
X66706Y33048D01*
X66716Y33033D01*
X66729Y33018D01*
X66743Y33003D01*
X66744Y33003D01*
X66747Y33000D01*
X66751Y32997D01*
X66758Y32992D01*
X66766Y32986D01*
X66776Y32979D01*
X66788Y32973D01*
X66802Y32966D01*
X66817Y32959D01*
X66834Y32952D01*
X66853Y32946D01*
X66873Y32940D01*
X66896Y32935D01*
X66919Y32932D01*
X66945Y32929D01*
X66972Y32928D01*
X66973D01*
X66976D01*
X66981D01*
X66988Y32929D01*
X66996D01*
X67005Y32930D01*
X67016Y32931D01*
X67028Y32933D01*
X67053Y32936D01*
X67081Y32942D01*
X67108Y32950D01*
X67136Y32961D01*
X67137D01*
X67139Y32963D01*
X67143Y32964D01*
X67148Y32967D01*
X67153Y32970D01*
X67160Y32974D01*
X67176Y32984D01*
X67193Y32998D01*
X67211Y33013D01*
X67228Y33032D01*
X67244Y33053D01*
X67245Y33054D01*
X67246Y33056D01*
X67247Y33059D01*
X67250Y33064D01*
X67253Y33070D01*
X67257Y33077D01*
X67260Y33084D01*
X67264Y33093D01*
X67267Y33103D01*
X67271Y33113D01*
X67277Y33137D01*
X67282Y33163D01*
X67283Y33177D01*
Y33196D01*
X67282Y33201D01*
Y33209D01*
X67281Y33218D01*
X67279Y33229D01*
X67277Y33241D01*
X67274Y33254D01*
X67270Y33268D01*
X67265Y33283D01*
X67259Y33299D01*
X67252Y33314D01*
X67243Y33330D01*
X67233Y33346D01*
X67222Y33362D01*
X67208Y33377D01*
X67207Y33377D01*
X67205Y33380D01*
X67200Y33384D01*
X67194Y33388D01*
X67186Y33395D01*
X67176Y33401D01*
X67163Y33408D01*
X67150Y33415D01*
X67133Y33422D01*
X67115Y33430D01*
X67095Y33436D01*
X67073Y33442D01*
X67048Y33447D01*
X67022Y33451D01*
X66993Y33453D01*
X66961Y33454D01*
D02*
G37*
G36*
X67267Y32591D02*
X66992D01*
Y32384D01*
X66993Y32377D01*
Y32369D01*
X66993Y32360D01*
X66995Y32349D01*
X66997Y32338D01*
X67001Y32315D01*
X67008Y32291D01*
X67012Y32280D01*
X67017Y32270D01*
X67022Y32260D01*
X67028Y32252D01*
X67029Y32251D01*
X67030Y32250D01*
X67033Y32248D01*
X67035Y32245D01*
X67043Y32239D01*
X67055Y32231D01*
X67070Y32224D01*
X67088Y32217D01*
X67108Y32212D01*
X67119Y32211D01*
X67132Y32210D01*
X67133D01*
X67134D01*
X67137D01*
X67140D01*
X67149Y32212D01*
X67160Y32214D01*
X67173Y32216D01*
X67187Y32221D01*
X67201Y32227D01*
X67214Y32235D01*
X67216Y32236D01*
X67220Y32240D01*
X67226Y32245D01*
X67232Y32252D01*
X67240Y32262D01*
X67247Y32273D01*
X67254Y32285D01*
X67259Y32300D01*
Y32300D01*
X67260Y32305D01*
X67262Y32311D01*
X67263Y32321D01*
Y32327D01*
X67264Y32334D01*
X67265Y32342D01*
X67266Y32350D01*
Y32360D01*
X67267Y32370D01*
Y32591D01*
D02*
G37*
G36*
X74508Y30362D02*
X74507D01*
X74505D01*
X74503D01*
X74498Y30361D01*
X74493D01*
X74488Y30361D01*
X74476Y30358D01*
X74462Y30354D01*
X74447Y30348D01*
X74432Y30340D01*
X74418Y30328D01*
X74417Y30326D01*
X74413Y30321D01*
X74408Y30314D01*
X74402Y30303D01*
X74395Y30291D01*
X74389Y30275D01*
X74386Y30256D01*
X74384Y30236D01*
Y30231D01*
X74385Y30227D01*
Y30222D01*
X74386Y30217D01*
X74388Y30205D01*
X74393Y30191D01*
X74398Y30176D01*
X74407Y30161D01*
X74418Y30147D01*
X74420Y30145D01*
X74424Y30141D01*
X74432Y30136D01*
X74442Y30129D01*
X74453Y30122D01*
X74468Y30117D01*
X74484Y30113D01*
X74502Y30112D01*
X74503D01*
X74504D01*
X74507D01*
X74511Y30112D01*
X74520Y30113D01*
X74533Y30116D01*
X74546Y30120D01*
X74561Y30127D01*
X74575Y30136D01*
X74583Y30141D01*
X74589Y30147D01*
X74590D01*
X74591Y30149D01*
X74595Y30154D01*
X74601Y30161D01*
X74608Y30172D01*
X74613Y30185D01*
X74619Y30201D01*
X74623Y30218D01*
X74625Y30227D01*
Y30242D01*
X74624Y30246D01*
Y30251D01*
X74623Y30256D01*
X74621Y30269D01*
X74617Y30283D01*
X74610Y30298D01*
X74602Y30313D01*
X74590Y30327D01*
X74588Y30329D01*
X74584Y30333D01*
X74577Y30338D01*
X74567Y30345D01*
X74555Y30351D01*
X74541Y30356D01*
X74525Y30361D01*
X74508Y30362D01*
D02*
G37*
G36*
X74153Y30393D02*
X74152D01*
X74151D01*
X74146D01*
X74138Y30392D01*
X74128Y30391D01*
X74116Y30389D01*
X74103Y30386D01*
X74089Y30381D01*
X74074Y30375D01*
X74073Y30374D01*
X74069Y30371D01*
X74061Y30366D01*
X74053Y30361D01*
X74044Y30352D01*
X74034Y30343D01*
X74024Y30331D01*
X74016Y30318D01*
Y30317D01*
X74015Y30316D01*
X74013Y30311D01*
X74009Y30304D01*
X74006Y30293D01*
X74003Y30281D01*
X73999Y30267D01*
X73997Y30252D01*
X73996Y30236D01*
Y30230D01*
X73997Y30225D01*
X73998Y30219D01*
X73999Y30212D01*
X74002Y30196D01*
X74007Y30179D01*
X74014Y30160D01*
X74019Y30151D01*
X74025Y30142D01*
X74032Y30132D01*
X74039Y30124D01*
X74040Y30123D01*
X74041Y30122D01*
X74044Y30120D01*
X74047Y30117D01*
X74052Y30114D01*
X74057Y30110D01*
X74063Y30106D01*
X74069Y30102D01*
X74085Y30094D01*
X74104Y30087D01*
X74125Y30082D01*
X74137Y30081D01*
X74149Y30080D01*
X74150D01*
X74153D01*
X74156D01*
X74161Y30081D01*
X74167Y30082D01*
X74173Y30082D01*
X74189Y30086D01*
X74207Y30091D01*
X74226Y30099D01*
X74235Y30104D01*
X74244Y30111D01*
X74253Y30117D01*
X74262Y30126D01*
X74263Y30127D01*
X74263Y30127D01*
X74266Y30130D01*
X74268Y30134D01*
X74273Y30138D01*
X74276Y30143D01*
X74280Y30150D01*
X74284Y30157D01*
X74293Y30173D01*
X74300Y30192D01*
X74305Y30215D01*
X74306Y30226D01*
X74307Y30239D01*
Y30246D01*
X74306Y30250D01*
X74305Y30256D01*
X74304Y30262D01*
X74301Y30278D01*
X74296Y30296D01*
X74288Y30314D01*
X74283Y30323D01*
X74278Y30332D01*
X74270Y30341D01*
X74263Y30350D01*
X74262Y30351D01*
X74261Y30351D01*
X74258Y30354D01*
X74255Y30356D01*
X74250Y30360D01*
X74245Y30363D01*
X74239Y30367D01*
X74233Y30371D01*
X74217Y30380D01*
X74198Y30386D01*
X74176Y30391D01*
X74165Y30392D01*
X74153Y30393D01*
D02*
G37*
G36*
X75303Y31119D02*
X75302D01*
X75298D01*
X75290Y31119D01*
X75280D01*
X75268Y31117D01*
X75255Y31115D01*
X75240Y31114D01*
X75224Y31110D01*
X75207Y31106D01*
X75188Y31101D01*
X75171Y31095D01*
X75153Y31088D01*
X75134Y31079D01*
X75117Y31069D01*
X75100Y31059D01*
X75084Y31045D01*
X75084Y31044D01*
X75081Y31042D01*
X75077Y31038D01*
X75072Y31032D01*
X75066Y31024D01*
X75059Y31015D01*
X75052Y31005D01*
X75045Y30994D01*
X75038Y30981D01*
X75030Y30966D01*
X75024Y30951D01*
X75018Y30935D01*
X75013Y30917D01*
X75009Y30898D01*
X75006Y30879D01*
X75005Y30858D01*
Y30853D01*
X75006Y30847D01*
X75007Y30839D01*
X75008Y30829D01*
X75009Y30818D01*
X75012Y30805D01*
X75015Y30791D01*
X75019Y30776D01*
X75024Y30761D01*
X75031Y30745D01*
X75039Y30730D01*
X75049Y30714D01*
X75059Y30698D01*
X75071Y30683D01*
X75085Y30669D01*
X75086Y30668D01*
X75089Y30665D01*
X75094Y30662D01*
X75100Y30657D01*
X75109Y30651D01*
X75119Y30645D01*
X75130Y30638D01*
X75144Y30631D01*
X75159Y30625D01*
X75177Y30617D01*
X75195Y30611D01*
X75216Y30605D01*
X75238Y30600D01*
X75262Y30597D01*
X75288Y30595D01*
X75314Y30594D01*
X75315D01*
X75318D01*
X75323D01*
X75330Y30595D01*
X75338D01*
X75348Y30595D01*
X75358Y30596D01*
X75370Y30598D01*
X75396Y30601D01*
X75423Y30607D01*
X75451Y30615D01*
X75478Y30626D01*
X75479D01*
X75482Y30628D01*
X75485Y30630D01*
X75490Y30632D01*
X75496Y30635D01*
X75503Y30640D01*
X75518Y30650D01*
X75536Y30663D01*
X75553Y30679D01*
X75571Y30697D01*
X75587Y30719D01*
X75588Y30720D01*
X75588Y30721D01*
X75590Y30725D01*
X75592Y30730D01*
X75596Y30735D01*
X75599Y30742D01*
X75602Y30750D01*
X75607Y30759D01*
X75610Y30769D01*
X75613Y30779D01*
X75620Y30802D01*
X75624Y30828D01*
X75626Y30842D01*
Y30861D01*
X75625Y30866D01*
Y30875D01*
X75623Y30884D01*
X75622Y30895D01*
X75619Y30906D01*
X75617Y30920D01*
X75613Y30934D01*
X75608Y30949D01*
X75602Y30965D01*
X75594Y30980D01*
X75586Y30995D01*
X75576Y31011D01*
X75564Y31027D01*
X75551Y31042D01*
X75550Y31043D01*
X75548Y31045D01*
X75543Y31049D01*
X75537Y31054D01*
X75528Y31060D01*
X75518Y31066D01*
X75506Y31074D01*
X75493Y31080D01*
X75476Y31088D01*
X75458Y31095D01*
X75438Y31101D01*
X75415Y31107D01*
X75391Y31112D01*
X75364Y31116D01*
X75335Y31119D01*
X75303Y31119D01*
D02*
G37*
G36*
X75609Y30256D02*
X75334D01*
Y30049D01*
X75335Y30042D01*
Y30034D01*
X75336Y30025D01*
X75338Y30014D01*
X75339Y30003D01*
X75343Y29980D01*
X75350Y29957D01*
X75354Y29946D01*
X75359Y29936D01*
X75364Y29926D01*
X75371Y29917D01*
X75372Y29917D01*
X75373Y29916D01*
X75375Y29913D01*
X75378Y29911D01*
X75386Y29904D01*
X75398Y29897D01*
X75413Y29889D01*
X75430Y29882D01*
X75451Y29877D01*
X75462Y29877D01*
X75474Y29876D01*
X75475D01*
X75477D01*
X75479D01*
X75483D01*
X75492Y29877D01*
X75503Y29879D01*
X75516Y29882D01*
X75529Y29887D01*
X75543Y29892D01*
X75557Y29901D01*
X75558Y29902D01*
X75563Y29905D01*
X75568Y29911D01*
X75575Y29917D01*
X75583Y29927D01*
X75590Y29938D01*
X75597Y29951D01*
X75602Y29965D01*
Y29966D01*
X75602Y29970D01*
X75604Y29977D01*
X75606Y29987D01*
Y29992D01*
X75607Y29999D01*
X75608Y30007D01*
X75608Y30016D01*
Y30026D01*
X75609Y30036D01*
Y30256D01*
D02*
G37*
G36*
X75307Y28848D02*
X75306D01*
X75302D01*
X75294Y28847D01*
X75284D01*
X75272Y28845D01*
X75259Y28844D01*
X75244Y28842D01*
X75228Y28839D01*
X75211Y28834D01*
X75192Y28829D01*
X75175Y28824D01*
X75157Y28816D01*
X75138Y28808D01*
X75121Y28798D01*
X75104Y28787D01*
X75088Y28774D01*
X75087Y28773D01*
X75085Y28770D01*
X75081Y28766D01*
X75076Y28760D01*
X75070Y28753D01*
X75063Y28744D01*
X75056Y28734D01*
X75049Y28722D01*
X75042Y28710D01*
X75034Y28695D01*
X75027Y28680D01*
X75022Y28663D01*
X75017Y28645D01*
X75013Y28626D01*
X75010Y28607D01*
X75009Y28586D01*
Y28581D01*
X75010Y28575D01*
X75011Y28567D01*
X75012Y28557D01*
X75013Y28546D01*
X75016Y28533D01*
X75019Y28520D01*
X75023Y28505D01*
X75028Y28490D01*
X75035Y28474D01*
X75043Y28458D01*
X75052Y28442D01*
X75062Y28426D01*
X75075Y28411D01*
X75089Y28397D01*
X75090Y28396D01*
X75093Y28394D01*
X75097Y28390D01*
X75104Y28385D01*
X75112Y28380D01*
X75122Y28373D01*
X75134Y28366D01*
X75148Y28360D01*
X75163Y28353D01*
X75181Y28345D01*
X75199Y28340D01*
X75220Y28334D01*
X75242Y28329D01*
X75266Y28326D01*
X75292Y28323D01*
X75318Y28322D01*
X75319D01*
X75322D01*
X75327D01*
X75334Y28323D01*
X75342D01*
X75352Y28324D01*
X75362Y28325D01*
X75374Y28326D01*
X75400Y28330D01*
X75427Y28335D01*
X75455Y28344D01*
X75482Y28355D01*
X75483D01*
X75486Y28356D01*
X75489Y28358D01*
X75494Y28360D01*
X75500Y28364D01*
X75506Y28368D01*
X75522Y28378D01*
X75540Y28391D01*
X75557Y28407D01*
X75575Y28425D01*
X75591Y28447D01*
X75591Y28448D01*
X75592Y28450D01*
X75594Y28453D01*
X75596Y28458D01*
X75600Y28464D01*
X75603Y28470D01*
X75606Y28478D01*
X75611Y28487D01*
X75614Y28497D01*
X75617Y28507D01*
X75624Y28530D01*
X75628Y28556D01*
X75630Y28570D01*
Y28590D01*
X75629Y28595D01*
Y28603D01*
X75627Y28612D01*
X75626Y28623D01*
X75623Y28635D01*
X75621Y28648D01*
X75616Y28662D01*
X75611Y28677D01*
X75606Y28693D01*
X75598Y28708D01*
X75590Y28724D01*
X75580Y28740D01*
X75568Y28755D01*
X75555Y28770D01*
X75554Y28771D01*
X75551Y28774D01*
X75546Y28778D01*
X75541Y28782D01*
X75532Y28789D01*
X75522Y28794D01*
X75510Y28802D01*
X75496Y28809D01*
X75480Y28816D01*
X75462Y28824D01*
X75441Y28829D01*
X75419Y28835D01*
X75395Y28840D01*
X75368Y28844D01*
X75339Y28847D01*
X75307Y28848D01*
D02*
G37*
G36*
X75613Y27985D02*
X75338D01*
Y27777D01*
X75339Y27771D01*
Y27762D01*
X75340Y27753D01*
X75342Y27742D01*
X75343Y27732D01*
X75347Y27708D01*
X75354Y27685D01*
X75358Y27674D01*
X75363Y27664D01*
X75368Y27654D01*
X75375Y27646D01*
X75376Y27645D01*
X75377Y27644D01*
X75379Y27642D01*
X75382Y27639D01*
X75390Y27632D01*
X75402Y27625D01*
X75417Y27617D01*
X75434Y27611D01*
X75455Y27606D01*
X75466Y27605D01*
X75478Y27604D01*
X75479D01*
X75481D01*
X75483D01*
X75486D01*
X75496Y27606D01*
X75506Y27607D01*
X75520Y27610D01*
X75533Y27615D01*
X75547Y27621D01*
X75561Y27629D01*
X75562Y27630D01*
X75566Y27633D01*
X75572Y27639D01*
X75579Y27646D01*
X75586Y27656D01*
X75594Y27667D01*
X75601Y27679D01*
X75606Y27693D01*
Y27694D01*
X75606Y27698D01*
X75608Y27705D01*
X75610Y27715D01*
Y27721D01*
X75611Y27727D01*
X75611Y27736D01*
X75612Y27744D01*
Y27754D01*
X75613Y27764D01*
Y27985D01*
D02*
G37*
G36*
X70141Y32089D02*
X70140D01*
X70138D01*
X70136D01*
X70132D01*
X70128D01*
X70122D01*
X70110Y32089D01*
X70095Y32088D01*
X70078Y32087D01*
X70058Y32086D01*
X70038Y32084D01*
X69996Y32079D01*
X69975Y32075D01*
X69954Y32071D01*
X69935Y32066D01*
X69918Y32059D01*
X69902Y32053D01*
X69888Y32045D01*
X69888Y32044D01*
X69886Y32044D01*
X69883Y32041D01*
X69878Y32037D01*
X69874Y32033D01*
X69869Y32028D01*
X69858Y32015D01*
X69846Y31999D01*
X69837Y31980D01*
X69833Y31970D01*
X69829Y31959D01*
X69828Y31948D01*
X69827Y31936D01*
Y31934D01*
X69828Y31929D01*
Y31925D01*
X69828Y31919D01*
X69830Y31913D01*
X69834Y31898D01*
X69838Y31890D01*
X69842Y31881D01*
X69847Y31872D01*
X69853Y31863D01*
X69860Y31854D01*
X69868Y31845D01*
X69878Y31835D01*
X69889Y31827D01*
X69890Y31826D01*
X69893Y31825D01*
X69896Y31823D01*
X69902Y31820D01*
X69909Y31816D01*
X69919Y31813D01*
X69931Y31809D01*
X69944Y31805D01*
X69960Y31800D01*
X69978Y31796D01*
X69998Y31792D01*
X70022Y31789D01*
X70048Y31786D01*
X70076Y31784D01*
X70107Y31783D01*
X70141Y31782D01*
X70142D01*
X70143D01*
X70146D01*
X70149D01*
X70153D01*
X70158D01*
X70172Y31783D01*
X70187Y31784D01*
X70204Y31785D01*
X70223Y31785D01*
X70243Y31788D01*
X70286Y31793D01*
X70307Y31797D01*
X70327Y31801D01*
X70346Y31806D01*
X70364Y31812D01*
X70379Y31819D01*
X70392Y31827D01*
X70393Y31828D01*
X70395Y31829D01*
X70398Y31831D01*
X70402Y31835D01*
X70407Y31840D01*
X70412Y31845D01*
X70418Y31850D01*
X70424Y31857D01*
X70435Y31873D01*
X70445Y31892D01*
X70449Y31902D01*
X70452Y31914D01*
X70454Y31924D01*
X70455Y31937D01*
Y31943D01*
X70454Y31948D01*
X70453Y31953D01*
X70452Y31959D01*
X70448Y31974D01*
X70442Y31991D01*
X70437Y31999D01*
X70432Y32009D01*
X70426Y32017D01*
X70418Y32025D01*
X70410Y32034D01*
X70400Y32041D01*
X70399Y32042D01*
X70397Y32043D01*
X70392Y32045D01*
X70386Y32049D01*
X70377Y32052D01*
X70367Y32056D01*
X70356Y32061D01*
X70341Y32065D01*
X70324Y32069D01*
X70306Y32074D01*
X70284Y32079D01*
X70261Y32082D01*
X70235Y32085D01*
X70206Y32087D01*
X70175Y32089D01*
X70141Y32089D01*
D02*
G37*
G36*
X71134Y33415D02*
X71132D01*
X71128D01*
X71121Y33414D01*
X71111D01*
X71099Y33412D01*
X71086Y33411D01*
X71071Y33409D01*
X71055Y33406D01*
X71038Y33401D01*
X71019Y33396D01*
X71002Y33391D01*
X70983Y33383D01*
X70965Y33375D01*
X70948Y33365D01*
X70931Y33354D01*
X70915Y33341D01*
X70914Y33340D01*
X70912Y33337D01*
X70908Y33333D01*
X70903Y33327D01*
X70897Y33320D01*
X70890Y33311D01*
X70883Y33301D01*
X70876Y33289D01*
X70868Y33276D01*
X70861Y33261D01*
X70854Y33246D01*
X70848Y33230D01*
X70843Y33212D01*
X70839Y33193D01*
X70837Y33174D01*
X70836Y33153D01*
Y33148D01*
X70837Y33142D01*
X70838Y33134D01*
X70838Y33124D01*
X70840Y33113D01*
X70843Y33100D01*
X70846Y33087D01*
X70850Y33072D01*
X70855Y33057D01*
X70862Y33041D01*
X70870Y33025D01*
X70879Y33009D01*
X70889Y32993D01*
X70902Y32978D01*
X70916Y32964D01*
X70917Y32963D01*
X70920Y32961D01*
X70924Y32957D01*
X70931Y32952D01*
X70939Y32947D01*
X70949Y32940D01*
X70961Y32933D01*
X70975Y32927D01*
X70990Y32920D01*
X71008Y32912D01*
X71026Y32907D01*
X71047Y32901D01*
X71069Y32896D01*
X71093Y32892D01*
X71118Y32890D01*
X71145Y32889D01*
X71146D01*
X71149D01*
X71154D01*
X71161Y32890D01*
X71169D01*
X71178Y32891D01*
X71189Y32892D01*
X71201Y32893D01*
X71227Y32897D01*
X71254Y32902D01*
X71282Y32911D01*
X71309Y32922D01*
X71310D01*
X71312Y32923D01*
X71316Y32925D01*
X71321Y32927D01*
X71327Y32931D01*
X71333Y32935D01*
X71349Y32945D01*
X71367Y32958D01*
X71384Y32974D01*
X71402Y32992D01*
X71417Y33014D01*
X71418Y33015D01*
X71419Y33017D01*
X71421Y33020D01*
X71423Y33025D01*
X71427Y33031D01*
X71430Y33037D01*
X71433Y33045D01*
X71437Y33054D01*
X71441Y33064D01*
X71444Y33074D01*
X71451Y33097D01*
X71455Y33123D01*
X71457Y33137D01*
Y33156D01*
X71456Y33161D01*
Y33170D01*
X71454Y33179D01*
X71452Y33190D01*
X71450Y33201D01*
X71447Y33215D01*
X71443Y33229D01*
X71438Y33244D01*
X71432Y33260D01*
X71425Y33275D01*
X71417Y33291D01*
X71407Y33306D01*
X71395Y33322D01*
X71382Y33337D01*
X71381Y33338D01*
X71378Y33341D01*
X71373Y33345D01*
X71367Y33349D01*
X71359Y33356D01*
X71349Y33361D01*
X71337Y33369D01*
X71323Y33376D01*
X71307Y33383D01*
X71288Y33391D01*
X71268Y33396D01*
X71246Y33402D01*
X71222Y33407D01*
X71195Y33411D01*
X71166Y33414D01*
X71134Y33415D01*
D02*
G37*
G36*
X71440Y32552D02*
X71165D01*
Y32344D01*
X71166Y32338D01*
Y32329D01*
X71167Y32320D01*
X71168Y32309D01*
X71170Y32299D01*
X71174Y32275D01*
X71181Y32252D01*
X71185Y32241D01*
X71190Y32231D01*
X71195Y32221D01*
X71202Y32213D01*
X71202Y32212D01*
X71203Y32211D01*
X71206Y32209D01*
X71208Y32206D01*
X71217Y32199D01*
X71228Y32192D01*
X71243Y32184D01*
X71261Y32178D01*
X71282Y32173D01*
X71292Y32172D01*
X71305Y32171D01*
X71306D01*
X71307D01*
X71310D01*
X71313D01*
X71322Y32173D01*
X71333Y32174D01*
X71347Y32177D01*
X71360Y32182D01*
X71374Y32188D01*
X71387Y32196D01*
X71389Y32197D01*
X71393Y32200D01*
X71399Y32206D01*
X71406Y32213D01*
X71413Y32223D01*
X71421Y32234D01*
X71427Y32246D01*
X71432Y32260D01*
Y32261D01*
X71433Y32265D01*
X71435Y32272D01*
X71437Y32282D01*
Y32288D01*
X71437Y32294D01*
X71438Y32303D01*
X71439Y32311D01*
Y32321D01*
X71440Y32331D01*
Y32552D01*
D02*
G37*
G36*
X71033Y31914D02*
Y31672D01*
X71379D01*
X71033Y31914D01*
D02*
G37*
G36*
X74443Y32687D02*
X74442D01*
X74440D01*
X74436D01*
X74431Y32686D01*
X74425Y32685D01*
X74417Y32684D01*
X74401Y32681D01*
X74382Y32676D01*
X74362Y32668D01*
X74352Y32663D01*
X74342Y32658D01*
X74333Y32651D01*
X74324Y32643D01*
X74323Y32643D01*
X74322Y32642D01*
X74320Y32639D01*
X74317Y32635D01*
X74314Y32631D01*
X74310Y32626D01*
X74306Y32620D01*
X74302Y32613D01*
X74293Y32597D01*
X74286Y32578D01*
X74281Y32557D01*
X74280Y32545D01*
X74279Y32533D01*
Y32527D01*
X74280Y32523D01*
X74281Y32517D01*
X74282Y32511D01*
X74285Y32496D01*
X74290Y32478D01*
X74298Y32461D01*
X74303Y32452D01*
X74309Y32443D01*
X74317Y32434D01*
X74324Y32426D01*
X74325Y32425D01*
X74327Y32424D01*
X74329Y32422D01*
X74332Y32419D01*
X74337Y32416D01*
X74343Y32413D01*
X74350Y32408D01*
X74357Y32404D01*
X74366Y32401D01*
X74376Y32397D01*
X74386Y32393D01*
X74397Y32390D01*
X74410Y32388D01*
X74422Y32385D01*
X74436Y32384D01*
X74451Y32383D01*
X74452D01*
X74455D01*
X74459D01*
X74465Y32384D01*
X74471Y32385D01*
X74480Y32386D01*
X74488Y32387D01*
X74498Y32388D01*
X74518Y32394D01*
X74540Y32402D01*
X74551Y32407D01*
X74561Y32413D01*
X74571Y32419D01*
X74580Y32427D01*
X74581Y32428D01*
X74582Y32428D01*
X74584Y32431D01*
X74587Y32434D01*
X74591Y32438D01*
X74595Y32443D01*
X74604Y32456D01*
X74613Y32471D01*
X74621Y32489D01*
X74624Y32498D01*
X74626Y32509D01*
X74627Y32520D01*
X74628Y32531D01*
Y32537D01*
X74627Y32542D01*
X74626Y32547D01*
X74626Y32553D01*
X74621Y32568D01*
X74616Y32586D01*
X74611Y32595D01*
X74606Y32604D01*
X74601Y32613D01*
X74593Y32623D01*
X74586Y32632D01*
X74576Y32641D01*
X74576Y32642D01*
X74574Y32643D01*
X74571Y32645D01*
X74567Y32648D01*
X74562Y32652D01*
X74556Y32655D01*
X74549Y32659D01*
X74541Y32663D01*
X74531Y32668D01*
X74521Y32673D01*
X74511Y32676D01*
X74498Y32679D01*
X74472Y32685D01*
X74458Y32686D01*
X74443Y32687D01*
D02*
G37*
G36*
X75307Y33415D02*
X75306D01*
X75302D01*
X75294Y33414D01*
X75284D01*
X75272Y33412D01*
X75259Y33411D01*
X75244Y33409D01*
X75228Y33406D01*
X75211Y33401D01*
X75192Y33396D01*
X75175Y33391D01*
X75157Y33383D01*
X75138Y33375D01*
X75121Y33365D01*
X75104Y33354D01*
X75088Y33341D01*
X75087Y33340D01*
X75085Y33337D01*
X75081Y33333D01*
X75076Y33327D01*
X75070Y33320D01*
X75063Y33311D01*
X75056Y33301D01*
X75049Y33289D01*
X75042Y33276D01*
X75034Y33261D01*
X75027Y33246D01*
X75022Y33230D01*
X75017Y33212D01*
X75013Y33193D01*
X75010Y33174D01*
X75009Y33153D01*
Y33148D01*
X75010Y33142D01*
X75011Y33134D01*
X75012Y33124D01*
X75013Y33113D01*
X75016Y33100D01*
X75019Y33087D01*
X75023Y33072D01*
X75028Y33057D01*
X75035Y33041D01*
X75043Y33025D01*
X75052Y33009D01*
X75062Y32993D01*
X75075Y32978D01*
X75089Y32964D01*
X75090Y32963D01*
X75093Y32961D01*
X75097Y32957D01*
X75104Y32952D01*
X75112Y32947D01*
X75122Y32940D01*
X75134Y32933D01*
X75148Y32927D01*
X75163Y32920D01*
X75181Y32912D01*
X75199Y32907D01*
X75220Y32901D01*
X75242Y32896D01*
X75266Y32892D01*
X75292Y32890D01*
X75318Y32889D01*
X75319D01*
X75322D01*
X75327D01*
X75334Y32890D01*
X75342D01*
X75352Y32891D01*
X75362Y32892D01*
X75374Y32893D01*
X75400Y32897D01*
X75427Y32902D01*
X75455Y32911D01*
X75482Y32922D01*
X75483D01*
X75486Y32923D01*
X75489Y32925D01*
X75494Y32927D01*
X75500Y32931D01*
X75506Y32935D01*
X75522Y32945D01*
X75540Y32958D01*
X75557Y32974D01*
X75575Y32992D01*
X75591Y33014D01*
X75591Y33015D01*
X75592Y33017D01*
X75594Y33020D01*
X75596Y33025D01*
X75600Y33031D01*
X75603Y33037D01*
X75606Y33045D01*
X75611Y33054D01*
X75614Y33064D01*
X75617Y33074D01*
X75624Y33097D01*
X75628Y33123D01*
X75630Y33137D01*
Y33156D01*
X75629Y33161D01*
Y33170D01*
X75627Y33179D01*
X75626Y33190D01*
X75623Y33201D01*
X75621Y33215D01*
X75616Y33229D01*
X75611Y33244D01*
X75606Y33260D01*
X75598Y33275D01*
X75590Y33291D01*
X75580Y33306D01*
X75568Y33322D01*
X75555Y33337D01*
X75554Y33338D01*
X75551Y33341D01*
X75546Y33345D01*
X75541Y33349D01*
X75532Y33356D01*
X75522Y33361D01*
X75510Y33369D01*
X75496Y33376D01*
X75480Y33383D01*
X75462Y33391D01*
X75441Y33396D01*
X75419Y33402D01*
X75395Y33407D01*
X75368Y33411D01*
X75339Y33414D01*
X75307Y33415D01*
D02*
G37*
G36*
X75613Y32552D02*
X75338D01*
Y32344D01*
X75339Y32338D01*
Y32329D01*
X75340Y32320D01*
X75342Y32309D01*
X75343Y32299D01*
X75347Y32275D01*
X75354Y32252D01*
X75358Y32241D01*
X75363Y32231D01*
X75368Y32221D01*
X75375Y32213D01*
X75376Y32212D01*
X75377Y32211D01*
X75379Y32209D01*
X75382Y32206D01*
X75390Y32199D01*
X75402Y32192D01*
X75417Y32184D01*
X75434Y32178D01*
X75455Y32173D01*
X75466Y32172D01*
X75478Y32171D01*
X75479D01*
X75481D01*
X75483D01*
X75486D01*
X75496Y32173D01*
X75506Y32174D01*
X75520Y32177D01*
X75533Y32182D01*
X75547Y32188D01*
X75561Y32196D01*
X75562Y32197D01*
X75566Y32200D01*
X75572Y32206D01*
X75579Y32213D01*
X75586Y32223D01*
X75594Y32234D01*
X75601Y32246D01*
X75606Y32260D01*
Y32261D01*
X75606Y32265D01*
X75608Y32272D01*
X75610Y32282D01*
Y32288D01*
X75611Y32294D01*
X75611Y32303D01*
X75612Y32311D01*
Y32321D01*
X75613Y32331D01*
Y32552D01*
D02*
G37*
G36*
X62788Y33415D02*
X62786D01*
X62782D01*
X62774Y33414D01*
X62764D01*
X62753Y33412D01*
X62739Y33411D01*
X62724Y33409D01*
X62709Y33406D01*
X62691Y33401D01*
X62673Y33396D01*
X62655Y33391D01*
X62637Y33383D01*
X62619Y33375D01*
X62601Y33365D01*
X62584Y33354D01*
X62569Y33341D01*
X62568Y33340D01*
X62565Y33337D01*
X62561Y33333D01*
X62556Y33327D01*
X62550Y33320D01*
X62544Y33311D01*
X62536Y33301D01*
X62529Y33289D01*
X62522Y33276D01*
X62514Y33261D01*
X62508Y33246D01*
X62502Y33230D01*
X62497Y33212D01*
X62493Y33193D01*
X62490Y33174D01*
X62489Y33153D01*
Y33148D01*
X62490Y33142D01*
X62491Y33134D01*
X62492Y33124D01*
X62494Y33113D01*
X62496Y33100D01*
X62499Y33087D01*
X62504Y33072D01*
X62509Y33057D01*
X62515Y33041D01*
X62524Y33025D01*
X62533Y33009D01*
X62543Y32993D01*
X62555Y32978D01*
X62569Y32964D01*
X62570Y32963D01*
X62574Y32961D01*
X62578Y32957D01*
X62584Y32952D01*
X62593Y32947D01*
X62603Y32940D01*
X62614Y32933D01*
X62629Y32927D01*
X62644Y32920D01*
X62661Y32912D01*
X62679Y32907D01*
X62700Y32901D01*
X62723Y32896D01*
X62746Y32892D01*
X62772Y32890D01*
X62799Y32889D01*
X62799D01*
X62803D01*
X62808D01*
X62814Y32890D01*
X62823D01*
X62832Y32891D01*
X62843Y32892D01*
X62854Y32893D01*
X62880Y32897D01*
X62908Y32902D01*
X62935Y32911D01*
X62963Y32922D01*
X62963D01*
X62966Y32923D01*
X62969Y32925D01*
X62974Y32927D01*
X62980Y32931D01*
X62987Y32935D01*
X63003Y32945D01*
X63020Y32958D01*
X63038Y32974D01*
X63055Y32992D01*
X63071Y33014D01*
X63072Y33015D01*
X63073Y33017D01*
X63074Y33020D01*
X63077Y33025D01*
X63080Y33031D01*
X63083Y33037D01*
X63087Y33045D01*
X63091Y33054D01*
X63094Y33064D01*
X63098Y33074D01*
X63104Y33097D01*
X63108Y33123D01*
X63110Y33137D01*
Y33156D01*
X63109Y33161D01*
Y33170D01*
X63108Y33179D01*
X63106Y33190D01*
X63103Y33201D01*
X63101Y33215D01*
X63097Y33229D01*
X63092Y33244D01*
X63086Y33260D01*
X63078Y33275D01*
X63070Y33291D01*
X63060Y33306D01*
X63048Y33322D01*
X63035Y33337D01*
X63034Y33338D01*
X63032Y33341D01*
X63027Y33345D01*
X63021Y33349D01*
X63013Y33356D01*
X63003Y33361D01*
X62990Y33369D01*
X62977Y33376D01*
X62960Y33383D01*
X62942Y33391D01*
X62922Y33396D01*
X62899Y33402D01*
X62875Y33407D01*
X62849Y33411D01*
X62819Y33414D01*
X62788Y33415D01*
D02*
G37*
G36*
X63093Y32552D02*
X62819D01*
Y32344D01*
X62819Y32338D01*
Y32329D01*
X62820Y32320D01*
X62822Y32309D01*
X62824Y32299D01*
X62828Y32275D01*
X62834Y32252D01*
X62839Y32241D01*
X62844Y32231D01*
X62849Y32221D01*
X62855Y32213D01*
X62856Y32212D01*
X62857Y32211D01*
X62859Y32209D01*
X62862Y32206D01*
X62870Y32199D01*
X62882Y32192D01*
X62897Y32184D01*
X62914Y32178D01*
X62935Y32173D01*
X62946Y32172D01*
X62958Y32171D01*
X62959D01*
X62961D01*
X62963D01*
X62967D01*
X62976Y32173D01*
X62987Y32174D01*
X63000Y32177D01*
X63013Y32182D01*
X63028Y32188D01*
X63041Y32196D01*
X63043Y32197D01*
X63047Y32200D01*
X63053Y32206D01*
X63059Y32213D01*
X63067Y32223D01*
X63074Y32234D01*
X63081Y32246D01*
X63086Y32260D01*
Y32261D01*
X63087Y32265D01*
X63088Y32272D01*
X63090Y32282D01*
Y32288D01*
X63091Y32294D01*
X63092Y32303D01*
X63093Y32311D01*
Y32321D01*
X63093Y32331D01*
Y32552D01*
D02*
G37*
G36*
X62664Y31871D02*
X62664D01*
X62662D01*
X62659D01*
X62656D01*
X62652Y31870D01*
X62647D01*
X62634Y31869D01*
X62620Y31866D01*
X62604Y31863D01*
X62588Y31858D01*
X62571Y31851D01*
X62570D01*
X62569Y31850D01*
X62567Y31849D01*
X62564Y31847D01*
X62556Y31843D01*
X62546Y31836D01*
X62535Y31828D01*
X62524Y31818D01*
X62514Y31807D01*
X62504Y31794D01*
Y31793D01*
X62503Y31792D01*
X62500Y31787D01*
X62496Y31780D01*
X62492Y31770D01*
X62488Y31758D01*
X62484Y31745D01*
X62481Y31730D01*
X62480Y31715D01*
Y31709D01*
X62481Y31705D01*
X62482Y31699D01*
X62483Y31693D01*
X62486Y31679D01*
X62492Y31663D01*
X62496Y31654D01*
X62500Y31645D01*
X62506Y31636D01*
X62512Y31628D01*
X62519Y31620D01*
X62528Y31611D01*
X62529Y31610D01*
X62530Y31610D01*
X62533Y31607D01*
X62537Y31605D01*
X62542Y31601D01*
X62548Y31598D01*
X62554Y31594D01*
X62563Y31590D01*
X62571Y31585D01*
X62581Y31581D01*
X62592Y31578D01*
X62604Y31575D01*
X62616Y31572D01*
X62630Y31570D01*
X62644Y31569D01*
X62659Y31568D01*
X62660D01*
X62663D01*
X62667D01*
X62673Y31569D01*
X62679Y31570D01*
X62687Y31570D01*
X62695Y31571D01*
X62704Y31573D01*
X62724Y31578D01*
X62745Y31585D01*
X62756Y31590D01*
X62766Y31596D01*
X62775Y31603D01*
X62784Y31610D01*
X62785Y31611D01*
X62786Y31612D01*
X62789Y31615D01*
X62792Y31618D01*
X62795Y31622D01*
X62799Y31627D01*
X62808Y31640D01*
X62816Y31655D01*
X62824Y31674D01*
X62829Y31695D01*
X62830Y31706D01*
X62831Y31718D01*
Y31724D01*
X62830Y31729D01*
X62829Y31734D01*
X62829Y31740D01*
X62825Y31755D01*
X62819Y31773D01*
X62811Y31791D01*
X62806Y31800D01*
X62800Y31810D01*
X62793Y31819D01*
X62784Y31827D01*
X62784Y31828D01*
X62782Y31829D01*
X62779Y31831D01*
X62776Y31834D01*
X62772Y31837D01*
X62766Y31841D01*
X62759Y31845D01*
X62752Y31849D01*
X62744Y31853D01*
X62735Y31857D01*
X62714Y31865D01*
X62691Y31870D01*
X62678Y31870D01*
X62664Y31871D01*
D02*
G37*
%LPD*%
D10*
X88321Y30511D02*
X88421Y30611D01*
Y30811D01*
X88321Y30911D01*
X87921D01*
X87821Y30811D01*
Y30611D01*
X87921Y30511D01*
X87821Y29911D02*
Y30311D01*
X88221Y29911D01*
X88321D01*
X88421Y30011D01*
Y30211D01*
X88321Y30311D01*
X87821Y29711D02*
Y29511D01*
Y29611D01*
X88421D01*
X88321Y29711D01*
X88360Y52834D02*
X88460Y52934D01*
Y53134D01*
X88360Y53233D01*
X87960D01*
X87860Y53134D01*
Y52934D01*
X87960Y52834D01*
X87860Y52234D02*
Y52634D01*
X88260Y52234D01*
X88360D01*
X88460Y52334D01*
Y52534D01*
X88360Y52634D01*
Y52034D02*
X88460Y51934D01*
Y51734D01*
X88360Y51634D01*
X87960D01*
X87860Y51734D01*
Y51934D01*
X87960Y52034D01*
X88360D01*
X88321Y22991D02*
X88421Y23091D01*
Y23291D01*
X88321Y23391D01*
X87921D01*
X87821Y23291D01*
Y23091D01*
X87921Y22991D01*
X87821Y22391D02*
Y22791D01*
X88221Y22391D01*
X88321D01*
X88421Y22491D01*
Y22691D01*
X88321Y22791D01*
X87821Y21891D02*
X88421D01*
X88121Y22191D01*
Y21791D01*
X88321Y15550D02*
X88421Y15650D01*
Y15850D01*
X88321Y15950D01*
X87921D01*
X87821Y15850D01*
Y15650D01*
X87921Y15550D01*
X87821Y15350D02*
Y15150D01*
Y15250D01*
X88421D01*
X88321Y15350D01*
X87921Y14850D02*
X87821Y14750D01*
Y14550D01*
X87921Y14450D01*
X88321D01*
X88421Y14550D01*
Y14750D01*
X88321Y14850D01*
X88221D01*
X88121Y14750D01*
Y14450D01*
X88360Y45393D02*
X88460Y45493D01*
Y45693D01*
X88360Y45793D01*
X87960D01*
X87860Y45693D01*
Y45493D01*
X87960Y45393D01*
X87860Y44793D02*
Y45193D01*
X88260Y44793D01*
X88360D01*
X88460Y44893D01*
Y45093D01*
X88360Y45193D01*
Y44593D02*
X88460Y44493D01*
Y44293D01*
X88360Y44193D01*
X88260D01*
X88160Y44293D01*
Y44393D01*
Y44293D01*
X88060Y44193D01*
X87960D01*
X87860Y44293D01*
Y44493D01*
X87960Y44593D01*
X88360Y37952D02*
X88460Y38052D01*
Y38252D01*
X88360Y38352D01*
X87960D01*
X87860Y38252D01*
Y38052D01*
X87960Y37952D01*
X87860Y37352D02*
Y37752D01*
X88260Y37352D01*
X88360D01*
X88460Y37452D01*
Y37652D01*
X88360Y37752D01*
X87860Y36752D02*
Y37152D01*
X88260Y36752D01*
X88360D01*
X88460Y36852D01*
Y37052D01*
X88360Y37152D01*
X73255Y46108D02*
Y51608D01*
Y46108D02*
X74855D01*
Y51608D01*
X73255D02*
X74855D01*
X71287Y46108D02*
Y51608D01*
Y46108D02*
X72887D01*
Y51608D01*
X71287D02*
X72887D01*
X58259Y39853D02*
Y45353D01*
X56659D02*
X58259D01*
X56659Y39853D02*
Y45353D01*
Y39853D02*
X58259D01*
X60309D02*
Y45353D01*
X58709D02*
X60309D01*
X58709Y39853D02*
Y45353D01*
Y39853D02*
X60309D01*
X87677Y32244D02*
X87874Y32441D01*
Y33228D01*
X87480Y32638D02*
Y33228D01*
X85906Y32244D02*
X87677D01*
X86102Y32638D02*
X87480D01*
X86102Y47480D02*
Y48071D01*
X87677Y47087D02*
X87874Y47283D01*
Y48071D01*
X87480Y47480D02*
Y48071D01*
X85709Y47283D02*
Y48071D01*
Y47283D02*
X85906Y47087D01*
X86102Y47480D02*
X87480D01*
X85906Y47087D02*
X87677D01*
X85709Y48071D02*
X86102D01*
X87480D02*
X87874D01*
X86142Y40079D02*
Y40669D01*
X87717Y39685D02*
X87913Y39882D01*
Y40669D01*
X87520Y40079D02*
Y40669D01*
X85748Y39882D02*
Y40669D01*
Y39882D02*
X85945Y39685D01*
X86142Y40079D02*
X87520D01*
X85945Y39685D02*
X87717D01*
X85748Y40669D02*
X86142D01*
X87520D02*
X87913D01*
X86102Y32638D02*
Y33228D01*
X85709Y32441D02*
Y33228D01*
Y32441D02*
X85906Y32244D01*
X85709Y33228D02*
X86102D01*
X87480D02*
X87874D01*
X86063Y17638D02*
Y18228D01*
X87638Y17244D02*
X87835Y17441D01*
Y18228D01*
X87441Y17638D02*
Y18228D01*
X85669Y17441D02*
Y18228D01*
Y17441D02*
X85866Y17244D01*
X86063Y17638D02*
X87441D01*
X85866Y17244D02*
X87638D01*
X85669Y18228D02*
X86063D01*
X87441D02*
X87835D01*
X87795Y25787D02*
X87795Y25787D01*
X87402Y25787D02*
X87795D01*
X86024Y25197D02*
Y25787D01*
X87598Y24803D02*
X87795Y25000D01*
Y25787D01*
X87402Y25197D02*
Y25787D01*
X85630D02*
X86024D01*
X85630Y25000D02*
Y25787D01*
Y25000D02*
X85827Y24803D01*
X86024Y25197D02*
X87402D01*
X85827Y24803D02*
X87598D01*
D23*
X92087Y10006D02*
Y57250D01*
X42047Y10000D02*
X92087D01*
X9500Y57250D02*
X92087D01*
X9500Y10000D02*
Y57250D01*
Y10000D02*
Y57250D01*
Y10000D02*
X42900D01*
X77559Y52047D02*
X78937D01*
X77126Y51614D02*
X77559Y52047D01*
X77126Y50236D02*
Y51614D01*
Y50236D02*
X77559Y49803D01*
X78937D01*
Y50157D01*
X77795D02*
X78937D01*
X77559Y50394D02*
X77795Y50157D01*
X77559Y50394D02*
Y51417D01*
X77795Y51654D01*
X78937D01*
Y52047D01*
X77559Y44606D02*
X78937D01*
X77126Y44173D02*
X77559Y44606D01*
X77126Y42795D02*
Y44173D01*
Y42795D02*
X77559Y42362D01*
X78937D01*
Y42717D01*
X77795D02*
X78937D01*
X77559Y42953D02*
X77795Y42717D01*
X77559Y42953D02*
Y43976D01*
X77795Y44213D01*
X78937D01*
Y44606D01*
X77559Y37165D02*
X78937D01*
X77126Y36732D02*
X77559Y37165D01*
X77126Y35354D02*
Y36732D01*
Y35354D02*
X77559Y34921D01*
X78937D01*
Y35276D01*
X77795D02*
X78937D01*
X77559Y35512D02*
X77795Y35276D01*
X77559Y35512D02*
Y36535D01*
X77795Y36772D01*
X78937D01*
Y37165D01*
X77559Y29646D02*
X78937D01*
X77126Y29213D02*
X77559Y29646D01*
X77126Y27835D02*
Y29213D01*
Y27835D02*
X77559Y27402D01*
X78937D01*
Y27756D01*
X77795D02*
X78937D01*
X77559Y27992D02*
X77795Y27756D01*
X77559Y27992D02*
Y29016D01*
X77795Y29252D01*
X78937D01*
Y29646D01*
X77520Y14646D02*
X78898D01*
X77087Y14213D02*
X77520Y14646D01*
X77087Y12835D02*
Y14213D01*
Y12835D02*
X77520Y12402D01*
X78898D01*
Y12756D01*
X77756D02*
X78898D01*
X77520Y12992D02*
X77756Y12756D01*
X77520Y12992D02*
Y14016D01*
X77756Y14252D01*
X78898D01*
Y14646D01*
Y21772D02*
Y22165D01*
X77756Y21772D02*
X78898D01*
X77520Y21535D02*
X77756Y21772D01*
X77520Y20512D02*
Y21535D01*
Y20512D02*
X77756Y20276D01*
X78898D01*
Y19921D02*
Y20276D01*
X77520Y19921D02*
X78898D01*
X77087Y20354D02*
X77520Y19921D01*
X77087Y20354D02*
Y21732D01*
X77520Y22165D01*
X78898D01*
D24*
X92126Y16246D02*
Y16654D01*
X90412Y27723D02*
X92126D01*
X89062Y27316D02*
X92126D01*
Y27723D01*
X90448Y31746D02*
X92126D01*
X89098Y31339D02*
X92126D01*
Y31654D02*
Y31755D01*
Y31348D02*
Y31450D01*
Y35118D02*
Y35220D01*
Y34813D02*
Y34914D01*
Y39094D02*
Y39196D01*
Y38789D02*
Y38891D01*
Y39094D01*
Y42198D02*
Y42605D01*
X89062Y42198D02*
X92126D01*
X89098Y49646D02*
Y50053D01*
X92126Y49646D02*
Y50053D01*
X90448D02*
X92126D01*
X89098D02*
X90448D01*
X89098Y49646D02*
X92126D01*
X90448Y46589D02*
X92126D01*
X89098Y46181D02*
X92126D01*
Y46589D01*
Y19813D02*
Y19914D01*
Y20118D02*
Y20220D01*
Y19914D02*
Y20118D01*
X90412Y20204D02*
X92126D01*
X89055Y19796D02*
X92126D01*
X89062Y16246D02*
Y16654D01*
X90412D01*
X89062Y16246D02*
X92126D01*
X90412Y16654D02*
X92126D01*
X89055Y19796D02*
Y20204D01*
X90412D01*
X89062Y23773D02*
Y24180D01*
X92126Y23773D02*
Y24180D01*
X89062D02*
X90412D01*
X89062Y23773D02*
X92126D01*
X90412Y24180D02*
X92126D01*
X89062Y27316D02*
Y27723D01*
X90412D01*
X89098Y31339D02*
Y31746D01*
X92126Y31450D02*
Y31654D01*
X89098Y31746D02*
X90448D01*
X89062Y34796D02*
Y35204D01*
X92126Y34914D02*
Y35118D01*
X89062Y35204D02*
X90412D01*
X89062Y34796D02*
X92126D01*
X90412Y35204D02*
X92126D01*
X89102Y38773D02*
Y39180D01*
X90452D01*
X89102Y38773D02*
X92126D01*
X90452Y39180D02*
X92126D01*
X89062Y42198D02*
Y42605D01*
X90412D01*
X92126D01*
X89098Y46181D02*
Y46589D01*
X90448D01*
X89055Y53536D02*
Y53944D01*
X92126Y53536D02*
Y53944D01*
X89055D02*
X90405D01*
X89055Y53536D02*
X92126D01*
X90405Y53944D02*
X92126D01*
X72102Y42927D02*
X74052D01*
X70752Y42520D02*
X74052D01*
X70752Y42927D02*
X72102D01*
X74052Y42520D02*
Y42927D01*
X70752Y42520D02*
Y42927D01*
X52420Y43032D02*
Y43429D01*
Y43032D02*
X54370D01*
X56320D01*
Y43429D01*
X52420D02*
X56320D01*
X62144Y43072D02*
Y43465D01*
Y43072D02*
X66044D01*
Y43465D01*
X64094D02*
X66044D01*
X62144D02*
X64094D01*
X9500Y10000D02*
Y57250D01*
M02*
