G04*
G04 #@! TF.GenerationSoftware,Altium Limited,CircuitMaker,2.2.1 (2.2.1.6)*
G04*
G04 Layer_Color=20142*
%FSLAX24Y24*%
%MOIN*%
G70*
G04*
G04 #@! TF.SameCoordinates,A2895FC5-3AE1-40D1-BB98-85C0BD90A9E4*
G04*
G04*
G04 #@! TF.FilePolarity,Negative*
G04*
G01*
G75*
%ADD10C,0.0100*%
%ADD20C,0.0600*%
%ADD23C,0.0010*%
%ADD24C,0.0001*%
%ADD25R,0.0592X0.0671*%
%ADD26R,0.0415X0.0356*%
G04:AMPARAMS|DCode=27|XSize=69mil|YSize=59.2mil|CornerRadius=10.4mil|HoleSize=0mil|Usage=FLASHONLY|Rotation=180.000|XOffset=0mil|YOffset=0mil|HoleType=Round|Shape=RoundedRectangle|*
%AMROUNDEDRECTD27*
21,1,0.0690,0.0384,0,0,180.0*
21,1,0.0482,0.0592,0,0,180.0*
1,1,0.0208,-0.0241,0.0192*
1,1,0.0208,0.0241,0.0192*
1,1,0.0208,0.0241,-0.0192*
1,1,0.0208,-0.0241,-0.0192*
%
%ADD27ROUNDEDRECTD27*%
%ADD28R,0.0474X0.0454*%
%ADD29O,0.0356X0.0159*%
%ADD30O,0.0159X0.0356*%
%ADD31R,0.1135X0.1135*%
%ADD32R,0.0572X0.0316*%
%ADD33R,0.0533X0.0592*%
%ADD34R,0.0316X0.0395*%
%ADD35R,0.0316X0.0572*%
%ADD36R,0.0277X0.0415*%
%ADD37R,0.0434X0.0474*%
%ADD38R,0.0828X0.0316*%
%ADD39R,0.1182X0.0907*%
%ADD40R,0.0395X0.0434*%
%ADD41R,0.0474X0.0434*%
G04:AMPARAMS|DCode=42|XSize=43.4mil|YSize=128.7mil|CornerRadius=12.9mil|HoleSize=0mil|Usage=FLASHONLY|Rotation=0.000|XOffset=0mil|YOffset=0mil|HoleType=Round|Shape=RoundedRectangle|*
%AMROUNDEDRECTD42*
21,1,0.0434,0.1030,0,0,0.0*
21,1,0.0177,0.1287,0,0,0.0*
1,1,0.0257,0.0089,-0.0515*
1,1,0.0257,-0.0089,-0.0515*
1,1,0.0257,-0.0089,0.0515*
1,1,0.0257,0.0089,0.0515*
%
%ADD42ROUNDEDRECTD42*%
G04:AMPARAMS|DCode=43|XSize=43.4mil|YSize=128.7mil|CornerRadius=12.9mil|HoleSize=0mil|Usage=FLASHONLY|Rotation=90.000|XOffset=0mil|YOffset=0mil|HoleType=Round|Shape=RoundedRectangle|*
%AMROUNDEDRECTD43*
21,1,0.0434,0.1030,0,0,90.0*
21,1,0.0177,0.1287,0,0,90.0*
1,1,0.0257,0.0515,0.0089*
1,1,0.0257,0.0515,-0.0089*
1,1,0.0257,-0.0515,-0.0089*
1,1,0.0257,-0.0515,0.0089*
%
%ADD43ROUNDEDRECTD43*%
G04:AMPARAMS|DCode=44|XSize=43.4mil|YSize=128.7mil|CornerRadius=0mil|HoleSize=0mil|Usage=FLASHONLY|Rotation=90.000|XOffset=0mil|YOffset=0mil|HoleType=Round|Shape=Octagon|*
%AMOCTAGOND44*
4,1,8,-0.0644,-0.0109,-0.0644,0.0109,-0.0535,0.0217,0.0535,0.0217,0.0644,0.0109,0.0644,-0.0109,0.0535,-0.0217,-0.0535,-0.0217,-0.0644,-0.0109,0.0*
%
%ADD44OCTAGOND44*%

%ADD45R,0.0604X0.0604*%
%ADD46O,0.1104X0.0356*%
%ADD47R,0.0356X0.0415*%
%ADD48R,0.0454X0.0474*%
%ADD49R,0.0454X0.0395*%
%ADD50R,0.0592X0.0533*%
G04:AMPARAMS|DCode=51|XSize=114.3mil|YSize=114.3mil|CornerRadius=12mil|HoleSize=0mil|Usage=FLASHONLY|Rotation=90.000|XOffset=0mil|YOffset=0mil|HoleType=Round|Shape=RoundedRectangle|*
%AMROUNDEDRECTD51*
21,1,0.1143,0.0904,0,0,90.0*
21,1,0.0904,0.1143,0,0,90.0*
1,1,0.0239,0.0452,0.0452*
1,1,0.0239,0.0452,-0.0452*
1,1,0.0239,-0.0452,-0.0452*
1,1,0.0239,-0.0452,0.0452*
%
%ADD51ROUNDEDRECTD51*%
%ADD52O,0.0986X0.0277*%
%ADD53R,0.0380X0.0480*%
%ADD54R,0.0480X0.0300*%
%ADD55R,0.0395X0.0434*%
%ADD56R,0.0631X0.0860*%
%ADD57O,0.0237X0.0611*%
%ADD58R,0.0395X0.0474*%
%ADD59R,0.1104X0.3308*%
G04:AMPARAMS|DCode=60|XSize=98.6mil|YSize=185.2mil|CornerRadius=17.6mil|HoleSize=0mil|Usage=FLASHONLY|Rotation=180.000|XOffset=0mil|YOffset=0mil|HoleType=Round|Shape=RoundedRectangle|*
%AMROUNDEDRECTD60*
21,1,0.0986,0.1500,0,0,180.0*
21,1,0.0634,0.1852,0,0,180.0*
1,1,0.0352,-0.0317,0.0750*
1,1,0.0352,0.0317,0.0750*
1,1,0.0352,0.0317,-0.0750*
1,1,0.0352,-0.0317,-0.0750*
%
%ADD60ROUNDEDRECTD60*%
%ADD61R,0.0395X0.0316*%
%ADD62R,0.0671X0.0690*%
%ADD63R,0.0552X0.0336*%
%ADD64O,0.0198X0.0749*%
G04:AMPARAMS|DCode=65|XSize=28mil|YSize=58mil|CornerRadius=9mil|HoleSize=0mil|Usage=FLASHONLY|Rotation=0.000|XOffset=0mil|YOffset=0mil|HoleType=Round|Shape=RoundedRectangle|*
%AMROUNDEDRECTD65*
21,1,0.0280,0.0400,0,0,0.0*
21,1,0.0100,0.0580,0,0,0.0*
1,1,0.0180,0.0050,-0.0200*
1,1,0.0180,-0.0050,-0.0200*
1,1,0.0180,-0.0050,0.0200*
1,1,0.0180,0.0050,0.0200*
%
%ADD65ROUNDEDRECTD65*%
G04:AMPARAMS|DCode=66|XSize=58mil|YSize=28mil|CornerRadius=9mil|HoleSize=0mil|Usage=FLASHONLY|Rotation=0.000|XOffset=0mil|YOffset=0mil|HoleType=Round|Shape=RoundedRectangle|*
%AMROUNDEDRECTD66*
21,1,0.0580,0.0100,0,0,0.0*
21,1,0.0400,0.0280,0,0,0.0*
1,1,0.0180,0.0200,-0.0050*
1,1,0.0180,-0.0200,-0.0050*
1,1,0.0180,-0.0200,0.0050*
1,1,0.0180,0.0200,0.0050*
%
%ADD66ROUNDEDRECTD66*%
G04:AMPARAMS|DCode=67|XSize=69mil|YSize=59.2mil|CornerRadius=16.8mil|HoleSize=0mil|Usage=FLASHONLY|Rotation=180.000|XOffset=0mil|YOffset=0mil|HoleType=Round|Shape=RoundedRectangle|*
%AMROUNDEDRECTD67*
21,1,0.0690,0.0256,0,0,180.0*
21,1,0.0354,0.0592,0,0,180.0*
1,1,0.0336,-0.0177,0.0128*
1,1,0.0336,0.0177,0.0128*
1,1,0.0336,0.0177,-0.0128*
1,1,0.0336,-0.0177,-0.0128*
%
%ADD67ROUNDEDRECTD67*%
%ADD68C,0.0800*%
%ADD69R,0.0709X0.1102*%
%ADD70C,0.0680*%
G04:AMPARAMS|DCode=71|XSize=88mil|YSize=88mil|CornerRadius=24mil|HoleSize=0mil|Usage=FLASHONLY|Rotation=0.000|XOffset=0mil|YOffset=0mil|HoleType=Round|Shape=RoundedRectangle|*
%AMROUNDEDRECTD71*
21,1,0.0880,0.0400,0,0,0.0*
21,1,0.0400,0.0880,0,0,0.0*
1,1,0.0480,0.0200,-0.0200*
1,1,0.0480,-0.0200,-0.0200*
1,1,0.0480,-0.0200,0.0200*
1,1,0.0480,0.0200,0.0200*
%
%ADD71ROUNDEDRECTD71*%
%ADD72C,0.1080*%
%ADD73R,0.1080X0.1080*%
%ADD74O,0.0880X0.0680*%
%ADD75R,0.0867X0.0867*%
%ADD76C,0.0867*%
%ADD77C,0.0580*%
%ADD78C,0.0671*%
%ADD79R,0.0680X0.0680*%
%ADD80C,0.0780*%
%ADD81O,0.0680X0.0880*%
%ADD82C,0.0946*%
%ADD83R,0.0946X0.0946*%
%ADD84C,0.0749*%
%ADD85R,0.0749X0.0749*%
%ADD86C,0.0079*%
G04:AMPARAMS|DCode=87|XSize=68mil|YSize=88mil|CornerRadius=19mil|HoleSize=0mil|Usage=FLASHONLY|Rotation=90.000|XOffset=0mil|YOffset=0mil|HoleType=Round|Shape=RoundedRectangle|*
%AMROUNDEDRECTD87*
21,1,0.0680,0.0500,0,0,90.0*
21,1,0.0300,0.0880,0,0,90.0*
1,1,0.0380,0.0250,0.0150*
1,1,0.0380,0.0250,-0.0150*
1,1,0.0380,-0.0250,-0.0150*
1,1,0.0380,-0.0250,0.0150*
%
%ADD87ROUNDEDRECTD87*%
%ADD88R,0.0880X0.0680*%
%ADD89O,0.2442X0.1655*%
%ADD90C,0.0640*%
%ADD91R,0.0640X0.0640*%
%ADD92C,0.0980*%
%ADD93C,0.0472*%
%ADD94C,0.0571*%
%ADD95R,0.0867X0.0867*%
%ADD96O,0.0631X0.0867*%
%ADD97R,0.0631X0.0867*%
%ADD98R,0.1080X0.1080*%
%ADD99C,0.0620*%
%ADD100C,0.0950*%
G04:AMPARAMS|DCode=101|XSize=157.6mil|YSize=68mil|CornerRadius=19mil|HoleSize=0mil|Usage=FLASHONLY|Rotation=180.000|XOffset=0mil|YOffset=0mil|HoleType=Round|Shape=RoundedRectangle|*
%AMROUNDEDRECTD101*
21,1,0.1576,0.0300,0,0,180.0*
21,1,0.1196,0.0680,0,0,180.0*
1,1,0.0380,-0.0598,0.0150*
1,1,0.0380,0.0598,0.0150*
1,1,0.0380,0.0598,-0.0150*
1,1,0.0380,-0.0598,-0.0150*
%
%ADD101ROUNDEDRECTD101*%
G04:AMPARAMS|DCode=102|XSize=157.6mil|YSize=68mil|CornerRadius=19mil|HoleSize=0mil|Usage=FLASHONLY|Rotation=90.000|XOffset=0mil|YOffset=0mil|HoleType=Round|Shape=RoundedRectangle|*
%AMROUNDEDRECTD102*
21,1,0.1576,0.0300,0,0,90.0*
21,1,0.1196,0.0680,0,0,90.0*
1,1,0.0380,0.0150,0.0598*
1,1,0.0380,0.0150,-0.0598*
1,1,0.0380,-0.0150,-0.0598*
1,1,0.0380,-0.0150,0.0598*
%
%ADD102ROUNDEDRECTD102*%
G04:AMPARAMS|DCode=103|XSize=185.2mil|YSize=68mil|CornerRadius=19mil|HoleSize=0mil|Usage=FLASHONLY|Rotation=90.000|XOffset=0mil|YOffset=0mil|HoleType=Round|Shape=RoundedRectangle|*
%AMROUNDEDRECTD103*
21,1,0.1852,0.0300,0,0,90.0*
21,1,0.1472,0.0680,0,0,90.0*
1,1,0.0380,0.0150,0.0736*
1,1,0.0380,0.0150,-0.0736*
1,1,0.0380,-0.0150,-0.0736*
1,1,0.0380,-0.0150,0.0736*
%
%ADD103ROUNDEDRECTD103*%
%ADD104R,0.0671X0.0671*%
%ADD105C,0.0277*%
%ADD106C,0.2049*%
D10*
X73255Y46108D02*
Y51608D01*
Y46108D02*
X74855D01*
Y51608D01*
X73255D02*
X74855D01*
X71287Y46108D02*
Y51608D01*
Y46108D02*
X72887D01*
Y51608D01*
X71287D02*
X72887D01*
X58259Y39853D02*
Y45353D01*
X56659D02*
X58259D01*
X56659Y39853D02*
Y45353D01*
Y39853D02*
X58259D01*
X60309D02*
Y45353D01*
X58709D02*
X60309D01*
X58709Y39853D02*
Y45353D01*
Y39853D02*
X60309D01*
X87677Y32244D02*
X87874Y32441D01*
Y33228D01*
X87480Y32638D02*
Y33228D01*
X85906Y32244D02*
X87677D01*
X86102Y32638D02*
X87480D01*
X86102Y47480D02*
Y48071D01*
X87677Y47087D02*
X87874Y47283D01*
Y48071D01*
X87480Y47480D02*
Y48071D01*
X85709Y47283D02*
Y48071D01*
Y47283D02*
X85906Y47087D01*
X86102Y47480D02*
X87480D01*
X85906Y47087D02*
X87677D01*
X85709Y48071D02*
X86102D01*
X87480D02*
X87874D01*
X86142Y40079D02*
Y40669D01*
X87717Y39685D02*
X87913Y39882D01*
Y40669D01*
X87520Y40079D02*
Y40669D01*
X85748Y39882D02*
Y40669D01*
Y39882D02*
X85945Y39685D01*
X86142Y40079D02*
X87520D01*
X85945Y39685D02*
X87717D01*
X85748Y40669D02*
X86142D01*
X87520D02*
X87913D01*
X86102Y32638D02*
Y33228D01*
X85709Y32441D02*
Y33228D01*
Y32441D02*
X85906Y32244D01*
X85709Y33228D02*
X86102D01*
X87480D02*
X87874D01*
X86063Y17638D02*
Y18228D01*
X87638Y17244D02*
X87835Y17441D01*
Y18228D01*
X87441Y17638D02*
Y18228D01*
X85669Y17441D02*
Y18228D01*
Y17441D02*
X85866Y17244D01*
X86063Y17638D02*
X87441D01*
X85866Y17244D02*
X87638D01*
X85669Y18228D02*
X86063D01*
X87441D02*
X87835D01*
X87795Y25787D02*
X87795Y25787D01*
X87402Y25787D02*
X87795D01*
X86024Y25197D02*
Y25787D01*
X87598Y24803D02*
X87795Y25000D01*
Y25787D01*
X87402Y25197D02*
Y25787D01*
X85630D02*
X86024D01*
X85630Y25000D02*
Y25787D01*
Y25000D02*
X85827Y24803D01*
X86024Y25197D02*
X87402D01*
X85827Y24803D02*
X87598D01*
D20*
X65702Y48443D02*
X65702Y48443D01*
D23*
X92087Y10006D02*
Y57250D01*
X42047Y10000D02*
X92087D01*
X9500Y57250D02*
X92087D01*
X9500Y10000D02*
Y57250D01*
Y10000D02*
Y57250D01*
Y10000D02*
X42900D01*
X77559Y52047D02*
X78937D01*
X77126Y51614D02*
X77559Y52047D01*
X77126Y50236D02*
Y51614D01*
Y50236D02*
X77559Y49803D01*
X78937D01*
Y50157D01*
X77795D02*
X78937D01*
X77559Y50394D02*
X77795Y50157D01*
X77559Y50394D02*
Y51417D01*
X77795Y51654D01*
X78937D01*
Y52047D01*
X77559Y44606D02*
X78937D01*
X77126Y44173D02*
X77559Y44606D01*
X77126Y42795D02*
Y44173D01*
Y42795D02*
X77559Y42362D01*
X78937D01*
Y42717D01*
X77795D02*
X78937D01*
X77559Y42953D02*
X77795Y42717D01*
X77559Y42953D02*
Y43976D01*
X77795Y44213D01*
X78937D01*
Y44606D01*
X77559Y37165D02*
X78937D01*
X77126Y36732D02*
X77559Y37165D01*
X77126Y35354D02*
Y36732D01*
Y35354D02*
X77559Y34921D01*
X78937D01*
Y35276D01*
X77795D02*
X78937D01*
X77559Y35512D02*
X77795Y35276D01*
X77559Y35512D02*
Y36535D01*
X77795Y36772D01*
X78937D01*
Y37165D01*
X77559Y29646D02*
X78937D01*
X77126Y29213D02*
X77559Y29646D01*
X77126Y27835D02*
Y29213D01*
Y27835D02*
X77559Y27402D01*
X78937D01*
Y27756D01*
X77795D02*
X78937D01*
X77559Y27992D02*
X77795Y27756D01*
X77559Y27992D02*
Y29016D01*
X77795Y29252D01*
X78937D01*
Y29646D01*
X77520Y14646D02*
X78898D01*
X77087Y14213D02*
X77520Y14646D01*
X77087Y12835D02*
Y14213D01*
Y12835D02*
X77520Y12402D01*
X78898D01*
Y12756D01*
X77756D02*
X78898D01*
X77520Y12992D02*
X77756Y12756D01*
X77520Y12992D02*
Y14016D01*
X77756Y14252D01*
X78898D01*
Y14646D01*
Y21772D02*
Y22165D01*
X77756Y21772D02*
X78898D01*
X77520Y21535D02*
X77756Y21772D01*
X77520Y20512D02*
Y21535D01*
Y20512D02*
X77756Y20276D01*
X78898D01*
Y19921D02*
Y20276D01*
X77520Y19921D02*
X78898D01*
X77087Y20354D02*
X77520Y19921D01*
X77087Y20354D02*
Y21732D01*
X77520Y22165D01*
X78898D01*
D24*
X92126Y16246D02*
Y16654D01*
X90412Y27723D02*
X92126D01*
X89062Y27316D02*
X92126D01*
Y27723D01*
X90448Y31746D02*
X92126D01*
X89098Y31339D02*
X92126D01*
Y31654D02*
Y31755D01*
Y31348D02*
Y31450D01*
Y35118D02*
Y35220D01*
Y34813D02*
Y34914D01*
Y39094D02*
Y39196D01*
Y38789D02*
Y38891D01*
Y39094D01*
Y42198D02*
Y42605D01*
X89062Y42198D02*
X92126D01*
X89098Y49646D02*
Y50053D01*
X92126Y49646D02*
Y50053D01*
X90448D02*
X92126D01*
X89098D02*
X90448D01*
X89098Y49646D02*
X92126D01*
X90448Y46589D02*
X92126D01*
X89098Y46181D02*
X92126D01*
Y46589D01*
Y19813D02*
Y19914D01*
Y20118D02*
Y20220D01*
Y19914D02*
Y20118D01*
X90412Y20204D02*
X92126D01*
X89055Y19796D02*
X92126D01*
X89062Y16246D02*
Y16654D01*
X90412D01*
X89062Y16246D02*
X92126D01*
X90412Y16654D02*
X92126D01*
X89055Y19796D02*
Y20204D01*
X90412D01*
X89062Y23773D02*
Y24180D01*
X92126Y23773D02*
Y24180D01*
X89062D02*
X90412D01*
X89062Y23773D02*
X92126D01*
X90412Y24180D02*
X92126D01*
X89062Y27316D02*
Y27723D01*
X90412D01*
X89098Y31339D02*
Y31746D01*
X92126Y31450D02*
Y31654D01*
X89098Y31746D02*
X90448D01*
X89062Y34796D02*
Y35204D01*
X92126Y34914D02*
Y35118D01*
X89062Y35204D02*
X90412D01*
X89062Y34796D02*
X92126D01*
X90412Y35204D02*
X92126D01*
X89102Y38773D02*
Y39180D01*
X90452D01*
X89102Y38773D02*
X92126D01*
X90452Y39180D02*
X92126D01*
X89062Y42198D02*
Y42605D01*
X90412D01*
X92126D01*
X89098Y46181D02*
Y46589D01*
X90448D01*
X89055Y53536D02*
Y53944D01*
X92126Y53536D02*
Y53944D01*
X89055D02*
X90405D01*
X89055Y53536D02*
X92126D01*
X90405Y53944D02*
X92126D01*
X72102Y42927D02*
X74052D01*
X70752Y42520D02*
X74052D01*
X70752Y42927D02*
X72102D01*
X74052Y42520D02*
Y42927D01*
X70752Y42520D02*
Y42927D01*
X52420Y43032D02*
Y43429D01*
Y43032D02*
X54370D01*
X56320D01*
Y43429D01*
X52420D02*
X56320D01*
X62144Y43072D02*
Y43465D01*
Y43072D02*
X66044D01*
Y43465D01*
X64094D02*
X66044D01*
X62144D02*
X64094D01*
X9500Y10000D02*
Y57250D01*
D25*
X65094Y41614D02*
D03*
X64094D02*
D03*
X63094D02*
D03*
X65094Y45157D02*
D03*
X64094D02*
D03*
X63094D02*
D03*
X53370Y45197D02*
D03*
X54370D02*
D03*
X55370D02*
D03*
X53370Y41654D02*
D03*
X54370D02*
D03*
X55370D02*
D03*
D26*
X17126Y42333D02*
D03*
Y41841D02*
D03*
X28031Y19065D02*
D03*
X32756Y18986D02*
D03*
Y18494D02*
D03*
X37520Y18986D02*
D03*
Y18494D02*
D03*
X47008Y18986D02*
D03*
Y18494D02*
D03*
X42244Y18986D02*
D03*
Y18494D02*
D03*
X23268Y18986D02*
D03*
Y18494D02*
D03*
X28031Y18573D02*
D03*
X16496Y42333D02*
D03*
Y41841D02*
D03*
X23543Y55896D02*
D03*
Y56388D02*
D03*
X24094Y55896D02*
D03*
Y56388D02*
D03*
X37992Y43593D02*
D03*
Y43100D02*
D03*
X23858Y50896D02*
D03*
Y51388D02*
D03*
X23307Y50896D02*
D03*
Y51388D02*
D03*
X22205Y50896D02*
D03*
Y51388D02*
D03*
X22756Y50896D02*
D03*
Y51388D02*
D03*
X24409Y50896D02*
D03*
Y51388D02*
D03*
X22850Y48304D02*
D03*
Y48796D02*
D03*
X22250Y48304D02*
D03*
Y48796D02*
D03*
X23450Y48304D02*
D03*
Y48796D02*
D03*
D27*
X12490Y45335D02*
D03*
X15620D02*
D03*
X12490Y43563D02*
D03*
X15620D02*
D03*
X17293Y45335D02*
D03*
X20423D02*
D03*
X17293Y43563D02*
D03*
X20423D02*
D03*
D28*
X11772Y46732D02*
D03*
Y46102D02*
D03*
X20354Y38346D02*
D03*
Y37717D02*
D03*
D29*
X16929Y38720D02*
D03*
Y38524D02*
D03*
Y38327D02*
D03*
Y38130D02*
D03*
Y37933D02*
D03*
Y37736D02*
D03*
X18504D02*
D03*
Y37933D02*
D03*
Y38130D02*
D03*
Y38327D02*
D03*
Y38524D02*
D03*
Y38720D02*
D03*
D30*
X17224Y37441D02*
D03*
X17421D02*
D03*
X17618D02*
D03*
X17815D02*
D03*
X18012D02*
D03*
X18209D02*
D03*
Y39016D02*
D03*
X18012D02*
D03*
X17815D02*
D03*
X17618D02*
D03*
X17421D02*
D03*
X17224D02*
D03*
D31*
X17717Y38228D02*
D03*
D32*
X31654Y45669D02*
D03*
Y46378D02*
D03*
X42165Y29803D02*
D03*
Y29094D02*
D03*
X41220Y29803D02*
D03*
Y29094D02*
D03*
X67441Y29409D02*
D03*
Y28701D02*
D03*
X54488Y28661D02*
D03*
Y29370D02*
D03*
X36260Y39370D02*
D03*
Y38661D02*
D03*
X24200Y48196D02*
D03*
Y48904D02*
D03*
X22200Y53004D02*
D03*
Y52296D02*
D03*
D33*
X77480Y24843D02*
D03*
X78366D02*
D03*
X77480Y17283D02*
D03*
X78366D02*
D03*
X77480Y54685D02*
D03*
X78366D02*
D03*
X77480Y47205D02*
D03*
X78366D02*
D03*
X77480Y39764D02*
D03*
X78366D02*
D03*
X77480Y32323D02*
D03*
X78366D02*
D03*
D34*
X79626Y24803D02*
D03*
X79114D02*
D03*
X79626Y17244D02*
D03*
X79114D02*
D03*
X79626Y54685D02*
D03*
X79114D02*
D03*
X79606Y47165D02*
D03*
X79094D02*
D03*
X79626Y39764D02*
D03*
X79114D02*
D03*
X79626Y32283D02*
D03*
X79114D02*
D03*
X11437Y42283D02*
D03*
X11949D02*
D03*
D35*
X90000Y54685D02*
D03*
X89291D02*
D03*
X89961Y17441D02*
D03*
X89252D02*
D03*
X89213Y24961D02*
D03*
X89921D02*
D03*
X89409Y47323D02*
D03*
X90118D02*
D03*
X89370Y39921D02*
D03*
X90079D02*
D03*
X89291Y32480D02*
D03*
X90000D02*
D03*
X14488Y39567D02*
D03*
X15197D02*
D03*
X16575D02*
D03*
X15866D02*
D03*
D36*
X88504Y26240D02*
D03*
Y25335D02*
D03*
X88661Y48524D02*
D03*
Y47618D02*
D03*
X88622Y55886D02*
D03*
Y54980D02*
D03*
X88583Y17776D02*
D03*
Y18681D02*
D03*
X88583Y32894D02*
D03*
Y33799D02*
D03*
X88583Y40374D02*
D03*
Y41280D02*
D03*
D37*
X89311Y25787D02*
D03*
X89823D02*
D03*
X89508Y48071D02*
D03*
X90020D02*
D03*
X89429Y55472D02*
D03*
X89941D02*
D03*
X89862Y18268D02*
D03*
X89350D02*
D03*
X89902Y33346D02*
D03*
X89390D02*
D03*
X89980Y40748D02*
D03*
X89468D02*
D03*
X53563Y32047D02*
D03*
X54075D02*
D03*
X53563Y31417D02*
D03*
X54075D02*
D03*
X37500Y48032D02*
D03*
X36988D02*
D03*
D38*
X42451Y35354D02*
D03*
Y34961D02*
D03*
Y34567D02*
D03*
Y33780D02*
D03*
Y36142D02*
D03*
Y33386D02*
D03*
Y35748D02*
D03*
Y34173D02*
D03*
D39*
X43376Y32146D02*
D03*
Y37382D02*
D03*
D40*
X62244Y30984D02*
D03*
X62717D02*
D03*
X49055Y30984D02*
D03*
X49528D02*
D03*
D41*
X30748Y55335D02*
D03*
Y55846D02*
D03*
X19646Y37766D02*
D03*
Y38297D02*
D03*
D42*
X18799Y46575D02*
D03*
X18299D02*
D03*
X17799D02*
D03*
X17299D02*
D03*
X16799D02*
D03*
X16299D02*
D03*
X15799D02*
D03*
X15295D02*
D03*
X14799D02*
D03*
X14299D02*
D03*
D43*
X20162Y47319D02*
D03*
Y47818D02*
D03*
Y48319D02*
D03*
Y48818D02*
D03*
Y49318D02*
D03*
Y49819D02*
D03*
Y50318D02*
D03*
Y50819D02*
D03*
Y51318D02*
D03*
Y51818D02*
D03*
Y52319D02*
D03*
Y52818D02*
D03*
Y53319D02*
D03*
Y53818D02*
D03*
X12869Y50318D02*
D03*
Y51318D02*
D03*
Y51818D02*
D03*
Y52818D02*
D03*
Y47319D02*
D03*
Y47818D02*
D03*
Y48818D02*
D03*
Y53319D02*
D03*
Y52319D02*
D03*
Y50819D02*
D03*
Y49819D02*
D03*
Y49318D02*
D03*
Y48319D02*
D03*
D44*
Y53818D02*
D03*
D45*
X16122Y50866D02*
D03*
Y51588D02*
D03*
X15400D02*
D03*
X16844Y50866D02*
D03*
Y51588D02*
D03*
X15400Y50862D02*
D03*
X16122Y50143D02*
D03*
X16844D02*
D03*
X15400D02*
D03*
D46*
X36417Y42079D02*
D03*
Y42579D02*
D03*
Y43079D02*
D03*
Y43579D02*
D03*
Y44079D02*
D03*
Y44579D02*
D03*
Y45079D02*
D03*
Y45579D02*
D03*
X32795Y42079D02*
D03*
Y42579D02*
D03*
Y43079D02*
D03*
Y43579D02*
D03*
Y44079D02*
D03*
Y44579D02*
D03*
Y45079D02*
D03*
Y45579D02*
D03*
D47*
X29459Y48189D02*
D03*
X28967D02*
D03*
X29449Y47677D02*
D03*
X28957D02*
D03*
X18593Y42283D02*
D03*
X18100D02*
D03*
X19596D02*
D03*
X20089D02*
D03*
X25804Y44350D02*
D03*
X26296D02*
D03*
X28937Y48858D02*
D03*
X29429D02*
D03*
X28937Y49370D02*
D03*
X29429D02*
D03*
X43809Y51929D02*
D03*
X44301D02*
D03*
X22589Y44370D02*
D03*
X23081D02*
D03*
X40463Y51968D02*
D03*
X40955D02*
D03*
D48*
X16496Y40315D02*
D03*
X15866D02*
D03*
X14843Y36260D02*
D03*
X15472D02*
D03*
X15197Y40315D02*
D03*
X14567D02*
D03*
D49*
X29000Y19046D02*
D03*
Y18554D02*
D03*
X33750Y19046D02*
D03*
Y18554D02*
D03*
X38500Y19046D02*
D03*
Y18554D02*
D03*
X48032Y18986D02*
D03*
Y18494D02*
D03*
X43268Y18986D02*
D03*
Y18494D02*
D03*
X24252D02*
D03*
Y18986D02*
D03*
D50*
X10748Y42224D02*
D03*
Y41339D02*
D03*
D51*
X10610Y40177D02*
D03*
Y36594D02*
D03*
X12854D02*
D03*
Y40177D02*
D03*
D52*
X12913Y39016D02*
D03*
Y38701D02*
D03*
Y37756D02*
D03*
Y38071D02*
D03*
Y38386D02*
D03*
D53*
X16668Y36220D02*
D03*
X17269D02*
D03*
X41550Y54700D02*
D03*
X42150D02*
D03*
D54*
X15000Y38839D02*
D03*
Y38465D02*
D03*
Y38091D02*
D03*
X15945D02*
D03*
Y38839D02*
D03*
D55*
X17638Y40079D02*
D03*
X18386D02*
D03*
X18012Y40866D02*
D03*
X19508Y40079D02*
D03*
X20256D02*
D03*
X19882Y40866D02*
D03*
D56*
X73377Y40588D02*
D03*
X71417Y44488D02*
D03*
X73377D02*
D03*
X71417Y40598D02*
D03*
D57*
X26280Y55039D02*
D03*
X26024D02*
D03*
X25768D02*
D03*
X25512D02*
D03*
X25256D02*
D03*
X25000D02*
D03*
X24744D02*
D03*
X24488D02*
D03*
X24232D02*
D03*
X23976D02*
D03*
X23720D02*
D03*
X23465D02*
D03*
X23209D02*
D03*
X22953D02*
D03*
X26280Y52736D02*
D03*
X26024D02*
D03*
X25768D02*
D03*
X25512D02*
D03*
X25256D02*
D03*
X25000D02*
D03*
X24744D02*
D03*
X24488D02*
D03*
X24232D02*
D03*
X23976D02*
D03*
X23720D02*
D03*
X23465D02*
D03*
X23209D02*
D03*
X22953D02*
D03*
D58*
X27605Y51750D02*
D03*
X28195D02*
D03*
X27500Y54094D02*
D03*
X28091D02*
D03*
X27505Y54700D02*
D03*
X28095D02*
D03*
X27500Y55276D02*
D03*
X28091D02*
D03*
X27605Y51100D02*
D03*
X28195D02*
D03*
X27505Y55900D02*
D03*
X28095D02*
D03*
X34606Y55866D02*
D03*
X35197D02*
D03*
X34626Y54409D02*
D03*
X35217D02*
D03*
X34626Y55157D02*
D03*
X35217D02*
D03*
D59*
X18268Y29173D02*
D03*
X20472D02*
D03*
D60*
X42717Y42116D02*
D03*
Y48622D02*
D03*
D61*
X17323Y30768D02*
D03*
Y31280D02*
D03*
D62*
X21575Y45039D02*
D03*
X22283D02*
D03*
X21546Y39850D02*
D03*
X22254D02*
D03*
D63*
X27362Y49016D02*
D03*
X26339Y48642D02*
D03*
Y49390D02*
D03*
X27362Y47559D02*
D03*
X26339Y47185D02*
D03*
Y47933D02*
D03*
D64*
X23894Y46707D02*
D03*
X23697D02*
D03*
X23500D02*
D03*
X23303D02*
D03*
X23106D02*
D03*
X23894Y45093D02*
D03*
X23697D02*
D03*
X23500D02*
D03*
X23303D02*
D03*
X23106D02*
D03*
D65*
X24508Y43412D02*
D03*
X24823D02*
D03*
X25138D02*
D03*
X25453D02*
D03*
X25770D02*
D03*
X26090D02*
D03*
X26410D02*
D03*
X26730D02*
D03*
Y40032D02*
D03*
X26410D02*
D03*
X26090D02*
D03*
X25770D02*
D03*
X25453D02*
D03*
X25138D02*
D03*
X24823D02*
D03*
X24508D02*
D03*
D66*
X27300Y42832D02*
D03*
Y42512D02*
D03*
Y42202D02*
D03*
Y41882D02*
D03*
Y41565D02*
D03*
Y41250D02*
D03*
Y40935D02*
D03*
Y40612D02*
D03*
X23920Y40620D02*
D03*
Y40935D02*
D03*
Y41250D02*
D03*
Y41565D02*
D03*
Y41882D02*
D03*
Y42202D02*
D03*
Y42512D02*
D03*
Y42832D02*
D03*
D67*
X21553Y37858D02*
D03*
Y38758D02*
D03*
X22503Y37858D02*
D03*
Y38758D02*
D03*
X24403Y37858D02*
D03*
Y38758D02*
D03*
X23453Y37858D02*
D03*
Y38758D02*
D03*
D68*
X57156Y56093D02*
X63307D01*
X56661Y55598D02*
X57156Y56093D01*
X56661Y54724D02*
Y55598D01*
X70052Y54743D02*
Y55593D01*
Y54593D02*
Y54743D01*
X63346Y54764D02*
Y56053D01*
X63307Y56093D02*
X63346Y56053D01*
X63307Y56093D02*
X69552D01*
X70052Y55593D01*
X65702Y47593D02*
Y48443D01*
D69*
X67402Y44409D02*
D03*
X69370Y41102D02*
D03*
X68386D02*
D03*
X67402D02*
D03*
X69370Y44409D02*
D03*
X68386D02*
D03*
D70*
X83858Y38425D02*
D03*
Y33701D02*
D03*
X79055D02*
D03*
Y38425D02*
D03*
X79016Y30906D02*
D03*
Y26181D02*
D03*
X83819D02*
D03*
Y30906D02*
D03*
X83858Y45827D02*
D03*
Y41102D02*
D03*
X79055D02*
D03*
Y45827D02*
D03*
X35173Y37394D02*
D03*
X34173D02*
D03*
X33173D02*
D03*
X32173D02*
D03*
X35173Y40394D02*
D03*
X34173D02*
D03*
X33173D02*
D03*
X32173D02*
D03*
X66513Y27673D02*
D03*
X65513D02*
D03*
X64513D02*
D03*
X63513D02*
D03*
X66513Y30673D02*
D03*
X65513D02*
D03*
X64513D02*
D03*
X63513D02*
D03*
X83819Y23425D02*
D03*
Y18701D02*
D03*
X79016D02*
D03*
Y23425D02*
D03*
X83858Y53268D02*
D03*
Y48543D02*
D03*
X79055D02*
D03*
Y53268D02*
D03*
X13961Y25591D02*
D03*
X21772Y41417D02*
D03*
Y43496D02*
D03*
X83819Y15906D02*
D03*
Y11181D02*
D03*
X79016D02*
D03*
Y15906D02*
D03*
X67839Y33059D02*
D03*
Y32059D02*
D03*
X64839D02*
D03*
X73181Y29724D02*
D03*
X76181D02*
D03*
Y30724D02*
D03*
X73185Y27453D02*
D03*
X76185D02*
D03*
Y28453D02*
D03*
X69012Y32020D02*
D03*
X72012D02*
D03*
Y33020D02*
D03*
X73185Y32020D02*
D03*
X76185D02*
D03*
Y33020D02*
D03*
X60665Y32020D02*
D03*
X63665D02*
D03*
Y33020D02*
D03*
X53599Y27673D02*
D03*
X52599D02*
D03*
X51599D02*
D03*
X50599D02*
D03*
X53599Y30673D02*
D03*
X52599D02*
D03*
X51599D02*
D03*
X50599D02*
D03*
X37402Y51339D02*
D03*
X17981Y23146D02*
D03*
X19425Y34685D02*
D03*
X23450Y22950D02*
D03*
X51496Y43882D02*
D03*
Y39882D02*
D03*
X61209Y39853D02*
D03*
Y43853D02*
D03*
X44400Y53450D02*
D03*
X41906Y53465D02*
D03*
D71*
X78268Y36063D02*
D03*
X78228Y28543D02*
D03*
X78268Y43465D02*
D03*
X78228Y21063D02*
D03*
X78268Y50906D02*
D03*
X78228Y13543D02*
D03*
D72*
X90512Y23071D02*
D03*
Y30583D02*
D03*
Y15551D02*
D03*
X90551Y38071D02*
D03*
Y45472D02*
D03*
Y52913D02*
D03*
X24669Y14567D02*
D03*
X23850Y11650D02*
D03*
X29866Y14567D02*
D03*
X28850Y11650D02*
D03*
X35063Y14567D02*
D03*
X33772Y11654D02*
D03*
X40260Y14567D02*
D03*
X38693Y11654D02*
D03*
X45457Y14567D02*
D03*
X43614Y11654D02*
D03*
X50654Y14567D02*
D03*
X48535Y11575D02*
D03*
X41457Y14567D02*
D03*
X20669D02*
D03*
X25866D02*
D03*
X46654D02*
D03*
X36260D02*
D03*
X31063D02*
D03*
X10400Y32300D02*
D03*
X16300D02*
D03*
D73*
X90512Y21071D02*
D03*
Y28583D02*
D03*
Y13551D02*
D03*
X90551Y36071D02*
D03*
Y43472D02*
D03*
Y50913D02*
D03*
D74*
X91024Y56614D02*
D03*
Y55630D02*
D03*
Y54646D02*
D03*
Y26772D02*
D03*
Y25787D02*
D03*
Y24803D02*
D03*
Y49134D02*
D03*
Y48150D02*
D03*
Y47165D02*
D03*
Y32323D02*
D03*
Y33307D02*
D03*
Y34291D02*
D03*
X91024Y17244D02*
D03*
Y18228D02*
D03*
Y19213D02*
D03*
X91024Y39764D02*
D03*
Y40748D02*
D03*
Y41732D02*
D03*
D75*
X45953Y25197D02*
D03*
Y23976D02*
D03*
Y22756D02*
D03*
X39350Y55750D02*
D03*
X36400Y53450D02*
D03*
X28600Y45650D02*
D03*
D76*
X46953Y25197D02*
D03*
X47953D02*
D03*
X48953D02*
D03*
X46953Y23976D02*
D03*
X47953D02*
D03*
X48953D02*
D03*
X46953Y22756D02*
D03*
X47953D02*
D03*
X48953D02*
D03*
X16559Y28268D02*
D03*
X10709D02*
D03*
X23346Y28150D02*
D03*
X38350Y55750D02*
D03*
X37350D02*
D03*
X36350D02*
D03*
X37400Y53450D02*
D03*
X38400D02*
D03*
X39400D02*
D03*
X29600Y44650D02*
D03*
X28600D02*
D03*
X29600Y45650D02*
D03*
X31850Y30787D02*
D03*
Y29787D02*
D03*
Y28787D02*
D03*
X33150Y30787D02*
D03*
Y29787D02*
D03*
Y28787D02*
D03*
X30550Y30800D02*
D03*
Y29800D02*
D03*
Y28800D02*
D03*
X29250Y30800D02*
D03*
Y29800D02*
D03*
Y28800D02*
D03*
X34450Y30787D02*
D03*
Y29787D02*
D03*
Y28787D02*
D03*
D77*
X88071Y30945D02*
D03*
Y28976D02*
D03*
X88110Y53268D02*
D03*
Y51299D02*
D03*
X88071Y21457D02*
D03*
Y23425D02*
D03*
Y14016D02*
D03*
Y15984D02*
D03*
X88110Y43858D02*
D03*
Y45827D02*
D03*
Y36417D02*
D03*
Y38386D02*
D03*
X20661Y32165D02*
D03*
X19661D02*
D03*
X18661D02*
D03*
X21772Y54291D02*
D03*
X49055Y30197D02*
D03*
X62244Y30157D02*
D03*
X11693Y41142D02*
D03*
X13937Y49291D02*
D03*
X15315Y48150D02*
D03*
X12756Y46496D02*
D03*
X16614Y36969D02*
D03*
X30906Y45079D02*
D03*
X80394Y54724D02*
D03*
X13858Y37756D02*
D03*
X43071Y29094D02*
D03*
X54331Y39961D02*
D03*
X63976D02*
D03*
X37992Y42402D02*
D03*
X37480Y47244D02*
D03*
X24016Y39528D02*
D03*
X18740Y36732D02*
D03*
X21260Y48268D02*
D03*
Y47441D02*
D03*
X42441Y30709D02*
D03*
Y31457D02*
D03*
X42520Y32874D02*
D03*
X41496Y42165D02*
D03*
X35748Y41378D02*
D03*
X21201Y53445D02*
D03*
X30118Y48858D02*
D03*
X28071Y49016D02*
D03*
X27992Y47283D02*
D03*
X24173Y49567D02*
D03*
X22244Y49528D02*
D03*
X21260Y49449D02*
D03*
X22205Y55512D02*
D03*
X25079Y50591D02*
D03*
X26575Y46220D02*
D03*
X13898Y53307D02*
D03*
X19094Y48740D02*
D03*
X22847Y43583D02*
D03*
X22540Y46535D02*
D03*
X10630Y35472D02*
D03*
X13898Y39016D02*
D03*
X42250Y20100D02*
D03*
X28000D02*
D03*
X47000D02*
D03*
X32750D02*
D03*
X23250D02*
D03*
X12795Y41496D02*
D03*
X12874Y35472D02*
D03*
X39370Y51968D02*
D03*
X24488Y46693D02*
D03*
X33543Y48150D02*
D03*
X32717Y48780D02*
D03*
X31614Y48307D02*
D03*
X28900Y53750D02*
D03*
X34134Y53504D02*
D03*
X11850Y51339D02*
D03*
X11850Y48150D02*
D03*
Y49646D02*
D03*
Y50394D02*
D03*
X11260Y38346D02*
D03*
X29567Y54213D02*
D03*
X30827Y54252D02*
D03*
X31654Y54134D02*
D03*
X19094Y53386D02*
D03*
X30000Y55827D02*
D03*
X10984Y53819D02*
D03*
X34843Y50866D02*
D03*
X19075Y50276D02*
D03*
X18071Y51732D02*
D03*
Y52480D02*
D03*
X17717Y48110D02*
D03*
X16772D02*
D03*
X18819Y39409D02*
D03*
X18858Y40748D02*
D03*
X17874Y53307D02*
D03*
X22283Y56457D02*
D03*
X26260Y53661D02*
D03*
X21575Y45866D02*
D03*
X44291Y50433D02*
D03*
X41043Y49213D02*
D03*
X41693Y48740D02*
D03*
X40276Y48307D02*
D03*
X40354Y47520D02*
D03*
X31457Y42087D02*
D03*
X42047Y49882D02*
D03*
X42717Y50344D02*
D03*
X43504Y50433D02*
D03*
X23800Y47500D02*
D03*
X34850Y51600D02*
D03*
X31511Y52700D02*
D03*
X25600Y46250D02*
D03*
X38950Y45250D02*
D03*
X38050Y45300D02*
D03*
X38700Y44350D02*
D03*
X28800Y54700D02*
D03*
X34150Y52550D02*
D03*
X30950Y51150D02*
D03*
X48029Y19983D02*
D03*
X43290Y20000D02*
D03*
X38525Y20009D02*
D03*
X33750Y20000D02*
D03*
X29000D02*
D03*
X24250Y20050D02*
D03*
X37500Y20100D02*
D03*
X34750Y44050D02*
D03*
X23600Y43800D02*
D03*
X24950Y44350D02*
D03*
X23050Y40200D02*
D03*
X25500Y41450D02*
D03*
X23050Y41950D02*
D03*
X23150Y42800D02*
D03*
X27800Y39500D02*
D03*
X23250Y54100D02*
D03*
X25900Y42700D02*
D03*
X22850Y47450D02*
D03*
X24692Y53850D02*
D03*
X24150Y44350D02*
D03*
X27350Y40050D02*
D03*
D78*
X86772Y29627D02*
D03*
Y25627D02*
D03*
X86811Y52029D02*
D03*
Y48029D02*
D03*
X86811Y33186D02*
D03*
Y37186D02*
D03*
X86811Y40627D02*
D03*
Y44627D02*
D03*
X86772Y18186D02*
D03*
Y22186D02*
D03*
Y10785D02*
D03*
Y14785D02*
D03*
X25669Y38583D02*
D03*
X26677D02*
D03*
X27685D02*
D03*
X25661Y37283D02*
D03*
X26669D02*
D03*
X27677D02*
D03*
X68400Y27750D02*
D03*
X69408D02*
D03*
X70416D02*
D03*
X57500Y27775D02*
D03*
X56492D02*
D03*
X55484D02*
D03*
X43216Y55750D02*
D03*
X42208D02*
D03*
X41200D02*
D03*
X29600Y42450D02*
D03*
X28600Y41450D02*
D03*
X29600D02*
D03*
Y40450D02*
D03*
X28600D02*
D03*
D79*
X14961Y25591D02*
D03*
X64839Y33059D02*
D03*
X73181Y30724D02*
D03*
X73185Y28453D02*
D03*
X69012Y33020D02*
D03*
X73185D02*
D03*
X60665D02*
D03*
X36402Y51339D02*
D03*
X18425Y34685D02*
D03*
X43400Y53450D02*
D03*
X40906Y53465D02*
D03*
D80*
X74055Y51358D02*
D03*
Y46358D02*
D03*
X72087Y51358D02*
D03*
Y46358D02*
D03*
X57459Y40103D02*
D03*
Y45103D02*
D03*
X59509Y40103D02*
D03*
Y45103D02*
D03*
D81*
X54803Y30669D02*
D03*
X55787D02*
D03*
X56772D02*
D03*
X69961D02*
D03*
X68976D02*
D03*
X67992D02*
D03*
X36378Y48858D02*
D03*
X35394D02*
D03*
X34409D02*
D03*
X31614Y55551D02*
D03*
X32598D02*
D03*
X33583D02*
D03*
D82*
X60661Y54724D02*
D03*
X58661D02*
D03*
X67346Y54764D02*
D03*
X65346D02*
D03*
X72052Y54743D02*
D03*
X74052D02*
D03*
D83*
X56661Y54724D02*
D03*
X63346Y54764D02*
D03*
X70052Y54743D02*
D03*
D84*
X23819Y16732D02*
D03*
X28795D02*
D03*
X33811D02*
D03*
X38732D02*
D03*
X43654D02*
D03*
X48575D02*
D03*
X22819D02*
D03*
X27795D02*
D03*
X32811D02*
D03*
X37732D02*
D03*
X42654D02*
D03*
X47575D02*
D03*
X57002Y47643D02*
D03*
X56002D02*
D03*
X65702Y47593D02*
D03*
X66702D02*
D03*
D85*
X21819Y16732D02*
D03*
X26795D02*
D03*
X31811D02*
D03*
X36732D02*
D03*
X41654D02*
D03*
X46575D02*
D03*
X55002Y47643D02*
D03*
X64702Y47593D02*
D03*
D86*
X11811Y39252D02*
D03*
Y37520D02*
D03*
D87*
X41260Y38937D02*
D03*
Y34937D02*
D03*
Y35937D02*
D03*
Y36937D02*
D03*
Y37937D02*
D03*
Y31937D02*
D03*
Y32937D02*
D03*
Y33937D02*
D03*
D88*
Y30937D02*
D03*
D89*
X18583Y13740D02*
D03*
Y17677D02*
D03*
X15236Y13740D02*
D03*
Y17677D02*
D03*
D90*
X69386Y41256D02*
D03*
X68386D02*
D03*
X67386D02*
D03*
Y44256D02*
D03*
X68386D02*
D03*
D91*
X69386D02*
D03*
D92*
X17301Y21646D02*
D03*
X18661Y24646D02*
D03*
X21220Y20394D02*
D03*
Y25894D02*
D03*
D93*
X42717Y44016D02*
D03*
D94*
Y46949D02*
D03*
D95*
X23346Y30118D02*
D03*
X31850Y27787D02*
D03*
X33150Y27787D02*
D03*
X30550Y27800D02*
D03*
X29250D02*
D03*
X34450Y27787D02*
D03*
D96*
X14689Y30800D02*
D03*
X14019D02*
D03*
X13350D02*
D03*
X12681D02*
D03*
D97*
X12011D02*
D03*
D98*
X46535Y11575D02*
D03*
X21850Y11650D02*
D03*
X36693Y11654D02*
D03*
X31772D02*
D03*
X26850Y11650D02*
D03*
X41614Y11654D02*
D03*
D99*
X29881Y52520D02*
D03*
X32441D02*
D03*
D100*
X10906Y22126D02*
D03*
D101*
X13841Y20276D02*
D03*
D102*
X12677Y22126D02*
D03*
D103*
X15041D02*
D03*
D104*
X28600Y42450D02*
D03*
D105*
X17717Y38228D02*
D03*
D106*
X88780Y11220D02*
D03*
X86535Y55906D02*
D03*
X11654Y25354D02*
D03*
X59197Y37717D02*
D03*
X62102Y49243D02*
D03*
X59652D02*
D03*
X69352D02*
D03*
X52352D02*
D03*
X75000Y11100D02*
D03*
Y25550D02*
D03*
X64450Y11100D02*
D03*
Y25550D02*
D03*
X51500Y11100D02*
D03*
X62150D02*
D03*
X51500Y25550D02*
D03*
X10748Y55984D02*
D03*
X11654Y11260D02*
D03*
M02*
