G04*
G04 #@! TF.GenerationSoftware,Altium Limited,CircuitMaker,2.2.1 (2.2.1.6)*
G04*
G04 Layer_Physical_Order=4*
G04 Layer_Color=11436288*
%FSLAX24Y24*%
%MOIN*%
G70*
G04*
G04 #@! TF.SameCoordinates,A2895FC5-3AE1-40D1-BB98-85C0BD90A9E4*
G04*
G04*
G04 #@! TF.FilePolarity,Positive*
G04*
G01*
G75*
%ADD10C,0.0100*%
%ADD20C,0.0600*%
%ADD23C,0.0010*%
%ADD24C,0.0001*%
%ADD68C,0.0800*%
%ADD150C,0.0200*%
%ADD153C,0.1000*%
%ADD158C,0.0600*%
G04:AMPARAMS|DCode=159|XSize=80mil|YSize=80mil|CornerRadius=20mil|HoleSize=0mil|Usage=FLASHONLY|Rotation=0.000|XOffset=0mil|YOffset=0mil|HoleType=Round|Shape=RoundedRectangle|*
%AMROUNDEDRECTD159*
21,1,0.0800,0.0400,0,0,0.0*
21,1,0.0400,0.0800,0,0,0.0*
1,1,0.0400,0.0200,-0.0200*
1,1,0.0400,-0.0200,-0.0200*
1,1,0.0400,-0.0200,0.0200*
1,1,0.0400,0.0200,0.0200*
%
%ADD159ROUNDEDRECTD159*%
%ADD160C,0.1000*%
%ADD161R,0.1000X0.1000*%
%ADD162O,0.0800X0.0600*%
%ADD163R,0.0787X0.0787*%
%ADD164C,0.0787*%
%ADD165C,0.0500*%
%ADD166C,0.0591*%
%ADD167R,0.0600X0.0600*%
%ADD168C,0.0700*%
%ADD169O,0.0600X0.0800*%
%ADD170C,0.0866*%
%ADD171R,0.0866X0.0866*%
%ADD172C,0.0669*%
%ADD173R,0.0669X0.0669*%
G04:AMPARAMS|DCode=174|XSize=60mil|YSize=80mil|CornerRadius=15mil|HoleSize=0mil|Usage=FLASHONLY|Rotation=90.000|XOffset=0mil|YOffset=0mil|HoleType=Round|Shape=RoundedRectangle|*
%AMROUNDEDRECTD174*
21,1,0.0600,0.0500,0,0,90.0*
21,1,0.0300,0.0800,0,0,90.0*
1,1,0.0300,0.0250,0.0150*
1,1,0.0300,0.0250,-0.0150*
1,1,0.0300,-0.0250,-0.0150*
1,1,0.0300,-0.0250,0.0150*
%
%ADD174ROUNDEDRECTD174*%
%ADD175R,0.0800X0.0600*%
%ADD176O,0.2362X0.1575*%
%ADD177C,0.0560*%
%ADD178R,0.0560X0.0560*%
%ADD179C,0.0900*%
%ADD180C,0.0394*%
%ADD181C,0.0492*%
%ADD182R,0.0787X0.0787*%
%ADD183O,0.0551X0.0787*%
%ADD184R,0.0551X0.0787*%
%ADD185R,0.1000X0.1000*%
%ADD186C,0.0540*%
%ADD187C,0.0870*%
G04:AMPARAMS|DCode=188|XSize=149.6mil|YSize=60mil|CornerRadius=15mil|HoleSize=0mil|Usage=FLASHONLY|Rotation=180.000|XOffset=0mil|YOffset=0mil|HoleType=Round|Shape=RoundedRectangle|*
%AMROUNDEDRECTD188*
21,1,0.1496,0.0300,0,0,180.0*
21,1,0.1196,0.0600,0,0,180.0*
1,1,0.0300,-0.0598,0.0150*
1,1,0.0300,0.0598,0.0150*
1,1,0.0300,0.0598,-0.0150*
1,1,0.0300,-0.0598,-0.0150*
%
%ADD188ROUNDEDRECTD188*%
G04:AMPARAMS|DCode=189|XSize=149.6mil|YSize=60mil|CornerRadius=15mil|HoleSize=0mil|Usage=FLASHONLY|Rotation=90.000|XOffset=0mil|YOffset=0mil|HoleType=Round|Shape=RoundedRectangle|*
%AMROUNDEDRECTD189*
21,1,0.1496,0.0300,0,0,90.0*
21,1,0.1196,0.0600,0,0,90.0*
1,1,0.0300,0.0150,0.0598*
1,1,0.0300,0.0150,-0.0598*
1,1,0.0300,-0.0150,-0.0598*
1,1,0.0300,-0.0150,0.0598*
%
%ADD189ROUNDEDRECTD189*%
G04:AMPARAMS|DCode=190|XSize=177.2mil|YSize=60mil|CornerRadius=15mil|HoleSize=0mil|Usage=FLASHONLY|Rotation=90.000|XOffset=0mil|YOffset=0mil|HoleType=Round|Shape=RoundedRectangle|*
%AMROUNDEDRECTD190*
21,1,0.1772,0.0300,0,0,90.0*
21,1,0.1472,0.0600,0,0,90.0*
1,1,0.0300,0.0150,0.0736*
1,1,0.0300,0.0150,-0.0736*
1,1,0.0300,-0.0150,-0.0736*
1,1,0.0300,-0.0150,0.0736*
%
%ADD190ROUNDEDRECTD190*%
%ADD191R,0.0591X0.0591*%
%ADD192C,0.0197*%
%ADD193C,0.1968*%
D10*
X21122Y53287D02*
Y53563D01*
X14803Y52480D02*
X18071D01*
X14370Y47716D02*
Y52047D01*
X14803Y52480D01*
X13725Y45882D02*
Y48465D01*
X13937Y48676D01*
Y49291D01*
X12539Y49235D02*
X13586Y48189D01*
X12539Y49235D02*
Y50020D01*
X13586Y45824D02*
Y48189D01*
X11850Y50394D02*
X12165D01*
X12539Y50020D01*
X13446Y45766D02*
Y48050D01*
X11850Y49646D02*
X13446Y48050D01*
X14370Y47716D02*
X15188Y46898D01*
X13725Y45882D02*
X18268Y41340D01*
X15115Y48658D02*
X17831D01*
X14843Y48386D02*
X15115Y48658D01*
X14843Y47441D02*
Y48386D01*
X15315Y47597D02*
Y48150D01*
X13307Y45709D02*
Y47756D01*
X12205Y48858D02*
X13307Y47756D01*
X34450Y28800D02*
X34980D01*
X24250Y25200D02*
X25361Y26311D01*
X43892Y25893D02*
X44631Y26631D01*
X39393Y25893D02*
X43892D01*
X38525Y25025D02*
X39393Y25893D01*
X43835Y26032D02*
X44491Y26689D01*
X34832Y26032D02*
X43835D01*
X33750Y24950D02*
X34832Y26032D01*
X41650Y48550D02*
X41801Y48701D01*
X41650Y48740D02*
Y48800D01*
Y48550D02*
Y48740D01*
X41600Y48750D02*
X41650Y48800D01*
X43777Y26172D02*
X44352Y26747D01*
X30222Y26172D02*
X43777D01*
X29000Y24950D02*
X30222Y26172D01*
X43719Y26311D02*
X44194Y26786D01*
X25361Y26311D02*
X43719D01*
X43290Y20000D02*
Y25093D01*
X44770Y26574D02*
Y48577D01*
X43290Y25093D02*
X44770Y26574D01*
X44631Y26631D02*
Y48519D01*
X44491Y26689D02*
Y48461D01*
X44352Y26747D02*
Y45451D01*
X44194Y26786D02*
Y46326D01*
X28588Y26450D02*
X43661D01*
X44055Y26850D02*
Y30984D01*
X43661Y26450D02*
Y26457D01*
X44055Y26850D01*
X11831Y45965D02*
Y48150D01*
X43583Y31457D02*
X44055Y30984D01*
X42441Y31457D02*
X43583D01*
X28065Y26974D02*
X28588Y26450D01*
X35094Y26590D02*
X35515Y27010D01*
X28646Y26590D02*
X35094D01*
X28204Y27032D02*
X28646Y26590D01*
X35037Y26729D02*
X35376Y27068D01*
X28703Y26729D02*
X35037D01*
X28343Y27089D02*
X28703Y26729D01*
X28065Y26974D02*
Y30990D01*
X28204Y27032D02*
Y31048D01*
X28343Y27089D02*
Y31106D01*
X28761Y26869D02*
X34979D01*
X28483Y27147D02*
X28761Y26869D01*
X28483Y27147D02*
Y31163D01*
X34979Y26869D02*
X35236Y27126D01*
X28622Y27205D02*
Y31221D01*
X28819Y27008D02*
X34921D01*
X28622Y27205D02*
X28819Y27008D01*
X34921D02*
X35079Y27165D01*
X33036Y51886D02*
X33350Y52200D01*
X30800D02*
X31114Y51886D01*
X33036D01*
X33350Y52200D02*
Y53429D01*
X64567Y27087D02*
X69291D01*
X64488Y27649D02*
X64513Y27673D01*
X64488Y27165D02*
Y27649D01*
Y27165D02*
X64567Y27087D01*
X65609Y28168D02*
X68131D01*
X65513Y27673D02*
Y28070D01*
X65512Y28071D02*
X65513Y28070D01*
X65512Y28071D02*
X65609Y28168D01*
X63988Y29004D02*
X69161D01*
X63513Y29497D02*
Y30673D01*
X63504Y29488D02*
X63513Y29497D01*
X63504Y29488D02*
X63988Y29004D01*
X20948Y34128D02*
X24375D01*
X19243Y35833D02*
X20948Y34128D01*
X19243Y35833D02*
Y37401D01*
X21006Y34267D02*
X24433D01*
X19382Y35891D02*
X21006Y34267D01*
X19382Y35891D02*
Y37459D01*
X21064Y34406D02*
X24491D01*
X19521Y35949D02*
X21064Y34406D01*
X19521Y35949D02*
Y37516D01*
X21121Y34546D02*
X24548D01*
X19661Y36006D02*
X21121Y34546D01*
X19661Y36006D02*
Y37574D01*
X21179Y34685D02*
X24606D01*
X19800Y36064D02*
X21179Y34685D01*
X19800Y36064D02*
Y37632D01*
X34444Y27800D02*
X34450D01*
X21237Y34824D02*
X24664D01*
X19939Y36122D02*
X21237Y34824D01*
X19939Y36122D02*
Y46083D01*
X20079Y36180D02*
X21295Y34964D01*
X20079Y36180D02*
Y46141D01*
X21295Y34964D02*
X24722D01*
X34450Y29800D02*
X34643D01*
X21352Y35103D02*
X24779D01*
X20233Y36222D02*
X21352Y35103D01*
X20233Y36222D02*
Y46184D01*
X21410Y35243D02*
X24837D01*
X20372Y36280D02*
X21410Y35243D01*
X20372Y36280D02*
Y46241D01*
X18976Y50276D02*
X19055Y50197D01*
X21468Y35382D02*
X24895D01*
X20512Y36338D02*
X21468Y35382D01*
X20512Y36338D02*
Y46299D01*
X21525Y35521D02*
X24952D01*
X20651Y36396D02*
X21525Y35521D01*
X20651Y36396D02*
Y46357D01*
X20791Y36453D02*
X21583Y35661D01*
X20791Y36453D02*
Y46415D01*
X21583Y35661D02*
X25010D01*
X21641Y35800D02*
X25068D01*
X20945Y36496D02*
X21641Y35800D01*
X20945Y36496D02*
Y47126D01*
X48422Y26808D02*
X70291D01*
X45945Y25205D02*
X45953Y25197D01*
X48953Y26354D02*
X49267Y26669D01*
X45945Y25205D02*
Y26535D01*
X46953Y25197D02*
Y26165D01*
X48953Y25197D02*
Y26354D01*
X45945Y26535D02*
X46496Y27087D01*
X47953Y26339D02*
X48422Y26808D01*
X47953Y25197D02*
Y26339D01*
X46953Y26165D02*
X47735Y26947D01*
X44909Y22098D02*
Y50169D01*
X45433Y21575D02*
X47598D01*
X48029Y19983D02*
Y21139D01*
X44909Y22098D02*
X45433Y21575D01*
X47598D02*
X48032Y21142D01*
X48029Y21139D02*
X48032Y21142D01*
X44979Y54868D02*
X46164Y53683D01*
X32899Y54868D02*
X44979D01*
X32598Y54567D02*
X32899Y54868D01*
X32087Y54567D02*
X32598D01*
X31654Y54134D02*
X32087Y54567D01*
X41150Y53450D02*
Y53850D01*
X35671Y54171D02*
X40829D01*
X35100Y53600D02*
X35671Y54171D01*
X35100Y52738D02*
Y53600D01*
X40829Y54171D02*
X41150Y53850D01*
X22847Y43597D02*
X23155Y43289D01*
X71091Y30736D02*
X73181D01*
X46618Y34134D02*
X72677D01*
X73185Y33020D02*
Y33626D01*
X72677Y34134D02*
X73185Y33626D01*
X64839Y33059D02*
Y33508D01*
X64528Y33819D02*
X64839Y33508D01*
X46518Y33819D02*
X64528D01*
X46460Y33680D02*
X60494D01*
X60665Y33508D01*
Y33020D02*
Y33508D01*
X46557Y33976D02*
X68701D01*
X69012Y33020D02*
X69016Y33024D01*
Y33661D01*
X68701Y33976D02*
X69016Y33661D01*
X45467Y34081D02*
Y52998D01*
X45015Y53450D02*
X45467Y52998D01*
X44400Y53450D02*
X45015D01*
X22400Y46500D02*
X22500Y46600D01*
X22400Y46500D02*
X22761Y46139D01*
X39543Y43558D02*
Y45905D01*
X38400Y47047D02*
X39543Y45905D01*
X38400Y47047D02*
Y53450D01*
X58283Y28725D02*
X70566D01*
X70839Y28453D01*
X73185D01*
X69219Y28865D02*
X71091Y30736D01*
X57081Y33540D02*
X57375Y33246D01*
X57023Y33401D02*
X57317Y33107D01*
X56966Y33261D02*
X57259Y32968D01*
X46287Y33261D02*
X56966D01*
X56908Y33122D02*
X57202Y32828D01*
X46229Y33122D02*
X56908D01*
X56850Y32983D02*
X57144Y32689D01*
X46171Y32983D02*
X56850D01*
X56792Y32843D02*
X57086Y32550D01*
X46114Y32843D02*
X56792D01*
X57375Y33246D02*
X57383D01*
X57317Y33107D02*
X57326D01*
X45467Y34081D02*
X46287Y33261D01*
X57259Y32968D02*
X57268D01*
X45328Y34024D02*
X46229Y33122D01*
X57202Y32828D02*
X57210D01*
X45188Y33966D02*
X46171Y32983D01*
X57144Y32689D02*
X57153D01*
X45049Y33908D02*
X46114Y32843D01*
X57086Y32550D02*
X57095D01*
X57335Y28885D02*
Y32310D01*
X57095Y32550D02*
X57335Y32310D01*
X57474Y28943D02*
Y32368D01*
X57153Y32689D02*
X57474Y32368D01*
X57613Y29001D02*
Y32425D01*
X57210Y32828D02*
X57613Y32425D01*
X57753Y29058D02*
Y32483D01*
X57268Y32968D02*
X57753Y32483D01*
X57892Y29116D02*
Y32541D01*
X57326Y33107D02*
X57892Y32541D01*
X46345Y33401D02*
X57023D01*
X58032Y29174D02*
Y32598D01*
X57383Y33246D02*
X58032Y32598D01*
X46402Y33540D02*
X57081D01*
X45606Y34139D02*
X46345Y33401D01*
X45746Y34197D02*
X46402Y33540D01*
X45049Y33908D02*
Y50463D01*
X45188Y33966D02*
Y50520D01*
X45328Y34024D02*
Y51720D01*
X45606Y34139D02*
Y53444D01*
X45746Y34197D02*
Y53504D01*
X45885Y34255D02*
X46460Y33680D01*
X45885Y34255D02*
Y53562D01*
X46024Y34312D02*
Y53626D01*
Y34312D02*
X46518Y33819D01*
X46164Y34370D02*
Y53683D01*
Y34370D02*
X46557Y33976D01*
X46303Y34449D02*
Y53741D01*
Y34449D02*
X46618Y34134D01*
X69161Y29004D02*
X69961Y29803D01*
Y30669D01*
X57335Y28885D02*
X57500Y28720D01*
X57474Y28943D02*
X58110Y28307D01*
X57613Y29001D02*
X58167Y28446D01*
X57753Y29058D02*
X58225Y28586D01*
X57892Y29116D02*
X58283Y28725D01*
X58032Y29174D02*
X58341Y28865D01*
X30394Y55551D02*
X31614D01*
X29567Y54724D02*
X30394Y55551D01*
X37147Y47577D02*
X37480Y47244D01*
X29309Y47577D02*
X37147D01*
X36220Y48898D02*
X36402Y49079D01*
Y51339D01*
X50599Y29598D02*
Y30673D01*
Y29598D02*
X50906Y29291D01*
X56063D01*
X56772Y30000D01*
Y30669D01*
X52831Y28500D02*
X54759D01*
X52599Y28268D02*
X52831Y28500D01*
X52599Y27673D02*
Y28268D01*
X52065Y28639D02*
X55628D01*
X51599Y27673D02*
X51654Y27728D01*
Y28228D01*
X52065Y28639D01*
X38050Y44862D02*
Y45300D01*
X36617Y43429D02*
X38050Y44862D01*
X23971Y43429D02*
X36617D01*
X23600Y43800D02*
X23971Y43429D01*
X36733Y43150D02*
X37933Y44350D01*
X23500Y43150D02*
X36733D01*
X36675Y43289D02*
X38236Y44850D01*
X23155Y43289D02*
X36675D01*
X33173Y37394D02*
Y38087D01*
X31457Y39803D02*
Y42087D01*
Y39803D02*
X33173Y38087D01*
X36790Y43010D02*
X38995D01*
X36190Y42411D02*
X36790Y43010D01*
X36151Y42411D02*
X36190D01*
X35748Y42008D02*
X36151Y42411D01*
X35748Y41378D02*
Y42008D01*
X33501Y31932D02*
X33780Y31654D01*
X27556Y31932D02*
X33501D01*
X33780Y28465D02*
Y31654D01*
X18268Y39164D02*
Y41340D01*
X17968Y39070D02*
X19521Y37516D01*
X17968Y39070D02*
Y41245D01*
X13737Y45476D02*
X17968Y41245D01*
X17828Y39012D02*
X19382Y37459D01*
X17828Y39012D02*
Y41188D01*
X13680Y45336D02*
X17828Y41188D01*
X17689Y38955D02*
X19243Y37401D01*
X17689Y38955D02*
Y41130D01*
X13622Y45197D02*
X17689Y41130D01*
X13795Y45615D02*
X18128Y41282D01*
Y39106D02*
Y41282D01*
X18407Y41242D02*
X19661Y42495D01*
X18407Y39821D02*
Y41242D01*
Y39821D02*
X18819Y39409D01*
X24375Y34128D02*
X27268Y31235D01*
X27820D01*
X18128Y39106D02*
X19661Y37574D01*
X18268Y39164D02*
X19800Y37632D01*
X27820Y31235D02*
X28065Y30990D01*
X27325Y31374D02*
X27878D01*
X27383Y31514D02*
X27935D01*
X27441Y31653D02*
X27993D01*
X27499Y31793D02*
X28051D01*
X24664Y34824D02*
X27556Y31932D01*
X27614Y32071D02*
X33829D01*
X24722Y34964D02*
X27614Y32071D01*
X27672Y32211D02*
X34482D01*
X24779Y35103D02*
X27672Y32211D01*
X27729Y32350D02*
X39319D01*
X24837Y35243D02*
X27729Y32350D01*
X27787Y32489D02*
X39261D01*
X24895Y35382D02*
X27787Y32489D01*
X27845Y32629D02*
X39204D01*
X24952Y35521D02*
X27845Y32629D01*
X27903Y32768D02*
X39146D01*
X25010Y35661D02*
X27903Y32768D01*
X27960Y32907D02*
X39088D01*
X25068Y35800D02*
X27960Y32907D01*
X27878Y31374D02*
X28204Y31048D01*
X27935Y31514D02*
X28343Y31106D01*
X27993Y31653D02*
X28483Y31163D01*
X28051Y31793D02*
X28622Y31221D01*
X24433Y34267D02*
X27325Y31374D01*
X19661Y42495D02*
Y45968D01*
X24491Y34406D02*
X27383Y31514D01*
X24548Y34546D02*
X27441Y31653D01*
X24606Y34685D02*
X27499Y31793D01*
X18730Y46898D02*
X19661Y45968D01*
X19800Y42123D02*
Y46026D01*
X18788Y47038D02*
X19800Y46026D01*
X18858Y41181D02*
X19800Y42123D01*
X18845Y47177D02*
X19939Y46083D01*
X18903Y47317D02*
X20079Y46141D01*
X18961Y47456D02*
X20233Y46184D01*
X19019Y47595D02*
X20372Y46241D01*
X19094Y47914D02*
X19852Y47156D01*
X20787Y46418D02*
Y47795D01*
Y46418D02*
X20791Y46415D01*
X20570Y46439D02*
X20651Y46357D01*
X19852Y47156D02*
X20570Y46439D01*
X19076Y47735D02*
X20512Y46299D01*
X19094Y47914D02*
Y48740D01*
X20787Y47795D02*
X21260Y48268D01*
X20945Y47126D02*
X21260Y47441D01*
X24915Y41450D02*
X25500D01*
X24016Y40551D02*
X24915Y41450D01*
X24016Y39528D02*
Y40551D01*
X21732Y46693D02*
Y48976D01*
X27362Y45630D02*
X29309Y47577D01*
X22795Y45630D02*
X27362D01*
X21732Y46693D02*
X22795Y45630D01*
X35872Y32211D02*
X39377D01*
X35930Y32071D02*
X39434D01*
X35988Y31932D02*
X39492D01*
X39146Y32768D02*
X39782Y33404D01*
X39204Y32629D02*
X39921Y33346D01*
X39261Y32489D02*
X40061Y33289D01*
X39319Y32350D02*
X40200Y33231D01*
X39377Y32211D02*
X40339Y33173D01*
X39434Y32071D02*
X40479Y33116D01*
X39492Y31932D02*
X40497Y32937D01*
X39088Y32907D02*
X39643Y33462D01*
Y37714D01*
X40591Y38662D01*
Y39291D01*
X40551Y38386D02*
X41732D01*
X40242Y38076D02*
X40551Y38386D01*
X40202Y38076D02*
X40242D01*
X39782Y37656D02*
X40202Y38076D01*
X39782Y33404D02*
Y37656D01*
X21260Y49449D02*
X21732Y48976D01*
X40827Y39528D02*
X41732D01*
X40591Y39291D02*
X40827Y39528D01*
X42094Y48407D02*
X43440D01*
X41801Y48701D02*
X42094Y48407D01*
X44334Y45469D02*
X44352Y45451D01*
X44334Y45469D02*
Y46268D01*
X44352Y46286D01*
Y47495D01*
X43440Y48407D02*
X44352Y47495D01*
X43382Y48268D02*
X44213Y47437D01*
X41282Y48268D02*
X43382D01*
X41055Y48495D02*
X41282Y48268D01*
X44213Y46344D02*
Y47437D01*
X44194Y46326D02*
X44213Y46344D01*
X43504Y49843D02*
X44770Y48577D01*
X43504Y49843D02*
Y50433D01*
X43071Y49882D02*
X44491Y48461D01*
X42933Y50217D02*
X44631Y48519D01*
X44646Y50433D02*
X44909Y50169D01*
X44291Y50433D02*
X44646D01*
X44470Y51042D02*
X45049Y50463D01*
X41475Y51042D02*
X44470D01*
X44528Y51181D02*
X45188Y50520D01*
X41408Y51181D02*
X44528D01*
X44606Y52441D02*
X45328Y51720D01*
X44739Y54311D02*
X45606Y53444D01*
X44800Y54450D02*
X45746Y53504D01*
X44858Y54589D02*
X45885Y53562D01*
X44921Y54729D02*
X46024Y53626D01*
X45037Y55007D02*
X46303Y53741D01*
X42205Y30709D02*
X42441D01*
X41990Y30924D02*
X42205Y30709D01*
X41990Y30924D02*
Y39270D01*
X41732Y39528D02*
X41990Y39270D01*
X41732Y38386D02*
X41850Y38268D01*
Y32008D02*
Y38268D01*
X41780Y31937D02*
X41850Y32008D01*
X41260Y31937D02*
X41780D01*
X38995Y43010D02*
X39543Y43558D01*
X20827Y53858D02*
X21122Y53563D01*
X14055Y53858D02*
X20827D01*
X25630Y49016D02*
X28071D01*
X24488Y50157D02*
X25630Y49016D01*
X24488Y50157D02*
Y50945D01*
X24693Y51150D01*
X30950D01*
X34150Y51985D02*
Y52550D01*
X32756Y50591D02*
X34150Y51985D01*
X25079Y50591D02*
X32756D01*
X27992Y47717D02*
X38386D01*
X25067D02*
X27992D01*
Y47283D02*
Y47717D01*
X13898Y53701D02*
X14055Y53858D01*
X13898Y53307D02*
Y53701D01*
X17093Y47317D02*
X18903D01*
X16772Y47638D02*
X17093Y47317D01*
X16772Y47638D02*
Y48110D01*
X18483Y49113D02*
X18583Y49213D01*
X18483Y48131D02*
Y49113D01*
Y48131D02*
X18816Y47798D01*
X18676Y47740D02*
X18961Y47456D01*
X18676Y47740D02*
Y47740D01*
X19019Y47595D02*
Y47595D01*
X18816Y47798D02*
X19019Y47595D01*
X18816Y47798D02*
Y47798D01*
X18955Y47856D02*
X19076Y47735D01*
X18955Y47856D02*
Y47856D01*
X18622Y49055D02*
X19055Y49488D01*
X18622Y48189D02*
Y49055D01*
Y48189D02*
X18955Y47856D01*
X14843Y47441D02*
X15245Y47038D01*
X15315Y47597D02*
X15735Y47177D01*
X18845D01*
X15245Y47038D02*
X18788D01*
X15188Y46898D02*
X18730D01*
X18307Y48110D02*
X18676Y47740D01*
X22847Y43583D02*
Y43597D01*
X22540Y46535D02*
Y46560D01*
X22500Y46600D02*
X22540Y46560D01*
X11378Y51220D02*
X11496Y51339D01*
X11378Y49134D02*
Y51220D01*
Y49134D02*
X11654Y48858D01*
X11496Y51339D02*
X11850D01*
X11654Y48858D02*
X12205D01*
X22400Y46650D02*
Y47750D01*
X46496Y27087D02*
X56812D01*
X47735Y26947D02*
X70233D01*
X28068Y43939D02*
X29339D01*
X27658Y44350D02*
X28068Y43939D01*
X24950Y44350D02*
X27658D01*
X38650Y44850D02*
X38950Y45150D01*
X38236Y44850D02*
X38650D01*
X38950Y45150D02*
Y45250D01*
X68400Y27750D02*
Y27899D01*
X68131Y28168D02*
X68400Y27899D01*
X70416Y27130D02*
Y27750D01*
X70233Y26947D02*
X70416Y27130D01*
X70924Y27441D02*
Y27974D01*
X70291Y26808D02*
X70924Y27441D01*
X71063Y27383D02*
Y28031D01*
X70348Y26669D02*
X71063Y27383D01*
X49267Y26669D02*
X70348D01*
X69291Y27087D02*
X69408Y27203D01*
X56812Y27087D02*
X57500Y27775D01*
X58110Y28307D02*
X70291D01*
X69408Y27203D02*
Y27750D01*
X70451Y28446D02*
X70924Y27974D01*
X70509Y28586D02*
X71063Y28031D01*
X58167Y28446D02*
X70451D01*
X58225Y28586D02*
X70509D01*
X70416Y27750D02*
Y28183D01*
X70291Y28307D02*
X70416Y28183D01*
X58341Y28865D02*
X69219D01*
X57500Y27775D02*
Y28720D01*
X41339Y52441D02*
X44606D01*
X40906Y52874D02*
X41339Y52441D01*
X40906Y52874D02*
Y53465D01*
X32992Y48307D02*
X33327Y48642D01*
X34842Y50866D02*
X34843Y50866D01*
X33622Y50866D02*
X34842D01*
X33327Y50570D02*
X33622Y50866D01*
X33327Y48642D02*
Y50570D01*
X24945Y47995D02*
X30555D01*
X23800Y46850D02*
X24945Y47995D01*
X24488Y46693D02*
Y47335D01*
X25009Y47856D02*
X33250D01*
X24488Y47335D02*
X25009Y47856D01*
X24040Y48135D02*
X30497D01*
X23800Y47894D02*
X24040Y48135D01*
X23800Y47500D02*
Y47894D01*
X30497Y48135D02*
X35100Y52738D01*
X30555Y47995D02*
X31339Y48780D01*
X33250Y47856D02*
X33543Y48150D01*
X25000Y47650D02*
X25067Y47717D01*
X31614Y48307D02*
X32992D01*
X31339Y48780D02*
X32717D01*
Y50157D02*
X34160Y51600D01*
X32717Y48780D02*
Y50157D01*
X42047Y49882D02*
X43071D01*
X29252Y56693D02*
X34409D01*
X28850Y56291D02*
X29252Y56693D01*
X28850Y54750D02*
Y56291D01*
X30300Y53750D02*
X30800Y53250D01*
Y52200D02*
Y53250D01*
X28900Y53750D02*
X30300D01*
X33350Y53429D02*
X34371Y54450D01*
X44800D01*
X34134Y53504D02*
X34807D01*
X35614Y54311D01*
X44739D01*
X35515Y31459D02*
X35988Y31932D01*
X35515Y27010D02*
Y31459D01*
X35376Y31517D02*
X35930Y32071D01*
X35376Y27068D02*
Y31517D01*
X35236Y31575D02*
X35872Y32211D01*
X35236Y27126D02*
Y31575D01*
X29701Y52520D02*
X29901Y52720D01*
X37933Y44350D02*
X38700D01*
X13307Y45709D02*
X13680Y45336D01*
X13680D01*
X40497Y32937D02*
X41260D01*
X34980Y28800D02*
X35079Y28701D01*
Y27165D02*
Y28701D01*
Y30236D02*
Y31614D01*
X34643Y29800D02*
X35079Y30236D01*
X33780Y28465D02*
X34444Y27800D01*
X41220Y33898D02*
X41260Y33937D01*
X40630Y33898D02*
X41220D01*
X40479Y33746D02*
X40630Y33898D01*
X40479Y33116D02*
Y33746D01*
X40488Y34937D02*
X41260D01*
X40339Y34788D02*
X40488Y34937D01*
X40339Y33173D02*
Y34788D01*
X40310Y35937D02*
X41260D01*
X40200Y35827D02*
X40310Y35937D01*
X40200Y33231D02*
Y35827D01*
X40283Y36937D02*
X41260D01*
X40061Y36714D02*
X40283Y36937D01*
X40061Y33289D02*
Y36714D01*
X39921Y33346D02*
Y37598D01*
X40260Y37937D02*
X41260D01*
X39921Y37598D02*
X40260Y37937D01*
X29339Y43939D02*
X29600Y44200D01*
X34482Y32211D02*
X35079Y31614D01*
X34160Y51600D02*
X34850D01*
X29567Y54213D02*
Y54724D01*
X34409Y56693D02*
X36095Y55007D01*
X30661Y52142D02*
Y53192D01*
X30453Y53400D02*
X30661Y53192D01*
X30827Y53701D02*
Y54252D01*
X31102Y53425D02*
X31653D01*
X30827Y53701D02*
X31102Y53425D01*
X31653D02*
X32957Y54729D01*
X31511Y53086D02*
X33015Y54589D01*
X32957Y54729D02*
X44921D01*
X33015Y54589D02*
X44858D01*
X31511Y52700D02*
Y53086D01*
X36095Y55007D02*
X45037D01*
X29881Y52520D02*
X29901D01*
X29781D02*
X29881D01*
X19055Y49488D02*
Y50197D01*
X18740Y53386D02*
X19094D01*
X18583Y53228D02*
X18740Y53386D01*
X18583Y49213D02*
Y53228D01*
X40533Y48845D02*
X40827Y48551D01*
Y47992D02*
Y48551D01*
X40354Y47520D02*
X40827Y47992D01*
X29400Y53400D02*
X30453D01*
X30079Y55866D02*
X30084D01*
X30100Y55850D01*
X31457Y42087D02*
Y42441D01*
X30898Y43000D02*
X31457Y42441D01*
X26900Y43000D02*
X30898D01*
X13795Y45615D02*
X13795D01*
X13586Y45824D02*
X13795Y45615D01*
X13737Y45476D02*
X13737D01*
X13446Y45766D02*
X13737Y45476D01*
X12598Y45197D02*
X13622D01*
X18071Y51732D02*
X18443Y51360D01*
Y49271D02*
Y51360D01*
X17831Y48658D02*
X18443Y49271D01*
X18976Y50276D02*
X19075D01*
X17717Y48110D02*
X18307D01*
X18858Y40748D02*
Y41181D01*
X11831Y45965D02*
X12598Y45197D01*
X33829Y32071D02*
X34450Y31450D01*
X25603Y52939D02*
X28939D01*
X29400Y53400D01*
X41650Y48740D02*
X41693D01*
X41610D02*
X41650D01*
X40533Y50100D02*
X41475Y51042D01*
X40276Y50049D02*
X41408Y51181D01*
X41055Y48495D02*
Y49201D01*
X41043Y49213D02*
X41055Y49201D01*
X41600Y48750D02*
X41610Y48740D01*
X40276Y48307D02*
Y50049D01*
X40533Y48845D02*
Y50100D01*
X22400Y47750D02*
X23061Y48411D01*
X22761Y46139D02*
X24739D01*
X35500Y52250D02*
X36700D01*
X34850Y51600D02*
X35500Y52250D01*
X34450Y30800D02*
Y31450D01*
X30950Y51150D02*
Y51853D01*
X30661Y52142D02*
X30950Y51853D01*
X25000Y46400D02*
Y47650D01*
X24739Y46139D02*
X25000Y46400D01*
X22850Y46950D02*
Y47450D01*
Y46950D02*
X22950Y46850D01*
X23800D01*
X28800Y54700D02*
X28850Y54750D01*
X24250Y20050D02*
Y25200D01*
X29000Y20000D02*
Y24950D01*
X33750Y20000D02*
Y24950D01*
X38525Y20009D02*
Y25025D01*
X24692Y53850D02*
X25603Y52939D01*
X36700Y52250D02*
X37400Y52950D01*
Y53450D01*
X23150Y42800D02*
X23500Y43150D01*
X26600Y42700D02*
X26900Y43000D01*
X23061Y53161D02*
X23250Y53350D01*
X23061Y48411D02*
Y53161D01*
X55628Y28639D02*
X56492Y27775D01*
X54759Y28500D02*
X55484Y27775D01*
X27800Y39500D02*
X28300D01*
X28600Y39800D01*
Y40450D01*
X29600Y44200D02*
Y44650D01*
X23250Y53350D02*
Y54100D01*
X25900Y42700D02*
X26600D01*
X28500Y44750D02*
X28600Y44650D01*
X24450Y44750D02*
X28500D01*
X24150Y44450D02*
X24450Y44750D01*
X28000Y42450D02*
X28600D01*
X27900Y42350D02*
X28000Y42450D01*
X27900Y40600D02*
Y42350D01*
X27350Y40050D02*
X27900Y40600D01*
X73255Y46108D02*
Y51608D01*
Y46108D02*
X74855D01*
Y51608D01*
X73255D02*
X74855D01*
X71287Y46108D02*
Y51608D01*
Y46108D02*
X72887D01*
Y51608D01*
X71287D02*
X72887D01*
X58259Y39853D02*
Y45353D01*
X56659D02*
X58259D01*
X56659Y39853D02*
Y45353D01*
Y39853D02*
X58259D01*
X60309D02*
Y45353D01*
X58709D02*
X60309D01*
X58709Y39853D02*
Y45353D01*
Y39853D02*
X60309D01*
X87677Y32244D02*
X87874Y32441D01*
Y33228D01*
X87480Y32638D02*
Y33228D01*
X85906Y32244D02*
X87677D01*
X86102Y32638D02*
X87480D01*
X86102Y47480D02*
Y48071D01*
X87677Y47087D02*
X87874Y47283D01*
Y48071D01*
X87480Y47480D02*
Y48071D01*
X85709Y47283D02*
Y48071D01*
Y47283D02*
X85906Y47087D01*
X86102Y47480D02*
X87480D01*
X85906Y47087D02*
X87677D01*
X85709Y48071D02*
X86102D01*
X87480D02*
X87874D01*
X86142Y40079D02*
Y40669D01*
X87717Y39685D02*
X87913Y39882D01*
Y40669D01*
X87520Y40079D02*
Y40669D01*
X85748Y39882D02*
Y40669D01*
Y39882D02*
X85945Y39685D01*
X86142Y40079D02*
X87520D01*
X85945Y39685D02*
X87717D01*
X85748Y40669D02*
X86142D01*
X87520D02*
X87913D01*
X86102Y32638D02*
Y33228D01*
X85709Y32441D02*
Y33228D01*
Y32441D02*
X85906Y32244D01*
X85709Y33228D02*
X86102D01*
X87480D02*
X87874D01*
X86063Y17638D02*
Y18228D01*
X87638Y17244D02*
X87835Y17441D01*
Y18228D01*
X87441Y17638D02*
Y18228D01*
X85669Y17441D02*
Y18228D01*
Y17441D02*
X85866Y17244D01*
X86063Y17638D02*
X87441D01*
X85866Y17244D02*
X87638D01*
X85669Y18228D02*
X86063D01*
X87441D02*
X87835D01*
X87795Y25787D02*
X87795Y25787D01*
X87402Y25787D02*
X87795D01*
X86024Y25197D02*
Y25787D01*
X87598Y24803D02*
X87795Y25000D01*
Y25787D01*
X87402Y25197D02*
Y25787D01*
X85630D02*
X86024D01*
X85630Y25000D02*
Y25787D01*
Y25000D02*
X85827Y24803D01*
X86024Y25197D02*
X87402D01*
X85827Y24803D02*
X87598D01*
D20*
X64652Y47643D02*
X64702Y47593D01*
D23*
X92087Y10006D02*
Y57250D01*
X42047Y10000D02*
X92087D01*
X9500Y57250D02*
X92087D01*
X9500Y10000D02*
Y57250D01*
Y10000D02*
Y57250D01*
Y10000D02*
X42900D01*
X77559Y52047D02*
X78937D01*
X77126Y51614D02*
X77559Y52047D01*
X77126Y50236D02*
Y51614D01*
Y50236D02*
X77559Y49803D01*
X78937D01*
Y50157D01*
X77795D02*
X78937D01*
X77559Y50394D02*
X77795Y50157D01*
X77559Y50394D02*
Y51417D01*
X77795Y51654D01*
X78937D01*
Y52047D01*
X77559Y44606D02*
X78937D01*
X77126Y44173D02*
X77559Y44606D01*
X77126Y42795D02*
Y44173D01*
Y42795D02*
X77559Y42362D01*
X78937D01*
Y42717D01*
X77795D02*
X78937D01*
X77559Y42953D02*
X77795Y42717D01*
X77559Y42953D02*
Y43976D01*
X77795Y44213D01*
X78937D01*
Y44606D01*
X77559Y37165D02*
X78937D01*
X77126Y36732D02*
X77559Y37165D01*
X77126Y35354D02*
Y36732D01*
Y35354D02*
X77559Y34921D01*
X78937D01*
Y35276D01*
X77795D02*
X78937D01*
X77559Y35512D02*
X77795Y35276D01*
X77559Y35512D02*
Y36535D01*
X77795Y36772D01*
X78937D01*
Y37165D01*
X77559Y29646D02*
X78937D01*
X77126Y29213D02*
X77559Y29646D01*
X77126Y27835D02*
Y29213D01*
Y27835D02*
X77559Y27402D01*
X78937D01*
Y27756D01*
X77795D02*
X78937D01*
X77559Y27992D02*
X77795Y27756D01*
X77559Y27992D02*
Y29016D01*
X77795Y29252D01*
X78937D01*
Y29646D01*
X77520Y14646D02*
X78898D01*
X77087Y14213D02*
X77520Y14646D01*
X77087Y12835D02*
Y14213D01*
Y12835D02*
X77520Y12402D01*
X78898D01*
Y12756D01*
X77756D02*
X78898D01*
X77520Y12992D02*
X77756Y12756D01*
X77520Y12992D02*
Y14016D01*
X77756Y14252D01*
X78898D01*
Y14646D01*
Y21772D02*
Y22165D01*
X77756Y21772D02*
X78898D01*
X77520Y21535D02*
X77756Y21772D01*
X77520Y20512D02*
Y21535D01*
Y20512D02*
X77756Y20276D01*
X78898D01*
Y19921D02*
Y20276D01*
X77520Y19921D02*
X78898D01*
X77087Y20354D02*
X77520Y19921D01*
X77087Y20354D02*
Y21732D01*
X77520Y22165D01*
X78898D01*
D24*
X92126Y16246D02*
Y16654D01*
X90412Y27723D02*
X92126D01*
X89062Y27316D02*
X92126D01*
Y27723D01*
X90448Y31746D02*
X92126D01*
X89098Y31339D02*
X92126D01*
Y31654D02*
Y31755D01*
Y31348D02*
Y31450D01*
Y35118D02*
Y35220D01*
Y34813D02*
Y34914D01*
Y39094D02*
Y39196D01*
Y38789D02*
Y38891D01*
Y39094D01*
Y42198D02*
Y42605D01*
X89062Y42198D02*
X92126D01*
X89098Y49646D02*
Y50053D01*
X92126Y49646D02*
Y50053D01*
X90448D02*
X92126D01*
X89098D02*
X90448D01*
X89098Y49646D02*
X92126D01*
X90448Y46589D02*
X92126D01*
X89098Y46181D02*
X92126D01*
Y46589D01*
Y19813D02*
Y19914D01*
Y20118D02*
Y20220D01*
Y19914D02*
Y20118D01*
X90412Y20204D02*
X92126D01*
X89055Y19796D02*
X92126D01*
X89062Y16246D02*
Y16654D01*
X90412D01*
X89062Y16246D02*
X92126D01*
X90412Y16654D02*
X92126D01*
X89055Y19796D02*
Y20204D01*
X90412D01*
X89062Y23773D02*
Y24180D01*
X92126Y23773D02*
Y24180D01*
X89062D02*
X90412D01*
X89062Y23773D02*
X92126D01*
X90412Y24180D02*
X92126D01*
X89062Y27316D02*
Y27723D01*
X90412D01*
X89098Y31339D02*
Y31746D01*
X92126Y31450D02*
Y31654D01*
X89098Y31746D02*
X90448D01*
X89062Y34796D02*
Y35204D01*
X92126Y34914D02*
Y35118D01*
X89062Y35204D02*
X90412D01*
X89062Y34796D02*
X92126D01*
X90412Y35204D02*
X92126D01*
X89102Y38773D02*
Y39180D01*
X90452D01*
X89102Y38773D02*
X92126D01*
X90452Y39180D02*
X92126D01*
X89062Y42198D02*
Y42605D01*
X90412D01*
X92126D01*
X89098Y46181D02*
Y46589D01*
X90448D01*
X89055Y53536D02*
Y53944D01*
X92126Y53536D02*
Y53944D01*
X89055D02*
X90405D01*
X89055Y53536D02*
X92126D01*
X90405Y53944D02*
X92126D01*
X72102Y42927D02*
X74052D01*
X70752Y42520D02*
X74052D01*
X70752Y42927D02*
X72102D01*
X74052Y42520D02*
Y42927D01*
X70752Y42520D02*
Y42927D01*
X52420Y43032D02*
Y43429D01*
Y43032D02*
X54370D01*
X56320D01*
Y43429D01*
X52420D02*
X56320D01*
X62144Y43072D02*
Y43465D01*
Y43072D02*
X66044D01*
Y43465D01*
X64094D02*
X66044D01*
X62144D02*
X64094D01*
X9500Y10000D02*
Y57250D01*
D68*
X56457Y53346D02*
X66811D01*
X55002Y51891D02*
X56457Y53346D01*
X55002Y47643D02*
Y51891D01*
X74052Y53225D02*
Y54743D01*
X73150Y52323D02*
X74052Y53225D01*
X65332Y52323D02*
X73150D01*
X66811Y53346D02*
X67346Y53882D01*
X65354Y56193D02*
X71302D01*
X65346Y56185D02*
X65354Y56193D01*
X71302D02*
X72052Y55443D01*
X67346Y53882D02*
Y54764D01*
X58661Y55512D02*
X59342Y56193D01*
X65346Y54764D02*
Y56185D01*
X58661Y54724D02*
Y55512D01*
X59342Y56193D02*
X65354D01*
X72052Y54743D02*
Y55443D01*
X64652Y51643D02*
X65332Y52323D01*
X64652Y47643D02*
Y51643D01*
D150*
X39370Y51968D02*
Y53420D01*
X39400Y53450D01*
D153*
X83504Y27992D02*
X86732D01*
Y25745D02*
Y27992D01*
X86811Y33186D02*
X86811Y33186D01*
X86811Y33186D02*
Y35394D01*
X83740D02*
X86811D01*
X89159Y21071D02*
X90512D01*
X88522Y20433D02*
X89159Y21071D01*
X86772Y20433D02*
X88522D01*
X89152Y28583D02*
X90512D01*
X88561Y27992D02*
X89152Y28583D01*
X86811Y27992D02*
X88561D01*
X89159Y36071D02*
X90551D01*
X88516Y35427D02*
X89159Y36071D01*
X88516Y35406D02*
Y35427D01*
X88504Y35394D02*
X88516Y35406D01*
X86811Y35394D02*
X88504D01*
X78189Y43425D02*
X83228D01*
X89142Y43472D02*
X90551D01*
X88504Y42835D02*
X89142Y43472D01*
X86890Y42835D02*
X88504D01*
X89181Y50913D02*
X90551D01*
X88583Y50315D02*
X89181Y50913D01*
X86811Y50315D02*
X88583D01*
X82992Y21063D02*
X83622Y20433D01*
X78228Y21063D02*
X82992D01*
X86772Y18186D02*
Y20433D01*
X83622D02*
X86772D01*
X88378Y30906D02*
X88701Y30583D01*
X82953Y28543D02*
X83504Y27992D01*
X83819Y30906D02*
X88378D01*
X88701Y30583D02*
X90512D01*
X78228Y28543D02*
X82953D01*
X88386Y53268D02*
X88740Y52913D01*
X90551D01*
X83898Y50315D02*
X86811D01*
Y48029D02*
Y50315D01*
X83858Y53268D02*
X88386D01*
X83307Y50906D02*
X83898Y50315D01*
X78268Y50906D02*
X83307D01*
X83819Y42835D02*
X86811D01*
Y40627D02*
Y42835D01*
X83858Y45827D02*
X88386D01*
X88740Y45472D01*
X90551D01*
X83858Y38425D02*
X88386D01*
X88740Y38071D02*
X90551D01*
X88386Y38425D02*
X88740Y38071D01*
X83228Y43425D02*
X83819Y42835D01*
X83071Y36063D02*
X83740Y35394D01*
X78268Y36063D02*
X83071D01*
X86732Y12913D02*
X86772Y12874D01*
Y10785D02*
Y12874D01*
X86732Y12913D02*
X89874D01*
X83543D02*
X86732D01*
X88071Y23425D02*
X88346D01*
X83819D02*
X88071D01*
X88346D02*
X88701Y23071D01*
X90512D01*
X89874Y12913D02*
X90512Y13551D01*
X82913Y13543D02*
X83543Y12913D01*
X78228Y13543D02*
X82913D01*
X87835Y15906D02*
X88346D01*
X88701Y15551D02*
X90512D01*
X88346Y15906D02*
X88701Y15551D01*
X83819Y15906D02*
X87835D01*
D158*
X83858Y38425D02*
D03*
Y33701D02*
D03*
X79055D02*
D03*
Y38425D02*
D03*
X79016Y30906D02*
D03*
Y26181D02*
D03*
X83819D02*
D03*
Y30906D02*
D03*
X83858Y45827D02*
D03*
Y41102D02*
D03*
X79055D02*
D03*
Y45827D02*
D03*
X35173Y37394D02*
D03*
X34173D02*
D03*
X33173D02*
D03*
X32173D02*
D03*
X35173Y40394D02*
D03*
X34173D02*
D03*
X33173D02*
D03*
X32173D02*
D03*
X66513Y27673D02*
D03*
X65513D02*
D03*
X64513D02*
D03*
X63513D02*
D03*
X66513Y30673D02*
D03*
X65513D02*
D03*
X64513D02*
D03*
X63513D02*
D03*
X83819Y23425D02*
D03*
Y18701D02*
D03*
X79016D02*
D03*
Y23425D02*
D03*
X83858Y53268D02*
D03*
Y48543D02*
D03*
X79055D02*
D03*
Y53268D02*
D03*
X13961Y25591D02*
D03*
X21772Y41417D02*
D03*
Y43496D02*
D03*
X83819Y15906D02*
D03*
Y11181D02*
D03*
X79016D02*
D03*
Y15906D02*
D03*
X67839Y33059D02*
D03*
Y32059D02*
D03*
X64839D02*
D03*
X73181Y29724D02*
D03*
X76181D02*
D03*
Y30724D02*
D03*
X73185Y27453D02*
D03*
X76185D02*
D03*
Y28453D02*
D03*
X69012Y32020D02*
D03*
X72012D02*
D03*
Y33020D02*
D03*
X73185Y32020D02*
D03*
X76185D02*
D03*
Y33020D02*
D03*
X60665Y32020D02*
D03*
X63665D02*
D03*
Y33020D02*
D03*
X53599Y27673D02*
D03*
X52599D02*
D03*
X51599D02*
D03*
X50599D02*
D03*
X53599Y30673D02*
D03*
X52599D02*
D03*
X51599D02*
D03*
X50599D02*
D03*
X37402Y51339D02*
D03*
X17981Y23146D02*
D03*
X19425Y34685D02*
D03*
X23450Y22950D02*
D03*
X51496Y43882D02*
D03*
Y39882D02*
D03*
X61209Y39853D02*
D03*
Y43853D02*
D03*
X44400Y53450D02*
D03*
X41906Y53465D02*
D03*
D159*
X78268Y36063D02*
D03*
X78228Y28543D02*
D03*
X78268Y43465D02*
D03*
X78228Y21063D02*
D03*
X78268Y50906D02*
D03*
X78228Y13543D02*
D03*
D160*
X90512Y23071D02*
D03*
Y30583D02*
D03*
Y15551D02*
D03*
X90551Y38071D02*
D03*
Y45472D02*
D03*
Y52913D02*
D03*
X24669Y14567D02*
D03*
X23850Y11650D02*
D03*
X29866Y14567D02*
D03*
X28850Y11650D02*
D03*
X35063Y14567D02*
D03*
X33772Y11654D02*
D03*
X40260Y14567D02*
D03*
X38693Y11654D02*
D03*
X45457Y14567D02*
D03*
X43614Y11654D02*
D03*
X50654Y14567D02*
D03*
X48535Y11575D02*
D03*
X41457Y14567D02*
D03*
X20669D02*
D03*
X25866D02*
D03*
X46654D02*
D03*
X36260D02*
D03*
X31063D02*
D03*
X10400Y32300D02*
D03*
X16300D02*
D03*
D161*
X90512Y21071D02*
D03*
Y28583D02*
D03*
Y13551D02*
D03*
X90551Y36071D02*
D03*
Y43472D02*
D03*
Y50913D02*
D03*
D162*
X91024Y56614D02*
D03*
Y55630D02*
D03*
Y54646D02*
D03*
Y26772D02*
D03*
Y25787D02*
D03*
Y24803D02*
D03*
Y49134D02*
D03*
Y48150D02*
D03*
Y47165D02*
D03*
Y32323D02*
D03*
Y33307D02*
D03*
Y34291D02*
D03*
X91024Y17244D02*
D03*
Y18228D02*
D03*
Y19213D02*
D03*
X91024Y39764D02*
D03*
Y40748D02*
D03*
Y41732D02*
D03*
D163*
X45953Y25197D02*
D03*
Y23976D02*
D03*
Y22756D02*
D03*
X39350Y55750D02*
D03*
X36400Y53450D02*
D03*
X28600Y45650D02*
D03*
D164*
X46953Y25197D02*
D03*
X47953D02*
D03*
X48953D02*
D03*
X46953Y23976D02*
D03*
X47953D02*
D03*
X48953D02*
D03*
X46953Y22756D02*
D03*
X47953D02*
D03*
X48953D02*
D03*
X16559Y28268D02*
D03*
X10709D02*
D03*
X23346Y28150D02*
D03*
X38350Y55750D02*
D03*
X37350D02*
D03*
X36350D02*
D03*
X37400Y53450D02*
D03*
X38400D02*
D03*
X39400D02*
D03*
X29600Y44650D02*
D03*
X28600D02*
D03*
X29600Y45650D02*
D03*
X31850Y30787D02*
D03*
Y29787D02*
D03*
Y28787D02*
D03*
X33150Y30787D02*
D03*
Y29787D02*
D03*
Y28787D02*
D03*
X30550Y30800D02*
D03*
Y29800D02*
D03*
Y28800D02*
D03*
X29250Y30800D02*
D03*
Y29800D02*
D03*
Y28800D02*
D03*
X34450Y30787D02*
D03*
Y29787D02*
D03*
Y28787D02*
D03*
D165*
X88071Y30945D02*
D03*
Y28976D02*
D03*
X88110Y53268D02*
D03*
Y51299D02*
D03*
X88071Y21457D02*
D03*
Y23425D02*
D03*
Y14016D02*
D03*
Y15984D02*
D03*
X88110Y43858D02*
D03*
Y45827D02*
D03*
Y36417D02*
D03*
Y38386D02*
D03*
X20661Y32165D02*
D03*
X19661D02*
D03*
X18661D02*
D03*
X21772Y54291D02*
D03*
X49055Y30197D02*
D03*
X62244Y30157D02*
D03*
X11693Y41142D02*
D03*
X13937Y49291D02*
D03*
X15315Y48150D02*
D03*
X12756Y46496D02*
D03*
X16614Y36969D02*
D03*
X30906Y45079D02*
D03*
X80394Y54724D02*
D03*
X13858Y37756D02*
D03*
X43071Y29094D02*
D03*
X54331Y39961D02*
D03*
X63976D02*
D03*
X37992Y42402D02*
D03*
X37480Y47244D02*
D03*
X24016Y39528D02*
D03*
X18740Y36732D02*
D03*
X21260Y48268D02*
D03*
Y47441D02*
D03*
X42441Y30709D02*
D03*
Y31457D02*
D03*
X42520Y32874D02*
D03*
X41496Y42165D02*
D03*
X35748Y41378D02*
D03*
X21201Y53445D02*
D03*
X30118Y48858D02*
D03*
X28071Y49016D02*
D03*
X27992Y47283D02*
D03*
X24173Y49567D02*
D03*
X22244Y49528D02*
D03*
X21260Y49449D02*
D03*
X22205Y55512D02*
D03*
X25079Y50591D02*
D03*
X26575Y46220D02*
D03*
X13898Y53307D02*
D03*
X19094Y48740D02*
D03*
X22847Y43583D02*
D03*
X22540Y46535D02*
D03*
X10630Y35472D02*
D03*
X13898Y39016D02*
D03*
X42250Y20100D02*
D03*
X28000D02*
D03*
X47000D02*
D03*
X32750D02*
D03*
X23250D02*
D03*
X12795Y41496D02*
D03*
X12874Y35472D02*
D03*
X39370Y51968D02*
D03*
X24488Y46693D02*
D03*
X33543Y48150D02*
D03*
X32717Y48780D02*
D03*
X31614Y48307D02*
D03*
X28900Y53750D02*
D03*
X34134Y53504D02*
D03*
X11850Y51339D02*
D03*
X11850Y48150D02*
D03*
Y49646D02*
D03*
Y50394D02*
D03*
X11260Y38346D02*
D03*
X29567Y54213D02*
D03*
X30827Y54252D02*
D03*
X31654Y54134D02*
D03*
X19094Y53386D02*
D03*
X30000Y55827D02*
D03*
X10984Y53819D02*
D03*
X34843Y50866D02*
D03*
X19075Y50276D02*
D03*
X18071Y51732D02*
D03*
Y52480D02*
D03*
X17717Y48110D02*
D03*
X16772D02*
D03*
X18819Y39409D02*
D03*
X18858Y40748D02*
D03*
X17874Y53307D02*
D03*
X22283Y56457D02*
D03*
X26260Y53661D02*
D03*
X21575Y45866D02*
D03*
X44291Y50433D02*
D03*
X41043Y49213D02*
D03*
X41693Y48740D02*
D03*
X40276Y48307D02*
D03*
X40354Y47520D02*
D03*
X31457Y42087D02*
D03*
X42047Y49882D02*
D03*
X42717Y50344D02*
D03*
X43504Y50433D02*
D03*
X23800Y47500D02*
D03*
X34850Y51600D02*
D03*
X31511Y52700D02*
D03*
X25600Y46250D02*
D03*
X38950Y45250D02*
D03*
X38050Y45300D02*
D03*
X38700Y44350D02*
D03*
X28800Y54700D02*
D03*
X34150Y52550D02*
D03*
X30950Y51150D02*
D03*
X48029Y19983D02*
D03*
X43290Y20000D02*
D03*
X38525Y20009D02*
D03*
X33750Y20000D02*
D03*
X29000D02*
D03*
X24250Y20050D02*
D03*
X37500Y20100D02*
D03*
X34750Y44050D02*
D03*
X23600Y43800D02*
D03*
X24950Y44350D02*
D03*
X23050Y40200D02*
D03*
X25500Y41450D02*
D03*
X23050Y41950D02*
D03*
X23150Y42800D02*
D03*
X27800Y39500D02*
D03*
X23250Y54100D02*
D03*
X25900Y42700D02*
D03*
X22850Y47450D02*
D03*
X24692Y53850D02*
D03*
X24150Y44350D02*
D03*
X27350Y40050D02*
D03*
D166*
X86772Y29627D02*
D03*
Y25627D02*
D03*
X86811Y52029D02*
D03*
Y48029D02*
D03*
X86811Y33186D02*
D03*
Y37186D02*
D03*
X86811Y40627D02*
D03*
Y44627D02*
D03*
X86772Y18186D02*
D03*
Y22186D02*
D03*
Y10785D02*
D03*
Y14785D02*
D03*
X25669Y38583D02*
D03*
X26677D02*
D03*
X27685D02*
D03*
X25661Y37283D02*
D03*
X26669D02*
D03*
X27677D02*
D03*
X68400Y27750D02*
D03*
X69408D02*
D03*
X70416D02*
D03*
X57500Y27775D02*
D03*
X56492D02*
D03*
X55484D02*
D03*
X43216Y55750D02*
D03*
X42208D02*
D03*
X41200D02*
D03*
X29600Y42450D02*
D03*
X28600Y41450D02*
D03*
X29600D02*
D03*
Y40450D02*
D03*
X28600D02*
D03*
D167*
X14961Y25591D02*
D03*
X64839Y33059D02*
D03*
X73181Y30724D02*
D03*
X73185Y28453D02*
D03*
X69012Y33020D02*
D03*
X73185D02*
D03*
X60665D02*
D03*
X36402Y51339D02*
D03*
X18425Y34685D02*
D03*
X43400Y53450D02*
D03*
X40906Y53465D02*
D03*
D168*
X74055Y51358D02*
D03*
Y46358D02*
D03*
X72087Y51358D02*
D03*
Y46358D02*
D03*
X57459Y40103D02*
D03*
Y45103D02*
D03*
X59509Y40103D02*
D03*
Y45103D02*
D03*
D169*
X54803Y30669D02*
D03*
X55787D02*
D03*
X56772D02*
D03*
X69961D02*
D03*
X68976D02*
D03*
X67992D02*
D03*
X36378Y48858D02*
D03*
X35394D02*
D03*
X34409D02*
D03*
X31614Y55551D02*
D03*
X32598D02*
D03*
X33583D02*
D03*
D170*
X60661Y54724D02*
D03*
X58661D02*
D03*
X67346Y54764D02*
D03*
X65346D02*
D03*
X72052Y54743D02*
D03*
X74052D02*
D03*
D171*
X56661Y54724D02*
D03*
X63346Y54764D02*
D03*
X70052Y54743D02*
D03*
D172*
X23819Y16732D02*
D03*
X28795D02*
D03*
X33811D02*
D03*
X38732D02*
D03*
X43654D02*
D03*
X48575D02*
D03*
X22819D02*
D03*
X27795D02*
D03*
X32811D02*
D03*
X37732D02*
D03*
X42654D02*
D03*
X47575D02*
D03*
X57002Y47643D02*
D03*
X56002D02*
D03*
X65702Y47593D02*
D03*
X66702D02*
D03*
D173*
X21819Y16732D02*
D03*
X26795D02*
D03*
X31811D02*
D03*
X36732D02*
D03*
X41654D02*
D03*
X46575D02*
D03*
X55002Y47643D02*
D03*
X64702Y47593D02*
D03*
D174*
X41260Y38937D02*
D03*
Y34937D02*
D03*
Y35937D02*
D03*
Y36937D02*
D03*
Y37937D02*
D03*
Y31937D02*
D03*
Y32937D02*
D03*
Y33937D02*
D03*
D175*
Y30937D02*
D03*
D176*
X18583Y13740D02*
D03*
Y17677D02*
D03*
X15236Y13740D02*
D03*
Y17677D02*
D03*
D177*
X69386Y41256D02*
D03*
X68386D02*
D03*
X67386D02*
D03*
Y44256D02*
D03*
X68386D02*
D03*
D178*
X69386D02*
D03*
D179*
X17301Y21646D02*
D03*
X18661Y24646D02*
D03*
X21220Y20394D02*
D03*
Y25894D02*
D03*
D180*
X42717Y44016D02*
D03*
D181*
Y46949D02*
D03*
D182*
X23346Y30118D02*
D03*
X31850Y27787D02*
D03*
X33150Y27787D02*
D03*
X30550Y27800D02*
D03*
X29250D02*
D03*
X34450Y27787D02*
D03*
D183*
X14689Y30800D02*
D03*
X14019D02*
D03*
X13350D02*
D03*
X12681D02*
D03*
D184*
X12011D02*
D03*
D185*
X46535Y11575D02*
D03*
X21850Y11650D02*
D03*
X36693Y11654D02*
D03*
X31772D02*
D03*
X26850Y11650D02*
D03*
X41614Y11654D02*
D03*
D186*
X29881Y52520D02*
D03*
X32441D02*
D03*
D187*
X10906Y22126D02*
D03*
D188*
X13841Y20276D02*
D03*
D189*
X12677Y22126D02*
D03*
D190*
X15041D02*
D03*
D191*
X28600Y42450D02*
D03*
D192*
X17717Y38228D02*
D03*
D193*
X88780Y11220D02*
D03*
X86535Y55906D02*
D03*
X11654Y25354D02*
D03*
X59197Y37717D02*
D03*
X62102Y49243D02*
D03*
X59652D02*
D03*
X69352D02*
D03*
X52352D02*
D03*
X75000Y11100D02*
D03*
Y25550D02*
D03*
X64450Y11100D02*
D03*
Y25550D02*
D03*
X51500Y11100D02*
D03*
X62150D02*
D03*
X51500Y25550D02*
D03*
X10748Y55984D02*
D03*
X11654Y11260D02*
D03*
M02*
