G04*
G04 #@! TF.GenerationSoftware,Altium Limited,CircuitMaker,2.2.1 (2.2.1.6)*
G04*
G04 Layer_Color=128*
%FSLAX24Y24*%
%MOIN*%
G70*
G04*
G04 #@! TF.SameCoordinates,A2895FC5-3AE1-40D1-BB98-85C0BD90A9E4*
G04*
G04*
G04 #@! TF.FilePolarity,Positive*
G04*
G01*
G75*
%ADD10C,0.0100*%
%ADD23C,0.0010*%
%ADD24C,0.0001*%
%ADD232C,0.0020*%
D10*
X73255Y46108D02*
Y51608D01*
Y46108D02*
X74855D01*
Y51608D01*
X73255D02*
X74855D01*
X71287Y46108D02*
Y51608D01*
Y46108D02*
X72887D01*
Y51608D01*
X71287D02*
X72887D01*
X58259Y39853D02*
Y45353D01*
X56659D02*
X58259D01*
X56659Y39853D02*
Y45353D01*
Y39853D02*
X58259D01*
X60309D02*
Y45353D01*
X58709D02*
X60309D01*
X58709Y39853D02*
Y45353D01*
Y39853D02*
X60309D01*
X87677Y32244D02*
X87874Y32441D01*
Y33228D01*
X87480Y32638D02*
Y33228D01*
X85906Y32244D02*
X87677D01*
X86102Y32638D02*
X87480D01*
X86102Y47480D02*
Y48071D01*
X87677Y47087D02*
X87874Y47283D01*
Y48071D01*
X87480Y47480D02*
Y48071D01*
X85709Y47283D02*
Y48071D01*
Y47283D02*
X85906Y47087D01*
X86102Y47480D02*
X87480D01*
X85906Y47087D02*
X87677D01*
X85709Y48071D02*
X86102D01*
X87480D02*
X87874D01*
X86142Y40079D02*
Y40669D01*
X87717Y39685D02*
X87913Y39882D01*
Y40669D01*
X87520Y40079D02*
Y40669D01*
X85748Y39882D02*
Y40669D01*
Y39882D02*
X85945Y39685D01*
X86142Y40079D02*
X87520D01*
X85945Y39685D02*
X87717D01*
X85748Y40669D02*
X86142D01*
X87520D02*
X87913D01*
X86102Y32638D02*
Y33228D01*
X85709Y32441D02*
Y33228D01*
Y32441D02*
X85906Y32244D01*
X85709Y33228D02*
X86102D01*
X87480D02*
X87874D01*
X86063Y17638D02*
Y18228D01*
X87638Y17244D02*
X87835Y17441D01*
Y18228D01*
X87441Y17638D02*
Y18228D01*
X85669Y17441D02*
Y18228D01*
Y17441D02*
X85866Y17244D01*
X86063Y17638D02*
X87441D01*
X85866Y17244D02*
X87638D01*
X85669Y18228D02*
X86063D01*
X87441D02*
X87835D01*
X87795Y25787D02*
X87795Y25787D01*
X87402Y25787D02*
X87795D01*
X86024Y25197D02*
Y25787D01*
X87598Y24803D02*
X87795Y25000D01*
Y25787D01*
X87402Y25197D02*
Y25787D01*
X85630D02*
X86024D01*
X85630Y25000D02*
Y25787D01*
Y25000D02*
X85827Y24803D01*
X86024Y25197D02*
X87402D01*
X85827Y24803D02*
X87598D01*
D23*
X92087Y10006D02*
Y57250D01*
X42047Y10000D02*
X92087D01*
X9500Y57250D02*
X92087D01*
X9500Y10000D02*
Y57250D01*
Y10000D02*
Y57250D01*
Y10000D02*
X42900D01*
X77559Y52047D02*
X78937D01*
X77126Y51614D02*
X77559Y52047D01*
X77126Y50236D02*
Y51614D01*
Y50236D02*
X77559Y49803D01*
X78937D01*
Y50157D01*
X77795D02*
X78937D01*
X77559Y50394D02*
X77795Y50157D01*
X77559Y50394D02*
Y51417D01*
X77795Y51654D01*
X78937D01*
Y52047D01*
X77559Y44606D02*
X78937D01*
X77126Y44173D02*
X77559Y44606D01*
X77126Y42795D02*
Y44173D01*
Y42795D02*
X77559Y42362D01*
X78937D01*
Y42717D01*
X77795D02*
X78937D01*
X77559Y42953D02*
X77795Y42717D01*
X77559Y42953D02*
Y43976D01*
X77795Y44213D01*
X78937D01*
Y44606D01*
X77559Y37165D02*
X78937D01*
X77126Y36732D02*
X77559Y37165D01*
X77126Y35354D02*
Y36732D01*
Y35354D02*
X77559Y34921D01*
X78937D01*
Y35276D01*
X77795D02*
X78937D01*
X77559Y35512D02*
X77795Y35276D01*
X77559Y35512D02*
Y36535D01*
X77795Y36772D01*
X78937D01*
Y37165D01*
X77559Y29646D02*
X78937D01*
X77126Y29213D02*
X77559Y29646D01*
X77126Y27835D02*
Y29213D01*
Y27835D02*
X77559Y27402D01*
X78937D01*
Y27756D01*
X77795D02*
X78937D01*
X77559Y27992D02*
X77795Y27756D01*
X77559Y27992D02*
Y29016D01*
X77795Y29252D01*
X78937D01*
Y29646D01*
X77520Y14646D02*
X78898D01*
X77087Y14213D02*
X77520Y14646D01*
X77087Y12835D02*
Y14213D01*
Y12835D02*
X77520Y12402D01*
X78898D01*
Y12756D01*
X77756D02*
X78898D01*
X77520Y12992D02*
X77756Y12756D01*
X77520Y12992D02*
Y14016D01*
X77756Y14252D01*
X78898D01*
Y14646D01*
Y21772D02*
Y22165D01*
X77756Y21772D02*
X78898D01*
X77520Y21535D02*
X77756Y21772D01*
X77520Y20512D02*
Y21535D01*
Y20512D02*
X77756Y20276D01*
X78898D01*
Y19921D02*
Y20276D01*
X77520Y19921D02*
X78898D01*
X77087Y20354D02*
X77520Y19921D01*
X77087Y20354D02*
Y21732D01*
X77520Y22165D01*
X78898D01*
D24*
X92126Y16246D02*
Y16654D01*
X90412Y27723D02*
X92126D01*
X89062Y27316D02*
X92126D01*
Y27723D01*
X90448Y31746D02*
X92126D01*
X89098Y31339D02*
X92126D01*
Y31654D02*
Y31755D01*
Y31348D02*
Y31450D01*
Y35118D02*
Y35220D01*
Y34813D02*
Y34914D01*
Y39094D02*
Y39196D01*
Y38789D02*
Y38891D01*
Y39094D01*
Y42198D02*
Y42605D01*
X89062Y42198D02*
X92126D01*
X89098Y49646D02*
Y50053D01*
X92126Y49646D02*
Y50053D01*
X90448D02*
X92126D01*
X89098D02*
X90448D01*
X89098Y49646D02*
X92126D01*
X90448Y46589D02*
X92126D01*
X89098Y46181D02*
X92126D01*
Y46589D01*
Y19813D02*
Y19914D01*
Y20118D02*
Y20220D01*
Y19914D02*
Y20118D01*
X90412Y20204D02*
X92126D01*
X89055Y19796D02*
X92126D01*
X89062Y16246D02*
Y16654D01*
X90412D01*
X89062Y16246D02*
X92126D01*
X90412Y16654D02*
X92126D01*
X89055Y19796D02*
Y20204D01*
X90412D01*
X89062Y23773D02*
Y24180D01*
X92126Y23773D02*
Y24180D01*
X89062D02*
X90412D01*
X89062Y23773D02*
X92126D01*
X90412Y24180D02*
X92126D01*
X89062Y27316D02*
Y27723D01*
X90412D01*
X89098Y31339D02*
Y31746D01*
X92126Y31450D02*
Y31654D01*
X89098Y31746D02*
X90448D01*
X89062Y34796D02*
Y35204D01*
X92126Y34914D02*
Y35118D01*
X89062Y35204D02*
X90412D01*
X89062Y34796D02*
X92126D01*
X90412Y35204D02*
X92126D01*
X89102Y38773D02*
Y39180D01*
X90452D01*
X89102Y38773D02*
X92126D01*
X90452Y39180D02*
X92126D01*
X89062Y42198D02*
Y42605D01*
X90412D01*
X92126D01*
X89098Y46181D02*
Y46589D01*
X90448D01*
X89055Y53536D02*
Y53944D01*
X92126Y53536D02*
Y53944D01*
X89055D02*
X90405D01*
X89055Y53536D02*
X92126D01*
X90405Y53944D02*
X92126D01*
X72102Y42927D02*
X74052D01*
X70752Y42520D02*
X74052D01*
X70752Y42927D02*
X72102D01*
X74052Y42520D02*
Y42927D01*
X70752Y42520D02*
Y42927D01*
X52420Y43032D02*
Y43429D01*
Y43032D02*
X54370D01*
X56320D01*
Y43429D01*
X52420D02*
X56320D01*
X62144Y43072D02*
Y43465D01*
Y43072D02*
X66044D01*
Y43465D01*
X64094D02*
X66044D01*
X62144D02*
X64094D01*
X9500Y10000D02*
Y57250D01*
D232*
X83708Y38425D02*
X84008D01*
X83858Y38275D02*
Y38575D01*
X83708Y33701D02*
X84008D01*
X83858Y33551D02*
Y33851D01*
X78905Y33701D02*
X79205D01*
X79055Y33551D02*
Y33851D01*
X78905Y38425D02*
X79205D01*
X79055Y38275D02*
Y38575D01*
X77968Y36063D02*
X78568D01*
X78268Y35763D02*
Y36363D01*
X90262Y23071D02*
X90762D01*
X90512Y22821D02*
Y23321D01*
X90262Y21071D02*
X90762D01*
X90512Y20821D02*
Y21321D01*
X77928Y28543D02*
X78528D01*
X78228Y28243D02*
Y28843D01*
X78866Y30906D02*
X79166D01*
X79016Y30756D02*
Y31056D01*
X78866Y26181D02*
X79166D01*
X79016Y26031D02*
Y26331D01*
X83669Y26181D02*
X83969D01*
X83819Y26031D02*
Y26331D01*
X83669Y30906D02*
X83969D01*
X83819Y30756D02*
Y31056D01*
X83708Y45827D02*
X84008D01*
X83858Y45677D02*
Y45977D01*
X83708Y41102D02*
X84008D01*
X83858Y40952D02*
Y41252D01*
X78905Y41102D02*
X79205D01*
X79055Y40952D02*
Y41252D01*
X78905Y45827D02*
X79205D01*
X79055Y45677D02*
Y45977D01*
X77968Y43465D02*
X78568D01*
X78268Y43165D02*
Y43765D01*
X35023Y37394D02*
X35323D01*
X35173Y37244D02*
Y37544D01*
X34023Y37394D02*
X34323D01*
X34173Y37244D02*
Y37544D01*
X33023Y37394D02*
X33323D01*
X33173Y37244D02*
Y37544D01*
X32023Y37394D02*
X32323D01*
X32173Y37244D02*
Y37544D01*
X35023Y40394D02*
X35323D01*
X35173Y40244D02*
Y40544D01*
X34023Y40394D02*
X34323D01*
X34173Y40244D02*
Y40544D01*
X33023Y40394D02*
X33323D01*
X33173Y40244D02*
Y40544D01*
X32023Y40394D02*
X32323D01*
X32173Y40244D02*
Y40544D01*
X90824Y56614D02*
X91224D01*
X91024Y56414D02*
Y56814D01*
X90824Y55630D02*
X91224D01*
X91024Y55430D02*
Y55830D01*
X90824Y54646D02*
X91224D01*
X91024Y54446D02*
Y54846D01*
X66363Y27673D02*
X66663D01*
X66513Y27523D02*
Y27823D01*
X65363Y27673D02*
X65663D01*
X65513Y27523D02*
Y27823D01*
X64363Y27673D02*
X64663D01*
X64513Y27523D02*
Y27823D01*
X63363Y27673D02*
X63663D01*
X63513Y27523D02*
Y27823D01*
X66363Y30673D02*
X66663D01*
X66513Y30523D02*
Y30823D01*
X65363Y30673D02*
X65663D01*
X65513Y30523D02*
Y30823D01*
X64363Y30673D02*
X64663D01*
X64513Y30523D02*
Y30823D01*
X63363Y30673D02*
X63663D01*
X63513Y30523D02*
Y30823D01*
X45756Y25197D02*
X46150D01*
X45953Y25000D02*
Y25394D01*
X46756Y25197D02*
X47150D01*
X46953Y25000D02*
Y25394D01*
X47756Y25197D02*
X48150D01*
X47953Y25000D02*
Y25394D01*
X48756Y25197D02*
X49150D01*
X48953Y25000D02*
Y25394D01*
X45756Y23976D02*
X46150D01*
X45953Y23780D02*
Y24173D01*
X46756Y23976D02*
X47150D01*
X46953Y23780D02*
Y24173D01*
X47756Y23976D02*
X48150D01*
X47953Y23780D02*
Y24173D01*
X48756Y23976D02*
X49150D01*
X48953Y23780D02*
Y24173D01*
X45756Y22756D02*
X46150D01*
X45953Y22559D02*
Y22953D01*
X46756Y22756D02*
X47150D01*
X46953Y22559D02*
Y22953D01*
X47756Y22756D02*
X48150D01*
X47953Y22559D02*
Y22953D01*
X48756Y22756D02*
X49150D01*
X48953Y22559D02*
Y22953D01*
X90824Y26772D02*
X91224D01*
X91024Y26572D02*
Y26972D01*
X90824Y25787D02*
X91224D01*
X91024Y25587D02*
Y25987D01*
X90824Y24803D02*
X91224D01*
X91024Y24603D02*
Y25003D01*
X87946Y30945D02*
X88196D01*
X88071Y30820D02*
Y31070D01*
X87946Y28976D02*
X88196D01*
X88071Y28851D02*
Y29101D01*
X86575Y29627D02*
X86968D01*
X86772Y29430D02*
Y29824D01*
X86575Y25627D02*
X86968D01*
X86772Y25430D02*
Y25824D01*
X90262Y30583D02*
X90762D01*
X90512Y30333D02*
Y30833D01*
X90262Y28583D02*
X90762D01*
X90512Y28333D02*
Y28833D01*
X83669Y23425D02*
X83969D01*
X83819Y23275D02*
Y23575D01*
X83669Y18701D02*
X83969D01*
X83819Y18551D02*
Y18851D01*
X78866Y18701D02*
X79166D01*
X79016Y18551D02*
Y18851D01*
X78866Y23425D02*
X79166D01*
X79016Y23275D02*
Y23575D01*
X77928Y21063D02*
X78528D01*
X78228Y20763D02*
Y21363D01*
X87985Y53268D02*
X88235D01*
X88110Y53143D02*
Y53393D01*
X87985Y51299D02*
X88235D01*
X88110Y51174D02*
Y51424D01*
X83708Y53268D02*
X84008D01*
X83858Y53118D02*
Y53418D01*
X83708Y48543D02*
X84008D01*
X83858Y48393D02*
Y48693D01*
X78905Y48543D02*
X79205D01*
X79055Y48393D02*
Y48693D01*
X78905Y53268D02*
X79205D01*
X79055Y53118D02*
Y53418D01*
X77968Y50906D02*
X78568D01*
X78268Y50606D02*
Y51206D01*
X86614Y52029D02*
X87008D01*
X86811Y51832D02*
Y52226D01*
X86614Y48029D02*
X87008D01*
X86811Y47832D02*
Y48226D01*
X90824Y49134D02*
X91224D01*
X91024Y48934D02*
Y49334D01*
X90824Y48150D02*
X91224D01*
X91024Y47950D02*
Y48350D01*
X90824Y47165D02*
X91224D01*
X91024Y46965D02*
Y47365D01*
X13811Y25591D02*
X14111D01*
X13961Y25441D02*
Y25741D01*
X14811Y25591D02*
X15111D01*
X14961Y25441D02*
Y25741D01*
X73855Y51358D02*
X74255D01*
X74055Y51158D02*
Y51558D01*
X73855Y46358D02*
X74255D01*
X74055Y46158D02*
Y46558D01*
X21622Y41417D02*
X21922D01*
X21772Y41267D02*
Y41567D01*
X21622Y43496D02*
X21922D01*
X21772Y43346D02*
Y43646D01*
X90824Y32323D02*
X91224D01*
X91024Y32123D02*
Y32523D01*
X90824Y33307D02*
X91224D01*
X91024Y33107D02*
Y33507D01*
X90824Y34291D02*
X91224D01*
X91024Y34091D02*
Y34491D01*
X86614Y33186D02*
X87008D01*
X86811Y32989D02*
Y33383D01*
X86614Y37186D02*
X87008D01*
X86811Y36989D02*
Y37383D01*
X86614Y40627D02*
X87008D01*
X86811Y40430D02*
Y40824D01*
X86614Y44627D02*
X87008D01*
X86811Y44430D02*
Y44824D01*
X86575Y18186D02*
X86968D01*
X86772Y17989D02*
Y18383D01*
X86575Y22186D02*
X86968D01*
X86772Y21989D02*
Y22383D01*
X86575Y10785D02*
X86968D01*
X86772Y10588D02*
Y10982D01*
X86575Y14785D02*
X86968D01*
X86772Y14588D02*
Y14981D01*
X87946Y21457D02*
X88196D01*
X88071Y21332D02*
Y21582D01*
X87946Y23425D02*
X88196D01*
X88071Y23300D02*
Y23550D01*
X87946Y14016D02*
X88196D01*
X88071Y13891D02*
Y14141D01*
X87946Y15984D02*
X88196D01*
X88071Y15859D02*
Y16109D01*
X87985Y43858D02*
X88235D01*
X88110Y43733D02*
Y43983D01*
X87985Y45827D02*
X88235D01*
X88110Y45702D02*
Y45952D01*
X87985Y36417D02*
X88235D01*
X88110Y36292D02*
Y36542D01*
X87985Y38386D02*
X88235D01*
X88110Y38261D02*
Y38511D01*
X90262Y13551D02*
X90762D01*
X90512Y13301D02*
Y13801D01*
X90262Y15551D02*
X90762D01*
X90512Y15301D02*
Y15801D01*
X90824Y17244D02*
X91224D01*
X91024Y17044D02*
Y17444D01*
X90824Y18228D02*
X91224D01*
X91024Y18028D02*
Y18428D01*
X90824Y19213D02*
X91224D01*
X91024Y19013D02*
Y19413D01*
X90301Y36071D02*
X90801D01*
X90551Y35821D02*
Y36321D01*
X90301Y38071D02*
X90801D01*
X90551Y37821D02*
Y38321D01*
X90824Y39764D02*
X91224D01*
X91024Y39564D02*
Y39964D01*
X90824Y40748D02*
X91224D01*
X91024Y40548D02*
Y40948D01*
X90824Y41732D02*
X91224D01*
X91024Y41532D02*
Y41932D01*
X90301Y43472D02*
X90801D01*
X90551Y43222D02*
Y43722D01*
X90301Y45472D02*
X90801D01*
X90551Y45222D02*
Y45722D01*
X90301Y50913D02*
X90801D01*
X90551Y50663D02*
Y51163D01*
X90301Y52913D02*
X90801D01*
X90551Y52663D02*
Y53163D01*
X83669Y15906D02*
X83969D01*
X83819Y15756D02*
Y16056D01*
X83669Y11181D02*
X83969D01*
X83819Y11031D02*
Y11331D01*
X78866Y11181D02*
X79166D01*
X79016Y11031D02*
Y11331D01*
X78866Y15906D02*
X79166D01*
X79016Y15756D02*
Y16056D01*
X77928Y13543D02*
X78528D01*
X78228Y13243D02*
Y13843D01*
X54603Y30669D02*
X55003D01*
X54803Y30469D02*
Y30869D01*
X55587Y30669D02*
X55987D01*
X55787Y30469D02*
Y30869D01*
X56572Y30669D02*
X56972D01*
X56772Y30469D02*
Y30869D01*
X67679Y33059D02*
X67999D01*
X67839Y32899D02*
Y33219D01*
X67679Y32059D02*
X67999D01*
X67839Y31899D02*
Y32219D01*
X64679Y32059D02*
X64999D01*
X64839Y31899D02*
Y32219D01*
X64679Y33059D02*
X64999D01*
X64839Y32899D02*
Y33219D01*
X60366Y54724D02*
X60957D01*
X60661Y54429D02*
Y55020D01*
X58366Y54724D02*
X58957D01*
X58661Y54429D02*
Y55020D01*
X56366Y54724D02*
X56957D01*
X56661Y54429D02*
Y55020D01*
X67051Y54764D02*
X67642D01*
X67346Y54468D02*
Y55059D01*
X65051Y54764D02*
X65642D01*
X65346Y54468D02*
Y55059D01*
X63051Y54764D02*
X63642D01*
X63346Y54468D02*
Y55059D01*
X69756Y54743D02*
X70347D01*
X70052Y54447D02*
Y55038D01*
X71756Y54743D02*
X72347D01*
X72052Y54447D02*
Y55038D01*
X73756Y54743D02*
X74347D01*
X74052Y54447D02*
Y55038D01*
X73021Y30724D02*
X73341D01*
X73181Y30564D02*
Y30884D01*
X73021Y29724D02*
X73341D01*
X73181Y29564D02*
Y29884D01*
X76021Y29724D02*
X76341D01*
X76181Y29564D02*
Y29884D01*
X76021Y30724D02*
X76341D01*
X76181Y30564D02*
Y30884D01*
X73025Y28453D02*
X73345D01*
X73185Y28293D02*
Y28613D01*
X73025Y27453D02*
X73345D01*
X73185Y27293D02*
Y27613D01*
X76025Y27453D02*
X76345D01*
X76185Y27293D02*
Y27613D01*
X76025Y28453D02*
X76345D01*
X76185Y28293D02*
Y28613D01*
X68852Y33020D02*
X69172D01*
X69012Y32860D02*
Y33180D01*
X68852Y32020D02*
X69172D01*
X69012Y31860D02*
Y32180D01*
X71852Y32020D02*
X72172D01*
X72012Y31860D02*
Y32180D01*
X71852Y33020D02*
X72172D01*
X72012Y32860D02*
Y33180D01*
X73025Y33020D02*
X73345D01*
X73185Y32860D02*
Y33180D01*
X73025Y32020D02*
X73345D01*
X73185Y31860D02*
Y32180D01*
X76025Y32020D02*
X76345D01*
X76185Y31860D02*
Y32180D01*
X76025Y33020D02*
X76345D01*
X76185Y32860D02*
Y33180D01*
X60505Y33020D02*
X60825D01*
X60665Y32860D02*
Y33180D01*
X60505Y32020D02*
X60825D01*
X60665Y31860D02*
Y32180D01*
X63505Y32020D02*
X63825D01*
X63665Y31860D02*
Y32180D01*
X63505Y33020D02*
X63825D01*
X63665Y32860D02*
Y33180D01*
X69761Y30669D02*
X70161D01*
X69961Y30469D02*
Y30869D01*
X68776Y30669D02*
X69176D01*
X68976Y30469D02*
Y30869D01*
X67792Y30669D02*
X68192D01*
X67992Y30469D02*
Y30869D01*
X53449Y27673D02*
X53749D01*
X53599Y27523D02*
Y27823D01*
X52449Y27673D02*
X52749D01*
X52599Y27523D02*
Y27823D01*
X51449Y27673D02*
X51749D01*
X51599Y27523D02*
Y27823D01*
X50449Y27673D02*
X50749D01*
X50599Y27523D02*
Y27823D01*
X53449Y30673D02*
X53749D01*
X53599Y30523D02*
Y30823D01*
X52449Y30673D02*
X52749D01*
X52599Y30523D02*
Y30823D01*
X51449Y30673D02*
X51749D01*
X51599Y30523D02*
Y30823D01*
X50449Y30673D02*
X50749D01*
X50599Y30523D02*
Y30823D01*
X36178Y48858D02*
X36578D01*
X36378Y48658D02*
Y49058D01*
X35194Y48858D02*
X35594D01*
X35394Y48658D02*
Y49058D01*
X34209Y48858D02*
X34609D01*
X34409Y48658D02*
Y49058D01*
X31414Y55551D02*
X31814D01*
X31614Y55351D02*
Y55751D01*
X32398Y55551D02*
X32798D01*
X32598Y55351D02*
Y55751D01*
X33383Y55551D02*
X33783D01*
X33583Y55351D02*
Y55751D01*
X25472Y38583D02*
X25866D01*
X25669Y38386D02*
Y38780D01*
X26480Y38583D02*
X26874D01*
X26677Y38386D02*
Y38780D01*
X27488Y38583D02*
X27882D01*
X27685Y38386D02*
Y38780D01*
X25465Y37283D02*
X25858D01*
X25661Y37087D02*
Y37480D01*
X26472Y37283D02*
X26866D01*
X26669Y37087D02*
Y37480D01*
X27480Y37283D02*
X27874D01*
X27677Y37087D02*
Y37480D01*
X23602Y16732D02*
X24035D01*
X23819Y16516D02*
Y16949D01*
X28579Y16732D02*
X29012D01*
X28795Y16516D02*
Y16949D01*
X33594Y16732D02*
X34028D01*
X33811Y16516D02*
Y16949D01*
X38516Y16732D02*
X38949D01*
X38732Y16516D02*
Y16949D01*
X43437Y16732D02*
X43870D01*
X43654Y16516D02*
Y16949D01*
X48358Y16732D02*
X48791D01*
X48575Y16516D02*
Y16949D01*
X22602Y16732D02*
X23035D01*
X22819Y16516D02*
Y16949D01*
X24419Y14567D02*
X24919D01*
X24669Y14317D02*
Y14817D01*
X23600Y11650D02*
X24100D01*
X23850Y11400D02*
Y11900D01*
X27579Y16732D02*
X28012D01*
X27795Y16516D02*
Y16949D01*
X29616Y14567D02*
X30116D01*
X29866Y14317D02*
Y14817D01*
X28600Y11650D02*
X29100D01*
X28850Y11400D02*
Y11900D01*
X32594Y16732D02*
X33028D01*
X32811Y16516D02*
Y16949D01*
X34813Y14567D02*
X35313D01*
X35063Y14317D02*
Y14817D01*
X33522Y11654D02*
X34022D01*
X33772Y11404D02*
Y11904D01*
X37516Y16732D02*
X37949D01*
X37732Y16516D02*
Y16949D01*
X40010Y14567D02*
X40510D01*
X40260Y14317D02*
Y14817D01*
X38443Y11654D02*
X38943D01*
X38693Y11404D02*
Y11904D01*
X42437Y16732D02*
X42870D01*
X42654Y16516D02*
Y16949D01*
X45207Y14567D02*
X45707D01*
X45457Y14317D02*
Y14817D01*
X43364Y11654D02*
X43864D01*
X43614Y11404D02*
Y11904D01*
X47358Y16732D02*
X47791D01*
X47575Y16516D02*
Y16949D01*
X50404Y14567D02*
X50904D01*
X50654Y14317D02*
Y14817D01*
X48285Y11575D02*
X48785D01*
X48535Y11325D02*
Y11825D01*
X21602Y16732D02*
X22035D01*
X21819Y16516D02*
Y16949D01*
X26579Y16732D02*
X27012D01*
X26795Y16516D02*
Y16949D01*
X31594Y16732D02*
X32028D01*
X31811Y16516D02*
Y16949D01*
X36516Y16732D02*
X36949D01*
X36732Y16516D02*
Y16949D01*
X41437Y16732D02*
X41870D01*
X41654Y16516D02*
Y16949D01*
X46358Y16732D02*
X46791D01*
X46575Y16516D02*
Y16949D01*
X11634Y39252D02*
X11988D01*
X11811Y39075D02*
Y39429D01*
X11634Y37520D02*
X11988D01*
X11811Y37343D02*
Y37697D01*
X41207Y14567D02*
X41707D01*
X41457Y14317D02*
Y14817D01*
X20419Y14567D02*
X20919D01*
X20669Y14317D02*
Y14817D01*
X41080Y38937D02*
X41440D01*
X41260Y38757D02*
Y39117D01*
X41080Y34937D02*
X41440D01*
X41260Y34757D02*
Y35117D01*
X41080Y35937D02*
X41440D01*
X41260Y35757D02*
Y36117D01*
X41080Y36937D02*
X41440D01*
X41260Y36757D02*
Y37117D01*
X41080Y37937D02*
X41440D01*
X41260Y37757D02*
Y38117D01*
X41080Y30937D02*
X41440D01*
X41260Y30757D02*
Y31117D01*
X41080Y31937D02*
X41440D01*
X41260Y31757D02*
Y32117D01*
X41080Y32937D02*
X41440D01*
X41260Y32757D02*
Y33117D01*
X41080Y33937D02*
X41440D01*
X41260Y33757D02*
Y34117D01*
X37224Y51339D02*
X37579D01*
X37402Y51161D02*
Y51516D01*
X36224Y51339D02*
X36579D01*
X36402Y51161D02*
Y51516D01*
X25616Y14567D02*
X26116D01*
X25866Y14317D02*
Y14817D01*
X46404Y14567D02*
X46904D01*
X46654Y14317D02*
Y14817D01*
X36010Y14567D02*
X36510D01*
X36260Y14317D02*
Y14817D01*
X30813Y14567D02*
X31313D01*
X31063Y14317D02*
Y14817D01*
X18189Y13740D02*
X18976D01*
X18583Y13346D02*
Y14134D01*
X18189Y17677D02*
X18976D01*
X18583Y17283D02*
Y18071D01*
X14843Y13740D02*
X15630D01*
X15236Y13346D02*
Y14134D01*
X14843Y17677D02*
X15630D01*
X15236Y17283D02*
Y18071D01*
X69206Y41256D02*
X69566D01*
X69386Y41076D02*
Y41436D01*
X68206Y41256D02*
X68566D01*
X68386Y41076D02*
Y41436D01*
X67206Y41256D02*
X67566D01*
X67386Y41076D02*
Y41436D01*
X67206Y44256D02*
X67566D01*
X67386Y44076D02*
Y44436D01*
X68206Y44256D02*
X68566D01*
X68386Y44076D02*
Y44436D01*
X69206Y44256D02*
X69566D01*
X69386Y44076D02*
Y44436D01*
X17051Y21646D02*
X17551D01*
X17301Y21396D02*
Y21896D01*
X18411Y24646D02*
X18911D01*
X18661Y24396D02*
Y24896D01*
X17231Y23146D02*
X18731D01*
X17981Y22396D02*
Y23896D01*
X20920Y20394D02*
X21520D01*
X21220Y20094D02*
Y20694D01*
X20920Y25894D02*
X21520D01*
X21220Y25594D02*
Y26194D01*
X71887Y51358D02*
X72287D01*
X72087Y51158D02*
Y51558D01*
X71887Y46358D02*
X72287D01*
X72087Y46158D02*
Y46558D01*
X18275Y34685D02*
X18575D01*
X18425Y34535D02*
Y34835D01*
X19275Y34685D02*
X19575D01*
X19425Y34535D02*
Y34835D01*
X42520Y44016D02*
X42913D01*
X42717Y43819D02*
Y44213D01*
X42470Y46949D02*
X42963D01*
X42717Y46703D02*
Y47195D01*
X23300Y22950D02*
X23600D01*
X23450Y22800D02*
Y23100D01*
X20536Y32165D02*
X20786D01*
X20661Y32040D02*
Y32290D01*
X19536Y32165D02*
X19786D01*
X19661Y32040D02*
Y32290D01*
X18536Y32165D02*
X18786D01*
X18661Y32040D02*
Y32290D01*
X16303Y28268D02*
X16815D01*
X16559Y28012D02*
Y28524D01*
X10453Y28268D02*
X10965D01*
X10709Y28012D02*
Y28524D01*
X23150Y30118D02*
X23543D01*
X23346Y29921D02*
Y30315D01*
X23150Y28150D02*
X23543D01*
X23346Y27953D02*
Y28346D01*
X14472Y30800D02*
X14905D01*
X14689Y30583D02*
Y31017D01*
X13803Y30800D02*
X14236D01*
X14019Y30583D02*
Y31017D01*
X13133Y30800D02*
X13567D01*
X13350Y30583D02*
Y31017D01*
X12464Y30800D02*
X12897D01*
X12681Y30583D02*
Y31017D01*
X11795Y30800D02*
X12228D01*
X12011Y30583D02*
Y31017D01*
X57259Y40103D02*
X57659D01*
X57459Y39903D02*
Y40303D01*
X57259Y45103D02*
X57659D01*
X57459Y44903D02*
Y45303D01*
X56785Y47643D02*
X57218D01*
X57002Y47426D02*
Y47859D01*
X55785Y47643D02*
X56218D01*
X56002Y47426D02*
Y47859D01*
X54785Y47643D02*
X55218D01*
X55002Y47426D02*
Y47859D01*
X64485Y47593D02*
X64918D01*
X64702Y47376D02*
Y47809D01*
X65485Y47593D02*
X65918D01*
X65702Y47376D02*
Y47809D01*
X66485Y47593D02*
X66918D01*
X66702Y47376D02*
Y47809D01*
X51351Y43882D02*
X51641D01*
X51496Y43737D02*
Y44027D01*
X51351Y39882D02*
X51641D01*
X51496Y39737D02*
Y40027D01*
X61064Y39853D02*
X61354D01*
X61209Y39708D02*
Y39998D01*
X61064Y43853D02*
X61354D01*
X61209Y43708D02*
Y43998D01*
X59309Y40103D02*
X59709D01*
X59509Y39903D02*
Y40303D01*
X59309Y45103D02*
X59709D01*
X59509Y44903D02*
Y45303D01*
X68203Y27750D02*
X68597D01*
X68400Y27553D02*
Y27947D01*
X69211Y27750D02*
X69605D01*
X69408Y27553D02*
Y27947D01*
X70219Y27750D02*
X70613D01*
X70416Y27553D02*
Y27947D01*
X46285Y11575D02*
X46785D01*
X46535Y11325D02*
Y11825D01*
X29701Y52520D02*
X30061D01*
X29881Y52340D02*
Y52700D01*
X32261Y52520D02*
X32621D01*
X32441Y52340D02*
Y52700D01*
X57303Y27775D02*
X57697D01*
X57500Y27578D02*
Y27972D01*
X56295Y27775D02*
X56689D01*
X56492Y27578D02*
Y27972D01*
X55287Y27775D02*
X55681D01*
X55484Y27578D02*
Y27972D01*
X44223Y53450D02*
X44577D01*
X44400Y53273D02*
Y53627D01*
X43223Y53450D02*
X43577D01*
X43400Y53273D02*
Y53627D01*
X41728Y53465D02*
X42083D01*
X41906Y53287D02*
Y53642D01*
X40728Y53465D02*
X41083D01*
X40906Y53287D02*
Y53642D01*
X21600Y11650D02*
X22100D01*
X21850Y11400D02*
Y11900D01*
X36443Y11654D02*
X36943D01*
X36693Y11404D02*
Y11904D01*
X31522Y11654D02*
X32022D01*
X31772Y11404D02*
Y11904D01*
X26600Y11650D02*
X27100D01*
X26850Y11400D02*
Y11900D01*
X41364Y11654D02*
X41864D01*
X41614Y11404D02*
Y11904D01*
X39153Y55750D02*
X39547D01*
X39350Y55553D02*
Y55947D01*
X38153Y55750D02*
X38547D01*
X38350Y55553D02*
Y55947D01*
X37153Y55750D02*
X37547D01*
X37350Y55553D02*
Y55947D01*
X36153Y55750D02*
X36547D01*
X36350Y55553D02*
Y55947D01*
X43019Y55750D02*
X43413D01*
X43216Y55553D02*
Y55947D01*
X42011Y55750D02*
X42405D01*
X42208Y55553D02*
Y55947D01*
X41003Y55750D02*
X41397D01*
X41200Y55553D02*
Y55947D01*
X10471Y22126D02*
X11341D01*
X10906Y21691D02*
Y22561D01*
X13644Y20276D02*
X14038D01*
X13841Y20079D02*
Y20473D01*
X12480Y22126D02*
X12874D01*
X12677Y21929D02*
Y22323D01*
X14844Y22126D02*
X15238D01*
X15041Y21929D02*
Y22323D01*
X36203Y53450D02*
X36597D01*
X36400Y53253D02*
Y53647D01*
X37203Y53450D02*
X37597D01*
X37400Y53253D02*
Y53647D01*
X38203Y53450D02*
X38597D01*
X38400Y53253D02*
Y53647D01*
X39203Y53450D02*
X39597D01*
X39400Y53253D02*
Y53647D01*
X29383Y42450D02*
X29817D01*
X29600Y42233D02*
Y42667D01*
X28383Y42450D02*
X28817D01*
X28600Y42233D02*
Y42667D01*
X28383Y41450D02*
X28817D01*
X28600Y41233D02*
Y41667D01*
X29383Y41450D02*
X29817D01*
X29600Y41233D02*
Y41667D01*
X29383Y40450D02*
X29817D01*
X29600Y40233D02*
Y40667D01*
X28383Y40450D02*
X28817D01*
X28600Y40233D02*
Y40667D01*
X29403Y44650D02*
X29797D01*
X29600Y44453D02*
Y44847D01*
X28403Y44650D02*
X28797D01*
X28600Y44453D02*
Y44847D01*
X28403Y45650D02*
X28797D01*
X28600Y45453D02*
Y45847D01*
X29403Y45650D02*
X29797D01*
X29600Y45453D02*
Y45847D01*
X31654Y30787D02*
X32047D01*
X31850Y30591D02*
Y30984D01*
X31654Y29787D02*
X32047D01*
X31850Y29591D02*
Y29984D01*
X31654Y28787D02*
X32047D01*
X31850Y28591D02*
Y28984D01*
X31654Y27787D02*
X32047D01*
X31850Y27591D02*
Y27984D01*
X32953Y30787D02*
X33346D01*
X33150Y30591D02*
Y30984D01*
X32953Y29787D02*
X33346D01*
X33150Y29591D02*
Y29984D01*
X32953Y28787D02*
X33346D01*
X33150Y28591D02*
Y28984D01*
X32953Y27787D02*
X33346D01*
X33150Y27591D02*
Y27984D01*
X30353Y30800D02*
X30747D01*
X30550Y30603D02*
Y30997D01*
X30353Y29800D02*
X30747D01*
X30550Y29603D02*
Y29997D01*
X30353Y28800D02*
X30747D01*
X30550Y28603D02*
Y28997D01*
X30353Y27800D02*
X30747D01*
X30550Y27603D02*
Y27997D01*
X29053Y30800D02*
X29447D01*
X29250Y30603D02*
Y30997D01*
X29053Y29800D02*
X29447D01*
X29250Y29603D02*
Y29997D01*
X29053Y28800D02*
X29447D01*
X29250Y28603D02*
Y28997D01*
X29053Y27800D02*
X29447D01*
X29250Y27603D02*
Y27997D01*
X34253Y30787D02*
X34647D01*
X34450Y30591D02*
Y30984D01*
X34253Y29787D02*
X34647D01*
X34450Y29591D02*
Y29984D01*
X34253Y28787D02*
X34647D01*
X34450Y28591D02*
Y28984D01*
X34253Y27787D02*
X34647D01*
X34450Y27591D02*
Y27984D01*
X21632Y54291D02*
X21912D01*
X21772Y54151D02*
Y54431D01*
X48915Y30197D02*
X49195D01*
X49055Y30057D02*
Y30337D01*
X62104Y30157D02*
X62384D01*
X62244Y30017D02*
Y30297D01*
X11553Y41142D02*
X11833D01*
X11693Y41002D02*
Y41282D01*
X13797Y49291D02*
X14077D01*
X13937Y49151D02*
Y49431D01*
X15175Y48150D02*
X15455D01*
X15315Y48010D02*
Y48290D01*
X12616Y46496D02*
X12896D01*
X12756Y46356D02*
Y46636D01*
X16474Y36969D02*
X16754D01*
X16614Y36828D02*
Y37109D01*
X17677Y38228D02*
X17756D01*
X17717Y38189D02*
Y38268D01*
X30766Y45079D02*
X31046D01*
X30906Y44939D02*
Y45219D01*
X80254Y54724D02*
X80534D01*
X80394Y54584D02*
Y54864D01*
X13718Y37756D02*
X13998D01*
X13858Y37616D02*
Y37896D01*
X42931Y29094D02*
X43211D01*
X43071Y28954D02*
Y29234D01*
X88189Y11220D02*
X89370D01*
X88780Y10630D02*
Y11811D01*
X85945Y55906D02*
X87126D01*
X86535Y55315D02*
Y56496D01*
X54191Y39961D02*
X54471D01*
X54331Y39821D02*
Y40101D01*
X63836Y39961D02*
X64116D01*
X63976Y39821D02*
Y40101D01*
X37852Y42402D02*
X38132D01*
X37992Y42262D02*
Y42542D01*
X37340Y47244D02*
X37620D01*
X37480Y47104D02*
Y47384D01*
X23876Y39528D02*
X24156D01*
X24016Y39388D02*
Y39668D01*
X18600Y36732D02*
X18880D01*
X18740Y36592D02*
Y36872D01*
X21120Y48268D02*
X21400D01*
X21260Y48128D02*
Y48408D01*
X21120Y47441D02*
X21400D01*
X21260Y47301D02*
Y47581D01*
X42301Y30709D02*
X42581D01*
X42441Y30569D02*
Y30849D01*
X42301Y31457D02*
X42581D01*
X42441Y31317D02*
Y31597D01*
X42380Y32874D02*
X42660D01*
X42520Y32734D02*
Y33014D01*
X41356Y42165D02*
X41636D01*
X41496Y42025D02*
Y42305D01*
X35608Y41378D02*
X35888D01*
X35748Y41238D02*
Y41518D01*
X21061Y53445D02*
X21341D01*
X21201Y53305D02*
Y53585D01*
X29978Y48858D02*
X30258D01*
X30118Y48718D02*
Y48998D01*
X27931Y49016D02*
X28211D01*
X28071Y48876D02*
Y49156D01*
X27852Y47283D02*
X28132D01*
X27992Y47143D02*
Y47423D01*
X24033Y49567D02*
X24313D01*
X24173Y49427D02*
Y49707D01*
X22104Y49528D02*
X22384D01*
X22244Y49388D02*
Y49668D01*
X21120Y49449D02*
X21400D01*
X21260Y49309D02*
Y49589D01*
X22065Y55512D02*
X22345D01*
X22205Y55372D02*
Y55652D01*
X24939Y50591D02*
X25219D01*
X25079Y50451D02*
Y50731D01*
X26435Y46220D02*
X26715D01*
X26575Y46080D02*
Y46360D01*
X13758Y53307D02*
X14038D01*
X13898Y53167D02*
Y53447D01*
X18954Y48740D02*
X19234D01*
X19094Y48600D02*
Y48880D01*
X22707Y43583D02*
X22987D01*
X22847Y43443D02*
Y43723D01*
X22400Y46535D02*
X22680D01*
X22540Y46395D02*
Y46675D01*
X10490Y35472D02*
X10770D01*
X10630Y35332D02*
Y35612D01*
X13758Y39016D02*
X14038D01*
X13898Y38876D02*
Y39156D01*
X42110Y20100D02*
X42390D01*
X42250Y19960D02*
Y20240D01*
X27860Y20100D02*
X28140D01*
X28000Y19960D02*
Y20240D01*
X46860Y20100D02*
X47140D01*
X47000Y19960D02*
Y20240D01*
X32610Y20100D02*
X32890D01*
X32750Y19960D02*
Y20240D01*
X23110Y20100D02*
X23390D01*
X23250Y19960D02*
Y20240D01*
X12655Y41496D02*
X12935D01*
X12795Y41356D02*
Y41636D01*
X12734Y35472D02*
X13014D01*
X12874Y35332D02*
Y35612D01*
X39230Y51968D02*
X39510D01*
X39370Y51828D02*
Y52108D01*
X24348Y46693D02*
X24628D01*
X24488Y46553D02*
Y46833D01*
X33403Y48150D02*
X33683D01*
X33543Y48010D02*
Y48290D01*
X32577Y48780D02*
X32857D01*
X32717Y48640D02*
Y48920D01*
X31474Y48307D02*
X31754D01*
X31614Y48167D02*
Y48447D01*
X28760Y53750D02*
X29040D01*
X28900Y53610D02*
Y53890D01*
X33994Y53504D02*
X34274D01*
X34134Y53364D02*
Y53644D01*
X11710Y51339D02*
X11990D01*
X11850Y51199D02*
Y51479D01*
X11710Y48150D02*
X11990D01*
X11850Y48010D02*
Y48290D01*
X11710Y49646D02*
X11990D01*
X11850Y49506D02*
Y49786D01*
X11710Y50394D02*
X11990D01*
X11850Y50254D02*
Y50534D01*
X11120Y38346D02*
X11400D01*
X11260Y38206D02*
Y38486D01*
X29427Y54213D02*
X29707D01*
X29567Y54073D02*
Y54353D01*
X30687Y54252D02*
X30967D01*
X30827Y54112D02*
Y54392D01*
X31514Y54134D02*
X31794D01*
X31654Y53994D02*
Y54274D01*
X18954Y53386D02*
X19234D01*
X19094Y53246D02*
Y53526D01*
X29860Y55827D02*
X30140D01*
X30000Y55687D02*
Y55967D01*
X10844Y53819D02*
X11124D01*
X10984Y53679D02*
Y53959D01*
X34703Y50866D02*
X34983D01*
X34843Y50726D02*
Y51006D01*
X18935Y50276D02*
X19215D01*
X19075Y50136D02*
Y50416D01*
X17931Y51732D02*
X18211D01*
X18071Y51592D02*
Y51872D01*
X17931Y52480D02*
X18211D01*
X18071Y52340D02*
Y52620D01*
X17577Y48110D02*
X17857D01*
X17717Y47970D02*
Y48250D01*
X16632Y48110D02*
X16912D01*
X16772Y47970D02*
Y48250D01*
X18679Y39409D02*
X18959D01*
X18819Y39269D02*
Y39549D01*
X18718Y40748D02*
X18998D01*
X18858Y40608D02*
Y40888D01*
X17734Y53307D02*
X18014D01*
X17874Y53167D02*
Y53447D01*
X22143Y56457D02*
X22423D01*
X22283Y56317D02*
Y56597D01*
X26120Y53661D02*
X26400D01*
X26260Y53521D02*
Y53801D01*
X21435Y45866D02*
X21715D01*
X21575Y45726D02*
Y46006D01*
X10100Y32300D02*
X10700D01*
X10400Y32000D02*
Y32600D01*
X16000Y32300D02*
X16600D01*
X16300Y32000D02*
Y32600D01*
X11063Y25354D02*
X12244D01*
X11654Y24764D02*
Y25945D01*
X58607Y37717D02*
X59788D01*
X59197Y37126D02*
Y38307D01*
X44151Y50433D02*
X44431D01*
X44291Y50293D02*
Y50573D01*
X40903Y49213D02*
X41183D01*
X41043Y49073D02*
Y49353D01*
X41553Y48740D02*
X41833D01*
X41693Y48600D02*
Y48880D01*
X40136Y48307D02*
X40416D01*
X40276Y48167D02*
Y48447D01*
X40214Y47520D02*
X40494D01*
X40354Y47380D02*
Y47660D01*
X31317Y42087D02*
X31597D01*
X31457Y41947D02*
Y42227D01*
X41907Y49882D02*
X42187D01*
X42047Y49742D02*
Y50022D01*
X42577Y50344D02*
X42857D01*
X42717Y50204D02*
Y50484D01*
X43364Y50433D02*
X43644D01*
X43504Y50293D02*
Y50573D01*
X23660Y47500D02*
X23940D01*
X23800Y47360D02*
Y47640D01*
X34710Y51600D02*
X34990D01*
X34850Y51460D02*
Y51740D01*
X31371Y52700D02*
X31651D01*
X31511Y52560D02*
Y52840D01*
X25460Y46250D02*
X25740D01*
X25600Y46110D02*
Y46390D01*
X38810Y45250D02*
X39090D01*
X38950Y45110D02*
Y45390D01*
X37910Y45300D02*
X38190D01*
X38050Y45160D02*
Y45440D01*
X38560Y44350D02*
X38840D01*
X38700Y44210D02*
Y44490D01*
X28660Y54700D02*
X28940D01*
X28800Y54560D02*
Y54840D01*
X34010Y52550D02*
X34290D01*
X34150Y52410D02*
Y52690D01*
X30810Y51150D02*
X31090D01*
X30950Y51010D02*
Y51290D01*
X61511Y49243D02*
X62692D01*
X62102Y48652D02*
Y49833D01*
X59061Y49243D02*
X60242D01*
X59652Y48652D02*
Y49833D01*
X68761Y49243D02*
X69942D01*
X69352Y48652D02*
Y49833D01*
X51761Y49243D02*
X52942D01*
X52352Y48652D02*
Y49833D01*
X47889Y19983D02*
X48169D01*
X48029Y19843D02*
Y20123D01*
X43150Y20000D02*
X43430D01*
X43290Y19860D02*
Y20140D01*
X38385Y20009D02*
X38665D01*
X38525Y19869D02*
Y20149D01*
X33610Y20000D02*
X33890D01*
X33750Y19860D02*
Y20140D01*
X28860Y20000D02*
X29140D01*
X29000Y19860D02*
Y20140D01*
X24110Y20050D02*
X24390D01*
X24250Y19910D02*
Y20190D01*
X37360Y20100D02*
X37640D01*
X37500Y19960D02*
Y20240D01*
X34610Y44050D02*
X34890D01*
X34750Y43910D02*
Y44190D01*
X23460Y43800D02*
X23740D01*
X23600Y43660D02*
Y43940D01*
X24810Y44350D02*
X25090D01*
X24950Y44210D02*
Y44490D01*
X22910Y40200D02*
X23190D01*
X23050Y40060D02*
Y40340D01*
X25360Y41450D02*
X25640D01*
X25500Y41310D02*
Y41590D01*
X22910Y41950D02*
X23190D01*
X23050Y41810D02*
Y42090D01*
X74409Y11100D02*
X75591D01*
X75000Y10509D02*
Y11691D01*
X74409Y25550D02*
X75591D01*
X75000Y24959D02*
Y26141D01*
X63859Y11100D02*
X65041D01*
X64450Y10509D02*
Y11691D01*
X63859Y25550D02*
X65041D01*
X64450Y24959D02*
Y26141D01*
X50909Y11100D02*
X52091D01*
X51500Y10509D02*
Y11691D01*
X61559Y11100D02*
X62741D01*
X62150Y10509D02*
Y11691D01*
X50909Y25550D02*
X52091D01*
X51500Y24959D02*
Y26141D01*
X23010Y42800D02*
X23290D01*
X23150Y42660D02*
Y42940D01*
X27660Y39500D02*
X27940D01*
X27800Y39360D02*
Y39640D01*
X23110Y54100D02*
X23390D01*
X23250Y53960D02*
Y54240D01*
X25760Y42700D02*
X26040D01*
X25900Y42560D02*
Y42840D01*
X22710Y47450D02*
X22990D01*
X22850Y47310D02*
Y47590D01*
X24552Y53850D02*
X24832D01*
X24692Y53710D02*
Y53990D01*
X24010Y44350D02*
X24290D01*
X24150Y44210D02*
Y44490D01*
X27210Y40050D02*
X27490D01*
X27350Y39910D02*
Y40190D01*
X10157Y55984D02*
X11339D01*
X10748Y55394D02*
Y56575D01*
X11063Y11260D02*
X12244D01*
X11654Y10669D02*
Y11850D01*
M02*
